<?xml version="1.0" encoding="utf-8" standalone="no"?>
<!DOCTYPE svg PUBLIC "-//W3C//DTD SVG 1.1//EN"
  "http://www.w3.org/Graphics/SVG/1.1/DTD/svg11.dtd">
<svg xmlns:xlink="http://www.w3.org/1999/xlink" width="848.584062pt" height="486.527198pt" viewBox="0 0 848.584062 486.527198" xmlns="http://www.w3.org/2000/svg" version="1.1">
 <metadata>
  <rdf:RDF xmlns:dc="http://purl.org/dc/elements/1.1/" xmlns:cc="http://creativecommons.org/ns#" xmlns:rdf="http://www.w3.org/1999/02/22-rdf-syntax-ns#">
   <cc:Work>
    <dc:type rdf:resource="http://purl.org/dc/dcmitype/StillImage"/>
    <dc:date>2026-04-04T13:33:58.701515</dc:date>
    <dc:format>image/svg+xml</dc:format>
    <dc:creator>
     <cc:Agent>
      <dc:title>Matplotlib v3.10.5, https://matplotlib.org/</dc:title>
     </cc:Agent>
    </dc:creator>
   </cc:Work>
  </rdf:RDF>
 </metadata>
 <defs>
  <style type="text/css">*{stroke-linejoin: round; stroke-linecap: butt}</style>
 </defs>
 <g id="figure_1">
  <g id="patch_1">
   <path d="M 0 486.527198 
L 848.584062 486.527198 
L 848.584062 0 
L 0 0 
z
" style="fill: #ffffff"/>
  </g>
  <g id="axes_1">
   <g id="patch_2">
    <path d="M 58.60625 404.527587 
L 798.09625 404.527587 
L 798.09625 26.877187 
L 58.60625 26.877187 
z
" style="fill: #ffffff"/>
   </g>
   <g id="patch_3">
    <path d="M 92.219432 404.527587 
L 260.285341 404.527587 
L 260.285341 26.877187 
L 92.219432 26.877187 
z
" clip-path="url(#p9ef1e01003)" style="fill: #e0f7fa; opacity: 0.4; stroke: #e0f7fa; stroke-linejoin: miter"/>
   </g>
   <g id="patch_4">
    <path d="M 260.285341 404.527587 
L 663.643523 404.527587 
L 663.643523 26.877187 
L 260.285341 26.877187 
z
" clip-path="url(#p9ef1e01003)" style="fill: #fff8e1; opacity: 0.4; stroke: #fff8e1; stroke-linejoin: miter"/>
   </g>
   <g id="patch_5">
    <path d="M 663.643523 404.527587 
L 697.256705 404.527587 
L 697.256705 26.877187 
L 663.643523 26.877187 
z
" clip-path="url(#p9ef1e01003)" style="fill: #e0f7fa; opacity: 0.4; stroke: #e0f7fa; stroke-linejoin: miter"/>
   </g>
   <g id="patch_6">
    <path d="M 697.256705 404.527587 
L 764.483068 404.527587 
L 764.483068 26.877187 
L 697.256705 26.877187 
z
" clip-path="url(#p9ef1e01003)" style="fill: #cccccc; opacity: 0.4; stroke: #cccccc; stroke-linejoin: miter"/>
   </g>
   <g id="matplotlib.axis_1">
    <g id="xtick_1">
     <g id="line2d_1">
      <path d="M 75.412841 404.527587 
L 75.412841 26.877187 
" clip-path="url(#p9ef1e01003)" style="fill: none; stroke: #b0b0b0; stroke-opacity: 0.3; stroke-width: 0.8; stroke-linecap: square"/>
     </g>
     <g id="line2d_2">
      <defs>
       <path id="m20aaf90672" d="M 0 0 
L 0 3.5 
" style="stroke: #000000; stroke-width: 0.8"/>
      </defs>
      <g>
       <use xlink:href="#m20aaf90672" x="75.412841" y="404.527587" style="stroke: #000000; stroke-width: 0.8"/>
      </g>
     </g>
     <g id="text_1">
      <!-- 0 -->
      <g transform="translate(71.277216 421.405556) scale(0.13 -0.13)">
       <defs>
        <path id="DejaVuSans-30" d="M 2034 4250 
Q 1547 4250 1301 3770 
Q 1056 3291 1056 2328 
Q 1056 1369 1301 889 
Q 1547 409 2034 409 
Q 2525 409 2770 889 
Q 3016 1369 3016 2328 
Q 3016 3291 2770 3770 
Q 2525 4250 2034 4250 
z
M 2034 4750 
Q 2819 4750 3233 4129 
Q 3647 3509 3647 2328 
Q 3647 1150 3233 529 
Q 2819 -91 2034 -91 
Q 1250 -91 836 529 
Q 422 1150 422 2328 
Q 422 3509 836 4129 
Q 1250 4750 2034 4750 
z
" transform="scale(0.015625)"/>
       </defs>
       <use xlink:href="#DejaVuSans-30"/>
      </g>
     </g>
    </g>
    <g id="xtick_2">
     <g id="line2d_3">
      <path d="M 159.445795 404.527587 
L 159.445795 26.877187 
" clip-path="url(#p9ef1e01003)" style="fill: none; stroke: #b0b0b0; stroke-opacity: 0.3; stroke-width: 0.8; stroke-linecap: square"/>
     </g>
     <g id="line2d_4">
      <g>
       <use xlink:href="#m20aaf90672" x="159.445795" y="404.527587" style="stroke: #000000; stroke-width: 0.8"/>
      </g>
     </g>
     <g id="text_2">
      <!-- 10000 -->
      <g transform="translate(138.76767 421.405556) scale(0.13 -0.13)">
       <defs>
        <path id="DejaVuSans-31" d="M 794 531 
L 1825 531 
L 1825 4091 
L 703 3866 
L 703 4441 
L 1819 4666 
L 2450 4666 
L 2450 531 
L 3481 531 
L 3481 0 
L 794 0 
L 794 531 
z
" transform="scale(0.015625)"/>
       </defs>
       <use xlink:href="#DejaVuSans-31"/>
       <use xlink:href="#DejaVuSans-30" transform="translate(63.623047 0)"/>
       <use xlink:href="#DejaVuSans-30" transform="translate(127.246094 0)"/>
       <use xlink:href="#DejaVuSans-30" transform="translate(190.869141 0)"/>
       <use xlink:href="#DejaVuSans-30" transform="translate(254.492188 0)"/>
      </g>
     </g>
    </g>
    <g id="xtick_3">
     <g id="line2d_5">
      <path d="M 243.47875 404.527587 
L 243.47875 26.877187 
" clip-path="url(#p9ef1e01003)" style="fill: none; stroke: #b0b0b0; stroke-opacity: 0.3; stroke-width: 0.8; stroke-linecap: square"/>
     </g>
     <g id="line2d_6">
      <g>
       <use xlink:href="#m20aaf90672" x="243.47875" y="404.527587" style="stroke: #000000; stroke-width: 0.8"/>
      </g>
     </g>
     <g id="text_3">
      <!-- 20000 -->
      <g transform="translate(222.800625 421.405556) scale(0.13 -0.13)">
       <defs>
        <path id="DejaVuSans-32" d="M 1228 531 
L 3431 531 
L 3431 0 
L 469 0 
L 469 531 
Q 828 903 1448 1529 
Q 2069 2156 2228 2338 
Q 2531 2678 2651 2914 
Q 2772 3150 2772 3378 
Q 2772 3750 2511 3984 
Q 2250 4219 1831 4219 
Q 1534 4219 1204 4116 
Q 875 4013 500 3803 
L 500 4441 
Q 881 4594 1212 4672 
Q 1544 4750 1819 4750 
Q 2544 4750 2975 4387 
Q 3406 4025 3406 3419 
Q 3406 3131 3298 2873 
Q 3191 2616 2906 2266 
Q 2828 2175 2409 1742 
Q 1991 1309 1228 531 
z
" transform="scale(0.015625)"/>
       </defs>
       <use xlink:href="#DejaVuSans-32"/>
       <use xlink:href="#DejaVuSans-30" transform="translate(63.623047 0)"/>
       <use xlink:href="#DejaVuSans-30" transform="translate(127.246094 0)"/>
       <use xlink:href="#DejaVuSans-30" transform="translate(190.869141 0)"/>
       <use xlink:href="#DejaVuSans-30" transform="translate(254.492188 0)"/>
      </g>
     </g>
    </g>
    <g id="xtick_4">
     <g id="line2d_7">
      <path d="M 327.511705 404.527587 
L 327.511705 26.877187 
" clip-path="url(#p9ef1e01003)" style="fill: none; stroke: #b0b0b0; stroke-opacity: 0.3; stroke-width: 0.8; stroke-linecap: square"/>
     </g>
     <g id="line2d_8">
      <g>
       <use xlink:href="#m20aaf90672" x="327.511705" y="404.527587" style="stroke: #000000; stroke-width: 0.8"/>
      </g>
     </g>
     <g id="text_4">
      <!-- 30000 -->
      <g transform="translate(306.83358 421.405556) scale(0.13 -0.13)">
       <defs>
        <path id="DejaVuSans-33" d="M 2597 2516 
Q 3050 2419 3304 2112 
Q 3559 1806 3559 1356 
Q 3559 666 3084 287 
Q 2609 -91 1734 -91 
Q 1441 -91 1130 -33 
Q 819 25 488 141 
L 488 750 
Q 750 597 1062 519 
Q 1375 441 1716 441 
Q 2309 441 2620 675 
Q 2931 909 2931 1356 
Q 2931 1769 2642 2001 
Q 2353 2234 1838 2234 
L 1294 2234 
L 1294 2753 
L 1863 2753 
Q 2328 2753 2575 2939 
Q 2822 3125 2822 3475 
Q 2822 3834 2567 4026 
Q 2313 4219 1838 4219 
Q 1578 4219 1281 4162 
Q 984 4106 628 3988 
L 628 4550 
Q 988 4650 1302 4700 
Q 1616 4750 1894 4750 
Q 2613 4750 3031 4423 
Q 3450 4097 3450 3541 
Q 3450 3153 3228 2886 
Q 3006 2619 2597 2516 
z
" transform="scale(0.015625)"/>
       </defs>
       <use xlink:href="#DejaVuSans-33"/>
       <use xlink:href="#DejaVuSans-30" transform="translate(63.623047 0)"/>
       <use xlink:href="#DejaVuSans-30" transform="translate(127.246094 0)"/>
       <use xlink:href="#DejaVuSans-30" transform="translate(190.869141 0)"/>
       <use xlink:href="#DejaVuSans-30" transform="translate(254.492188 0)"/>
      </g>
     </g>
    </g>
    <g id="xtick_5">
     <g id="line2d_9">
      <path d="M 411.544659 404.527587 
L 411.544659 26.877187 
" clip-path="url(#p9ef1e01003)" style="fill: none; stroke: #b0b0b0; stroke-opacity: 0.3; stroke-width: 0.8; stroke-linecap: square"/>
     </g>
     <g id="line2d_10">
      <g>
       <use xlink:href="#m20aaf90672" x="411.544659" y="404.527587" style="stroke: #000000; stroke-width: 0.8"/>
      </g>
     </g>
     <g id="text_5">
      <!-- 40000 -->
      <g transform="translate(390.866534 421.405556) scale(0.13 -0.13)">
       <defs>
        <path id="DejaVuSans-34" d="M 2419 4116 
L 825 1625 
L 2419 1625 
L 2419 4116 
z
M 2253 4666 
L 3047 4666 
L 3047 1625 
L 3713 1625 
L 3713 1100 
L 3047 1100 
L 3047 0 
L 2419 0 
L 2419 1100 
L 313 1100 
L 313 1709 
L 2253 4666 
z
" transform="scale(0.015625)"/>
       </defs>
       <use xlink:href="#DejaVuSans-34"/>
       <use xlink:href="#DejaVuSans-30" transform="translate(63.623047 0)"/>
       <use xlink:href="#DejaVuSans-30" transform="translate(127.246094 0)"/>
       <use xlink:href="#DejaVuSans-30" transform="translate(190.869141 0)"/>
       <use xlink:href="#DejaVuSans-30" transform="translate(254.492188 0)"/>
      </g>
     </g>
    </g>
    <g id="xtick_6">
     <g id="line2d_11">
      <path d="M 495.577614 404.527587 
L 495.577614 26.877187 
" clip-path="url(#p9ef1e01003)" style="fill: none; stroke: #b0b0b0; stroke-opacity: 0.3; stroke-width: 0.8; stroke-linecap: square"/>
     </g>
     <g id="line2d_12">
      <g>
       <use xlink:href="#m20aaf90672" x="495.577614" y="404.527587" style="stroke: #000000; stroke-width: 0.8"/>
      </g>
     </g>
     <g id="text_6">
      <!-- 50000 -->
      <g transform="translate(474.899489 421.405556) scale(0.13 -0.13)">
       <defs>
        <path id="DejaVuSans-35" d="M 691 4666 
L 3169 4666 
L 3169 4134 
L 1269 4134 
L 1269 2991 
Q 1406 3038 1543 3061 
Q 1681 3084 1819 3084 
Q 2600 3084 3056 2656 
Q 3513 2228 3513 1497 
Q 3513 744 3044 326 
Q 2575 -91 1722 -91 
Q 1428 -91 1123 -41 
Q 819 9 494 109 
L 494 744 
Q 775 591 1075 516 
Q 1375 441 1709 441 
Q 2250 441 2565 725 
Q 2881 1009 2881 1497 
Q 2881 1984 2565 2268 
Q 2250 2553 1709 2553 
Q 1456 2553 1204 2497 
Q 953 2441 691 2322 
L 691 4666 
z
" transform="scale(0.015625)"/>
       </defs>
       <use xlink:href="#DejaVuSans-35"/>
       <use xlink:href="#DejaVuSans-30" transform="translate(63.623047 0)"/>
       <use xlink:href="#DejaVuSans-30" transform="translate(127.246094 0)"/>
       <use xlink:href="#DejaVuSans-30" transform="translate(190.869141 0)"/>
       <use xlink:href="#DejaVuSans-30" transform="translate(254.492188 0)"/>
      </g>
     </g>
    </g>
    <g id="xtick_7">
     <g id="line2d_13">
      <path d="M 579.610568 404.527587 
L 579.610568 26.877187 
" clip-path="url(#p9ef1e01003)" style="fill: none; stroke: #b0b0b0; stroke-opacity: 0.3; stroke-width: 0.8; stroke-linecap: square"/>
     </g>
     <g id="line2d_14">
      <g>
       <use xlink:href="#m20aaf90672" x="579.610568" y="404.527587" style="stroke: #000000; stroke-width: 0.8"/>
      </g>
     </g>
     <g id="text_7">
      <!-- 60000 -->
      <g transform="translate(558.932443 421.405556) scale(0.13 -0.13)">
       <defs>
        <path id="DejaVuSans-36" d="M 2113 2584 
Q 1688 2584 1439 2293 
Q 1191 2003 1191 1497 
Q 1191 994 1439 701 
Q 1688 409 2113 409 
Q 2538 409 2786 701 
Q 3034 994 3034 1497 
Q 3034 2003 2786 2293 
Q 2538 2584 2113 2584 
z
M 3366 4563 
L 3366 3988 
Q 3128 4100 2886 4159 
Q 2644 4219 2406 4219 
Q 1781 4219 1451 3797 
Q 1122 3375 1075 2522 
Q 1259 2794 1537 2939 
Q 1816 3084 2150 3084 
Q 2853 3084 3261 2657 
Q 3669 2231 3669 1497 
Q 3669 778 3244 343 
Q 2819 -91 2113 -91 
Q 1303 -91 875 529 
Q 447 1150 447 2328 
Q 447 3434 972 4092 
Q 1497 4750 2381 4750 
Q 2619 4750 2861 4703 
Q 3103 4656 3366 4563 
z
" transform="scale(0.015625)"/>
       </defs>
       <use xlink:href="#DejaVuSans-36"/>
       <use xlink:href="#DejaVuSans-30" transform="translate(63.623047 0)"/>
       <use xlink:href="#DejaVuSans-30" transform="translate(127.246094 0)"/>
       <use xlink:href="#DejaVuSans-30" transform="translate(190.869141 0)"/>
       <use xlink:href="#DejaVuSans-30" transform="translate(254.492188 0)"/>
      </g>
     </g>
    </g>
    <g id="xtick_8">
     <g id="line2d_15">
      <path d="M 663.643523 404.527587 
L 663.643523 26.877187 
" clip-path="url(#p9ef1e01003)" style="fill: none; stroke: #b0b0b0; stroke-opacity: 0.3; stroke-width: 0.8; stroke-linecap: square"/>
     </g>
     <g id="line2d_16">
      <g>
       <use xlink:href="#m20aaf90672" x="663.643523" y="404.527587" style="stroke: #000000; stroke-width: 0.8"/>
      </g>
     </g>
     <g id="text_8">
      <!-- 70000 -->
      <g transform="translate(642.965398 421.405556) scale(0.13 -0.13)">
       <defs>
        <path id="DejaVuSans-37" d="M 525 4666 
L 3525 4666 
L 3525 4397 
L 1831 0 
L 1172 0 
L 2766 4134 
L 525 4134 
L 525 4666 
z
" transform="scale(0.015625)"/>
       </defs>
       <use xlink:href="#DejaVuSans-37"/>
       <use xlink:href="#DejaVuSans-30" transform="translate(63.623047 0)"/>
       <use xlink:href="#DejaVuSans-30" transform="translate(127.246094 0)"/>
       <use xlink:href="#DejaVuSans-30" transform="translate(190.869141 0)"/>
       <use xlink:href="#DejaVuSans-30" transform="translate(254.492188 0)"/>
      </g>
     </g>
    </g>
    <g id="xtick_9">
     <g id="line2d_17">
      <path d="M 747.676477 404.527587 
L 747.676477 26.877187 
" clip-path="url(#p9ef1e01003)" style="fill: none; stroke: #b0b0b0; stroke-opacity: 0.3; stroke-width: 0.8; stroke-linecap: square"/>
     </g>
     <g id="line2d_18">
      <g>
       <use xlink:href="#m20aaf90672" x="747.676477" y="404.527587" style="stroke: #000000; stroke-width: 0.8"/>
      </g>
     </g>
     <g id="text_9">
      <!-- 80000 -->
      <g transform="translate(726.998352 421.405556) scale(0.13 -0.13)">
       <defs>
        <path id="DejaVuSans-38" d="M 2034 2216 
Q 1584 2216 1326 1975 
Q 1069 1734 1069 1313 
Q 1069 891 1326 650 
Q 1584 409 2034 409 
Q 2484 409 2743 651 
Q 3003 894 3003 1313 
Q 3003 1734 2745 1975 
Q 2488 2216 2034 2216 
z
M 1403 2484 
Q 997 2584 770 2862 
Q 544 3141 544 3541 
Q 544 4100 942 4425 
Q 1341 4750 2034 4750 
Q 2731 4750 3128 4425 
Q 3525 4100 3525 3541 
Q 3525 3141 3298 2862 
Q 3072 2584 2669 2484 
Q 3125 2378 3379 2068 
Q 3634 1759 3634 1313 
Q 3634 634 3220 271 
Q 2806 -91 2034 -91 
Q 1263 -91 848 271 
Q 434 634 434 1313 
Q 434 1759 690 2068 
Q 947 2378 1403 2484 
z
M 1172 3481 
Q 1172 3119 1398 2916 
Q 1625 2713 2034 2713 
Q 2441 2713 2670 2916 
Q 2900 3119 2900 3481 
Q 2900 3844 2670 4047 
Q 2441 4250 2034 4250 
Q 1625 4250 1398 4047 
Q 1172 3844 1172 3481 
z
" transform="scale(0.015625)"/>
       </defs>
       <use xlink:href="#DejaVuSans-38"/>
       <use xlink:href="#DejaVuSans-30" transform="translate(63.623047 0)"/>
       <use xlink:href="#DejaVuSans-30" transform="translate(127.246094 0)"/>
       <use xlink:href="#DejaVuSans-30" transform="translate(190.869141 0)"/>
       <use xlink:href="#DejaVuSans-30" transform="translate(254.492188 0)"/>
      </g>
     </g>
    </g>
    <g id="text_10">
     <!-- Episode -->
     <g transform="translate(393.0075 440.26665) scale(0.16 -0.16)">
      <defs>
       <path id="DejaVuSans-Bold-45" d="M 588 4666 
L 3834 4666 
L 3834 3756 
L 1791 3756 
L 1791 2888 
L 3713 2888 
L 3713 1978 
L 1791 1978 
L 1791 909 
L 3903 909 
L 3903 0 
L 588 0 
L 588 4666 
z
" transform="scale(0.015625)"/>
       <path id="DejaVuSans-Bold-70" d="M 1656 506 
L 1656 -1331 
L 538 -1331 
L 538 3500 
L 1656 3500 
L 1656 2988 
Q 1888 3294 2169 3439 
Q 2450 3584 2816 3584 
Q 3463 3584 3878 3070 
Q 4294 2556 4294 1747 
Q 4294 938 3878 423 
Q 3463 -91 2816 -91 
Q 2450 -91 2169 54 
Q 1888 200 1656 506 
z
M 2400 2772 
Q 2041 2772 1848 2508 
Q 1656 2244 1656 1747 
Q 1656 1250 1848 986 
Q 2041 722 2400 722 
Q 2759 722 2948 984 
Q 3138 1247 3138 1747 
Q 3138 2247 2948 2509 
Q 2759 2772 2400 2772 
z
" transform="scale(0.015625)"/>
       <path id="DejaVuSans-Bold-69" d="M 538 3500 
L 1656 3500 
L 1656 0 
L 538 0 
L 538 3500 
z
M 538 4863 
L 1656 4863 
L 1656 3950 
L 538 3950 
L 538 4863 
z
" transform="scale(0.015625)"/>
       <path id="DejaVuSans-Bold-73" d="M 3272 3391 
L 3272 2541 
Q 2913 2691 2578 2766 
Q 2244 2841 1947 2841 
Q 1628 2841 1473 2761 
Q 1319 2681 1319 2516 
Q 1319 2381 1436 2309 
Q 1553 2238 1856 2203 
L 2053 2175 
Q 2913 2066 3209 1816 
Q 3506 1566 3506 1031 
Q 3506 472 3093 190 
Q 2681 -91 1863 -91 
Q 1516 -91 1145 -36 
Q 775 19 384 128 
L 384 978 
Q 719 816 1070 734 
Q 1422 653 1784 653 
Q 2113 653 2278 743 
Q 2444 834 2444 1013 
Q 2444 1163 2330 1236 
Q 2216 1309 1875 1350 
L 1678 1375 
Q 931 1469 631 1722 
Q 331 1975 331 2491 
Q 331 3047 712 3315 
Q 1094 3584 1881 3584 
Q 2191 3584 2531 3537 
Q 2872 3491 3272 3391 
z
" transform="scale(0.015625)"/>
       <path id="DejaVuSans-Bold-6f" d="M 2203 2784 
Q 1831 2784 1636 2517 
Q 1441 2250 1441 1747 
Q 1441 1244 1636 976 
Q 1831 709 2203 709 
Q 2569 709 2762 976 
Q 2956 1244 2956 1747 
Q 2956 2250 2762 2517 
Q 2569 2784 2203 2784 
z
M 2203 3584 
Q 3106 3584 3614 3096 
Q 4122 2609 4122 1747 
Q 4122 884 3614 396 
Q 3106 -91 2203 -91 
Q 1297 -91 786 396 
Q 275 884 275 1747 
Q 275 2609 786 3096 
Q 1297 3584 2203 3584 
z
" transform="scale(0.015625)"/>
       <path id="DejaVuSans-Bold-64" d="M 2919 2988 
L 2919 4863 
L 4044 4863 
L 4044 0 
L 2919 0 
L 2919 506 
Q 2688 197 2409 53 
Q 2131 -91 1766 -91 
Q 1119 -91 703 423 
Q 288 938 288 1747 
Q 288 2556 703 3070 
Q 1119 3584 1766 3584 
Q 2128 3584 2408 3439 
Q 2688 3294 2919 2988 
z
M 2181 722 
Q 2541 722 2730 984 
Q 2919 1247 2919 1747 
Q 2919 2247 2730 2509 
Q 2541 2772 2181 2772 
Q 1825 2772 1636 2509 
Q 1447 2247 1447 1747 
Q 1447 1247 1636 984 
Q 1825 722 2181 722 
z
" transform="scale(0.015625)"/>
       <path id="DejaVuSans-Bold-65" d="M 4031 1759 
L 4031 1441 
L 1416 1441 
Q 1456 1047 1700 850 
Q 1944 653 2381 653 
Q 2734 653 3104 758 
Q 3475 863 3866 1075 
L 3866 213 
Q 3469 63 3072 -14 
Q 2675 -91 2278 -91 
Q 1328 -91 801 392 
Q 275 875 275 1747 
Q 275 2603 792 3093 
Q 1309 3584 2216 3584 
Q 3041 3584 3536 3087 
Q 4031 2591 4031 1759 
z
M 2881 2131 
Q 2881 2450 2695 2645 
Q 2509 2841 2209 2841 
Q 1884 2841 1681 2658 
Q 1478 2475 1428 2131 
L 2881 2131 
z
" transform="scale(0.015625)"/>
      </defs>
      <use xlink:href="#DejaVuSans-Bold-45"/>
      <use xlink:href="#DejaVuSans-Bold-70" transform="translate(68.310547 0)"/>
      <use xlink:href="#DejaVuSans-Bold-69" transform="translate(139.892578 0)"/>
      <use xlink:href="#DejaVuSans-Bold-73" transform="translate(174.169922 0)"/>
      <use xlink:href="#DejaVuSans-Bold-6f" transform="translate(233.691406 0)"/>
      <use xlink:href="#DejaVuSans-Bold-64" transform="translate(302.392578 0)"/>
      <use xlink:href="#DejaVuSans-Bold-65" transform="translate(373.974609 0)"/>
     </g>
    </g>
   </g>
   <g id="matplotlib.axis_2">
    <g id="ytick_1">
     <g id="line2d_19">
      <path d="M 58.60625 388.792154 
L 798.09625 388.792154 
" clip-path="url(#p9ef1e01003)" style="fill: none; stroke: #b0b0b0; stroke-opacity: 0.3; stroke-width: 0.8; stroke-linecap: square"/>
     </g>
     <g id="line2d_20">
      <defs>
       <path id="ma635202d4c" d="M 0 0 
L -3.5 0 
" style="stroke: #000000; stroke-width: 0.8"/>
      </defs>
      <g>
       <use xlink:href="#ma635202d4c" x="58.60625" y="388.792154" style="stroke: #000000; stroke-width: 0.8"/>
      </g>
     </g>
     <g id="text_11">
      <!-- 0 -->
      <g transform="translate(43.335 393.731139) scale(0.13 -0.13)">
       <use xlink:href="#DejaVuSans-30"/>
      </g>
     </g>
    </g>
    <g id="ytick_2">
     <g id="line2d_21">
      <path d="M 58.60625 325.850421 
L 798.09625 325.850421 
" clip-path="url(#p9ef1e01003)" style="fill: none; stroke: #b0b0b0; stroke-opacity: 0.3; stroke-width: 0.8; stroke-linecap: square"/>
     </g>
     <g id="line2d_22">
      <g>
       <use xlink:href="#ma635202d4c" x="58.60625" y="325.850421" style="stroke: #000000; stroke-width: 0.8"/>
      </g>
     </g>
     <g id="text_12">
      <!-- 20 -->
      <g transform="translate(35.06375 330.789405) scale(0.13 -0.13)">
       <use xlink:href="#DejaVuSans-32"/>
       <use xlink:href="#DejaVuSans-30" transform="translate(63.623047 0)"/>
      </g>
     </g>
    </g>
    <g id="ytick_3">
     <g id="line2d_23">
      <path d="M 58.60625 262.908687 
L 798.09625 262.908687 
" clip-path="url(#p9ef1e01003)" style="fill: none; stroke: #b0b0b0; stroke-opacity: 0.3; stroke-width: 0.8; stroke-linecap: square"/>
     </g>
     <g id="line2d_24">
      <g>
       <use xlink:href="#ma635202d4c" x="58.60625" y="262.908687" style="stroke: #000000; stroke-width: 0.8"/>
      </g>
     </g>
     <g id="text_13">
      <!-- 40 -->
      <g transform="translate(35.06375 267.847672) scale(0.13 -0.13)">
       <use xlink:href="#DejaVuSans-34"/>
       <use xlink:href="#DejaVuSans-30" transform="translate(63.623047 0)"/>
      </g>
     </g>
    </g>
    <g id="ytick_4">
     <g id="line2d_25">
      <path d="M 58.60625 199.966954 
L 798.09625 199.966954 
" clip-path="url(#p9ef1e01003)" style="fill: none; stroke: #b0b0b0; stroke-opacity: 0.3; stroke-width: 0.8; stroke-linecap: square"/>
     </g>
     <g id="line2d_26">
      <g>
       <use xlink:href="#ma635202d4c" x="58.60625" y="199.966954" style="stroke: #000000; stroke-width: 0.8"/>
      </g>
     </g>
     <g id="text_14">
      <!-- 60 -->
      <g transform="translate(35.06375 204.905939) scale(0.13 -0.13)">
       <use xlink:href="#DejaVuSans-36"/>
       <use xlink:href="#DejaVuSans-30" transform="translate(63.623047 0)"/>
      </g>
     </g>
    </g>
    <g id="ytick_5">
     <g id="line2d_27">
      <path d="M 58.60625 137.025221 
L 798.09625 137.025221 
" clip-path="url(#p9ef1e01003)" style="fill: none; stroke: #b0b0b0; stroke-opacity: 0.3; stroke-width: 0.8; stroke-linecap: square"/>
     </g>
     <g id="line2d_28">
      <g>
       <use xlink:href="#ma635202d4c" x="58.60625" y="137.025221" style="stroke: #000000; stroke-width: 0.8"/>
      </g>
     </g>
     <g id="text_15">
      <!-- 80 -->
      <g transform="translate(35.06375 141.964205) scale(0.13 -0.13)">
       <use xlink:href="#DejaVuSans-38"/>
       <use xlink:href="#DejaVuSans-30" transform="translate(63.623047 0)"/>
      </g>
     </g>
    </g>
    <g id="ytick_6">
     <g id="line2d_29">
      <path d="M 58.60625 74.083487 
L 798.09625 74.083487 
" clip-path="url(#p9ef1e01003)" style="fill: none; stroke: #b0b0b0; stroke-opacity: 0.3; stroke-width: 0.8; stroke-linecap: square"/>
     </g>
     <g id="line2d_30">
      <g>
       <use xlink:href="#ma635202d4c" x="58.60625" y="74.083487" style="stroke: #000000; stroke-width: 0.8"/>
      </g>
     </g>
     <g id="text_16">
      <!-- 100 -->
      <g transform="translate(26.7925 79.022472) scale(0.13 -0.13)">
       <use xlink:href="#DejaVuSans-31"/>
       <use xlink:href="#DejaVuSans-30" transform="translate(63.623047 0)"/>
       <use xlink:href="#DejaVuSans-30" transform="translate(127.246094 0)"/>
      </g>
     </g>
    </g>
    <g id="text_17">
     <!-- Percentage (%) -->
     <g transform="translate(19.34 285.289887) rotate(-90) scale(0.16 -0.16)">
      <defs>
       <path id="DejaVuSans-Bold-50" d="M 588 4666 
L 2584 4666 
Q 3475 4666 3951 4270 
Q 4428 3875 4428 3144 
Q 4428 2409 3951 2014 
Q 3475 1619 2584 1619 
L 1791 1619 
L 1791 0 
L 588 0 
L 588 4666 
z
M 1791 3794 
L 1791 2491 
L 2456 2491 
Q 2806 2491 2997 2661 
Q 3188 2831 3188 3144 
Q 3188 3456 2997 3625 
Q 2806 3794 2456 3794 
L 1791 3794 
z
" transform="scale(0.015625)"/>
       <path id="DejaVuSans-Bold-72" d="M 3138 2547 
Q 2991 2616 2845 2648 
Q 2700 2681 2553 2681 
Q 2122 2681 1889 2404 
Q 1656 2128 1656 1613 
L 1656 0 
L 538 0 
L 538 3500 
L 1656 3500 
L 1656 2925 
Q 1872 3269 2151 3426 
Q 2431 3584 2822 3584 
Q 2878 3584 2943 3579 
Q 3009 3575 3134 3559 
L 3138 2547 
z
" transform="scale(0.015625)"/>
       <path id="DejaVuSans-Bold-63" d="M 3366 3391 
L 3366 2478 
Q 3138 2634 2908 2709 
Q 2678 2784 2431 2784 
Q 1963 2784 1702 2511 
Q 1441 2238 1441 1747 
Q 1441 1256 1702 982 
Q 1963 709 2431 709 
Q 2694 709 2930 787 
Q 3166 866 3366 1019 
L 3366 103 
Q 3103 6 2833 -42 
Q 2563 -91 2291 -91 
Q 1344 -91 809 395 
Q 275 881 275 1747 
Q 275 2613 809 3098 
Q 1344 3584 2291 3584 
Q 2566 3584 2833 3536 
Q 3100 3488 3366 3391 
z
" transform="scale(0.015625)"/>
       <path id="DejaVuSans-Bold-6e" d="M 4056 2131 
L 4056 0 
L 2931 0 
L 2931 347 
L 2931 1631 
Q 2931 2084 2911 2256 
Q 2891 2428 2841 2509 
Q 2775 2619 2662 2680 
Q 2550 2741 2406 2741 
Q 2056 2741 1856 2470 
Q 1656 2200 1656 1722 
L 1656 0 
L 538 0 
L 538 3500 
L 1656 3500 
L 1656 2988 
Q 1909 3294 2193 3439 
Q 2478 3584 2822 3584 
Q 3428 3584 3742 3212 
Q 4056 2841 4056 2131 
z
" transform="scale(0.015625)"/>
       <path id="DejaVuSans-Bold-74" d="M 1759 4494 
L 1759 3500 
L 2913 3500 
L 2913 2700 
L 1759 2700 
L 1759 1216 
Q 1759 972 1856 886 
Q 1953 800 2241 800 
L 2816 800 
L 2816 0 
L 1856 0 
Q 1194 0 917 276 
Q 641 553 641 1216 
L 641 2700 
L 84 2700 
L 84 3500 
L 641 3500 
L 641 4494 
L 1759 4494 
z
" transform="scale(0.015625)"/>
       <path id="DejaVuSans-Bold-61" d="M 2106 1575 
Q 1756 1575 1579 1456 
Q 1403 1338 1403 1106 
Q 1403 894 1545 773 
Q 1688 653 1941 653 
Q 2256 653 2472 879 
Q 2688 1106 2688 1447 
L 2688 1575 
L 2106 1575 
z
M 3816 1997 
L 3816 0 
L 2688 0 
L 2688 519 
Q 2463 200 2181 54 
Q 1900 -91 1497 -91 
Q 953 -91 614 226 
Q 275 544 275 1050 
Q 275 1666 698 1953 
Q 1122 2241 2028 2241 
L 2688 2241 
L 2688 2328 
Q 2688 2594 2478 2717 
Q 2269 2841 1825 2841 
Q 1466 2841 1156 2769 
Q 847 2697 581 2553 
L 581 3406 
Q 941 3494 1303 3539 
Q 1666 3584 2028 3584 
Q 2975 3584 3395 3211 
Q 3816 2838 3816 1997 
z
" transform="scale(0.015625)"/>
       <path id="DejaVuSans-Bold-67" d="M 2919 594 
Q 2688 288 2409 144 
Q 2131 0 1766 0 
Q 1125 0 706 504 
Q 288 1009 288 1791 
Q 288 2575 706 3076 
Q 1125 3578 1766 3578 
Q 2131 3578 2409 3434 
Q 2688 3291 2919 2981 
L 2919 3500 
L 4044 3500 
L 4044 353 
Q 4044 -491 3511 -936 
Q 2978 -1381 1966 -1381 
Q 1638 -1381 1331 -1331 
Q 1025 -1281 716 -1178 
L 716 -306 
Q 1009 -475 1290 -558 
Q 1572 -641 1856 -641 
Q 2406 -641 2662 -400 
Q 2919 -159 2919 353 
L 2919 594 
z
M 2181 2772 
Q 1834 2772 1640 2515 
Q 1447 2259 1447 1791 
Q 1447 1309 1634 1061 
Q 1822 813 2181 813 
Q 2531 813 2725 1069 
Q 2919 1325 2919 1791 
Q 2919 2259 2725 2515 
Q 2531 2772 2181 2772 
z
" transform="scale(0.015625)"/>
       <path id="DejaVuSans-Bold-20" transform="scale(0.015625)"/>
       <path id="DejaVuSans-Bold-28" d="M 2413 -844 
L 1484 -844 
Q 1006 -72 778 623 
Q 550 1319 550 2003 
Q 550 2688 779 3389 
Q 1009 4091 1484 4856 
L 2413 4856 
Q 2013 4116 1813 3408 
Q 1613 2700 1613 2009 
Q 1613 1319 1811 609 
Q 2009 -100 2413 -844 
z
" transform="scale(0.015625)"/>
       <path id="DejaVuSans-Bold-25" d="M 4959 1925 
Q 4738 1925 4616 1733 
Q 4494 1541 4494 1184 
Q 4494 825 4614 633 
Q 4734 441 4959 441 
Q 5184 441 5303 633 
Q 5422 825 5422 1184 
Q 5422 1541 5301 1733 
Q 5181 1925 4959 1925 
z
M 4959 2450 
Q 5541 2450 5875 2112 
Q 6209 1775 6209 1184 
Q 6209 594 5875 251 
Q 5541 -91 4959 -91 
Q 4378 -91 4042 251 
Q 3706 594 3706 1184 
Q 3706 1772 4042 2111 
Q 4378 2450 4959 2450 
z
M 2094 -91 
L 1403 -91 
L 4319 4750 
L 5013 4750 
L 2094 -91 
z
M 1453 4750 
Q 2034 4750 2367 4411 
Q 2700 4072 2700 3481 
Q 2700 2891 2367 2550 
Q 2034 2209 1453 2209 
Q 872 2209 539 2550 
Q 206 2891 206 3481 
Q 206 4072 539 4411 
Q 872 4750 1453 4750 
z
M 1453 4225 
Q 1228 4225 1106 4031 
Q 984 3838 984 3481 
Q 984 3122 1106 2926 
Q 1228 2731 1453 2731 
Q 1678 2731 1798 2926 
Q 1919 3122 1919 3481 
Q 1919 3838 1797 4031 
Q 1675 4225 1453 4225 
z
" transform="scale(0.015625)"/>
       <path id="DejaVuSans-Bold-29" d="M 513 -844 
Q 913 -100 1113 609 
Q 1313 1319 1313 2009 
Q 1313 2700 1113 3408 
Q 913 4116 513 4856 
L 1441 4856 
Q 1916 4091 2145 3389 
Q 2375 2688 2375 2003 
Q 2375 1319 2147 623 
Q 1919 -72 1441 -844 
L 513 -844 
z
" transform="scale(0.015625)"/>
      </defs>
      <use xlink:href="#DejaVuSans-Bold-50"/>
      <use xlink:href="#DejaVuSans-Bold-65" transform="translate(73.291016 0)"/>
      <use xlink:href="#DejaVuSans-Bold-72" transform="translate(141.113281 0)"/>
      <use xlink:href="#DejaVuSans-Bold-63" transform="translate(190.429688 0)"/>
      <use xlink:href="#DejaVuSans-Bold-65" transform="translate(249.707031 0)"/>
      <use xlink:href="#DejaVuSans-Bold-6e" transform="translate(317.529297 0)"/>
      <use xlink:href="#DejaVuSans-Bold-74" transform="translate(388.720703 0)"/>
      <use xlink:href="#DejaVuSans-Bold-61" transform="translate(436.523438 0)"/>
      <use xlink:href="#DejaVuSans-Bold-67" transform="translate(504.003906 0)"/>
      <use xlink:href="#DejaVuSans-Bold-65" transform="translate(575.585938 0)"/>
      <use xlink:href="#DejaVuSans-Bold-20" transform="translate(643.408203 0)"/>
      <use xlink:href="#DejaVuSans-Bold-28" transform="translate(678.222656 0)"/>
      <use xlink:href="#DejaVuSans-Bold-25" transform="translate(723.925781 0)"/>
      <use xlink:href="#DejaVuSans-Bold-29" transform="translate(824.121094 0)"/>
     </g>
    </g>
   </g>
   <g id="line2d_31">
    <path d="M 92.219432 190.525694 
L 109.026023 163.775457 
L 125.832614 159.054827 
L 142.639205 156.694512 
L 159.445795 155.907741 
L 176.252386 154.334197 
L 193.058977 151.861487 
L 209.865568 155.120969 
L 226.672159 155.208388 
L 243.47875 154.019489 
L 260.285341 172.501471 
L 277.091932 183.182492 
L 293.898523 197.788202 
L 310.705114 207.160295 
L 327.511705 218.849474 
L 344.318295 227.110577 
L 361.124886 233.659294 
L 377.931477 237.20748 
L 394.738068 240.547809 
L 411.544659 245.914419 
L 428.35125 252.680656 
L 445.157841 257.55864 
L 461.964432 263.38075 
L 478.771023 268.573443 
L 495.577614 274.080845 
L 512.384205 280.06031 
L 529.190795 285.725066 
L 545.997386 289.029507 
L 562.803977 293.435428 
L 579.610568 297.841349 
L 596.417159 292.648656 
L 613.22375 289.344215 
L 630.030341 282.735333 
L 646.836932 279.116184 
L 663.643523 266.9999 
L 680.450114 255.513034 
L 697.256705 258.030703 
L 714.063295 262.593979 
L 730.869886 266.9999 
L 747.676477 269.045506 
L 764.483068 272.192593 
" clip-path="url(#p9ef1e01003)" style="fill: none; stroke: #2ecc71; stroke-width: 1.5; stroke-linecap: square"/>
   </g>
   <g id="line2d_32">
    <path d="M 92.219432 190.525694 
L 109.026023 137.025221 
L 125.832614 149.613567 
L 142.639205 149.613567 
L 159.445795 152.760654 
L 176.252386 146.466481 
L 193.058977 137.025221 
L 209.865568 177.937347 
L 226.672159 155.907741 
L 243.47875 143.319394 
L 260.285341 357.321287 
L 277.091932 300.673727 
L 293.898523 373.056721 
L 310.705114 328.997507 
L 327.511705 382.497981 
L 344.318295 351.027114 
L 361.124886 338.438767 
L 377.931477 297.526641 
L 394.738068 300.673727 
L 411.544659 347.880027 
L 428.35125 325.850421 
L 445.157841 234.584907 
L 461.964432 266.055774 
L 478.771023 253.467427 
L 495.577614 262.908687 
L 512.384205 266.055774 
L 529.190795 250.320341 
L 545.997386 244.026167 
L 562.803977 244.026167 
L 579.610568 231.437821 
L 596.417159 253.467427 
L 613.22375 234.584907 
L 630.030341 240.879081 
L 646.836932 256.614514 
L 663.643523 140.172307 
L 680.450114 121.289787 
L 697.256705 388.792154 
L 714.063295 388.792154 
L 730.869886 388.792154 
L 747.676477 388.792154 
L 764.483068 388.792154 
" clip-path="url(#p9ef1e01003)" style="fill: none; stroke: #2ecc71; stroke-opacity: 0.1; stroke-width: 2.5; stroke-linecap: square"/>
   </g>
   <g id="line2d_33">
    <path d="M 92.219432 354.174201 
L 109.026023 362.041917 
L 125.832614 361.517403 
L 142.639205 362.828689 
L 159.445795 361.097791 
L 176.252386 363.090946 
L 193.058977 363.165877 
L 209.865568 362.435303 
L 226.672159 360.118698 
L 243.47875 359.209539 
L 260.285341 347.30783 
L 277.091932 334.504909 
L 293.898523 317.619579 
L 310.705114 306.743109 
L 327.511705 291.652079 
L 344.318295 282.184593 
L 361.124886 274.016052 
L 377.931477 267.978994 
L 394.738068 262.411779 
L 411.544659 255.040971 
L 428.35125 244.183522 
L 445.157841 237.259931 
L 461.964432 229.077506 
L 478.771023 221.209789 
L 495.577614 213.499427 
L 512.384205 204.687584 
L 529.190795 198.236056 
L 545.997386 191.312466 
L 562.803977 185.175647 
L 579.610568 179.196182 
L 596.417159 178.252056 
L 613.22375 179.982954 
L 630.030341 185.333001 
L 646.836932 187.378607 
L 663.643523 199.966954 
L 680.450114 210.194986 
L 697.256705 206.73319 
L 714.063295 202.169915 
L 730.869886 197.763993 
L 747.676477 195.718387 
L 764.483068 192.5713 
" clip-path="url(#p9ef1e01003)" style="fill: none; stroke: #f39c12; stroke-width: 1.5; stroke-linecap: square"/>
   </g>
   <g id="line2d_34">
    <path d="M 92.219432 354.174201 
L 109.026023 369.909634 
L 125.832614 360.468374 
L 142.639205 366.762547 
L 159.445795 354.174201 
L 176.252386 373.056721 
L 193.058977 363.615461 
L 209.865568 357.321287 
L 226.672159 341.585854 
L 243.47875 351.027114 
L 260.285341 228.290734 
L 277.091932 193.672781 
L 293.898523 114.995614 
L 310.705114 165.349001 
L 327.511705 80.377661 
L 344.318295 140.172307 
L 361.124886 143.319394 
L 377.931477 165.349001 
L 394.738068 162.201914 
L 411.544659 114.995614 
L 428.35125 137.025221 
L 445.157841 231.437821 
L 461.964432 196.819867 
L 478.771023 209.408214 
L 495.577614 199.966954 
L 512.384205 196.819867 
L 529.190795 234.584907 
L 545.997386 218.849474 
L 562.803977 218.849474 
L 579.610568 231.437821 
L 596.417159 209.408214 
L 613.22375 228.290734 
L 630.030341 221.996561 
L 646.836932 206.261127 
L 663.643523 332.144594 
L 680.450114 344.732941 
L 697.256705 74.083487 
L 714.063295 74.083487 
L 730.869886 74.083487 
L 747.676477 74.083487 
L 764.483068 74.083487 
" clip-path="url(#p9ef1e01003)" style="fill: none; stroke: #f39c12; stroke-opacity: 0.1; stroke-width: 2.5; stroke-linecap: square"/>
   </g>
   <g id="line2d_35">
    <path d="M 92.219432 306.967901 
L 109.026023 325.850421 
L 125.832614 331.095565 
L 142.639205 332.144594 
L 159.445795 334.662263 
L 176.252386 334.242652 
L 193.058977 336.640432 
L 209.865568 334.111523 
L 226.672159 336.34071 
L 243.47875 338.438767 
L 260.285341 331.858495 
L 277.091932 333.980395 
L 293.898523 336.260015 
L 310.705114 337.764392 
L 327.511705 341.166243 
L 344.318295 342.372626 
L 361.124886 343.99245 
L 377.931477 346.481322 
L 394.738068 348.708208 
L 411.544659 350.712405 
L 428.35125 354.803618 
L 445.157841 356.849224 
L 461.964432 359.209539 
L 478.771023 361.884563 
L 495.577614 364.087524 
L 512.384205 366.919902 
L 529.190795 367.706673 
L 545.997386 371.325823 
L 562.803977 373.056721 
L 579.610568 374.630264 
L 596.417159 380.767083 
L 613.22375 382.340626 
L 630.030341 383.599461 
L 646.836932 385.173004 
L 663.643523 384.700941 
L 680.450114 385.959776 
L 697.256705 386.903902 
L 714.063295 386.903902 
L 730.869886 386.903902 
L 747.676477 386.903902 
L 764.483068 386.903902 
" clip-path="url(#p9ef1e01003)" style="fill: none; stroke: #e74c3c; stroke-width: 1.5; stroke-linecap: square"/>
   </g>
   <g id="line2d_36">
    <path d="M 92.219432 306.967901 
L 109.026023 344.732941 
L 125.832614 341.585854 
L 142.639205 335.291681 
L 159.445795 344.732941 
L 176.252386 332.144594 
L 193.058977 351.027114 
L 209.865568 316.409161 
L 226.672159 354.174201 
L 243.47875 357.321287 
L 260.285341 266.055774 
L 277.091932 357.321287 
L 293.898523 363.615461 
L 310.705114 357.321287 
L 327.511705 388.792154 
L 344.318295 360.468374 
L 361.124886 369.909634 
L 377.931477 388.792154 
L 394.738068 388.792154 
L 411.544659 388.792154 
L 428.35125 388.792154 
L 445.157841 385.645067 
L 461.964432 388.792154 
L 478.771023 388.792154 
L 495.577614 388.792154 
L 512.384205 388.792154 
L 529.190795 366.762547 
L 545.997386 388.792154 
L 562.803977 388.792154 
L 579.610568 388.792154 
L 596.417159 388.792154 
L 613.22375 388.792154 
L 630.030341 388.792154 
L 646.836932 388.792154 
L 663.643523 379.350894 
L 680.450114 385.645067 
L 697.256705 388.792154 
L 714.063295 388.792154 
L 730.869886 388.792154 
L 747.676477 388.792154 
L 764.483068 388.792154 
" clip-path="url(#p9ef1e01003)" style="fill: none; stroke: #e74c3c; stroke-opacity: 0.1; stroke-width: 2.5; stroke-linecap: square"/>
   </g>
   <g id="patch_7">
    <path d="M 58.60625 404.527587 
L 58.60625 26.877187 
" style="fill: none; stroke: #000000; stroke-width: 1.5; stroke-linejoin: miter; stroke-linecap: square"/>
   </g>
   <g id="patch_8">
    <path d="M 798.09625 404.527587 
L 798.09625 26.877187 
" style="fill: none; stroke: #000000; stroke-width: 1.5; stroke-linejoin: miter; stroke-linecap: square"/>
   </g>
   <g id="patch_9">
    <path d="M 58.60625 404.527587 
L 798.09625 404.527587 
" style="fill: none; stroke: #000000; stroke-width: 1.5; stroke-linejoin: miter; stroke-linecap: square"/>
   </g>
   <g id="patch_10">
    <path d="M 58.60625 26.877187 
L 798.09625 26.877187 
" style="fill: none; stroke: #000000; stroke-width: 1.5; stroke-linejoin: miter; stroke-linecap: square"/>
   </g>
   <g id="text_18">
    <!-- VS RANDOM -->
    <g style="fill: #006064; opacity: 0.9" transform="translate(138.31098 65.501658) scale(0.11 -0.11)">
     <defs>
      <path id="DejaVuSans-Bold-56" d="M 31 4666 
L 1241 4666 
L 2478 1222 
L 3713 4666 
L 4922 4666 
L 3194 0 
L 1759 0 
L 31 4666 
z
" transform="scale(0.015625)"/>
      <path id="DejaVuSans-Bold-53" d="M 3834 4519 
L 3834 3531 
Q 3450 3703 3084 3790 
Q 2719 3878 2394 3878 
Q 1963 3878 1756 3759 
Q 1550 3641 1550 3391 
Q 1550 3203 1689 3098 
Q 1828 2994 2194 2919 
L 2706 2816 
Q 3484 2659 3812 2340 
Q 4141 2022 4141 1434 
Q 4141 663 3683 286 
Q 3225 -91 2284 -91 
Q 1841 -91 1394 -6 
Q 947 78 500 244 
L 500 1259 
Q 947 1022 1364 901 
Q 1781 781 2169 781 
Q 2563 781 2772 912 
Q 2981 1044 2981 1288 
Q 2981 1506 2839 1625 
Q 2697 1744 2272 1838 
L 1806 1941 
Q 1106 2091 782 2419 
Q 459 2747 459 3303 
Q 459 4000 909 4375 
Q 1359 4750 2203 4750 
Q 2588 4750 2994 4692 
Q 3400 4634 3834 4519 
z
" transform="scale(0.015625)"/>
      <path id="DejaVuSans-Bold-52" d="M 2297 2597 
Q 2675 2597 2839 2737 
Q 3003 2878 3003 3200 
Q 3003 3519 2839 3656 
Q 2675 3794 2297 3794 
L 1791 3794 
L 1791 2597 
L 2297 2597 
z
M 1791 1766 
L 1791 0 
L 588 0 
L 588 4666 
L 2425 4666 
Q 3347 4666 3776 4356 
Q 4206 4047 4206 3378 
Q 4206 2916 3982 2619 
Q 3759 2322 3309 2181 
Q 3556 2125 3751 1926 
Q 3947 1728 4147 1325 
L 4800 0 
L 3519 0 
L 2950 1159 
Q 2778 1509 2601 1637 
Q 2425 1766 2131 1766 
L 1791 1766 
z
" transform="scale(0.015625)"/>
      <path id="DejaVuSans-Bold-41" d="M 3419 850 
L 1538 850 
L 1241 0 
L 31 0 
L 1759 4666 
L 3194 4666 
L 4922 0 
L 3713 0 
L 3419 850 
z
M 1838 1716 
L 3116 1716 
L 2478 3572 
L 1838 1716 
z
" transform="scale(0.015625)"/>
      <path id="DejaVuSans-Bold-4e" d="M 588 4666 
L 1931 4666 
L 3628 1466 
L 3628 4666 
L 4769 4666 
L 4769 0 
L 3425 0 
L 1728 3200 
L 1728 0 
L 588 0 
L 588 4666 
z
" transform="scale(0.015625)"/>
      <path id="DejaVuSans-Bold-44" d="M 1791 3756 
L 1791 909 
L 2222 909 
Q 2959 909 3348 1275 
Q 3738 1641 3738 2338 
Q 3738 3031 3350 3393 
Q 2963 3756 2222 3756 
L 1791 3756 
z
M 588 4666 
L 1856 4666 
Q 2919 4666 3439 4514 
Q 3959 4363 4331 4000 
Q 4659 3684 4818 3271 
Q 4978 2859 4978 2338 
Q 4978 1809 4818 1395 
Q 4659 981 4331 666 
Q 3956 303 3431 151 
Q 2906 0 1856 0 
L 588 0 
L 588 4666 
z
" transform="scale(0.015625)"/>
      <path id="DejaVuSans-Bold-4f" d="M 2719 3878 
Q 2169 3878 1866 3472 
Q 1563 3066 1563 2328 
Q 1563 1594 1866 1187 
Q 2169 781 2719 781 
Q 3272 781 3575 1187 
Q 3878 1594 3878 2328 
Q 3878 3066 3575 3472 
Q 3272 3878 2719 3878 
z
M 2719 4750 
Q 3844 4750 4481 4106 
Q 5119 3463 5119 2328 
Q 5119 1197 4481 553 
Q 3844 -91 2719 -91 
Q 1597 -91 958 553 
Q 319 1197 319 2328 
Q 319 3463 958 4106 
Q 1597 4750 2719 4750 
z
" transform="scale(0.015625)"/>
      <path id="DejaVuSans-Bold-4d" d="M 588 4666 
L 2119 4666 
L 3181 2169 
L 4250 4666 
L 5778 4666 
L 5778 0 
L 4641 0 
L 4641 3413 
L 3566 897 
L 2803 897 
L 1728 3413 
L 1728 0 
L 588 0 
L 588 4666 
z
" transform="scale(0.015625)"/>
     </defs>
     <use xlink:href="#DejaVuSans-Bold-56"/>
     <use xlink:href="#DejaVuSans-Bold-53" transform="translate(77.392578 0)"/>
     <use xlink:href="#DejaVuSans-Bold-20" transform="translate(149.414062 0)"/>
     <use xlink:href="#DejaVuSans-Bold-52" transform="translate(184.228516 0)"/>
     <use xlink:href="#DejaVuSans-Bold-41" transform="translate(261.230469 0)"/>
     <use xlink:href="#DejaVuSans-Bold-4e" transform="translate(338.623047 0)"/>
     <use xlink:href="#DejaVuSans-Bold-44" transform="translate(422.314453 0)"/>
     <use xlink:href="#DejaVuSans-Bold-4f" transform="translate(505.322266 0)"/>
     <use xlink:href="#DejaVuSans-Bold-4d" transform="translate(590.332031 0)"/>
    </g>
   </g>
   <g id="text_19">
    <!-- VS DEFAULT -->
    <g style="fill: #ff8f00; opacity: 0.9" transform="translate(425.484822 65.501658) scale(0.11 -0.11)">
     <defs>
      <path id="DejaVuSans-Bold-46" d="M 588 4666 
L 3834 4666 
L 3834 3756 
L 1791 3756 
L 1791 2888 
L 3713 2888 
L 3713 1978 
L 1791 1978 
L 1791 0 
L 588 0 
L 588 4666 
z
" transform="scale(0.015625)"/>
      <path id="DejaVuSans-Bold-55" d="M 588 4666 
L 1791 4666 
L 1791 1869 
Q 1791 1291 1980 1042 
Q 2169 794 2597 794 
Q 3028 794 3217 1042 
Q 3406 1291 3406 1869 
L 3406 4666 
L 4609 4666 
L 4609 1869 
Q 4609 878 4112 393 
Q 3616 -91 2597 -91 
Q 1581 -91 1084 393 
Q 588 878 588 1869 
L 588 4666 
z
" transform="scale(0.015625)"/>
      <path id="DejaVuSans-Bold-4c" d="M 588 4666 
L 1791 4666 
L 1791 909 
L 3903 909 
L 3903 0 
L 588 0 
L 588 4666 
z
" transform="scale(0.015625)"/>
      <path id="DejaVuSans-Bold-54" d="M 31 4666 
L 4331 4666 
L 4331 3756 
L 2784 3756 
L 2784 0 
L 1581 0 
L 1581 3756 
L 31 3756 
L 31 4666 
z
" transform="scale(0.015625)"/>
     </defs>
     <use xlink:href="#DejaVuSans-Bold-56"/>
     <use xlink:href="#DejaVuSans-Bold-53" transform="translate(77.392578 0)"/>
     <use xlink:href="#DejaVuSans-Bold-20" transform="translate(149.414062 0)"/>
     <use xlink:href="#DejaVuSans-Bold-44" transform="translate(184.228516 0)"/>
     <use xlink:href="#DejaVuSans-Bold-45" transform="translate(267.236328 0)"/>
     <use xlink:href="#DejaVuSans-Bold-46" transform="translate(335.546875 0)"/>
     <use xlink:href="#DejaVuSans-Bold-41" transform="translate(392.357422 0)"/>
     <use xlink:href="#DejaVuSans-Bold-55" transform="translate(466.625 0)"/>
     <use xlink:href="#DejaVuSans-Bold-4c" transform="translate(547.826172 0)"/>
     <use xlink:href="#DejaVuSans-Bold-54" transform="translate(595.046875 0)"/>
    </g>
   </g>
   <g id="text_20">
    <!-- VS RANDOM -->
    <g style="fill: #006064; opacity: 0.9" transform="translate(642.508707 65.501658) scale(0.11 -0.11)">
     <use xlink:href="#DejaVuSans-Bold-56"/>
     <use xlink:href="#DejaVuSans-Bold-53" transform="translate(77.392578 0)"/>
     <use xlink:href="#DejaVuSans-Bold-20" transform="translate(149.414062 0)"/>
     <use xlink:href="#DejaVuSans-Bold-52" transform="translate(184.228516 0)"/>
     <use xlink:href="#DejaVuSans-Bold-41" transform="translate(261.230469 0)"/>
     <use xlink:href="#DejaVuSans-Bold-4e" transform="translate(338.623047 0)"/>
     <use xlink:href="#DejaVuSans-Bold-44" transform="translate(422.314453 0)"/>
     <use xlink:href="#DejaVuSans-Bold-4f" transform="translate(505.322266 0)"/>
     <use xlink:href="#DejaVuSans-Bold-4d" transform="translate(590.332031 0)"/>
    </g>
   </g>
   <g id="text_21">
    <!-- VS MINIMAX -->
    <g style="fill: #666666; opacity: 0.9" transform="translate(692.599339 65.501658) scale(0.11 -0.11)">
     <defs>
      <path id="DejaVuSans-Bold-49" d="M 588 4666 
L 1791 4666 
L 1791 0 
L 588 0 
L 588 4666 
z
" transform="scale(0.015625)"/>
      <path id="DejaVuSans-Bold-58" d="M 3188 2381 
L 4806 0 
L 3553 0 
L 2463 1594 
L 1381 0 
L 122 0 
L 1741 2381 
L 184 4666 
L 1441 4666 
L 2463 3163 
L 3481 4666 
L 4744 4666 
L 3188 2381 
z
" transform="scale(0.015625)"/>
     </defs>
     <use xlink:href="#DejaVuSans-Bold-56"/>
     <use xlink:href="#DejaVuSans-Bold-53" transform="translate(77.392578 0)"/>
     <use xlink:href="#DejaVuSans-Bold-20" transform="translate(149.414062 0)"/>
     <use xlink:href="#DejaVuSans-Bold-4d" transform="translate(184.228516 0)"/>
     <use xlink:href="#DejaVuSans-Bold-49" transform="translate(283.740234 0)"/>
     <use xlink:href="#DejaVuSans-Bold-4e" transform="translate(320.947266 0)"/>
     <use xlink:href="#DejaVuSans-Bold-49" transform="translate(404.638672 0)"/>
     <use xlink:href="#DejaVuSans-Bold-4d" transform="translate(441.845703 0)"/>
     <use xlink:href="#DejaVuSans-Bold-41" transform="translate(541.357422 0)"/>
     <use xlink:href="#DejaVuSans-Bold-58" transform="translate(618.75 0)"/>
    </g>
   </g>
   <g id="text_22">
    <!-- DQN Learning Dynamics: Tic-Tac-Toe Expert Curriculum -->
    <g transform="translate(150.940312 20.877187) scale(0.18 -0.18)">
     <defs>
      <path id="DejaVuSans-Bold-51" d="M 2847 -84 
L 2753 -84 
Q 1600 -84 959 553 
Q 319 1191 319 2328 
Q 319 3463 958 4106 
Q 1597 4750 2719 4750 
Q 3853 4750 4486 4112 
Q 5119 3475 5119 2328 
Q 5119 1541 4783 972 
Q 4447 403 3816 116 
L 4756 -934 
L 3609 -934 
L 2847 -84 
z
M 2719 3878 
Q 2169 3878 1866 3472 
Q 1563 3066 1563 2328 
Q 1563 1578 1859 1179 
Q 2156 781 2719 781 
Q 3272 781 3575 1187 
Q 3878 1594 3878 2328 
Q 3878 3066 3575 3472 
Q 3272 3878 2719 3878 
z
" transform="scale(0.015625)"/>
      <path id="DejaVuSans-Bold-79" d="M 78 3500 
L 1197 3500 
L 2138 1125 
L 2938 3500 
L 4056 3500 
L 2584 -331 
Q 2363 -916 2067 -1148 
Q 1772 -1381 1288 -1381 
L 641 -1381 
L 641 -647 
L 991 -647 
Q 1275 -647 1404 -556 
Q 1534 -466 1606 -231 
L 1638 -134 
L 78 3500 
z
" transform="scale(0.015625)"/>
      <path id="DejaVuSans-Bold-6d" d="M 3781 2919 
Q 3994 3244 4286 3414 
Q 4578 3584 4928 3584 
Q 5531 3584 5847 3212 
Q 6163 2841 6163 2131 
L 6163 0 
L 5038 0 
L 5038 1825 
Q 5041 1866 5042 1909 
Q 5044 1953 5044 2034 
Q 5044 2406 4934 2573 
Q 4825 2741 4581 2741 
Q 4263 2741 4089 2478 
Q 3916 2216 3909 1719 
L 3909 0 
L 2784 0 
L 2784 1825 
Q 2784 2406 2684 2573 
Q 2584 2741 2328 2741 
Q 2006 2741 1831 2477 
Q 1656 2213 1656 1722 
L 1656 0 
L 531 0 
L 531 3500 
L 1656 3500 
L 1656 2988 
Q 1863 3284 2130 3434 
Q 2397 3584 2719 3584 
Q 3081 3584 3359 3409 
Q 3638 3234 3781 2919 
z
" transform="scale(0.015625)"/>
      <path id="DejaVuSans-Bold-3a" d="M 716 3500 
L 1844 3500 
L 1844 2291 
L 716 2291 
L 716 3500 
z
M 716 1209 
L 1844 1209 
L 1844 0 
L 716 0 
L 716 1209 
z
" transform="scale(0.015625)"/>
      <path id="DejaVuSans-Bold-2d" d="M 347 2297 
L 2309 2297 
L 2309 1388 
L 347 1388 
L 347 2297 
z
" transform="scale(0.015625)"/>
      <path id="DejaVuSans-Bold-78" d="M 1422 1791 
L 159 3500 
L 1344 3500 
L 2059 2463 
L 2784 3500 
L 3969 3500 
L 2706 1797 
L 4031 0 
L 2847 0 
L 2059 1106 
L 1281 0 
L 97 0 
L 1422 1791 
z
" transform="scale(0.015625)"/>
      <path id="DejaVuSans-Bold-43" d="M 4288 256 
Q 3956 84 3597 -3 
Q 3238 -91 2847 -91 
Q 1681 -91 1000 561 
Q 319 1213 319 2328 
Q 319 3447 1000 4098 
Q 1681 4750 2847 4750 
Q 3238 4750 3597 4662 
Q 3956 4575 4288 4403 
L 4288 3438 
Q 3953 3666 3628 3772 
Q 3303 3878 2944 3878 
Q 2300 3878 1931 3465 
Q 1563 3053 1563 2328 
Q 1563 1606 1931 1193 
Q 2300 781 2944 781 
Q 3303 781 3628 887 
Q 3953 994 4288 1222 
L 4288 256 
z
" transform="scale(0.015625)"/>
      <path id="DejaVuSans-Bold-75" d="M 500 1363 
L 500 3500 
L 1625 3500 
L 1625 3150 
Q 1625 2866 1622 2436 
Q 1619 2006 1619 1863 
Q 1619 1441 1641 1255 
Q 1663 1069 1716 984 
Q 1784 875 1895 815 
Q 2006 756 2150 756 
Q 2500 756 2700 1025 
Q 2900 1294 2900 1772 
L 2900 3500 
L 4019 3500 
L 4019 0 
L 2900 0 
L 2900 506 
Q 2647 200 2364 54 
Q 2081 -91 1741 -91 
Q 1134 -91 817 281 
Q 500 653 500 1363 
z
" transform="scale(0.015625)"/>
      <path id="DejaVuSans-Bold-6c" d="M 538 4863 
L 1656 4863 
L 1656 0 
L 538 0 
L 538 4863 
z
" transform="scale(0.015625)"/>
     </defs>
     <use xlink:href="#DejaVuSans-Bold-44"/>
     <use xlink:href="#DejaVuSans-Bold-51" transform="translate(83.007812 0)"/>
     <use xlink:href="#DejaVuSans-Bold-4e" transform="translate(168.017578 0)"/>
     <use xlink:href="#DejaVuSans-Bold-20" transform="translate(251.708984 0)"/>
     <use xlink:href="#DejaVuSans-Bold-4c" transform="translate(286.523438 0)"/>
     <use xlink:href="#DejaVuSans-Bold-65" transform="translate(350.244141 0)"/>
     <use xlink:href="#DejaVuSans-Bold-61" transform="translate(418.066406 0)"/>
     <use xlink:href="#DejaVuSans-Bold-72" transform="translate(485.546875 0)"/>
     <use xlink:href="#DejaVuSans-Bold-6e" transform="translate(534.863281 0)"/>
     <use xlink:href="#DejaVuSans-Bold-69" transform="translate(606.054688 0)"/>
     <use xlink:href="#DejaVuSans-Bold-6e" transform="translate(640.332031 0)"/>
     <use xlink:href="#DejaVuSans-Bold-67" transform="translate(711.523438 0)"/>
     <use xlink:href="#DejaVuSans-Bold-20" transform="translate(783.105469 0)"/>
     <use xlink:href="#DejaVuSans-Bold-44" transform="translate(817.919922 0)"/>
     <use xlink:href="#DejaVuSans-Bold-79" transform="translate(900.927734 0)"/>
     <use xlink:href="#DejaVuSans-Bold-6e" transform="translate(966.113281 0)"/>
     <use xlink:href="#DejaVuSans-Bold-61" transform="translate(1037.304688 0)"/>
     <use xlink:href="#DejaVuSans-Bold-6d" transform="translate(1104.785156 0)"/>
     <use xlink:href="#DejaVuSans-Bold-69" transform="translate(1208.984375 0)"/>
     <use xlink:href="#DejaVuSans-Bold-63" transform="translate(1243.261719 0)"/>
     <use xlink:href="#DejaVuSans-Bold-73" transform="translate(1302.539062 0)"/>
     <use xlink:href="#DejaVuSans-Bold-3a" transform="translate(1362.060547 0)"/>
     <use xlink:href="#DejaVuSans-Bold-20" transform="translate(1402.050781 0)"/>
     <use xlink:href="#DejaVuSans-Bold-54" transform="translate(1436.865234 0)"/>
     <use xlink:href="#DejaVuSans-Bold-69" transform="translate(1505.078125 0)"/>
     <use xlink:href="#DejaVuSans-Bold-63" transform="translate(1539.355469 0)"/>
     <use xlink:href="#DejaVuSans-Bold-2d" transform="translate(1598.632812 0)"/>
     <use xlink:href="#DejaVuSans-Bold-54" transform="translate(1625.386719 0)"/>
     <use xlink:href="#DejaVuSans-Bold-61" transform="translate(1680.724609 0)"/>
     <use xlink:href="#DejaVuSans-Bold-63" transform="translate(1748.205078 0)"/>
     <use xlink:href="#DejaVuSans-Bold-2d" transform="translate(1807.482422 0)"/>
     <use xlink:href="#DejaVuSans-Bold-54" transform="translate(1834.236328 0)"/>
     <use xlink:href="#DejaVuSans-Bold-6f" transform="translate(1889.199219 0)"/>
     <use xlink:href="#DejaVuSans-Bold-65" transform="translate(1957.900391 0)"/>
     <use xlink:href="#DejaVuSans-Bold-20" transform="translate(2025.722656 0)"/>
     <use xlink:href="#DejaVuSans-Bold-45" transform="translate(2060.537109 0)"/>
     <use xlink:href="#DejaVuSans-Bold-78" transform="translate(2128.847656 0)"/>
     <use xlink:href="#DejaVuSans-Bold-70" transform="translate(2193.349609 0)"/>
     <use xlink:href="#DejaVuSans-Bold-65" transform="translate(2264.931641 0)"/>
     <use xlink:href="#DejaVuSans-Bold-72" transform="translate(2332.753906 0)"/>
     <use xlink:href="#DejaVuSans-Bold-74" transform="translate(2382.070312 0)"/>
     <use xlink:href="#DejaVuSans-Bold-20" transform="translate(2429.873047 0)"/>
     <use xlink:href="#DejaVuSans-Bold-43" transform="translate(2464.6875 0)"/>
     <use xlink:href="#DejaVuSans-Bold-75" transform="translate(2538.076172 0)"/>
     <use xlink:href="#DejaVuSans-Bold-72" transform="translate(2609.267578 0)"/>
     <use xlink:href="#DejaVuSans-Bold-72" transform="translate(2658.583984 0)"/>
     <use xlink:href="#DejaVuSans-Bold-69" transform="translate(2707.900391 0)"/>
     <use xlink:href="#DejaVuSans-Bold-63" transform="translate(2742.177734 0)"/>
     <use xlink:href="#DejaVuSans-Bold-75" transform="translate(2801.455078 0)"/>
     <use xlink:href="#DejaVuSans-Bold-6c" transform="translate(2872.646484 0)"/>
     <use xlink:href="#DejaVuSans-Bold-75" transform="translate(2906.923828 0)"/>
     <use xlink:href="#DejaVuSans-Bold-6d" transform="translate(2978.115234 0)"/>
    </g>
   </g>
   <g id="legend_1">
    <g id="line2d_37">
     <path d="M 210.900859 466.873604 
L 223.900859 466.873604 
L 236.900859 466.873604 
" style="fill: none; stroke: #2ecc71; stroke-width: 1.5; stroke-linecap: square"/>
    </g>
    <g id="text_23">
     <!-- Wins % -->
     <g transform="translate(247.300859 471.423604) scale(0.13 -0.13)">
      <defs>
       <path id="DejaVuSans-57" d="M 213 4666 
L 850 4666 
L 1831 722 
L 2809 4666 
L 3519 4666 
L 4500 722 
L 5478 4666 
L 6119 4666 
L 4947 0 
L 4153 0 
L 3169 4050 
L 2175 0 
L 1381 0 
L 213 4666 
z
" transform="scale(0.015625)"/>
       <path id="DejaVuSans-69" d="M 603 3500 
L 1178 3500 
L 1178 0 
L 603 0 
L 603 3500 
z
M 603 4863 
L 1178 4863 
L 1178 4134 
L 603 4134 
L 603 4863 
z
" transform="scale(0.015625)"/>
       <path id="DejaVuSans-6e" d="M 3513 2113 
L 3513 0 
L 2938 0 
L 2938 2094 
Q 2938 2591 2744 2837 
Q 2550 3084 2163 3084 
Q 1697 3084 1428 2787 
Q 1159 2491 1159 1978 
L 1159 0 
L 581 0 
L 581 3500 
L 1159 3500 
L 1159 2956 
Q 1366 3272 1645 3428 
Q 1925 3584 2291 3584 
Q 2894 3584 3203 3211 
Q 3513 2838 3513 2113 
z
" transform="scale(0.015625)"/>
       <path id="DejaVuSans-73" d="M 2834 3397 
L 2834 2853 
Q 2591 2978 2328 3040 
Q 2066 3103 1784 3103 
Q 1356 3103 1142 2972 
Q 928 2841 928 2578 
Q 928 2378 1081 2264 
Q 1234 2150 1697 2047 
L 1894 2003 
Q 2506 1872 2764 1633 
Q 3022 1394 3022 966 
Q 3022 478 2636 193 
Q 2250 -91 1575 -91 
Q 1294 -91 989 -36 
Q 684 19 347 128 
L 347 722 
Q 666 556 975 473 
Q 1284 391 1588 391 
Q 1994 391 2212 530 
Q 2431 669 2431 922 
Q 2431 1156 2273 1281 
Q 2116 1406 1581 1522 
L 1381 1569 
Q 847 1681 609 1914 
Q 372 2147 372 2553 
Q 372 3047 722 3315 
Q 1072 3584 1716 3584 
Q 2034 3584 2315 3537 
Q 2597 3491 2834 3397 
z
" transform="scale(0.015625)"/>
       <path id="DejaVuSans-20" transform="scale(0.015625)"/>
       <path id="DejaVuSans-25" d="M 4653 2053 
Q 4381 2053 4226 1822 
Q 4072 1591 4072 1178 
Q 4072 772 4226 539 
Q 4381 306 4653 306 
Q 4919 306 5073 539 
Q 5228 772 5228 1178 
Q 5228 1588 5073 1820 
Q 4919 2053 4653 2053 
z
M 4653 2450 
Q 5147 2450 5437 2106 
Q 5728 1763 5728 1178 
Q 5728 594 5436 251 
Q 5144 -91 4653 -91 
Q 4153 -91 3862 251 
Q 3572 594 3572 1178 
Q 3572 1766 3864 2108 
Q 4156 2450 4653 2450 
z
M 1428 4353 
Q 1159 4353 1004 4120 
Q 850 3888 850 3481 
Q 850 3069 1003 2837 
Q 1156 2606 1428 2606 
Q 1700 2606 1854 2837 
Q 2009 3069 2009 3481 
Q 2009 3884 1853 4118 
Q 1697 4353 1428 4353 
z
M 4250 4750 
L 4750 4750 
L 1831 -91 
L 1331 -91 
L 4250 4750 
z
M 1428 4750 
Q 1922 4750 2215 4408 
Q 2509 4066 2509 3481 
Q 2509 2891 2217 2550 
Q 1925 2209 1428 2209 
Q 931 2209 642 2551 
Q 353 2894 353 3481 
Q 353 4063 643 4406 
Q 934 4750 1428 4750 
z
" transform="scale(0.015625)"/>
      </defs>
      <use xlink:href="#DejaVuSans-57"/>
      <use xlink:href="#DejaVuSans-69" transform="translate(96.626953 0)"/>
      <use xlink:href="#DejaVuSans-6e" transform="translate(124.410156 0)"/>
      <use xlink:href="#DejaVuSans-73" transform="translate(187.789062 0)"/>
      <use xlink:href="#DejaVuSans-20" transform="translate(239.888672 0)"/>
      <use xlink:href="#DejaVuSans-25" transform="translate(271.675781 0)"/>
     </g>
    </g>
    <g id="line2d_38">
     <path d="M 320.968203 466.873604 
L 333.968203 466.873604 
L 346.968203 466.873604 
" style="fill: none; stroke: #f39c12; stroke-width: 1.5; stroke-linecap: square"/>
    </g>
    <g id="text_24">
     <!-- Draws % -->
     <g transform="translate(357.368203 471.423604) scale(0.13 -0.13)">
      <defs>
       <path id="DejaVuSans-44" d="M 1259 4147 
L 1259 519 
L 2022 519 
Q 2988 519 3436 956 
Q 3884 1394 3884 2338 
Q 3884 3275 3436 3711 
Q 2988 4147 2022 4147 
L 1259 4147 
z
M 628 4666 
L 1925 4666 
Q 3281 4666 3915 4102 
Q 4550 3538 4550 2338 
Q 4550 1131 3912 565 
Q 3275 0 1925 0 
L 628 0 
L 628 4666 
z
" transform="scale(0.015625)"/>
       <path id="DejaVuSans-72" d="M 2631 2963 
Q 2534 3019 2420 3045 
Q 2306 3072 2169 3072 
Q 1681 3072 1420 2755 
Q 1159 2438 1159 1844 
L 1159 0 
L 581 0 
L 581 3500 
L 1159 3500 
L 1159 2956 
Q 1341 3275 1631 3429 
Q 1922 3584 2338 3584 
Q 2397 3584 2469 3576 
Q 2541 3569 2628 3553 
L 2631 2963 
z
" transform="scale(0.015625)"/>
       <path id="DejaVuSans-61" d="M 2194 1759 
Q 1497 1759 1228 1600 
Q 959 1441 959 1056 
Q 959 750 1161 570 
Q 1363 391 1709 391 
Q 2188 391 2477 730 
Q 2766 1069 2766 1631 
L 2766 1759 
L 2194 1759 
z
M 3341 1997 
L 3341 0 
L 2766 0 
L 2766 531 
Q 2569 213 2275 61 
Q 1981 -91 1556 -91 
Q 1019 -91 701 211 
Q 384 513 384 1019 
Q 384 1609 779 1909 
Q 1175 2209 1959 2209 
L 2766 2209 
L 2766 2266 
Q 2766 2663 2505 2880 
Q 2244 3097 1772 3097 
Q 1472 3097 1187 3025 
Q 903 2953 641 2809 
L 641 3341 
Q 956 3463 1253 3523 
Q 1550 3584 1831 3584 
Q 2591 3584 2966 3190 
Q 3341 2797 3341 1997 
z
" transform="scale(0.015625)"/>
       <path id="DejaVuSans-77" d="M 269 3500 
L 844 3500 
L 1563 769 
L 2278 3500 
L 2956 3500 
L 3675 769 
L 4391 3500 
L 4966 3500 
L 4050 0 
L 3372 0 
L 2619 2869 
L 1863 0 
L 1184 0 
L 269 3500 
z
" transform="scale(0.015625)"/>
      </defs>
      <use xlink:href="#DejaVuSans-44"/>
      <use xlink:href="#DejaVuSans-72" transform="translate(77.001953 0)"/>
      <use xlink:href="#DejaVuSans-61" transform="translate(118.115234 0)"/>
      <use xlink:href="#DejaVuSans-77" transform="translate(179.394531 0)"/>
      <use xlink:href="#DejaVuSans-73" transform="translate(261.181641 0)"/>
      <use xlink:href="#DejaVuSans-20" transform="translate(313.28125 0)"/>
      <use xlink:href="#DejaVuSans-25" transform="translate(345.068359 0)"/>
     </g>
    </g>
    <g id="line2d_39">
     <path d="M 440.576328 466.873604 
L 453.576328 466.873604 
L 466.576328 466.873604 
" style="fill: none; stroke: #e74c3c; stroke-width: 1.5; stroke-linecap: square"/>
    </g>
    <g id="text_25">
     <!-- Losses % -->
     <g transform="translate(476.976328 471.423604) scale(0.13 -0.13)">
      <defs>
       <path id="DejaVuSans-4c" d="M 628 4666 
L 1259 4666 
L 1259 531 
L 3531 531 
L 3531 0 
L 628 0 
L 628 4666 
z
" transform="scale(0.015625)"/>
       <path id="DejaVuSans-6f" d="M 1959 3097 
Q 1497 3097 1228 2736 
Q 959 2375 959 1747 
Q 959 1119 1226 758 
Q 1494 397 1959 397 
Q 2419 397 2687 759 
Q 2956 1122 2956 1747 
Q 2956 2369 2687 2733 
Q 2419 3097 1959 3097 
z
M 1959 3584 
Q 2709 3584 3137 3096 
Q 3566 2609 3566 1747 
Q 3566 888 3137 398 
Q 2709 -91 1959 -91 
Q 1206 -91 779 398 
Q 353 888 353 1747 
Q 353 2609 779 3096 
Q 1206 3584 1959 3584 
z
" transform="scale(0.015625)"/>
       <path id="DejaVuSans-65" d="M 3597 1894 
L 3597 1613 
L 953 1613 
Q 991 1019 1311 708 
Q 1631 397 2203 397 
Q 2534 397 2845 478 
Q 3156 559 3463 722 
L 3463 178 
Q 3153 47 2828 -22 
Q 2503 -91 2169 -91 
Q 1331 -91 842 396 
Q 353 884 353 1716 
Q 353 2575 817 3079 
Q 1281 3584 2069 3584 
Q 2775 3584 3186 3129 
Q 3597 2675 3597 1894 
z
M 3022 2063 
Q 3016 2534 2758 2815 
Q 2500 3097 2075 3097 
Q 1594 3097 1305 2825 
Q 1016 2553 972 2059 
L 3022 2063 
z
" transform="scale(0.015625)"/>
      </defs>
      <use xlink:href="#DejaVuSans-4c"/>
      <use xlink:href="#DejaVuSans-6f" transform="translate(53.962891 0)"/>
      <use xlink:href="#DejaVuSans-73" transform="translate(115.144531 0)"/>
      <use xlink:href="#DejaVuSans-73" transform="translate(167.244141 0)"/>
      <use xlink:href="#DejaVuSans-65" transform="translate(219.34375 0)"/>
      <use xlink:href="#DejaVuSans-73" transform="translate(280.867188 0)"/>
      <use xlink:href="#DejaVuSans-20" transform="translate(332.966797 0)"/>
      <use xlink:href="#DejaVuSans-25" transform="translate(364.753906 0)"/>
     </g>
    </g>
    <g id="line2d_40">
     <path d="M 562.745859 466.873604 
L 575.745859 466.873604 
L 588.745859 466.873604 
" style="fill: none; stroke: #666666; stroke-opacity: 0.6; stroke-width: 1.5; stroke-linecap: square"/>
    </g>
    <g id="text_26">
     <!-- Epsilon -->
     <g transform="translate(599.145859 471.423604) scale(0.13 -0.13)">
      <defs>
       <path id="DejaVuSans-45" d="M 628 4666 
L 3578 4666 
L 3578 4134 
L 1259 4134 
L 1259 2753 
L 3481 2753 
L 3481 2222 
L 1259 2222 
L 1259 531 
L 3634 531 
L 3634 0 
L 628 0 
L 628 4666 
z
" transform="scale(0.015625)"/>
       <path id="DejaVuSans-70" d="M 1159 525 
L 1159 -1331 
L 581 -1331 
L 581 3500 
L 1159 3500 
L 1159 2969 
Q 1341 3281 1617 3432 
Q 1894 3584 2278 3584 
Q 2916 3584 3314 3078 
Q 3713 2572 3713 1747 
Q 3713 922 3314 415 
Q 2916 -91 2278 -91 
Q 1894 -91 1617 61 
Q 1341 213 1159 525 
z
M 3116 1747 
Q 3116 2381 2855 2742 
Q 2594 3103 2138 3103 
Q 1681 3103 1420 2742 
Q 1159 2381 1159 1747 
Q 1159 1113 1420 752 
Q 1681 391 2138 391 
Q 2594 391 2855 752 
Q 3116 1113 3116 1747 
z
" transform="scale(0.015625)"/>
       <path id="DejaVuSans-6c" d="M 603 4863 
L 1178 4863 
L 1178 0 
L 603 0 
L 603 4863 
z
" transform="scale(0.015625)"/>
      </defs>
      <use xlink:href="#DejaVuSans-45"/>
      <use xlink:href="#DejaVuSans-70" transform="translate(63.183594 0)"/>
      <use xlink:href="#DejaVuSans-73" transform="translate(126.660156 0)"/>
      <use xlink:href="#DejaVuSans-69" transform="translate(178.759766 0)"/>
      <use xlink:href="#DejaVuSans-6c" transform="translate(206.542969 0)"/>
      <use xlink:href="#DejaVuSans-6f" transform="translate(234.326172 0)"/>
      <use xlink:href="#DejaVuSans-6e" transform="translate(295.507812 0)"/>
     </g>
    </g>
   </g>
  </g>
  <g id="axes_2">
   <g id="matplotlib.axis_3">
    <g id="ytick_7">
     <g id="line2d_41">
      <path d="M 58.60625 404.527587 
L 798.09625 404.527587 
" clip-path="url(#p9ef1e01003)" style="fill: none; stroke: #b0b0b0; stroke-opacity: 0.3; stroke-width: 0.8; stroke-linecap: square"/>
     </g>
     <g id="line2d_42">
      <defs>
       <path id="m0adbfbdcce" d="M 0 0 
L 3.5 0 
" style="stroke: #000000; stroke-width: 0.8"/>
      </defs>
      <g>
       <use xlink:href="#m0adbfbdcce" x="798.09625" y="404.527587" style="stroke: #000000; stroke-width: 0.8"/>
      </g>
     </g>
     <g id="text_27">
      <!-- 0.0 -->
      <g transform="translate(805.09625 409.466572) scale(0.13 -0.13)">
       <defs>
        <path id="DejaVuSans-2e" d="M 684 794 
L 1344 794 
L 1344 0 
L 684 0 
L 684 794 
z
" transform="scale(0.015625)"/>
       </defs>
       <use xlink:href="#DejaVuSans-30"/>
       <use xlink:href="#DejaVuSans-2e" transform="translate(63.623047 0)"/>
       <use xlink:href="#DejaVuSans-30" transform="translate(95.410156 0)"/>
      </g>
     </g>
    </g>
    <g id="ytick_8">
     <g id="line2d_43">
      <path d="M 58.60625 335.863878 
L 798.09625 335.863878 
" clip-path="url(#p9ef1e01003)" style="fill: none; stroke: #b0b0b0; stroke-opacity: 0.3; stroke-width: 0.8; stroke-linecap: square"/>
     </g>
     <g id="line2d_44">
      <g>
       <use xlink:href="#m0adbfbdcce" x="798.09625" y="335.863878" style="stroke: #000000; stroke-width: 0.8"/>
      </g>
     </g>
     <g id="text_28">
      <!-- 0.2 -->
      <g transform="translate(805.09625 340.802863) scale(0.13 -0.13)">
       <use xlink:href="#DejaVuSans-30"/>
       <use xlink:href="#DejaVuSans-2e" transform="translate(63.623047 0)"/>
       <use xlink:href="#DejaVuSans-32" transform="translate(95.410156 0)"/>
      </g>
     </g>
    </g>
    <g id="ytick_9">
     <g id="line2d_45">
      <path d="M 58.60625 267.200169 
L 798.09625 267.200169 
" clip-path="url(#p9ef1e01003)" style="fill: none; stroke: #b0b0b0; stroke-opacity: 0.3; stroke-width: 0.8; stroke-linecap: square"/>
     </g>
     <g id="line2d_46">
      <g>
       <use xlink:href="#m0adbfbdcce" x="798.09625" y="267.200169" style="stroke: #000000; stroke-width: 0.8"/>
      </g>
     </g>
     <g id="text_29">
      <!-- 0.4 -->
      <g transform="translate(805.09625 272.139154) scale(0.13 -0.13)">
       <use xlink:href="#DejaVuSans-30"/>
       <use xlink:href="#DejaVuSans-2e" transform="translate(63.623047 0)"/>
       <use xlink:href="#DejaVuSans-34" transform="translate(95.410156 0)"/>
      </g>
     </g>
    </g>
    <g id="ytick_10">
     <g id="line2d_47">
      <path d="M 58.60625 198.53646 
L 798.09625 198.53646 
" clip-path="url(#p9ef1e01003)" style="fill: none; stroke: #b0b0b0; stroke-opacity: 0.3; stroke-width: 0.8; stroke-linecap: square"/>
     </g>
     <g id="line2d_48">
      <g>
       <use xlink:href="#m0adbfbdcce" x="798.09625" y="198.53646" style="stroke: #000000; stroke-width: 0.8"/>
      </g>
     </g>
     <g id="text_30">
      <!-- 0.6 -->
      <g transform="translate(805.09625 203.475445) scale(0.13 -0.13)">
       <use xlink:href="#DejaVuSans-30"/>
       <use xlink:href="#DejaVuSans-2e" transform="translate(63.623047 0)"/>
       <use xlink:href="#DejaVuSans-36" transform="translate(95.410156 0)"/>
      </g>
     </g>
    </g>
    <g id="ytick_11">
     <g id="line2d_49">
      <path d="M 58.60625 129.872751 
L 798.09625 129.872751 
" clip-path="url(#p9ef1e01003)" style="fill: none; stroke: #b0b0b0; stroke-opacity: 0.3; stroke-width: 0.8; stroke-linecap: square"/>
     </g>
     <g id="line2d_50">
      <g>
       <use xlink:href="#m0adbfbdcce" x="798.09625" y="129.872751" style="stroke: #000000; stroke-width: 0.8"/>
      </g>
     </g>
     <g id="text_31">
      <!-- 0.8 -->
      <g transform="translate(805.09625 134.811736) scale(0.13 -0.13)">
       <use xlink:href="#DejaVuSans-30"/>
       <use xlink:href="#DejaVuSans-2e" transform="translate(63.623047 0)"/>
       <use xlink:href="#DejaVuSans-38" transform="translate(95.410156 0)"/>
      </g>
     </g>
    </g>
    <g id="ytick_12">
     <g id="line2d_51">
      <path d="M 58.60625 61.209042 
L 798.09625 61.209042 
" clip-path="url(#p9ef1e01003)" style="fill: none; stroke: #b0b0b0; stroke-opacity: 0.3; stroke-width: 0.8; stroke-linecap: square"/>
     </g>
     <g id="line2d_52">
      <g>
       <use xlink:href="#m0adbfbdcce" x="798.09625" y="61.209042" style="stroke: #000000; stroke-width: 0.8"/>
      </g>
     </g>
     <g id="text_32">
      <!-- 1.0 -->
      <g transform="translate(805.09625 66.148026) scale(0.13 -0.13)">
       <use xlink:href="#DejaVuSans-31"/>
       <use xlink:href="#DejaVuSans-2e" transform="translate(63.623047 0)"/>
       <use xlink:href="#DejaVuSans-30" transform="translate(95.410156 0)"/>
      </g>
     </g>
    </g>
    <g id="text_33">
     <!-- Exploration Rate (Epsilon) -->
     <g transform="translate(838.888437 304.210825) rotate(-90) scale(0.12 -0.12)">
      <use xlink:href="#DejaVuSans-Bold-45"/>
      <use xlink:href="#DejaVuSans-Bold-78" transform="translate(68.310547 0)"/>
      <use xlink:href="#DejaVuSans-Bold-70" transform="translate(132.8125 0)"/>
      <use xlink:href="#DejaVuSans-Bold-6c" transform="translate(204.394531 0)"/>
      <use xlink:href="#DejaVuSans-Bold-6f" transform="translate(238.671875 0)"/>
      <use xlink:href="#DejaVuSans-Bold-72" transform="translate(307.373047 0)"/>
      <use xlink:href="#DejaVuSans-Bold-61" transform="translate(356.689453 0)"/>
      <use xlink:href="#DejaVuSans-Bold-74" transform="translate(424.169922 0)"/>
      <use xlink:href="#DejaVuSans-Bold-69" transform="translate(471.972656 0)"/>
      <use xlink:href="#DejaVuSans-Bold-6f" transform="translate(506.25 0)"/>
      <use xlink:href="#DejaVuSans-Bold-6e" transform="translate(574.951172 0)"/>
      <use xlink:href="#DejaVuSans-Bold-20" transform="translate(646.142578 0)"/>
      <use xlink:href="#DejaVuSans-Bold-52" transform="translate(680.957031 0)"/>
      <use xlink:href="#DejaVuSans-Bold-61" transform="translate(757.958984 0)"/>
      <use xlink:href="#DejaVuSans-Bold-74" transform="translate(825.439453 0)"/>
      <use xlink:href="#DejaVuSans-Bold-65" transform="translate(873.242188 0)"/>
      <use xlink:href="#DejaVuSans-Bold-20" transform="translate(941.064453 0)"/>
      <use xlink:href="#DejaVuSans-Bold-28" transform="translate(975.878906 0)"/>
      <use xlink:href="#DejaVuSans-Bold-45" transform="translate(1021.582031 0)"/>
      <use xlink:href="#DejaVuSans-Bold-70" transform="translate(1089.892578 0)"/>
      <use xlink:href="#DejaVuSans-Bold-73" transform="translate(1161.474609 0)"/>
      <use xlink:href="#DejaVuSans-Bold-69" transform="translate(1220.996094 0)"/>
      <use xlink:href="#DejaVuSans-Bold-6c" transform="translate(1255.273438 0)"/>
      <use xlink:href="#DejaVuSans-Bold-6f" transform="translate(1289.550781 0)"/>
      <use xlink:href="#DejaVuSans-Bold-6e" transform="translate(1358.251953 0)"/>
      <use xlink:href="#DejaVuSans-Bold-29" transform="translate(1429.443359 0)"/>
     </g>
    </g>
   </g>
   <g id="line2d_53">
    <path d="M 92.219432 61.209042 
L 109.026023 74.670887 
L 125.832614 87.60488 
L 142.639205 100.031719 
L 159.445795 111.971289 
L 176.252386 123.442698 
L 193.058977 134.464303 
L 209.865568 145.053739 
L 226.672159 155.227954 
L 243.47875 165.003228 
L 260.285341 174.395205 
L 277.091932 183.418913 
L 293.898523 192.088793 
L 310.705114 200.418719 
L 327.511705 208.422021 
L 344.318295 216.111505 
L 361.124886 223.499478 
L 377.931477 230.597761 
L 394.738068 237.417714 
L 411.544659 243.97025 
L 428.35125 250.265855 
L 445.157841 256.314604 
L 461.964432 262.126175 
L 478.771023 267.709869 
L 495.577614 273.074621 
L 512.384205 278.229016 
L 529.190795 283.181302 
L 545.997386 287.939405 
L 562.803977 292.510938 
L 579.610568 296.903216 
L 596.417159 301.12327 
L 613.22375 305.177851 
L 630.030341 309.073448 
L 646.836932 312.816295 
L 663.643523 312.816295 
L 680.450114 312.816295 
L 697.256705 316.412381 
L 714.063295 319.867462 
L 730.869886 323.187065 
L 747.676477 326.376504 
L 764.483068 329.440882 
" clip-path="url(#p9ef1e01003)" style="fill: none; stroke: #666666; stroke-opacity: 0.6; stroke-width: 1.5; stroke-linecap: square"/>
   </g>
   <g id="patch_11">
    <path d="M 58.60625 404.527587 
L 58.60625 26.877187 
" style="fill: none; stroke: #000000; stroke-width: 1.5; stroke-linejoin: miter; stroke-linecap: square"/>
   </g>
   <g id="patch_12">
    <path d="M 798.09625 404.527587 
L 798.09625 26.877187 
" style="fill: none; stroke: #000000; stroke-width: 1.5; stroke-linejoin: miter; stroke-linecap: square"/>
   </g>
   <g id="patch_13">
    <path d="M 58.60625 404.527587 
L 798.09625 404.527587 
" style="fill: none; stroke: #000000; stroke-width: 1.5; stroke-linejoin: miter; stroke-linecap: square"/>
   </g>
   <g id="patch_14">
    <path d="M 58.60625 26.877187 
L 798.09625 26.877187 
" style="fill: none; stroke: #000000; stroke-width: 1.5; stroke-linejoin: miter; stroke-linecap: square"/>
   </g>
  </g>
 </g>
 <defs>
  <clipPath id="p9ef1e01003">
   <rect x="58.60625" y="26.877187" width="739.49" height="377.6504"/>
  </clipPath>
 </defs>
</svg>
