<?xml version="1.0" encoding="utf-8" standalone="no"?>
<!DOCTYPE svg PUBLIC "-//W3C//DTD SVG 1.1//EN"
  "http://www.w3.org/Graphics/SVG/1.1/DTD/svg11.dtd">
<svg xmlns:xlink="http://www.w3.org/1999/xlink" width="993.753268pt" height="422.243125pt" viewBox="0 0 993.753268 422.243125" xmlns="http://www.w3.org/2000/svg" version="1.1">
 <metadata>
  <rdf:RDF xmlns:dc="http://purl.org/dc/elements/1.1/" xmlns:cc="http://creativecommons.org/ns#" xmlns:rdf="http://www.w3.org/1999/02/22-rdf-syntax-ns#">
   <cc:Work>
    <dc:type rdf:resource="http://purl.org/dc/dcmitype/StillImage"/>
    <dc:date>2026-03-28T17:37:09.760680</dc:date>
    <dc:format>image/svg+xml</dc:format>
    <dc:creator>
     <cc:Agent>
      <dc:title>Matplotlib v3.10.8, https://matplotlib.org/</dc:title>
     </cc:Agent>
    </dc:creator>
   </cc:Work>
  </rdf:RDF>
 </metadata>
 <defs>
  <style type="text/css">*{stroke-linejoin: round; stroke-linecap: butt}</style>
 </defs>
 <g id="figure_1">
  <g id="patch_1">
   <path d="M 0 422.243125 
L 993.753268 422.243125 
L 993.753268 0 
L 0 0 
z
" style="fill: #ffffff"/>
  </g>
  <g id="axes_1">
   <g id="patch_2">
    <path d="M 52.869375 378.88 
L 489.618268 378.88 
L 489.618268 58.56 
L 52.869375 58.56 
z
" style="fill: #ffffff"/>
   </g>
   <g id="matplotlib.axis_1">
    <g id="xtick_1">
     <g id="line2d_1">
      <path d="M 72.721597 378.88 
L 72.721597 58.56 
" clip-path="url(#p62b4c63f99)" style="fill: none; stroke: #b0b0b0; stroke-opacity: 0.3; stroke-width: 0.8; stroke-linecap: square"/>
     </g>
     <g id="line2d_2">
      <defs>
       <path id="m663416734b" d="M 0 0 
L 0 3.5 
" style="stroke: #000000; stroke-width: 0.8"/>
      </defs>
      <g>
       <use xlink:href="#m663416734b" x="72.721597" y="378.88" style="stroke: #000000; stroke-width: 0.8"/>
      </g>
     </g>
     <g id="text_1">
      <!-- 1 -->
      <g transform="translate(68.904097 394.998125) scale(0.12 -0.12)">
       <defs>
        <path id="DejaVuSans-31" d="M 794 531 
L 1825 531 
L 1825 4091 
L 703 3866 
L 703 4441 
L 1819 4666 
L 2450 4666 
L 2450 531 
L 3481 531 
L 3481 0 
L 794 0 
L 794 531 
z
" transform="scale(0.015625)"/>
       </defs>
       <use xlink:href="#DejaVuSans-31"/>
      </g>
     </g>
    </g>
    <g id="xtick_2">
     <g id="line2d_3">
      <path d="M 122.352153 378.88 
L 122.352153 58.56 
" clip-path="url(#p62b4c63f99)" style="fill: none; stroke: #b0b0b0; stroke-opacity: 0.3; stroke-width: 0.8; stroke-linecap: square"/>
     </g>
     <g id="line2d_4">
      <g>
       <use xlink:href="#m663416734b" x="122.352153" y="378.88" style="stroke: #000000; stroke-width: 0.8"/>
      </g>
     </g>
     <g id="text_2">
      <!-- 2 -->
      <g transform="translate(118.534653 394.998125) scale(0.12 -0.12)">
       <defs>
        <path id="DejaVuSans-32" d="M 1228 531 
L 3431 531 
L 3431 0 
L 469 0 
L 469 531 
Q 828 903 1448 1529 
Q 2069 2156 2228 2338 
Q 2531 2678 2651 2914 
Q 2772 3150 2772 3378 
Q 2772 3750 2511 3984 
Q 2250 4219 1831 4219 
Q 1534 4219 1204 4116 
Q 875 4013 500 3803 
L 500 4441 
Q 881 4594 1212 4672 
Q 1544 4750 1819 4750 
Q 2544 4750 2975 4387 
Q 3406 4025 3406 3419 
Q 3406 3131 3298 2873 
Q 3191 2616 2906 2266 
Q 2828 2175 2409 1742 
Q 1991 1309 1228 531 
z
" transform="scale(0.015625)"/>
       </defs>
       <use xlink:href="#DejaVuSans-32"/>
      </g>
     </g>
    </g>
    <g id="xtick_3">
     <g id="line2d_5">
      <path d="M 171.982709 378.88 
L 171.982709 58.56 
" clip-path="url(#p62b4c63f99)" style="fill: none; stroke: #b0b0b0; stroke-opacity: 0.3; stroke-width: 0.8; stroke-linecap: square"/>
     </g>
     <g id="line2d_6">
      <g>
       <use xlink:href="#m663416734b" x="171.982709" y="378.88" style="stroke: #000000; stroke-width: 0.8"/>
      </g>
     </g>
     <g id="text_3">
      <!-- 3 -->
      <g transform="translate(168.165209 394.998125) scale(0.12 -0.12)">
       <defs>
        <path id="DejaVuSans-33" d="M 2597 2516 
Q 3050 2419 3304 2112 
Q 3559 1806 3559 1356 
Q 3559 666 3084 287 
Q 2609 -91 1734 -91 
Q 1441 -91 1130 -33 
Q 819 25 488 141 
L 488 750 
Q 750 597 1062 519 
Q 1375 441 1716 441 
Q 2309 441 2620 675 
Q 2931 909 2931 1356 
Q 2931 1769 2642 2001 
Q 2353 2234 1838 2234 
L 1294 2234 
L 1294 2753 
L 1863 2753 
Q 2328 2753 2575 2939 
Q 2822 3125 2822 3475 
Q 2822 3834 2567 4026 
Q 2313 4219 1838 4219 
Q 1578 4219 1281 4162 
Q 984 4106 628 3988 
L 628 4550 
Q 988 4650 1302 4700 
Q 1616 4750 1894 4750 
Q 2613 4750 3031 4423 
Q 3450 4097 3450 3541 
Q 3450 3153 3228 2886 
Q 3006 2619 2597 2516 
z
" transform="scale(0.015625)"/>
       </defs>
       <use xlink:href="#DejaVuSans-33"/>
      </g>
     </g>
    </g>
    <g id="xtick_4">
     <g id="line2d_7">
      <path d="M 221.613265 378.88 
L 221.613265 58.56 
" clip-path="url(#p62b4c63f99)" style="fill: none; stroke: #b0b0b0; stroke-opacity: 0.3; stroke-width: 0.8; stroke-linecap: square"/>
     </g>
     <g id="line2d_8">
      <g>
       <use xlink:href="#m663416734b" x="221.613265" y="378.88" style="stroke: #000000; stroke-width: 0.8"/>
      </g>
     </g>
     <g id="text_4">
      <!-- 4 -->
      <g transform="translate(217.795765 394.998125) scale(0.12 -0.12)">
       <defs>
        <path id="DejaVuSans-34" d="M 2419 4116 
L 825 1625 
L 2419 1625 
L 2419 4116 
z
M 2253 4666 
L 3047 4666 
L 3047 1625 
L 3713 1625 
L 3713 1100 
L 3047 1100 
L 3047 0 
L 2419 0 
L 2419 1100 
L 313 1100 
L 313 1709 
L 2253 4666 
z
" transform="scale(0.015625)"/>
       </defs>
       <use xlink:href="#DejaVuSans-34"/>
      </g>
     </g>
    </g>
    <g id="xtick_5">
     <g id="line2d_9">
      <path d="M 271.243821 378.88 
L 271.243821 58.56 
" clip-path="url(#p62b4c63f99)" style="fill: none; stroke: #b0b0b0; stroke-opacity: 0.3; stroke-width: 0.8; stroke-linecap: square"/>
     </g>
     <g id="line2d_10">
      <g>
       <use xlink:href="#m663416734b" x="271.243821" y="378.88" style="stroke: #000000; stroke-width: 0.8"/>
      </g>
     </g>
     <g id="text_5">
      <!-- 5 -->
      <g transform="translate(267.426321 394.998125) scale(0.12 -0.12)">
       <defs>
        <path id="DejaVuSans-35" d="M 691 4666 
L 3169 4666 
L 3169 4134 
L 1269 4134 
L 1269 2991 
Q 1406 3038 1543 3061 
Q 1681 3084 1819 3084 
Q 2600 3084 3056 2656 
Q 3513 2228 3513 1497 
Q 3513 744 3044 326 
Q 2575 -91 1722 -91 
Q 1428 -91 1123 -41 
Q 819 9 494 109 
L 494 744 
Q 775 591 1075 516 
Q 1375 441 1709 441 
Q 2250 441 2565 725 
Q 2881 1009 2881 1497 
Q 2881 1984 2565 2268 
Q 2250 2553 1709 2553 
Q 1456 2553 1204 2497 
Q 953 2441 691 2322 
L 691 4666 
z
" transform="scale(0.015625)"/>
       </defs>
       <use xlink:href="#DejaVuSans-35"/>
      </g>
     </g>
    </g>
    <g id="xtick_6">
     <g id="line2d_11">
      <path d="M 320.874377 378.88 
L 320.874377 58.56 
" clip-path="url(#p62b4c63f99)" style="fill: none; stroke: #b0b0b0; stroke-opacity: 0.3; stroke-width: 0.8; stroke-linecap: square"/>
     </g>
     <g id="line2d_12">
      <g>
       <use xlink:href="#m663416734b" x="320.874377" y="378.88" style="stroke: #000000; stroke-width: 0.8"/>
      </g>
     </g>
     <g id="text_6">
      <!-- 6 -->
      <g transform="translate(317.056877 394.998125) scale(0.12 -0.12)">
       <defs>
        <path id="DejaVuSans-36" d="M 2113 2584 
Q 1688 2584 1439 2293 
Q 1191 2003 1191 1497 
Q 1191 994 1439 701 
Q 1688 409 2113 409 
Q 2538 409 2786 701 
Q 3034 994 3034 1497 
Q 3034 2003 2786 2293 
Q 2538 2584 2113 2584 
z
M 3366 4563 
L 3366 3988 
Q 3128 4100 2886 4159 
Q 2644 4219 2406 4219 
Q 1781 4219 1451 3797 
Q 1122 3375 1075 2522 
Q 1259 2794 1537 2939 
Q 1816 3084 2150 3084 
Q 2853 3084 3261 2657 
Q 3669 2231 3669 1497 
Q 3669 778 3244 343 
Q 2819 -91 2113 -91 
Q 1303 -91 875 529 
Q 447 1150 447 2328 
Q 447 3434 972 4092 
Q 1497 4750 2381 4750 
Q 2619 4750 2861 4703 
Q 3103 4656 3366 4563 
z
" transform="scale(0.015625)"/>
       </defs>
       <use xlink:href="#DejaVuSans-36"/>
      </g>
     </g>
    </g>
    <g id="xtick_7">
     <g id="line2d_13">
      <path d="M 370.504933 378.88 
L 370.504933 58.56 
" clip-path="url(#p62b4c63f99)" style="fill: none; stroke: #b0b0b0; stroke-opacity: 0.3; stroke-width: 0.8; stroke-linecap: square"/>
     </g>
     <g id="line2d_14">
      <g>
       <use xlink:href="#m663416734b" x="370.504933" y="378.88" style="stroke: #000000; stroke-width: 0.8"/>
      </g>
     </g>
     <g id="text_7">
      <!-- 7 -->
      <g transform="translate(366.687433 394.998125) scale(0.12 -0.12)">
       <defs>
        <path id="DejaVuSans-37" d="M 525 4666 
L 3525 4666 
L 3525 4397 
L 1831 0 
L 1172 0 
L 2766 4134 
L 525 4134 
L 525 4666 
z
" transform="scale(0.015625)"/>
       </defs>
       <use xlink:href="#DejaVuSans-37"/>
      </g>
     </g>
    </g>
    <g id="xtick_8">
     <g id="line2d_15">
      <path d="M 420.135489 378.88 
L 420.135489 58.56 
" clip-path="url(#p62b4c63f99)" style="fill: none; stroke: #b0b0b0; stroke-opacity: 0.3; stroke-width: 0.8; stroke-linecap: square"/>
     </g>
     <g id="line2d_16">
      <g>
       <use xlink:href="#m663416734b" x="420.135489" y="378.88" style="stroke: #000000; stroke-width: 0.8"/>
      </g>
     </g>
     <g id="text_8">
      <!-- 8 -->
      <g transform="translate(416.317989 394.998125) scale(0.12 -0.12)">
       <defs>
        <path id="DejaVuSans-38" d="M 2034 2216 
Q 1584 2216 1326 1975 
Q 1069 1734 1069 1313 
Q 1069 891 1326 650 
Q 1584 409 2034 409 
Q 2484 409 2743 651 
Q 3003 894 3003 1313 
Q 3003 1734 2745 1975 
Q 2488 2216 2034 2216 
z
M 1403 2484 
Q 997 2584 770 2862 
Q 544 3141 544 3541 
Q 544 4100 942 4425 
Q 1341 4750 2034 4750 
Q 2731 4750 3128 4425 
Q 3525 4100 3525 3541 
Q 3525 3141 3298 2862 
Q 3072 2584 2669 2484 
Q 3125 2378 3379 2068 
Q 3634 1759 3634 1313 
Q 3634 634 3220 271 
Q 2806 -91 2034 -91 
Q 1263 -91 848 271 
Q 434 634 434 1313 
Q 434 1759 690 2068 
Q 947 2378 1403 2484 
z
M 1172 3481 
Q 1172 3119 1398 2916 
Q 1625 2713 2034 2713 
Q 2441 2713 2670 2916 
Q 2900 3119 2900 3481 
Q 2900 3844 2670 4047 
Q 2441 4250 2034 4250 
Q 1625 4250 1398 4047 
Q 1172 3844 1172 3481 
z
" transform="scale(0.015625)"/>
       </defs>
       <use xlink:href="#DejaVuSans-38"/>
      </g>
     </g>
    </g>
    <g id="xtick_9">
     <g id="line2d_17">
      <path d="M 469.766045 378.88 
L 469.766045 58.56 
" clip-path="url(#p62b4c63f99)" style="fill: none; stroke: #b0b0b0; stroke-opacity: 0.3; stroke-width: 0.8; stroke-linecap: square"/>
     </g>
     <g id="line2d_18">
      <g>
       <use xlink:href="#m663416734b" x="469.766045" y="378.88" style="stroke: #000000; stroke-width: 0.8"/>
      </g>
     </g>
     <g id="text_9">
      <!-- 9 -->
      <g transform="translate(465.948545 394.998125) scale(0.12 -0.12)">
       <defs>
        <path id="DejaVuSans-39" d="M 703 97 
L 703 672 
Q 941 559 1184 500 
Q 1428 441 1663 441 
Q 2288 441 2617 861 
Q 2947 1281 2994 2138 
Q 2813 1869 2534 1725 
Q 2256 1581 1919 1581 
Q 1219 1581 811 2004 
Q 403 2428 403 3163 
Q 403 3881 828 4315 
Q 1253 4750 1959 4750 
Q 2769 4750 3195 4129 
Q 3622 3509 3622 2328 
Q 3622 1225 3098 567 
Q 2575 -91 1691 -91 
Q 1453 -91 1209 -44 
Q 966 3 703 97 
z
M 1959 2075 
Q 2384 2075 2632 2365 
Q 2881 2656 2881 3163 
Q 2881 3666 2632 3958 
Q 2384 4250 1959 4250 
Q 1534 4250 1286 3958 
Q 1038 3666 1038 3163 
Q 1038 2656 1286 2365 
Q 1534 2075 1959 2075 
z
" transform="scale(0.015625)"/>
       </defs>
       <use xlink:href="#DejaVuSans-39"/>
      </g>
     </g>
    </g>
    <g id="text_10">
     <!-- Search Depth -->
     <g transform="translate(223.651478 412.131562) scale(0.14 -0.14)">
      <defs>
       <path id="DejaVuSans-53" d="M 3425 4513 
L 3425 3897 
Q 3066 4069 2747 4153 
Q 2428 4238 2131 4238 
Q 1616 4238 1336 4038 
Q 1056 3838 1056 3469 
Q 1056 3159 1242 3001 
Q 1428 2844 1947 2747 
L 2328 2669 
Q 3034 2534 3370 2195 
Q 3706 1856 3706 1288 
Q 3706 609 3251 259 
Q 2797 -91 1919 -91 
Q 1588 -91 1214 -16 
Q 841 59 441 206 
L 441 856 
Q 825 641 1194 531 
Q 1563 422 1919 422 
Q 2459 422 2753 634 
Q 3047 847 3047 1241 
Q 3047 1584 2836 1778 
Q 2625 1972 2144 2069 
L 1759 2144 
Q 1053 2284 737 2584 
Q 422 2884 422 3419 
Q 422 4038 858 4394 
Q 1294 4750 2059 4750 
Q 2388 4750 2728 4690 
Q 3069 4631 3425 4513 
z
" transform="scale(0.015625)"/>
       <path id="DejaVuSans-65" d="M 3597 1894 
L 3597 1613 
L 953 1613 
Q 991 1019 1311 708 
Q 1631 397 2203 397 
Q 2534 397 2845 478 
Q 3156 559 3463 722 
L 3463 178 
Q 3153 47 2828 -22 
Q 2503 -91 2169 -91 
Q 1331 -91 842 396 
Q 353 884 353 1716 
Q 353 2575 817 3079 
Q 1281 3584 2069 3584 
Q 2775 3584 3186 3129 
Q 3597 2675 3597 1894 
z
M 3022 2063 
Q 3016 2534 2758 2815 
Q 2500 3097 2075 3097 
Q 1594 3097 1305 2825 
Q 1016 2553 972 2059 
L 3022 2063 
z
" transform="scale(0.015625)"/>
       <path id="DejaVuSans-61" d="M 2194 1759 
Q 1497 1759 1228 1600 
Q 959 1441 959 1056 
Q 959 750 1161 570 
Q 1363 391 1709 391 
Q 2188 391 2477 730 
Q 2766 1069 2766 1631 
L 2766 1759 
L 2194 1759 
z
M 3341 1997 
L 3341 0 
L 2766 0 
L 2766 531 
Q 2569 213 2275 61 
Q 1981 -91 1556 -91 
Q 1019 -91 701 211 
Q 384 513 384 1019 
Q 384 1609 779 1909 
Q 1175 2209 1959 2209 
L 2766 2209 
L 2766 2266 
Q 2766 2663 2505 2880 
Q 2244 3097 1772 3097 
Q 1472 3097 1187 3025 
Q 903 2953 641 2809 
L 641 3341 
Q 956 3463 1253 3523 
Q 1550 3584 1831 3584 
Q 2591 3584 2966 3190 
Q 3341 2797 3341 1997 
z
" transform="scale(0.015625)"/>
       <path id="DejaVuSans-72" d="M 2631 2963 
Q 2534 3019 2420 3045 
Q 2306 3072 2169 3072 
Q 1681 3072 1420 2755 
Q 1159 2438 1159 1844 
L 1159 0 
L 581 0 
L 581 3500 
L 1159 3500 
L 1159 2956 
Q 1341 3275 1631 3429 
Q 1922 3584 2338 3584 
Q 2397 3584 2469 3576 
Q 2541 3569 2628 3553 
L 2631 2963 
z
" transform="scale(0.015625)"/>
       <path id="DejaVuSans-63" d="M 3122 3366 
L 3122 2828 
Q 2878 2963 2633 3030 
Q 2388 3097 2138 3097 
Q 1578 3097 1268 2742 
Q 959 2388 959 1747 
Q 959 1106 1268 751 
Q 1578 397 2138 397 
Q 2388 397 2633 464 
Q 2878 531 3122 666 
L 3122 134 
Q 2881 22 2623 -34 
Q 2366 -91 2075 -91 
Q 1284 -91 818 406 
Q 353 903 353 1747 
Q 353 2603 823 3093 
Q 1294 3584 2113 3584 
Q 2378 3584 2631 3529 
Q 2884 3475 3122 3366 
z
" transform="scale(0.015625)"/>
       <path id="DejaVuSans-68" d="M 3513 2113 
L 3513 0 
L 2938 0 
L 2938 2094 
Q 2938 2591 2744 2837 
Q 2550 3084 2163 3084 
Q 1697 3084 1428 2787 
Q 1159 2491 1159 1978 
L 1159 0 
L 581 0 
L 581 4863 
L 1159 4863 
L 1159 2956 
Q 1366 3272 1645 3428 
Q 1925 3584 2291 3584 
Q 2894 3584 3203 3211 
Q 3513 2838 3513 2113 
z
" transform="scale(0.015625)"/>
       <path id="DejaVuSans-20" transform="scale(0.015625)"/>
       <path id="DejaVuSans-44" d="M 1259 4147 
L 1259 519 
L 2022 519 
Q 2988 519 3436 956 
Q 3884 1394 3884 2338 
Q 3884 3275 3436 3711 
Q 2988 4147 2022 4147 
L 1259 4147 
z
M 628 4666 
L 1925 4666 
Q 3281 4666 3915 4102 
Q 4550 3538 4550 2338 
Q 4550 1131 3912 565 
Q 3275 0 1925 0 
L 628 0 
L 628 4666 
z
" transform="scale(0.015625)"/>
       <path id="DejaVuSans-70" d="M 1159 525 
L 1159 -1331 
L 581 -1331 
L 581 3500 
L 1159 3500 
L 1159 2969 
Q 1341 3281 1617 3432 
Q 1894 3584 2278 3584 
Q 2916 3584 3314 3078 
Q 3713 2572 3713 1747 
Q 3713 922 3314 415 
Q 2916 -91 2278 -91 
Q 1894 -91 1617 61 
Q 1341 213 1159 525 
z
M 3116 1747 
Q 3116 2381 2855 2742 
Q 2594 3103 2138 3103 
Q 1681 3103 1420 2742 
Q 1159 2381 1159 1747 
Q 1159 1113 1420 752 
Q 1681 391 2138 391 
Q 2594 391 2855 752 
Q 3116 1113 3116 1747 
z
" transform="scale(0.015625)"/>
       <path id="DejaVuSans-74" d="M 1172 4494 
L 1172 3500 
L 2356 3500 
L 2356 3053 
L 1172 3053 
L 1172 1153 
Q 1172 725 1289 603 
Q 1406 481 1766 481 
L 2356 481 
L 2356 0 
L 1766 0 
Q 1100 0 847 248 
Q 594 497 594 1153 
L 594 3053 
L 172 3053 
L 172 3500 
L 594 3500 
L 594 4494 
L 1172 4494 
z
" transform="scale(0.015625)"/>
      </defs>
      <use xlink:href="#DejaVuSans-53"/>
      <use xlink:href="#DejaVuSans-65" transform="translate(63.476562 0)"/>
      <use xlink:href="#DejaVuSans-61" transform="translate(125 0)"/>
      <use xlink:href="#DejaVuSans-72" transform="translate(186.279297 0)"/>
      <use xlink:href="#DejaVuSans-63" transform="translate(225.142578 0)"/>
      <use xlink:href="#DejaVuSans-68" transform="translate(280.123047 0)"/>
      <use xlink:href="#DejaVuSans-20" transform="translate(343.501953 0)"/>
      <use xlink:href="#DejaVuSans-44" transform="translate(375.289062 0)"/>
      <use xlink:href="#DejaVuSans-65" transform="translate(452.291016 0)"/>
      <use xlink:href="#DejaVuSans-70" transform="translate(513.814453 0)"/>
      <use xlink:href="#DejaVuSans-74" transform="translate(577.291016 0)"/>
      <use xlink:href="#DejaVuSans-68" transform="translate(616.5 0)"/>
     </g>
    </g>
   </g>
   <g id="matplotlib.axis_2">
    <g id="ytick_1">
     <g id="line2d_19">
      <path d="M 52.869375 350.251904 
L 489.618268 350.251904 
" clip-path="url(#p62b4c63f99)" style="fill: none; stroke: #b0b0b0; stroke-opacity: 0.3; stroke-width: 0.8; stroke-linecap: square"/>
     </g>
     <g id="line2d_20">
      <defs>
       <path id="m37d0c73219" d="M 0 0 
L -3.5 0 
" style="stroke: #000000; stroke-width: 0.8"/>
      </defs>
      <g>
       <use xlink:href="#m37d0c73219" x="52.869375" y="350.251904" style="stroke: #000000; stroke-width: 0.8"/>
      </g>
     </g>
     <g id="text_11">
      <!-- $\mathdefault{10^{0}}$ -->
      <g transform="translate(24.749375 354.810967) scale(0.12 -0.12)">
       <defs>
        <path id="DejaVuSans-30" d="M 2034 4250 
Q 1547 4250 1301 3770 
Q 1056 3291 1056 2328 
Q 1056 1369 1301 889 
Q 1547 409 2034 409 
Q 2525 409 2770 889 
Q 3016 1369 3016 2328 
Q 3016 3291 2770 3770 
Q 2525 4250 2034 4250 
z
M 2034 4750 
Q 2819 4750 3233 4129 
Q 3647 3509 3647 2328 
Q 3647 1150 3233 529 
Q 2819 -91 2034 -91 
Q 1250 -91 836 529 
Q 422 1150 422 2328 
Q 422 3509 836 4129 
Q 1250 4750 2034 4750 
z
" transform="scale(0.015625)"/>
       </defs>
       <use xlink:href="#DejaVuSans-31" transform="translate(0 0.765625)"/>
       <use xlink:href="#DejaVuSans-30" transform="translate(63.623047 0.765625)"/>
       <use xlink:href="#DejaVuSans-30" transform="translate(128.203125 39.046875) scale(0.7)"/>
      </g>
     </g>
    </g>
    <g id="ytick_2">
     <g id="line2d_21">
      <path d="M 52.869375 275.209651 
L 489.618268 275.209651 
" clip-path="url(#p62b4c63f99)" style="fill: none; stroke: #b0b0b0; stroke-opacity: 0.3; stroke-width: 0.8; stroke-linecap: square"/>
     </g>
     <g id="line2d_22">
      <g>
       <use xlink:href="#m37d0c73219" x="52.869375" y="275.209651" style="stroke: #000000; stroke-width: 0.8"/>
      </g>
     </g>
     <g id="text_12">
      <!-- $\mathdefault{10^{1}}$ -->
      <g transform="translate(24.749375 279.768714) scale(0.12 -0.12)">
       <use xlink:href="#DejaVuSans-31" transform="translate(0 0.684375)"/>
       <use xlink:href="#DejaVuSans-30" transform="translate(63.623047 0.684375)"/>
       <use xlink:href="#DejaVuSans-31" transform="translate(128.203125 38.965625) scale(0.7)"/>
      </g>
     </g>
    </g>
    <g id="ytick_3">
     <g id="line2d_23">
      <path d="M 52.869375 200.167398 
L 489.618268 200.167398 
" clip-path="url(#p62b4c63f99)" style="fill: none; stroke: #b0b0b0; stroke-opacity: 0.3; stroke-width: 0.8; stroke-linecap: square"/>
     </g>
     <g id="line2d_24">
      <g>
       <use xlink:href="#m37d0c73219" x="52.869375" y="200.167398" style="stroke: #000000; stroke-width: 0.8"/>
      </g>
     </g>
     <g id="text_13">
      <!-- $\mathdefault{10^{2}}$ -->
      <g transform="translate(24.749375 204.72646) scale(0.12 -0.12)">
       <use xlink:href="#DejaVuSans-31" transform="translate(0 0.765625)"/>
       <use xlink:href="#DejaVuSans-30" transform="translate(63.623047 0.765625)"/>
       <use xlink:href="#DejaVuSans-32" transform="translate(128.203125 39.046875) scale(0.7)"/>
      </g>
     </g>
    </g>
    <g id="ytick_4">
     <g id="line2d_25">
      <path d="M 52.869375 125.125144 
L 489.618268 125.125144 
" clip-path="url(#p62b4c63f99)" style="fill: none; stroke: #b0b0b0; stroke-opacity: 0.3; stroke-width: 0.8; stroke-linecap: square"/>
     </g>
     <g id="line2d_26">
      <g>
       <use xlink:href="#m37d0c73219" x="52.869375" y="125.125144" style="stroke: #000000; stroke-width: 0.8"/>
      </g>
     </g>
     <g id="text_14">
      <!-- $\mathdefault{10^{3}}$ -->
      <g transform="translate(24.749375 129.684207) scale(0.12 -0.12)">
       <use xlink:href="#DejaVuSans-31" transform="translate(0 0.765625)"/>
       <use xlink:href="#DejaVuSans-30" transform="translate(63.623047 0.765625)"/>
       <use xlink:href="#DejaVuSans-33" transform="translate(128.203125 39.046875) scale(0.7)"/>
      </g>
     </g>
    </g>
    <g id="ytick_5">
     <g id="line2d_27">
      <defs>
       <path id="m832b16fa19" d="M 0 0 
L -2 0 
" style="stroke: #000000; stroke-width: 0.6"/>
      </defs>
      <g>
       <use xlink:href="#m832b16fa19" x="52.869375" y="372.841874" style="stroke: #000000; stroke-width: 0.6"/>
      </g>
     </g>
    </g>
    <g id="ytick_6">
     <g id="line2d_28">
      <g>
       <use xlink:href="#m832b16fa19" x="52.869375" y="366.899935" style="stroke: #000000; stroke-width: 0.6"/>
      </g>
     </g>
    </g>
    <g id="ytick_7">
     <g id="line2d_29">
      <g>
       <use xlink:href="#m832b16fa19" x="52.869375" y="361.876097" style="stroke: #000000; stroke-width: 0.6"/>
      </g>
     </g>
    </g>
    <g id="ytick_8">
     <g id="line2d_30">
      <g>
       <use xlink:href="#m832b16fa19" x="52.869375" y="357.52425" style="stroke: #000000; stroke-width: 0.6"/>
      </g>
     </g>
    </g>
    <g id="ytick_9">
     <g id="line2d_31">
      <g>
       <use xlink:href="#m832b16fa19" x="52.869375" y="353.68565" style="stroke: #000000; stroke-width: 0.6"/>
      </g>
     </g>
    </g>
    <g id="ytick_10">
     <g id="line2d_32">
      <g>
       <use xlink:href="#m832b16fa19" x="52.869375" y="327.661935" style="stroke: #000000; stroke-width: 0.6"/>
      </g>
     </g>
    </g>
    <g id="ytick_11">
     <g id="line2d_33">
      <g>
       <use xlink:href="#m832b16fa19" x="52.869375" y="314.44765" style="stroke: #000000; stroke-width: 0.6"/>
      </g>
     </g>
    </g>
    <g id="ytick_12">
     <g id="line2d_34">
      <g>
       <use xlink:href="#m832b16fa19" x="52.869375" y="305.071966" style="stroke: #000000; stroke-width: 0.6"/>
      </g>
     </g>
    </g>
    <g id="ytick_13">
     <g id="line2d_35">
      <g>
       <use xlink:href="#m832b16fa19" x="52.869375" y="297.79962" style="stroke: #000000; stroke-width: 0.6"/>
      </g>
     </g>
    </g>
    <g id="ytick_14">
     <g id="line2d_36">
      <g>
       <use xlink:href="#m832b16fa19" x="52.869375" y="291.857681" style="stroke: #000000; stroke-width: 0.6"/>
      </g>
     </g>
    </g>
    <g id="ytick_15">
     <g id="line2d_37">
      <g>
       <use xlink:href="#m832b16fa19" x="52.869375" y="286.833843" style="stroke: #000000; stroke-width: 0.6"/>
      </g>
     </g>
    </g>
    <g id="ytick_16">
     <g id="line2d_38">
      <g>
       <use xlink:href="#m832b16fa19" x="52.869375" y="282.481997" style="stroke: #000000; stroke-width: 0.6"/>
      </g>
     </g>
    </g>
    <g id="ytick_17">
     <g id="line2d_39">
      <g>
       <use xlink:href="#m832b16fa19" x="52.869375" y="278.643396" style="stroke: #000000; stroke-width: 0.6"/>
      </g>
     </g>
    </g>
    <g id="ytick_18">
     <g id="line2d_40">
      <g>
       <use xlink:href="#m832b16fa19" x="52.869375" y="252.619682" style="stroke: #000000; stroke-width: 0.6"/>
      </g>
     </g>
    </g>
    <g id="ytick_19">
     <g id="line2d_41">
      <g>
       <use xlink:href="#m832b16fa19" x="52.869375" y="239.405397" style="stroke: #000000; stroke-width: 0.6"/>
      </g>
     </g>
    </g>
    <g id="ytick_20">
     <g id="line2d_42">
      <g>
       <use xlink:href="#m832b16fa19" x="52.869375" y="230.029713" style="stroke: #000000; stroke-width: 0.6"/>
      </g>
     </g>
    </g>
    <g id="ytick_21">
     <g id="line2d_43">
      <g>
       <use xlink:href="#m832b16fa19" x="52.869375" y="222.757367" style="stroke: #000000; stroke-width: 0.6"/>
      </g>
     </g>
    </g>
    <g id="ytick_22">
     <g id="line2d_44">
      <g>
       <use xlink:href="#m832b16fa19" x="52.869375" y="216.815428" style="stroke: #000000; stroke-width: 0.6"/>
      </g>
     </g>
    </g>
    <g id="ytick_23">
     <g id="line2d_45">
      <g>
       <use xlink:href="#m832b16fa19" x="52.869375" y="211.79159" style="stroke: #000000; stroke-width: 0.6"/>
      </g>
     </g>
    </g>
    <g id="ytick_24">
     <g id="line2d_46">
      <g>
       <use xlink:href="#m832b16fa19" x="52.869375" y="207.439743" style="stroke: #000000; stroke-width: 0.6"/>
      </g>
     </g>
    </g>
    <g id="ytick_25">
     <g id="line2d_47">
      <g>
       <use xlink:href="#m832b16fa19" x="52.869375" y="203.601143" style="stroke: #000000; stroke-width: 0.6"/>
      </g>
     </g>
    </g>
    <g id="ytick_26">
     <g id="line2d_48">
      <g>
       <use xlink:href="#m832b16fa19" x="52.869375" y="177.577428" style="stroke: #000000; stroke-width: 0.6"/>
      </g>
     </g>
    </g>
    <g id="ytick_27">
     <g id="line2d_49">
      <g>
       <use xlink:href="#m832b16fa19" x="52.869375" y="164.363143" style="stroke: #000000; stroke-width: 0.6"/>
      </g>
     </g>
    </g>
    <g id="ytick_28">
     <g id="line2d_50">
      <g>
       <use xlink:href="#m832b16fa19" x="52.869375" y="154.987459" style="stroke: #000000; stroke-width: 0.6"/>
      </g>
     </g>
    </g>
    <g id="ytick_29">
     <g id="line2d_51">
      <g>
       <use xlink:href="#m832b16fa19" x="52.869375" y="147.715113" style="stroke: #000000; stroke-width: 0.6"/>
      </g>
     </g>
    </g>
    <g id="ytick_30">
     <g id="line2d_52">
      <g>
       <use xlink:href="#m832b16fa19" x="52.869375" y="141.773174" style="stroke: #000000; stroke-width: 0.6"/>
      </g>
     </g>
    </g>
    <g id="ytick_31">
     <g id="line2d_53">
      <g>
       <use xlink:href="#m832b16fa19" x="52.869375" y="136.749336" style="stroke: #000000; stroke-width: 0.6"/>
      </g>
     </g>
    </g>
    <g id="ytick_32">
     <g id="line2d_54">
      <g>
       <use xlink:href="#m832b16fa19" x="52.869375" y="132.39749" style="stroke: #000000; stroke-width: 0.6"/>
      </g>
     </g>
    </g>
    <g id="ytick_33">
     <g id="line2d_55">
      <g>
       <use xlink:href="#m832b16fa19" x="52.869375" y="128.558889" style="stroke: #000000; stroke-width: 0.6"/>
      </g>
     </g>
    </g>
    <g id="ytick_34">
     <g id="line2d_56">
      <g>
       <use xlink:href="#m832b16fa19" x="52.869375" y="102.535175" style="stroke: #000000; stroke-width: 0.6"/>
      </g>
     </g>
    </g>
    <g id="ytick_35">
     <g id="line2d_57">
      <g>
       <use xlink:href="#m832b16fa19" x="52.869375" y="89.32089" style="stroke: #000000; stroke-width: 0.6"/>
      </g>
     </g>
    </g>
    <g id="ytick_36">
     <g id="line2d_58">
      <g>
       <use xlink:href="#m832b16fa19" x="52.869375" y="79.945206" style="stroke: #000000; stroke-width: 0.6"/>
      </g>
     </g>
    </g>
    <g id="ytick_37">
     <g id="line2d_59">
      <g>
       <use xlink:href="#m832b16fa19" x="52.869375" y="72.67286" style="stroke: #000000; stroke-width: 0.6"/>
      </g>
     </g>
    </g>
    <g id="ytick_38">
     <g id="line2d_60">
      <g>
       <use xlink:href="#m832b16fa19" x="52.869375" y="66.730921" style="stroke: #000000; stroke-width: 0.6"/>
      </g>
     </g>
    </g>
    <g id="ytick_39">
     <g id="line2d_61">
      <g>
       <use xlink:href="#m832b16fa19" x="52.869375" y="61.707083" style="stroke: #000000; stroke-width: 0.6"/>
      </g>
     </g>
    </g>
    <g id="text_15">
     <!-- Time per Move (ms, log scale) -->
     <g transform="translate(17.837812 324.232969) rotate(-90) scale(0.14 -0.14)">
      <defs>
       <path id="DejaVuSans-54" d="M -19 4666 
L 3928 4666 
L 3928 4134 
L 2272 4134 
L 2272 0 
L 1638 0 
L 1638 4134 
L -19 4134 
L -19 4666 
z
" transform="scale(0.015625)"/>
       <path id="DejaVuSans-69" d="M 603 3500 
L 1178 3500 
L 1178 0 
L 603 0 
L 603 3500 
z
M 603 4863 
L 1178 4863 
L 1178 4134 
L 603 4134 
L 603 4863 
z
" transform="scale(0.015625)"/>
       <path id="DejaVuSans-6d" d="M 3328 2828 
Q 3544 3216 3844 3400 
Q 4144 3584 4550 3584 
Q 5097 3584 5394 3201 
Q 5691 2819 5691 2113 
L 5691 0 
L 5113 0 
L 5113 2094 
Q 5113 2597 4934 2840 
Q 4756 3084 4391 3084 
Q 3944 3084 3684 2787 
Q 3425 2491 3425 1978 
L 3425 0 
L 2847 0 
L 2847 2094 
Q 2847 2600 2669 2842 
Q 2491 3084 2119 3084 
Q 1678 3084 1418 2786 
Q 1159 2488 1159 1978 
L 1159 0 
L 581 0 
L 581 3500 
L 1159 3500 
L 1159 2956 
Q 1356 3278 1631 3431 
Q 1906 3584 2284 3584 
Q 2666 3584 2933 3390 
Q 3200 3197 3328 2828 
z
" transform="scale(0.015625)"/>
       <path id="DejaVuSans-4d" d="M 628 4666 
L 1569 4666 
L 2759 1491 
L 3956 4666 
L 4897 4666 
L 4897 0 
L 4281 0 
L 4281 4097 
L 3078 897 
L 2444 897 
L 1241 4097 
L 1241 0 
L 628 0 
L 628 4666 
z
" transform="scale(0.015625)"/>
       <path id="DejaVuSans-6f" d="M 1959 3097 
Q 1497 3097 1228 2736 
Q 959 2375 959 1747 
Q 959 1119 1226 758 
Q 1494 397 1959 397 
Q 2419 397 2687 759 
Q 2956 1122 2956 1747 
Q 2956 2369 2687 2733 
Q 2419 3097 1959 3097 
z
M 1959 3584 
Q 2709 3584 3137 3096 
Q 3566 2609 3566 1747 
Q 3566 888 3137 398 
Q 2709 -91 1959 -91 
Q 1206 -91 779 398 
Q 353 888 353 1747 
Q 353 2609 779 3096 
Q 1206 3584 1959 3584 
z
" transform="scale(0.015625)"/>
       <path id="DejaVuSans-76" d="M 191 3500 
L 800 3500 
L 1894 563 
L 2988 3500 
L 3597 3500 
L 2284 0 
L 1503 0 
L 191 3500 
z
" transform="scale(0.015625)"/>
       <path id="DejaVuSans-28" d="M 1984 4856 
Q 1566 4138 1362 3434 
Q 1159 2731 1159 2009 
Q 1159 1288 1364 580 
Q 1569 -128 1984 -844 
L 1484 -844 
Q 1016 -109 783 600 
Q 550 1309 550 2009 
Q 550 2706 781 3412 
Q 1013 4119 1484 4856 
L 1984 4856 
z
" transform="scale(0.015625)"/>
       <path id="DejaVuSans-73" d="M 2834 3397 
L 2834 2853 
Q 2591 2978 2328 3040 
Q 2066 3103 1784 3103 
Q 1356 3103 1142 2972 
Q 928 2841 928 2578 
Q 928 2378 1081 2264 
Q 1234 2150 1697 2047 
L 1894 2003 
Q 2506 1872 2764 1633 
Q 3022 1394 3022 966 
Q 3022 478 2636 193 
Q 2250 -91 1575 -91 
Q 1294 -91 989 -36 
Q 684 19 347 128 
L 347 722 
Q 666 556 975 473 
Q 1284 391 1588 391 
Q 1994 391 2212 530 
Q 2431 669 2431 922 
Q 2431 1156 2273 1281 
Q 2116 1406 1581 1522 
L 1381 1569 
Q 847 1681 609 1914 
Q 372 2147 372 2553 
Q 372 3047 722 3315 
Q 1072 3584 1716 3584 
Q 2034 3584 2315 3537 
Q 2597 3491 2834 3397 
z
" transform="scale(0.015625)"/>
       <path id="DejaVuSans-2c" d="M 750 794 
L 1409 794 
L 1409 256 
L 897 -744 
L 494 -744 
L 750 256 
L 750 794 
z
" transform="scale(0.015625)"/>
       <path id="DejaVuSans-6c" d="M 603 4863 
L 1178 4863 
L 1178 0 
L 603 0 
L 603 4863 
z
" transform="scale(0.015625)"/>
       <path id="DejaVuSans-67" d="M 2906 1791 
Q 2906 2416 2648 2759 
Q 2391 3103 1925 3103 
Q 1463 3103 1205 2759 
Q 947 2416 947 1791 
Q 947 1169 1205 825 
Q 1463 481 1925 481 
Q 2391 481 2648 825 
Q 2906 1169 2906 1791 
z
M 3481 434 
Q 3481 -459 3084 -895 
Q 2688 -1331 1869 -1331 
Q 1566 -1331 1297 -1286 
Q 1028 -1241 775 -1147 
L 775 -588 
Q 1028 -725 1275 -790 
Q 1522 -856 1778 -856 
Q 2344 -856 2625 -561 
Q 2906 -266 2906 331 
L 2906 616 
Q 2728 306 2450 153 
Q 2172 0 1784 0 
Q 1141 0 747 490 
Q 353 981 353 1791 
Q 353 2603 747 3093 
Q 1141 3584 1784 3584 
Q 2172 3584 2450 3431 
Q 2728 3278 2906 2969 
L 2906 3500 
L 3481 3500 
L 3481 434 
z
" transform="scale(0.015625)"/>
       <path id="DejaVuSans-29" d="M 513 4856 
L 1013 4856 
Q 1481 4119 1714 3412 
Q 1947 2706 1947 2009 
Q 1947 1309 1714 600 
Q 1481 -109 1013 -844 
L 513 -844 
Q 928 -128 1133 580 
Q 1338 1288 1338 2009 
Q 1338 2731 1133 3434 
Q 928 4138 513 4856 
z
" transform="scale(0.015625)"/>
      </defs>
      <use xlink:href="#DejaVuSans-54"/>
      <use xlink:href="#DejaVuSans-69" transform="translate(57.958984 0)"/>
      <use xlink:href="#DejaVuSans-6d" transform="translate(85.742188 0)"/>
      <use xlink:href="#DejaVuSans-65" transform="translate(183.154297 0)"/>
      <use xlink:href="#DejaVuSans-20" transform="translate(244.677734 0)"/>
      <use xlink:href="#DejaVuSans-70" transform="translate(276.464844 0)"/>
      <use xlink:href="#DejaVuSans-65" transform="translate(339.941406 0)"/>
      <use xlink:href="#DejaVuSans-72" transform="translate(401.464844 0)"/>
      <use xlink:href="#DejaVuSans-20" transform="translate(442.578125 0)"/>
      <use xlink:href="#DejaVuSans-4d" transform="translate(474.365234 0)"/>
      <use xlink:href="#DejaVuSans-6f" transform="translate(560.644531 0)"/>
      <use xlink:href="#DejaVuSans-76" transform="translate(621.826172 0)"/>
      <use xlink:href="#DejaVuSans-65" transform="translate(681.005859 0)"/>
      <use xlink:href="#DejaVuSans-20" transform="translate(742.529297 0)"/>
      <use xlink:href="#DejaVuSans-28" transform="translate(774.316406 0)"/>
      <use xlink:href="#DejaVuSans-6d" transform="translate(813.330078 0)"/>
      <use xlink:href="#DejaVuSans-73" transform="translate(910.742188 0)"/>
      <use xlink:href="#DejaVuSans-2c" transform="translate(962.841797 0)"/>
      <use xlink:href="#DejaVuSans-20" transform="translate(994.628906 0)"/>
      <use xlink:href="#DejaVuSans-6c" transform="translate(1026.416016 0)"/>
      <use xlink:href="#DejaVuSans-6f" transform="translate(1054.199219 0)"/>
      <use xlink:href="#DejaVuSans-67" transform="translate(1115.380859 0)"/>
      <use xlink:href="#DejaVuSans-20" transform="translate(1178.857422 0)"/>
      <use xlink:href="#DejaVuSans-73" transform="translate(1210.644531 0)"/>
      <use xlink:href="#DejaVuSans-63" transform="translate(1262.744141 0)"/>
      <use xlink:href="#DejaVuSans-61" transform="translate(1317.724609 0)"/>
      <use xlink:href="#DejaVuSans-6c" transform="translate(1379.003906 0)"/>
      <use xlink:href="#DejaVuSans-65" transform="translate(1406.787109 0)"/>
      <use xlink:href="#DejaVuSans-29" transform="translate(1468.310547 0)"/>
     </g>
    </g>
   </g>
   <g id="line2d_62">
    <path d="M 72.721597 354.673065 
L 122.352153 292.479054 
L 171.982709 234.442796 
L 221.613265 181.457835 
L 271.243821 135.21323 
L 320.874377 101.192396 
L 370.504933 82.243338 
L 420.135489 73.800315 
L 469.766045 73.12 
" clip-path="url(#p62b4c63f99)" style="fill: none; stroke: #e74c3c; stroke-width: 2.5; stroke-linecap: square"/>
    <defs>
     <path id="m0584659e75" d="M 0 3 
C 0.795609 3 1.55874 2.683901 2.12132 2.12132 
C 2.683901 1.55874 3 0.795609 3 0 
C 3 -0.795609 2.683901 -1.55874 2.12132 -2.12132 
C 1.55874 -2.683901 0.795609 -3 0 -3 
C -0.795609 -3 -1.55874 -2.683901 -2.12132 -2.12132 
C -2.683901 -1.55874 -3 -0.795609 -3 0 
C -3 0.795609 -2.683901 1.55874 -2.12132 2.12132 
C -1.55874 2.683901 -0.795609 3 0 3 
z
" style="stroke: #e74c3c"/>
    </defs>
    <g clip-path="url(#p62b4c63f99)">
     <use xlink:href="#m0584659e75" x="72.721597" y="354.673065" style="fill: #e74c3c; stroke: #e74c3c"/>
     <use xlink:href="#m0584659e75" x="122.352153" y="292.479054" style="fill: #e74c3c; stroke: #e74c3c"/>
     <use xlink:href="#m0584659e75" x="171.982709" y="234.442796" style="fill: #e74c3c; stroke: #e74c3c"/>
     <use xlink:href="#m0584659e75" x="221.613265" y="181.457835" style="fill: #e74c3c; stroke: #e74c3c"/>
     <use xlink:href="#m0584659e75" x="271.243821" y="135.21323" style="fill: #e74c3c; stroke: #e74c3c"/>
     <use xlink:href="#m0584659e75" x="320.874377" y="101.192396" style="fill: #e74c3c; stroke: #e74c3c"/>
     <use xlink:href="#m0584659e75" x="370.504933" y="82.243338" style="fill: #e74c3c; stroke: #e74c3c"/>
     <use xlink:href="#m0584659e75" x="420.135489" y="73.800315" style="fill: #e74c3c; stroke: #e74c3c"/>
     <use xlink:href="#m0584659e75" x="469.766045" y="73.12" style="fill: #e74c3c; stroke: #e74c3c"/>
    </g>
   </g>
   <g id="line2d_63">
    <path d="M 72.721597 364.32 
L 122.352153 328.109066 
L 171.982709 292.671153 
L 221.613265 249.072616 
L 271.243821 218.178259 
L 320.874377 192.480447 
L 370.504933 178.521923 
L 420.135489 173.316333 
L 469.766045 171.890876 
" clip-path="url(#p62b4c63f99)" style="fill: none; stroke-dasharray: 9.25,4; stroke-dashoffset: 0; stroke: #2ecc71; stroke-width: 2.5"/>
    <defs>
     <path id="mb71bfae2ff" d="M -3 3 
L 3 3 
L 3 -3 
L -3 -3 
z
" style="stroke: #2ecc71; stroke-linejoin: miter"/>
    </defs>
    <g clip-path="url(#p62b4c63f99)">
     <use xlink:href="#mb71bfae2ff" x="72.721597" y="364.32" style="fill: #2ecc71; stroke: #2ecc71; stroke-linejoin: miter"/>
     <use xlink:href="#mb71bfae2ff" x="122.352153" y="328.109066" style="fill: #2ecc71; stroke: #2ecc71; stroke-linejoin: miter"/>
     <use xlink:href="#mb71bfae2ff" x="171.982709" y="292.671153" style="fill: #2ecc71; stroke: #2ecc71; stroke-linejoin: miter"/>
     <use xlink:href="#mb71bfae2ff" x="221.613265" y="249.072616" style="fill: #2ecc71; stroke: #2ecc71; stroke-linejoin: miter"/>
     <use xlink:href="#mb71bfae2ff" x="271.243821" y="218.178259" style="fill: #2ecc71; stroke: #2ecc71; stroke-linejoin: miter"/>
     <use xlink:href="#mb71bfae2ff" x="320.874377" y="192.480447" style="fill: #2ecc71; stroke: #2ecc71; stroke-linejoin: miter"/>
     <use xlink:href="#mb71bfae2ff" x="370.504933" y="178.521923" style="fill: #2ecc71; stroke: #2ecc71; stroke-linejoin: miter"/>
     <use xlink:href="#mb71bfae2ff" x="420.135489" y="173.316333" style="fill: #2ecc71; stroke: #2ecc71; stroke-linejoin: miter"/>
     <use xlink:href="#mb71bfae2ff" x="469.766045" y="171.890876" style="fill: #2ecc71; stroke: #2ecc71; stroke-linejoin: miter"/>
    </g>
   </g>
   <g id="patch_3">
    <path d="M 52.869375 378.88 
L 52.869375 58.56 
" style="fill: none; stroke: #000000; stroke-width: 0.8; stroke-linejoin: miter; stroke-linecap: square"/>
   </g>
   <g id="patch_4">
    <path d="M 489.618268 378.88 
L 489.618268 58.56 
" style="fill: none; stroke: #000000; stroke-width: 0.8; stroke-linejoin: miter; stroke-linecap: square"/>
   </g>
   <g id="patch_5">
    <path d="M 52.869375 378.88 
L 489.618268 378.88 
" style="fill: none; stroke: #000000; stroke-width: 0.8; stroke-linejoin: miter; stroke-linecap: square"/>
   </g>
   <g id="patch_6">
    <path d="M 52.869375 58.56 
L 489.618268 58.56 
" style="fill: none; stroke: #000000; stroke-width: 0.8; stroke-linejoin: miter; stroke-linecap: square"/>
   </g>
   <g id="text_16">
    <!-- Time per Move — Tic-Tac-Toe -->
    <g transform="translate(156.973821 52.56) scale(0.16 -0.16)">
     <defs>
      <path id="DejaVuSans-2014" d="M 313 1978 
L 6088 1978 
L 6088 1528 
L 313 1528 
L 313 1978 
z
" transform="scale(0.015625)"/>
      <path id="DejaVuSans-2d" d="M 313 2009 
L 1997 2009 
L 1997 1497 
L 313 1497 
L 313 2009 
z
" transform="scale(0.015625)"/>
     </defs>
     <use xlink:href="#DejaVuSans-54"/>
     <use xlink:href="#DejaVuSans-69" transform="translate(57.958984 0)"/>
     <use xlink:href="#DejaVuSans-6d" transform="translate(85.742188 0)"/>
     <use xlink:href="#DejaVuSans-65" transform="translate(183.154297 0)"/>
     <use xlink:href="#DejaVuSans-20" transform="translate(244.677734 0)"/>
     <use xlink:href="#DejaVuSans-70" transform="translate(276.464844 0)"/>
     <use xlink:href="#DejaVuSans-65" transform="translate(339.941406 0)"/>
     <use xlink:href="#DejaVuSans-72" transform="translate(401.464844 0)"/>
     <use xlink:href="#DejaVuSans-20" transform="translate(442.578125 0)"/>
     <use xlink:href="#DejaVuSans-4d" transform="translate(474.365234 0)"/>
     <use xlink:href="#DejaVuSans-6f" transform="translate(560.644531 0)"/>
     <use xlink:href="#DejaVuSans-76" transform="translate(621.826172 0)"/>
     <use xlink:href="#DejaVuSans-65" transform="translate(681.005859 0)"/>
     <use xlink:href="#DejaVuSans-20" transform="translate(742.529297 0)"/>
     <use xlink:href="#DejaVuSans-2014" transform="translate(774.316406 0)"/>
     <use xlink:href="#DejaVuSans-20" transform="translate(874.316406 0)"/>
     <use xlink:href="#DejaVuSans-54" transform="translate(906.103516 0)"/>
     <use xlink:href="#DejaVuSans-69" transform="translate(964.0625 0)"/>
     <use xlink:href="#DejaVuSans-63" transform="translate(991.845703 0)"/>
     <use xlink:href="#DejaVuSans-2d" transform="translate(1046.826172 0)"/>
     <use xlink:href="#DejaVuSans-54" transform="translate(1073.785156 0)"/>
     <use xlink:href="#DejaVuSans-61" transform="translate(1118.369141 0)"/>
     <use xlink:href="#DejaVuSans-63" transform="translate(1179.648438 0)"/>
     <use xlink:href="#DejaVuSans-2d" transform="translate(1234.628906 0)"/>
     <use xlink:href="#DejaVuSans-54" transform="translate(1261.587891 0)"/>
     <use xlink:href="#DejaVuSans-6f" transform="translate(1305.671875 0)"/>
     <use xlink:href="#DejaVuSans-65" transform="translate(1366.853516 0)"/>
    </g>
   </g>
   <g id="legend_1">
    <g id="patch_7">
     <path d="M 61.269375 103.3875 
L 193.846875 103.3875 
Q 196.246875 103.3875 196.246875 100.9875 
L 196.246875 66.96 
Q 196.246875 64.56 193.846875 64.56 
L 61.269375 64.56 
Q 58.869375 64.56 58.869375 66.96 
L 58.869375 100.9875 
Q 58.869375 103.3875 61.269375 103.3875 
z
" style="fill: #ffffff; opacity: 0.8; stroke: #cccccc; stroke-linejoin: miter"/>
    </g>
    <g id="line2d_64">
     <path d="M 63.669375 74.278125 
L 75.669375 74.278125 
L 87.669375 74.278125 
" style="fill: none; stroke: #e74c3c; stroke-width: 2.5; stroke-linecap: square"/>
     <g>
      <use xlink:href="#m0584659e75" x="75.669375" y="74.278125" style="fill: #e74c3c; stroke: #e74c3c"/>
     </g>
    </g>
    <g id="text_17">
     <!-- Vanilla Minimax -->
     <g transform="translate(97.269375 78.478125) scale(0.12 -0.12)">
      <defs>
       <path id="DejaVuSans-56" d="M 1831 0 
L 50 4666 
L 709 4666 
L 2188 738 
L 3669 4666 
L 4325 4666 
L 2547 0 
L 1831 0 
z
" transform="scale(0.015625)"/>
       <path id="DejaVuSans-6e" d="M 3513 2113 
L 3513 0 
L 2938 0 
L 2938 2094 
Q 2938 2591 2744 2837 
Q 2550 3084 2163 3084 
Q 1697 3084 1428 2787 
Q 1159 2491 1159 1978 
L 1159 0 
L 581 0 
L 581 3500 
L 1159 3500 
L 1159 2956 
Q 1366 3272 1645 3428 
Q 1925 3584 2291 3584 
Q 2894 3584 3203 3211 
Q 3513 2838 3513 2113 
z
" transform="scale(0.015625)"/>
       <path id="DejaVuSans-78" d="M 3513 3500 
L 2247 1797 
L 3578 0 
L 2900 0 
L 1881 1375 
L 863 0 
L 184 0 
L 1544 1831 
L 300 3500 
L 978 3500 
L 1906 2253 
L 2834 3500 
L 3513 3500 
z
" transform="scale(0.015625)"/>
      </defs>
      <use xlink:href="#DejaVuSans-56"/>
      <use xlink:href="#DejaVuSans-61" transform="translate(60.658203 0)"/>
      <use xlink:href="#DejaVuSans-6e" transform="translate(121.9375 0)"/>
      <use xlink:href="#DejaVuSans-69" transform="translate(185.316406 0)"/>
      <use xlink:href="#DejaVuSans-6c" transform="translate(213.099609 0)"/>
      <use xlink:href="#DejaVuSans-6c" transform="translate(240.882812 0)"/>
      <use xlink:href="#DejaVuSans-61" transform="translate(268.666016 0)"/>
      <use xlink:href="#DejaVuSans-20" transform="translate(329.945312 0)"/>
      <use xlink:href="#DejaVuSans-4d" transform="translate(361.732422 0)"/>
      <use xlink:href="#DejaVuSans-69" transform="translate(448.011719 0)"/>
      <use xlink:href="#DejaVuSans-6e" transform="translate(475.794922 0)"/>
      <use xlink:href="#DejaVuSans-69" transform="translate(539.173828 0)"/>
      <use xlink:href="#DejaVuSans-6d" transform="translate(566.957031 0)"/>
      <use xlink:href="#DejaVuSans-61" transform="translate(664.369141 0)"/>
      <use xlink:href="#DejaVuSans-78" transform="translate(725.648438 0)"/>
     </g>
    </g>
    <g id="line2d_65">
     <path d="M 63.669375 91.891875 
L 75.669375 91.891875 
L 87.669375 91.891875 
" style="fill: none; stroke-dasharray: 9.25,4; stroke-dashoffset: 0; stroke: #2ecc71; stroke-width: 2.5"/>
     <g>
      <use xlink:href="#mb71bfae2ff" x="75.669375" y="91.891875" style="fill: #2ecc71; stroke: #2ecc71; stroke-linejoin: miter"/>
     </g>
    </g>
    <g id="text_18">
     <!-- Alpha-Beta -->
     <g transform="translate(97.269375 96.091875) scale(0.12 -0.12)">
      <defs>
       <path id="DejaVuSans-41" d="M 2188 4044 
L 1331 1722 
L 3047 1722 
L 2188 4044 
z
M 1831 4666 
L 2547 4666 
L 4325 0 
L 3669 0 
L 3244 1197 
L 1141 1197 
L 716 0 
L 50 0 
L 1831 4666 
z
" transform="scale(0.015625)"/>
       <path id="DejaVuSans-42" d="M 1259 2228 
L 1259 519 
L 2272 519 
Q 2781 519 3026 730 
Q 3272 941 3272 1375 
Q 3272 1813 3026 2020 
Q 2781 2228 2272 2228 
L 1259 2228 
z
M 1259 4147 
L 1259 2741 
L 2194 2741 
Q 2656 2741 2882 2914 
Q 3109 3088 3109 3444 
Q 3109 3797 2882 3972 
Q 2656 4147 2194 4147 
L 1259 4147 
z
M 628 4666 
L 2241 4666 
Q 2963 4666 3353 4366 
Q 3744 4066 3744 3513 
Q 3744 3084 3544 2831 
Q 3344 2578 2956 2516 
Q 3422 2416 3680 2098 
Q 3938 1781 3938 1306 
Q 3938 681 3513 340 
Q 3088 0 2303 0 
L 628 0 
L 628 4666 
z
" transform="scale(0.015625)"/>
      </defs>
      <use xlink:href="#DejaVuSans-41"/>
      <use xlink:href="#DejaVuSans-6c" transform="translate(68.408203 0)"/>
      <use xlink:href="#DejaVuSans-70" transform="translate(96.191406 0)"/>
      <use xlink:href="#DejaVuSans-68" transform="translate(159.667969 0)"/>
      <use xlink:href="#DejaVuSans-61" transform="translate(223.046875 0)"/>
      <use xlink:href="#DejaVuSans-2d" transform="translate(284.326172 0)"/>
      <use xlink:href="#DejaVuSans-42" transform="translate(316.785156 0)"/>
      <use xlink:href="#DejaVuSans-65" transform="translate(385.388672 0)"/>
      <use xlink:href="#DejaVuSans-74" transform="translate(446.912109 0)"/>
      <use xlink:href="#DejaVuSans-61" transform="translate(486.121094 0)"/>
     </g>
    </g>
   </g>
  </g>
  <g id="axes_2">
   <g id="patch_8">
    <path d="M 549.804375 378.88 
L 986.553268 378.88 
L 986.553268 58.56 
L 549.804375 58.56 
z
" style="fill: #ffffff"/>
   </g>
   <g id="matplotlib.axis_3">
    <g id="xtick_10">
     <g id="line2d_66">
      <path d="M 569.656597 378.88 
L 569.656597 58.56 
" clip-path="url(#p954ffaa173)" style="fill: none; stroke: #b0b0b0; stroke-opacity: 0.3; stroke-width: 0.8; stroke-linecap: square"/>
     </g>
     <g id="line2d_67">
      <g>
       <use xlink:href="#m663416734b" x="569.656597" y="378.88" style="stroke: #000000; stroke-width: 0.8"/>
      </g>
     </g>
     <g id="text_19">
      <!-- 1.0 -->
      <g transform="translate(560.114722 394.998125) scale(0.12 -0.12)">
       <defs>
        <path id="DejaVuSans-2e" d="M 684 794 
L 1344 794 
L 1344 0 
L 684 0 
L 684 794 
z
" transform="scale(0.015625)"/>
       </defs>
       <use xlink:href="#DejaVuSans-31"/>
       <use xlink:href="#DejaVuSans-2e" transform="translate(63.623047 0)"/>
       <use xlink:href="#DejaVuSans-30" transform="translate(95.410156 0)"/>
      </g>
     </g>
    </g>
    <g id="xtick_11">
     <g id="line2d_68">
      <path d="M 619.287153 378.88 
L 619.287153 58.56 
" clip-path="url(#p954ffaa173)" style="fill: none; stroke: #b0b0b0; stroke-opacity: 0.3; stroke-width: 0.8; stroke-linecap: square"/>
     </g>
     <g id="line2d_69">
      <g>
       <use xlink:href="#m663416734b" x="619.287153" y="378.88" style="stroke: #000000; stroke-width: 0.8"/>
      </g>
     </g>
     <g id="text_20">
      <!-- 1.5 -->
      <g transform="translate(609.745278 394.998125) scale(0.12 -0.12)">
       <use xlink:href="#DejaVuSans-31"/>
       <use xlink:href="#DejaVuSans-2e" transform="translate(63.623047 0)"/>
       <use xlink:href="#DejaVuSans-35" transform="translate(95.410156 0)"/>
      </g>
     </g>
    </g>
    <g id="xtick_12">
     <g id="line2d_70">
      <path d="M 668.917709 378.88 
L 668.917709 58.56 
" clip-path="url(#p954ffaa173)" style="fill: none; stroke: #b0b0b0; stroke-opacity: 0.3; stroke-width: 0.8; stroke-linecap: square"/>
     </g>
     <g id="line2d_71">
      <g>
       <use xlink:href="#m663416734b" x="668.917709" y="378.88" style="stroke: #000000; stroke-width: 0.8"/>
      </g>
     </g>
     <g id="text_21">
      <!-- 2.0 -->
      <g transform="translate(659.375834 394.998125) scale(0.12 -0.12)">
       <use xlink:href="#DejaVuSans-32"/>
       <use xlink:href="#DejaVuSans-2e" transform="translate(63.623047 0)"/>
       <use xlink:href="#DejaVuSans-30" transform="translate(95.410156 0)"/>
      </g>
     </g>
    </g>
    <g id="xtick_13">
     <g id="line2d_72">
      <path d="M 718.548265 378.88 
L 718.548265 58.56 
" clip-path="url(#p954ffaa173)" style="fill: none; stroke: #b0b0b0; stroke-opacity: 0.3; stroke-width: 0.8; stroke-linecap: square"/>
     </g>
     <g id="line2d_73">
      <g>
       <use xlink:href="#m663416734b" x="718.548265" y="378.88" style="stroke: #000000; stroke-width: 0.8"/>
      </g>
     </g>
     <g id="text_22">
      <!-- 2.5 -->
      <g transform="translate(709.00639 394.998125) scale(0.12 -0.12)">
       <use xlink:href="#DejaVuSans-32"/>
       <use xlink:href="#DejaVuSans-2e" transform="translate(63.623047 0)"/>
       <use xlink:href="#DejaVuSans-35" transform="translate(95.410156 0)"/>
      </g>
     </g>
    </g>
    <g id="xtick_14">
     <g id="line2d_74">
      <path d="M 768.178821 378.88 
L 768.178821 58.56 
" clip-path="url(#p954ffaa173)" style="fill: none; stroke: #b0b0b0; stroke-opacity: 0.3; stroke-width: 0.8; stroke-linecap: square"/>
     </g>
     <g id="line2d_75">
      <g>
       <use xlink:href="#m663416734b" x="768.178821" y="378.88" style="stroke: #000000; stroke-width: 0.8"/>
      </g>
     </g>
     <g id="text_23">
      <!-- 3.0 -->
      <g transform="translate(758.636946 394.998125) scale(0.12 -0.12)">
       <use xlink:href="#DejaVuSans-33"/>
       <use xlink:href="#DejaVuSans-2e" transform="translate(63.623047 0)"/>
       <use xlink:href="#DejaVuSans-30" transform="translate(95.410156 0)"/>
      </g>
     </g>
    </g>
    <g id="xtick_15">
     <g id="line2d_76">
      <path d="M 817.809377 378.88 
L 817.809377 58.56 
" clip-path="url(#p954ffaa173)" style="fill: none; stroke: #b0b0b0; stroke-opacity: 0.3; stroke-width: 0.8; stroke-linecap: square"/>
     </g>
     <g id="line2d_77">
      <g>
       <use xlink:href="#m663416734b" x="817.809377" y="378.88" style="stroke: #000000; stroke-width: 0.8"/>
      </g>
     </g>
     <g id="text_24">
      <!-- 3.5 -->
      <g transform="translate(808.267502 394.998125) scale(0.12 -0.12)">
       <use xlink:href="#DejaVuSans-33"/>
       <use xlink:href="#DejaVuSans-2e" transform="translate(63.623047 0)"/>
       <use xlink:href="#DejaVuSans-35" transform="translate(95.410156 0)"/>
      </g>
     </g>
    </g>
    <g id="xtick_16">
     <g id="line2d_78">
      <path d="M 867.439933 378.88 
L 867.439933 58.56 
" clip-path="url(#p954ffaa173)" style="fill: none; stroke: #b0b0b0; stroke-opacity: 0.3; stroke-width: 0.8; stroke-linecap: square"/>
     </g>
     <g id="line2d_79">
      <g>
       <use xlink:href="#m663416734b" x="867.439933" y="378.88" style="stroke: #000000; stroke-width: 0.8"/>
      </g>
     </g>
     <g id="text_25">
      <!-- 4.0 -->
      <g transform="translate(857.898058 394.998125) scale(0.12 -0.12)">
       <use xlink:href="#DejaVuSans-34"/>
       <use xlink:href="#DejaVuSans-2e" transform="translate(63.623047 0)"/>
       <use xlink:href="#DejaVuSans-30" transform="translate(95.410156 0)"/>
      </g>
     </g>
    </g>
    <g id="xtick_17">
     <g id="line2d_80">
      <path d="M 917.070489 378.88 
L 917.070489 58.56 
" clip-path="url(#p954ffaa173)" style="fill: none; stroke: #b0b0b0; stroke-opacity: 0.3; stroke-width: 0.8; stroke-linecap: square"/>
     </g>
     <g id="line2d_81">
      <g>
       <use xlink:href="#m663416734b" x="917.070489" y="378.88" style="stroke: #000000; stroke-width: 0.8"/>
      </g>
     </g>
     <g id="text_26">
      <!-- 4.5 -->
      <g transform="translate(907.528614 394.998125) scale(0.12 -0.12)">
       <use xlink:href="#DejaVuSans-34"/>
       <use xlink:href="#DejaVuSans-2e" transform="translate(63.623047 0)"/>
       <use xlink:href="#DejaVuSans-35" transform="translate(95.410156 0)"/>
      </g>
     </g>
    </g>
    <g id="xtick_18">
     <g id="line2d_82">
      <path d="M 966.701045 378.88 
L 966.701045 58.56 
" clip-path="url(#p954ffaa173)" style="fill: none; stroke: #b0b0b0; stroke-opacity: 0.3; stroke-width: 0.8; stroke-linecap: square"/>
     </g>
     <g id="line2d_83">
      <g>
       <use xlink:href="#m663416734b" x="966.701045" y="378.88" style="stroke: #000000; stroke-width: 0.8"/>
      </g>
     </g>
     <g id="text_27">
      <!-- 5.0 -->
      <g transform="translate(957.15917 394.998125) scale(0.12 -0.12)">
       <use xlink:href="#DejaVuSans-35"/>
       <use xlink:href="#DejaVuSans-2e" transform="translate(63.623047 0)"/>
       <use xlink:href="#DejaVuSans-30" transform="translate(95.410156 0)"/>
      </g>
     </g>
    </g>
    <g id="text_28">
     <!-- Search Depth -->
     <g transform="translate(720.586478 412.131562) scale(0.14 -0.14)">
      <use xlink:href="#DejaVuSans-53"/>
      <use xlink:href="#DejaVuSans-65" transform="translate(63.476562 0)"/>
      <use xlink:href="#DejaVuSans-61" transform="translate(125 0)"/>
      <use xlink:href="#DejaVuSans-72" transform="translate(186.279297 0)"/>
      <use xlink:href="#DejaVuSans-63" transform="translate(225.142578 0)"/>
      <use xlink:href="#DejaVuSans-68" transform="translate(280.123047 0)"/>
      <use xlink:href="#DejaVuSans-20" transform="translate(343.501953 0)"/>
      <use xlink:href="#DejaVuSans-44" transform="translate(375.289062 0)"/>
      <use xlink:href="#DejaVuSans-65" transform="translate(452.291016 0)"/>
      <use xlink:href="#DejaVuSans-70" transform="translate(513.814453 0)"/>
      <use xlink:href="#DejaVuSans-74" transform="translate(577.291016 0)"/>
      <use xlink:href="#DejaVuSans-68" transform="translate(616.5 0)"/>
     </g>
    </g>
   </g>
   <g id="matplotlib.axis_4">
    <g id="ytick_40">
     <g id="line2d_84">
      <path d="M 549.804375 280.749389 
L 986.553268 280.749389 
" clip-path="url(#p954ffaa173)" style="fill: none; stroke: #b0b0b0; stroke-opacity: 0.3; stroke-width: 0.8; stroke-linecap: square"/>
     </g>
     <g id="line2d_85">
      <g>
       <use xlink:href="#m37d0c73219" x="549.804375" y="280.749389" style="stroke: #000000; stroke-width: 0.8"/>
      </g>
     </g>
     <g id="text_29">
      <!-- $\mathdefault{10^{1}}$ -->
      <g transform="translate(521.684375 285.308451) scale(0.12 -0.12)">
       <use xlink:href="#DejaVuSans-31" transform="translate(0 0.684375)"/>
       <use xlink:href="#DejaVuSans-30" transform="translate(63.623047 0.684375)"/>
       <use xlink:href="#DejaVuSans-31" transform="translate(128.203125 38.965625) scale(0.7)"/>
      </g>
     </g>
    </g>
    <g id="ytick_41">
     <g id="line2d_86">
      <path d="M 549.804375 174.824627 
L 986.553268 174.824627 
" clip-path="url(#p954ffaa173)" style="fill: none; stroke: #b0b0b0; stroke-opacity: 0.3; stroke-width: 0.8; stroke-linecap: square"/>
     </g>
     <g id="line2d_87">
      <g>
       <use xlink:href="#m37d0c73219" x="549.804375" y="174.824627" style="stroke: #000000; stroke-width: 0.8"/>
      </g>
     </g>
     <g id="text_30">
      <!-- $\mathdefault{10^{2}}$ -->
      <g transform="translate(521.684375 179.38369) scale(0.12 -0.12)">
       <use xlink:href="#DejaVuSans-31" transform="translate(0 0.765625)"/>
       <use xlink:href="#DejaVuSans-30" transform="translate(63.623047 0.765625)"/>
       <use xlink:href="#DejaVuSans-32" transform="translate(128.203125 39.046875) scale(0.7)"/>
      </g>
     </g>
    </g>
    <g id="ytick_42">
     <g id="line2d_88">
      <path d="M 549.804375 68.899866 
L 986.553268 68.899866 
" clip-path="url(#p954ffaa173)" style="fill: none; stroke: #b0b0b0; stroke-opacity: 0.3; stroke-width: 0.8; stroke-linecap: square"/>
     </g>
     <g id="line2d_89">
      <g>
       <use xlink:href="#m37d0c73219" x="549.804375" y="68.899866" style="stroke: #000000; stroke-width: 0.8"/>
      </g>
     </g>
     <g id="text_31">
      <!-- $\mathdefault{10^{3}}$ -->
      <g transform="translate(521.684375 73.458929) scale(0.12 -0.12)">
       <use xlink:href="#DejaVuSans-31" transform="translate(0 0.765625)"/>
       <use xlink:href="#DejaVuSans-30" transform="translate(63.623047 0.765625)"/>
       <use xlink:href="#DejaVuSans-33" transform="translate(128.203125 39.046875) scale(0.7)"/>
      </g>
     </g>
    </g>
    <g id="ytick_43">
     <g id="line2d_90">
      <g>
       <use xlink:href="#m832b16fa19" x="549.804375" y="354.787619" style="stroke: #000000; stroke-width: 0.6"/>
      </g>
     </g>
    </g>
    <g id="ytick_44">
     <g id="line2d_91">
      <g>
       <use xlink:href="#m832b16fa19" x="549.804375" y="336.135195" style="stroke: #000000; stroke-width: 0.6"/>
      </g>
     </g>
    </g>
    <g id="ytick_45">
     <g id="line2d_92">
      <g>
       <use xlink:href="#m832b16fa19" x="549.804375" y="322.901089" style="stroke: #000000; stroke-width: 0.6"/>
      </g>
     </g>
    </g>
    <g id="ytick_46">
     <g id="line2d_93">
      <g>
       <use xlink:href="#m832b16fa19" x="549.804375" y="312.635919" style="stroke: #000000; stroke-width: 0.6"/>
      </g>
     </g>
    </g>
    <g id="ytick_47">
     <g id="line2d_94">
      <g>
       <use xlink:href="#m832b16fa19" x="549.804375" y="304.248665" style="stroke: #000000; stroke-width: 0.6"/>
      </g>
     </g>
    </g>
    <g id="ytick_48">
     <g id="line2d_95">
      <g>
       <use xlink:href="#m832b16fa19" x="549.804375" y="297.157342" style="stroke: #000000; stroke-width: 0.6"/>
      </g>
     </g>
    </g>
    <g id="ytick_49">
     <g id="line2d_96">
      <g>
       <use xlink:href="#m832b16fa19" x="549.804375" y="291.014559" style="stroke: #000000; stroke-width: 0.6"/>
      </g>
     </g>
    </g>
    <g id="ytick_50">
     <g id="line2d_97">
      <g>
       <use xlink:href="#m832b16fa19" x="549.804375" y="285.59624" style="stroke: #000000; stroke-width: 0.6"/>
      </g>
     </g>
    </g>
    <g id="ytick_51">
     <g id="line2d_98">
      <g>
       <use xlink:href="#m832b16fa19" x="549.804375" y="248.862858" style="stroke: #000000; stroke-width: 0.6"/>
      </g>
     </g>
    </g>
    <g id="ytick_52">
     <g id="line2d_99">
      <g>
       <use xlink:href="#m832b16fa19" x="549.804375" y="230.210434" style="stroke: #000000; stroke-width: 0.6"/>
      </g>
     </g>
    </g>
    <g id="ytick_53">
     <g id="line2d_100">
      <g>
       <use xlink:href="#m832b16fa19" x="549.804375" y="216.976328" style="stroke: #000000; stroke-width: 0.6"/>
      </g>
     </g>
    </g>
    <g id="ytick_54">
     <g id="line2d_101">
      <g>
       <use xlink:href="#m832b16fa19" x="549.804375" y="206.711158" style="stroke: #000000; stroke-width: 0.6"/>
      </g>
     </g>
    </g>
    <g id="ytick_55">
     <g id="line2d_102">
      <g>
       <use xlink:href="#m832b16fa19" x="549.804375" y="198.323903" style="stroke: #000000; stroke-width: 0.6"/>
      </g>
     </g>
    </g>
    <g id="ytick_56">
     <g id="line2d_103">
      <g>
       <use xlink:href="#m832b16fa19" x="549.804375" y="191.232581" style="stroke: #000000; stroke-width: 0.6"/>
      </g>
     </g>
    </g>
    <g id="ytick_57">
     <g id="line2d_104">
      <g>
       <use xlink:href="#m832b16fa19" x="549.804375" y="185.089797" style="stroke: #000000; stroke-width: 0.6"/>
      </g>
     </g>
    </g>
    <g id="ytick_58">
     <g id="line2d_105">
      <g>
       <use xlink:href="#m832b16fa19" x="549.804375" y="179.671479" style="stroke: #000000; stroke-width: 0.6"/>
      </g>
     </g>
    </g>
    <g id="ytick_59">
     <g id="line2d_106">
      <g>
       <use xlink:href="#m832b16fa19" x="549.804375" y="142.938097" style="stroke: #000000; stroke-width: 0.6"/>
      </g>
     </g>
    </g>
    <g id="ytick_60">
     <g id="line2d_107">
      <g>
       <use xlink:href="#m832b16fa19" x="549.804375" y="124.285672" style="stroke: #000000; stroke-width: 0.6"/>
      </g>
     </g>
    </g>
    <g id="ytick_61">
     <g id="line2d_108">
      <g>
       <use xlink:href="#m832b16fa19" x="549.804375" y="111.051567" style="stroke: #000000; stroke-width: 0.6"/>
      </g>
     </g>
    </g>
    <g id="ytick_62">
     <g id="line2d_109">
      <g>
       <use xlink:href="#m832b16fa19" x="549.804375" y="100.786397" style="stroke: #000000; stroke-width: 0.6"/>
      </g>
     </g>
    </g>
    <g id="ytick_63">
     <g id="line2d_110">
      <g>
       <use xlink:href="#m832b16fa19" x="549.804375" y="92.399142" style="stroke: #000000; stroke-width: 0.6"/>
      </g>
     </g>
    </g>
    <g id="ytick_64">
     <g id="line2d_111">
      <g>
       <use xlink:href="#m832b16fa19" x="549.804375" y="85.307819" style="stroke: #000000; stroke-width: 0.6"/>
      </g>
     </g>
    </g>
    <g id="ytick_65">
     <g id="line2d_112">
      <g>
       <use xlink:href="#m832b16fa19" x="549.804375" y="79.165036" style="stroke: #000000; stroke-width: 0.6"/>
      </g>
     </g>
    </g>
    <g id="ytick_66">
     <g id="line2d_113">
      <g>
       <use xlink:href="#m832b16fa19" x="549.804375" y="73.746717" style="stroke: #000000; stroke-width: 0.6"/>
      </g>
     </g>
    </g>
    <g id="text_32">
     <!-- Time per Move (ms, log scale) -->
     <g transform="translate(514.772813 324.232969) rotate(-90) scale(0.14 -0.14)">
      <use xlink:href="#DejaVuSans-54"/>
      <use xlink:href="#DejaVuSans-69" transform="translate(57.958984 0)"/>
      <use xlink:href="#DejaVuSans-6d" transform="translate(85.742188 0)"/>
      <use xlink:href="#DejaVuSans-65" transform="translate(183.154297 0)"/>
      <use xlink:href="#DejaVuSans-20" transform="translate(244.677734 0)"/>
      <use xlink:href="#DejaVuSans-70" transform="translate(276.464844 0)"/>
      <use xlink:href="#DejaVuSans-65" transform="translate(339.941406 0)"/>
      <use xlink:href="#DejaVuSans-72" transform="translate(401.464844 0)"/>
      <use xlink:href="#DejaVuSans-20" transform="translate(442.578125 0)"/>
      <use xlink:href="#DejaVuSans-4d" transform="translate(474.365234 0)"/>
      <use xlink:href="#DejaVuSans-6f" transform="translate(560.644531 0)"/>
      <use xlink:href="#DejaVuSans-76" transform="translate(621.826172 0)"/>
      <use xlink:href="#DejaVuSans-65" transform="translate(681.005859 0)"/>
      <use xlink:href="#DejaVuSans-20" transform="translate(742.529297 0)"/>
      <use xlink:href="#DejaVuSans-28" transform="translate(774.316406 0)"/>
      <use xlink:href="#DejaVuSans-6d" transform="translate(813.330078 0)"/>
      <use xlink:href="#DejaVuSans-73" transform="translate(910.742188 0)"/>
      <use xlink:href="#DejaVuSans-2c" transform="translate(962.841797 0)"/>
      <use xlink:href="#DejaVuSans-20" transform="translate(994.628906 0)"/>
      <use xlink:href="#DejaVuSans-6c" transform="translate(1026.416016 0)"/>
      <use xlink:href="#DejaVuSans-6f" transform="translate(1054.199219 0)"/>
      <use xlink:href="#DejaVuSans-67" transform="translate(1115.380859 0)"/>
      <use xlink:href="#DejaVuSans-20" transform="translate(1178.857422 0)"/>
      <use xlink:href="#DejaVuSans-73" transform="translate(1210.644531 0)"/>
      <use xlink:href="#DejaVuSans-63" transform="translate(1262.744141 0)"/>
      <use xlink:href="#DejaVuSans-61" transform="translate(1317.724609 0)"/>
      <use xlink:href="#DejaVuSans-6c" transform="translate(1379.003906 0)"/>
      <use xlink:href="#DejaVuSans-65" transform="translate(1406.787109 0)"/>
      <use xlink:href="#DejaVuSans-29" transform="translate(1468.310547 0)"/>
     </g>
    </g>
   </g>
   <g id="line2d_114">
    <path d="M 569.656597 358.412757 
L 668.917709 247.689749 
L 768.178821 169.745113 
L 867.439933 73.12 
" clip-path="url(#p954ffaa173)" style="fill: none; stroke: #e74c3c; stroke-width: 2.5; stroke-linecap: square"/>
    <g clip-path="url(#p954ffaa173)">
     <use xlink:href="#m0584659e75" x="569.656597" y="358.412757" style="fill: #e74c3c; stroke: #e74c3c"/>
     <use xlink:href="#m0584659e75" x="668.917709" y="247.689749" style="fill: #e74c3c; stroke: #e74c3c"/>
     <use xlink:href="#m0584659e75" x="768.178821" y="169.745113" style="fill: #e74c3c; stroke: #e74c3c"/>
     <use xlink:href="#m0584659e75" x="867.439933" y="73.12" style="fill: #e74c3c; stroke: #e74c3c"/>
    </g>
   </g>
   <g id="line2d_115">
    <path d="M 569.656597 364.32 
L 668.917709 329.486515 
L 768.178821 265.036399 
L 867.439933 199.655881 
L 966.701045 146.57493 
" clip-path="url(#p954ffaa173)" style="fill: none; stroke-dasharray: 9.25,4; stroke-dashoffset: 0; stroke: #2ecc71; stroke-width: 2.5"/>
    <g clip-path="url(#p954ffaa173)">
     <use xlink:href="#mb71bfae2ff" x="569.656597" y="364.32" style="fill: #2ecc71; stroke: #2ecc71; stroke-linejoin: miter"/>
     <use xlink:href="#mb71bfae2ff" x="668.917709" y="329.486515" style="fill: #2ecc71; stroke: #2ecc71; stroke-linejoin: miter"/>
     <use xlink:href="#mb71bfae2ff" x="768.178821" y="265.036399" style="fill: #2ecc71; stroke: #2ecc71; stroke-linejoin: miter"/>
     <use xlink:href="#mb71bfae2ff" x="867.439933" y="199.655881" style="fill: #2ecc71; stroke: #2ecc71; stroke-linejoin: miter"/>
     <use xlink:href="#mb71bfae2ff" x="966.701045" y="146.57493" style="fill: #2ecc71; stroke: #2ecc71; stroke-linejoin: miter"/>
    </g>
   </g>
   <g id="patch_9">
    <path d="M 549.804375 378.88 
L 549.804375 58.56 
" style="fill: none; stroke: #000000; stroke-width: 0.8; stroke-linejoin: miter; stroke-linecap: square"/>
   </g>
   <g id="patch_10">
    <path d="M 986.553268 378.88 
L 986.553268 58.56 
" style="fill: none; stroke: #000000; stroke-width: 0.8; stroke-linejoin: miter; stroke-linecap: square"/>
   </g>
   <g id="patch_11">
    <path d="M 549.804375 378.88 
L 986.553268 378.88 
" style="fill: none; stroke: #000000; stroke-width: 0.8; stroke-linejoin: miter; stroke-linecap: square"/>
   </g>
   <g id="patch_12">
    <path d="M 549.804375 58.56 
L 986.553268 58.56 
" style="fill: none; stroke: #000000; stroke-width: 0.8; stroke-linejoin: miter; stroke-linecap: square"/>
   </g>
   <g id="text_33">
    <!-- Time per Move — Connect 4 -->
    <g transform="translate(654.978821 52.56) scale(0.16 -0.16)">
     <defs>
      <path id="DejaVuSans-43" d="M 4122 4306 
L 4122 3641 
Q 3803 3938 3442 4084 
Q 3081 4231 2675 4231 
Q 1875 4231 1450 3742 
Q 1025 3253 1025 2328 
Q 1025 1406 1450 917 
Q 1875 428 2675 428 
Q 3081 428 3442 575 
Q 3803 722 4122 1019 
L 4122 359 
Q 3791 134 3420 21 
Q 3050 -91 2638 -91 
Q 1578 -91 968 557 
Q 359 1206 359 2328 
Q 359 3453 968 4101 
Q 1578 4750 2638 4750 
Q 3056 4750 3426 4639 
Q 3797 4528 4122 4306 
z
" transform="scale(0.015625)"/>
     </defs>
     <use xlink:href="#DejaVuSans-54"/>
     <use xlink:href="#DejaVuSans-69" transform="translate(57.958984 0)"/>
     <use xlink:href="#DejaVuSans-6d" transform="translate(85.742188 0)"/>
     <use xlink:href="#DejaVuSans-65" transform="translate(183.154297 0)"/>
     <use xlink:href="#DejaVuSans-20" transform="translate(244.677734 0)"/>
     <use xlink:href="#DejaVuSans-70" transform="translate(276.464844 0)"/>
     <use xlink:href="#DejaVuSans-65" transform="translate(339.941406 0)"/>
     <use xlink:href="#DejaVuSans-72" transform="translate(401.464844 0)"/>
     <use xlink:href="#DejaVuSans-20" transform="translate(442.578125 0)"/>
     <use xlink:href="#DejaVuSans-4d" transform="translate(474.365234 0)"/>
     <use xlink:href="#DejaVuSans-6f" transform="translate(560.644531 0)"/>
     <use xlink:href="#DejaVuSans-76" transform="translate(621.826172 0)"/>
     <use xlink:href="#DejaVuSans-65" transform="translate(681.005859 0)"/>
     <use xlink:href="#DejaVuSans-20" transform="translate(742.529297 0)"/>
     <use xlink:href="#DejaVuSans-2014" transform="translate(774.316406 0)"/>
     <use xlink:href="#DejaVuSans-20" transform="translate(874.316406 0)"/>
     <use xlink:href="#DejaVuSans-43" transform="translate(906.103516 0)"/>
     <use xlink:href="#DejaVuSans-6f" transform="translate(975.927734 0)"/>
     <use xlink:href="#DejaVuSans-6e" transform="translate(1037.109375 0)"/>
     <use xlink:href="#DejaVuSans-6e" transform="translate(1100.488281 0)"/>
     <use xlink:href="#DejaVuSans-65" transform="translate(1163.867188 0)"/>
     <use xlink:href="#DejaVuSans-63" transform="translate(1225.390625 0)"/>
     <use xlink:href="#DejaVuSans-74" transform="translate(1280.371094 0)"/>
     <use xlink:href="#DejaVuSans-20" transform="translate(1319.580078 0)"/>
     <use xlink:href="#DejaVuSans-34" transform="translate(1351.367188 0)"/>
    </g>
   </g>
   <g id="legend_2">
    <g id="patch_13">
     <path d="M 558.204375 103.3875 
L 690.781875 103.3875 
Q 693.181875 103.3875 693.181875 100.9875 
L 693.181875 66.96 
Q 693.181875 64.56 690.781875 64.56 
L 558.204375 64.56 
Q 555.804375 64.56 555.804375 66.96 
L 555.804375 100.9875 
Q 555.804375 103.3875 558.204375 103.3875 
z
" style="fill: #ffffff; opacity: 0.8; stroke: #cccccc; stroke-linejoin: miter"/>
    </g>
    <g id="line2d_116">
     <path d="M 560.604375 74.278125 
L 572.604375 74.278125 
L 584.604375 74.278125 
" style="fill: none; stroke: #e74c3c; stroke-width: 2.5; stroke-linecap: square"/>
     <g>
      <use xlink:href="#m0584659e75" x="572.604375" y="74.278125" style="fill: #e74c3c; stroke: #e74c3c"/>
     </g>
    </g>
    <g id="text_34">
     <!-- Vanilla Minimax -->
     <g transform="translate(594.204375 78.478125) scale(0.12 -0.12)">
      <use xlink:href="#DejaVuSans-56"/>
      <use xlink:href="#DejaVuSans-61" transform="translate(60.658203 0)"/>
      <use xlink:href="#DejaVuSans-6e" transform="translate(121.9375 0)"/>
      <use xlink:href="#DejaVuSans-69" transform="translate(185.316406 0)"/>
      <use xlink:href="#DejaVuSans-6c" transform="translate(213.099609 0)"/>
      <use xlink:href="#DejaVuSans-6c" transform="translate(240.882812 0)"/>
      <use xlink:href="#DejaVuSans-61" transform="translate(268.666016 0)"/>
      <use xlink:href="#DejaVuSans-20" transform="translate(329.945312 0)"/>
      <use xlink:href="#DejaVuSans-4d" transform="translate(361.732422 0)"/>
      <use xlink:href="#DejaVuSans-69" transform="translate(448.011719 0)"/>
      <use xlink:href="#DejaVuSans-6e" transform="translate(475.794922 0)"/>
      <use xlink:href="#DejaVuSans-69" transform="translate(539.173828 0)"/>
      <use xlink:href="#DejaVuSans-6d" transform="translate(566.957031 0)"/>
      <use xlink:href="#DejaVuSans-61" transform="translate(664.369141 0)"/>
      <use xlink:href="#DejaVuSans-78" transform="translate(725.648438 0)"/>
     </g>
    </g>
    <g id="line2d_117">
     <path d="M 560.604375 91.891875 
L 572.604375 91.891875 
L 584.604375 91.891875 
" style="fill: none; stroke-dasharray: 9.25,4; stroke-dashoffset: 0; stroke: #2ecc71; stroke-width: 2.5"/>
     <g>
      <use xlink:href="#mb71bfae2ff" x="572.604375" y="91.891875" style="fill: #2ecc71; stroke: #2ecc71; stroke-linejoin: miter"/>
     </g>
    </g>
    <g id="text_35">
     <!-- Alpha-Beta -->
     <g transform="translate(594.204375 96.091875) scale(0.12 -0.12)">
      <use xlink:href="#DejaVuSans-41"/>
      <use xlink:href="#DejaVuSans-6c" transform="translate(68.408203 0)"/>
      <use xlink:href="#DejaVuSans-70" transform="translate(96.191406 0)"/>
      <use xlink:href="#DejaVuSans-68" transform="translate(159.667969 0)"/>
      <use xlink:href="#DejaVuSans-61" transform="translate(223.046875 0)"/>
      <use xlink:href="#DejaVuSans-2d" transform="translate(284.326172 0)"/>
      <use xlink:href="#DejaVuSans-42" transform="translate(316.785156 0)"/>
      <use xlink:href="#DejaVuSans-65" transform="translate(385.388672 0)"/>
      <use xlink:href="#DejaVuSans-74" transform="translate(446.912109 0)"/>
      <use xlink:href="#DejaVuSans-61" transform="translate(486.121094 0)"/>
     </g>
    </g>
   </g>
  </g>
  <g id="text_36">
   <!-- Minimax vs Alpha-Beta Pruning: Wall-Clock Time -->
   <g transform="translate(282.881799 19.053562) scale(0.156 -0.156)">
    <defs>
     <path id="DejaVuSans-Bold-4d" d="M 588 4666 
L 2119 4666 
L 3181 2169 
L 4250 4666 
L 5778 4666 
L 5778 0 
L 4641 0 
L 4641 3413 
L 3566 897 
L 2803 897 
L 1728 3413 
L 1728 0 
L 588 0 
L 588 4666 
z
" transform="scale(0.015625)"/>
     <path id="DejaVuSans-Bold-69" d="M 538 3500 
L 1656 3500 
L 1656 0 
L 538 0 
L 538 3500 
z
M 538 4863 
L 1656 4863 
L 1656 3950 
L 538 3950 
L 538 4863 
z
" transform="scale(0.015625)"/>
     <path id="DejaVuSans-Bold-6e" d="M 4056 2131 
L 4056 0 
L 2931 0 
L 2931 347 
L 2931 1631 
Q 2931 2084 2911 2256 
Q 2891 2428 2841 2509 
Q 2775 2619 2662 2680 
Q 2550 2741 2406 2741 
Q 2056 2741 1856 2470 
Q 1656 2200 1656 1722 
L 1656 0 
L 538 0 
L 538 3500 
L 1656 3500 
L 1656 2988 
Q 1909 3294 2193 3439 
Q 2478 3584 2822 3584 
Q 3428 3584 3742 3212 
Q 4056 2841 4056 2131 
z
" transform="scale(0.015625)"/>
     <path id="DejaVuSans-Bold-6d" d="M 3781 2919 
Q 3994 3244 4286 3414 
Q 4578 3584 4928 3584 
Q 5531 3584 5847 3212 
Q 6163 2841 6163 2131 
L 6163 0 
L 5038 0 
L 5038 1825 
Q 5041 1866 5042 1909 
Q 5044 1953 5044 2034 
Q 5044 2406 4934 2573 
Q 4825 2741 4581 2741 
Q 4263 2741 4089 2478 
Q 3916 2216 3909 1719 
L 3909 0 
L 2784 0 
L 2784 1825 
Q 2784 2406 2684 2573 
Q 2584 2741 2328 2741 
Q 2006 2741 1831 2477 
Q 1656 2213 1656 1722 
L 1656 0 
L 531 0 
L 531 3500 
L 1656 3500 
L 1656 2988 
Q 1863 3284 2130 3434 
Q 2397 3584 2719 3584 
Q 3081 3584 3359 3409 
Q 3638 3234 3781 2919 
z
" transform="scale(0.015625)"/>
     <path id="DejaVuSans-Bold-61" d="M 2106 1575 
Q 1756 1575 1579 1456 
Q 1403 1338 1403 1106 
Q 1403 894 1545 773 
Q 1688 653 1941 653 
Q 2256 653 2472 879 
Q 2688 1106 2688 1447 
L 2688 1575 
L 2106 1575 
z
M 3816 1997 
L 3816 0 
L 2688 0 
L 2688 519 
Q 2463 200 2181 54 
Q 1900 -91 1497 -91 
Q 953 -91 614 226 
Q 275 544 275 1050 
Q 275 1666 698 1953 
Q 1122 2241 2028 2241 
L 2688 2241 
L 2688 2328 
Q 2688 2594 2478 2717 
Q 2269 2841 1825 2841 
Q 1466 2841 1156 2769 
Q 847 2697 581 2553 
L 581 3406 
Q 941 3494 1303 3539 
Q 1666 3584 2028 3584 
Q 2975 3584 3395 3211 
Q 3816 2838 3816 1997 
z
" transform="scale(0.015625)"/>
     <path id="DejaVuSans-Bold-78" d="M 1422 1791 
L 159 3500 
L 1344 3500 
L 2059 2463 
L 2784 3500 
L 3969 3500 
L 2706 1797 
L 4031 0 
L 2847 0 
L 2059 1106 
L 1281 0 
L 97 0 
L 1422 1791 
z
" transform="scale(0.015625)"/>
     <path id="DejaVuSans-Bold-20" transform="scale(0.015625)"/>
     <path id="DejaVuSans-Bold-76" d="M 97 3500 
L 1216 3500 
L 2088 1081 
L 2956 3500 
L 4078 3500 
L 2700 0 
L 1472 0 
L 97 3500 
z
" transform="scale(0.015625)"/>
     <path id="DejaVuSans-Bold-73" d="M 3272 3391 
L 3272 2541 
Q 2913 2691 2578 2766 
Q 2244 2841 1947 2841 
Q 1628 2841 1473 2761 
Q 1319 2681 1319 2516 
Q 1319 2381 1436 2309 
Q 1553 2238 1856 2203 
L 2053 2175 
Q 2913 2066 3209 1816 
Q 3506 1566 3506 1031 
Q 3506 472 3093 190 
Q 2681 -91 1863 -91 
Q 1516 -91 1145 -36 
Q 775 19 384 128 
L 384 978 
Q 719 816 1070 734 
Q 1422 653 1784 653 
Q 2113 653 2278 743 
Q 2444 834 2444 1013 
Q 2444 1163 2330 1236 
Q 2216 1309 1875 1350 
L 1678 1375 
Q 931 1469 631 1722 
Q 331 1975 331 2491 
Q 331 3047 712 3315 
Q 1094 3584 1881 3584 
Q 2191 3584 2531 3537 
Q 2872 3491 3272 3391 
z
" transform="scale(0.015625)"/>
     <path id="DejaVuSans-Bold-41" d="M 3419 850 
L 1538 850 
L 1241 0 
L 31 0 
L 1759 4666 
L 3194 4666 
L 4922 0 
L 3713 0 
L 3419 850 
z
M 1838 1716 
L 3116 1716 
L 2478 3572 
L 1838 1716 
z
" transform="scale(0.015625)"/>
     <path id="DejaVuSans-Bold-6c" d="M 538 4863 
L 1656 4863 
L 1656 0 
L 538 0 
L 538 4863 
z
" transform="scale(0.015625)"/>
     <path id="DejaVuSans-Bold-70" d="M 1656 506 
L 1656 -1331 
L 538 -1331 
L 538 3500 
L 1656 3500 
L 1656 2988 
Q 1888 3294 2169 3439 
Q 2450 3584 2816 3584 
Q 3463 3584 3878 3070 
Q 4294 2556 4294 1747 
Q 4294 938 3878 423 
Q 3463 -91 2816 -91 
Q 2450 -91 2169 54 
Q 1888 200 1656 506 
z
M 2400 2772 
Q 2041 2772 1848 2508 
Q 1656 2244 1656 1747 
Q 1656 1250 1848 986 
Q 2041 722 2400 722 
Q 2759 722 2948 984 
Q 3138 1247 3138 1747 
Q 3138 2247 2948 2509 
Q 2759 2772 2400 2772 
z
" transform="scale(0.015625)"/>
     <path id="DejaVuSans-Bold-68" d="M 4056 2131 
L 4056 0 
L 2931 0 
L 2931 347 
L 2931 1625 
Q 2931 2084 2911 2256 
Q 2891 2428 2841 2509 
Q 2775 2619 2662 2680 
Q 2550 2741 2406 2741 
Q 2056 2741 1856 2470 
Q 1656 2200 1656 1722 
L 1656 0 
L 538 0 
L 538 4863 
L 1656 4863 
L 1656 2988 
Q 1909 3294 2193 3439 
Q 2478 3584 2822 3584 
Q 3428 3584 3742 3212 
Q 4056 2841 4056 2131 
z
" transform="scale(0.015625)"/>
     <path id="DejaVuSans-Bold-2d" d="M 347 2297 
L 2309 2297 
L 2309 1388 
L 347 1388 
L 347 2297 
z
" transform="scale(0.015625)"/>
     <path id="DejaVuSans-Bold-42" d="M 2456 2859 
Q 2741 2859 2887 2984 
Q 3034 3109 3034 3353 
Q 3034 3594 2887 3720 
Q 2741 3847 2456 3847 
L 1791 3847 
L 1791 2859 
L 2456 2859 
z
M 2497 819 
Q 2859 819 3042 972 
Q 3225 1125 3225 1434 
Q 3225 1738 3044 1889 
Q 2863 2041 2497 2041 
L 1791 2041 
L 1791 819 
L 2497 819 
z
M 3616 2497 
Q 4003 2384 4215 2081 
Q 4428 1778 4428 1338 
Q 4428 663 3972 331 
Q 3516 0 2584 0 
L 588 0 
L 588 4666 
L 2394 4666 
Q 3366 4666 3802 4372 
Q 4238 4078 4238 3431 
Q 4238 3091 4078 2852 
Q 3919 2613 3616 2497 
z
" transform="scale(0.015625)"/>
     <path id="DejaVuSans-Bold-65" d="M 4031 1759 
L 4031 1441 
L 1416 1441 
Q 1456 1047 1700 850 
Q 1944 653 2381 653 
Q 2734 653 3104 758 
Q 3475 863 3866 1075 
L 3866 213 
Q 3469 63 3072 -14 
Q 2675 -91 2278 -91 
Q 1328 -91 801 392 
Q 275 875 275 1747 
Q 275 2603 792 3093 
Q 1309 3584 2216 3584 
Q 3041 3584 3536 3087 
Q 4031 2591 4031 1759 
z
M 2881 2131 
Q 2881 2450 2695 2645 
Q 2509 2841 2209 2841 
Q 1884 2841 1681 2658 
Q 1478 2475 1428 2131 
L 2881 2131 
z
" transform="scale(0.015625)"/>
     <path id="DejaVuSans-Bold-74" d="M 1759 4494 
L 1759 3500 
L 2913 3500 
L 2913 2700 
L 1759 2700 
L 1759 1216 
Q 1759 972 1856 886 
Q 1953 800 2241 800 
L 2816 800 
L 2816 0 
L 1856 0 
Q 1194 0 917 276 
Q 641 553 641 1216 
L 641 2700 
L 84 2700 
L 84 3500 
L 641 3500 
L 641 4494 
L 1759 4494 
z
" transform="scale(0.015625)"/>
     <path id="DejaVuSans-Bold-50" d="M 588 4666 
L 2584 4666 
Q 3475 4666 3951 4270 
Q 4428 3875 4428 3144 
Q 4428 2409 3951 2014 
Q 3475 1619 2584 1619 
L 1791 1619 
L 1791 0 
L 588 0 
L 588 4666 
z
M 1791 3794 
L 1791 2491 
L 2456 2491 
Q 2806 2491 2997 2661 
Q 3188 2831 3188 3144 
Q 3188 3456 2997 3625 
Q 2806 3794 2456 3794 
L 1791 3794 
z
" transform="scale(0.015625)"/>
     <path id="DejaVuSans-Bold-72" d="M 3138 2547 
Q 2991 2616 2845 2648 
Q 2700 2681 2553 2681 
Q 2122 2681 1889 2404 
Q 1656 2128 1656 1613 
L 1656 0 
L 538 0 
L 538 3500 
L 1656 3500 
L 1656 2925 
Q 1872 3269 2151 3426 
Q 2431 3584 2822 3584 
Q 2878 3584 2943 3579 
Q 3009 3575 3134 3559 
L 3138 2547 
z
" transform="scale(0.015625)"/>
     <path id="DejaVuSans-Bold-75" d="M 500 1363 
L 500 3500 
L 1625 3500 
L 1625 3150 
Q 1625 2866 1622 2436 
Q 1619 2006 1619 1863 
Q 1619 1441 1641 1255 
Q 1663 1069 1716 984 
Q 1784 875 1895 815 
Q 2006 756 2150 756 
Q 2500 756 2700 1025 
Q 2900 1294 2900 1772 
L 2900 3500 
L 4019 3500 
L 4019 0 
L 2900 0 
L 2900 506 
Q 2647 200 2364 54 
Q 2081 -91 1741 -91 
Q 1134 -91 817 281 
Q 500 653 500 1363 
z
" transform="scale(0.015625)"/>
     <path id="DejaVuSans-Bold-67" d="M 2919 594 
Q 2688 288 2409 144 
Q 2131 0 1766 0 
Q 1125 0 706 504 
Q 288 1009 288 1791 
Q 288 2575 706 3076 
Q 1125 3578 1766 3578 
Q 2131 3578 2409 3434 
Q 2688 3291 2919 2981 
L 2919 3500 
L 4044 3500 
L 4044 353 
Q 4044 -491 3511 -936 
Q 2978 -1381 1966 -1381 
Q 1638 -1381 1331 -1331 
Q 1025 -1281 716 -1178 
L 716 -306 
Q 1009 -475 1290 -558 
Q 1572 -641 1856 -641 
Q 2406 -641 2662 -400 
Q 2919 -159 2919 353 
L 2919 594 
z
M 2181 2772 
Q 1834 2772 1640 2515 
Q 1447 2259 1447 1791 
Q 1447 1309 1634 1061 
Q 1822 813 2181 813 
Q 2531 813 2725 1069 
Q 2919 1325 2919 1791 
Q 2919 2259 2725 2515 
Q 2531 2772 2181 2772 
z
" transform="scale(0.015625)"/>
     <path id="DejaVuSans-Bold-3a" d="M 716 3500 
L 1844 3500 
L 1844 2291 
L 716 2291 
L 716 3500 
z
M 716 1209 
L 1844 1209 
L 1844 0 
L 716 0 
L 716 1209 
z
" transform="scale(0.015625)"/>
     <path id="DejaVuSans-Bold-57" d="M 191 4666 
L 1344 4666 
L 2150 1275 
L 2950 4666 
L 4109 4666 
L 4909 1275 
L 5716 4666 
L 6859 4666 
L 5759 0 
L 4372 0 
L 3525 3547 
L 2688 0 
L 1300 0 
L 191 4666 
z
" transform="scale(0.015625)"/>
     <path id="DejaVuSans-Bold-43" d="M 4288 256 
Q 3956 84 3597 -3 
Q 3238 -91 2847 -91 
Q 1681 -91 1000 561 
Q 319 1213 319 2328 
Q 319 3447 1000 4098 
Q 1681 4750 2847 4750 
Q 3238 4750 3597 4662 
Q 3956 4575 4288 4403 
L 4288 3438 
Q 3953 3666 3628 3772 
Q 3303 3878 2944 3878 
Q 2300 3878 1931 3465 
Q 1563 3053 1563 2328 
Q 1563 1606 1931 1193 
Q 2300 781 2944 781 
Q 3303 781 3628 887 
Q 3953 994 4288 1222 
L 4288 256 
z
" transform="scale(0.015625)"/>
     <path id="DejaVuSans-Bold-6f" d="M 2203 2784 
Q 1831 2784 1636 2517 
Q 1441 2250 1441 1747 
Q 1441 1244 1636 976 
Q 1831 709 2203 709 
Q 2569 709 2762 976 
Q 2956 1244 2956 1747 
Q 2956 2250 2762 2517 
Q 2569 2784 2203 2784 
z
M 2203 3584 
Q 3106 3584 3614 3096 
Q 4122 2609 4122 1747 
Q 4122 884 3614 396 
Q 3106 -91 2203 -91 
Q 1297 -91 786 396 
Q 275 884 275 1747 
Q 275 2609 786 3096 
Q 1297 3584 2203 3584 
z
" transform="scale(0.015625)"/>
     <path id="DejaVuSans-Bold-63" d="M 3366 3391 
L 3366 2478 
Q 3138 2634 2908 2709 
Q 2678 2784 2431 2784 
Q 1963 2784 1702 2511 
Q 1441 2238 1441 1747 
Q 1441 1256 1702 982 
Q 1963 709 2431 709 
Q 2694 709 2930 787 
Q 3166 866 3366 1019 
L 3366 103 
Q 3103 6 2833 -42 
Q 2563 -91 2291 -91 
Q 1344 -91 809 395 
Q 275 881 275 1747 
Q 275 2613 809 3098 
Q 1344 3584 2291 3584 
Q 2566 3584 2833 3536 
Q 3100 3488 3366 3391 
z
" transform="scale(0.015625)"/>
     <path id="DejaVuSans-Bold-6b" d="M 538 4863 
L 1656 4863 
L 1656 2216 
L 2944 3500 
L 4244 3500 
L 2534 1894 
L 4378 0 
L 3022 0 
L 1656 1459 
L 1656 0 
L 538 0 
L 538 4863 
z
" transform="scale(0.015625)"/>
     <path id="DejaVuSans-Bold-54" d="M 31 4666 
L 4331 4666 
L 4331 3756 
L 2784 3756 
L 2784 0 
L 1581 0 
L 1581 3756 
L 31 3756 
L 31 4666 
z
" transform="scale(0.015625)"/>
    </defs>
    <use xlink:href="#DejaVuSans-Bold-4d"/>
    <use xlink:href="#DejaVuSans-Bold-69" transform="translate(99.511719 0)"/>
    <use xlink:href="#DejaVuSans-Bold-6e" transform="translate(133.789062 0)"/>
    <use xlink:href="#DejaVuSans-Bold-69" transform="translate(204.980469 0)"/>
    <use xlink:href="#DejaVuSans-Bold-6d" transform="translate(239.257812 0)"/>
    <use xlink:href="#DejaVuSans-Bold-61" transform="translate(343.457031 0)"/>
    <use xlink:href="#DejaVuSans-Bold-78" transform="translate(410.9375 0)"/>
    <use xlink:href="#DejaVuSans-Bold-20" transform="translate(475.439453 0)"/>
    <use xlink:href="#DejaVuSans-Bold-76" transform="translate(510.253906 0)"/>
    <use xlink:href="#DejaVuSans-Bold-73" transform="translate(575.439453 0)"/>
    <use xlink:href="#DejaVuSans-Bold-20" transform="translate(634.960938 0)"/>
    <use xlink:href="#DejaVuSans-Bold-41" transform="translate(669.775391 0)"/>
    <use xlink:href="#DejaVuSans-Bold-6c" transform="translate(747.167969 0)"/>
    <use xlink:href="#DejaVuSans-Bold-70" transform="translate(781.445312 0)"/>
    <use xlink:href="#DejaVuSans-Bold-68" transform="translate(853.027344 0)"/>
    <use xlink:href="#DejaVuSans-Bold-61" transform="translate(924.21875 0)"/>
    <use xlink:href="#DejaVuSans-Bold-2d" transform="translate(991.699219 0)"/>
    <use xlink:href="#DejaVuSans-Bold-42" transform="translate(1033.203125 0)"/>
    <use xlink:href="#DejaVuSans-Bold-65" transform="translate(1109.423828 0)"/>
    <use xlink:href="#DejaVuSans-Bold-74" transform="translate(1177.246094 0)"/>
    <use xlink:href="#DejaVuSans-Bold-61" transform="translate(1225.048828 0)"/>
    <use xlink:href="#DejaVuSans-Bold-20" transform="translate(1292.529297 0)"/>
    <use xlink:href="#DejaVuSans-Bold-50" transform="translate(1327.34375 0)"/>
    <use xlink:href="#DejaVuSans-Bold-72" transform="translate(1400.634766 0)"/>
    <use xlink:href="#DejaVuSans-Bold-75" transform="translate(1449.951172 0)"/>
    <use xlink:href="#DejaVuSans-Bold-6e" transform="translate(1521.142578 0)"/>
    <use xlink:href="#DejaVuSans-Bold-69" transform="translate(1592.333984 0)"/>
    <use xlink:href="#DejaVuSans-Bold-6e" transform="translate(1626.611328 0)"/>
    <use xlink:href="#DejaVuSans-Bold-67" transform="translate(1697.802734 0)"/>
    <use xlink:href="#DejaVuSans-Bold-3a" transform="translate(1769.384766 0)"/>
    <use xlink:href="#DejaVuSans-Bold-20" transform="translate(1809.375 0)"/>
    <use xlink:href="#DejaVuSans-Bold-57" transform="translate(1844.189453 0)"/>
    <use xlink:href="#DejaVuSans-Bold-61" transform="translate(1950.867188 0)"/>
    <use xlink:href="#DejaVuSans-Bold-6c" transform="translate(2018.347656 0)"/>
    <use xlink:href="#DejaVuSans-Bold-6c" transform="translate(2052.625 0)"/>
    <use xlink:href="#DejaVuSans-Bold-2d" transform="translate(2086.902344 0)"/>
    <use xlink:href="#DejaVuSans-Bold-43" transform="translate(2128.40625 0)"/>
    <use xlink:href="#DejaVuSans-Bold-6c" transform="translate(2201.794922 0)"/>
    <use xlink:href="#DejaVuSans-Bold-6f" transform="translate(2236.072266 0)"/>
    <use xlink:href="#DejaVuSans-Bold-63" transform="translate(2304.773438 0)"/>
    <use xlink:href="#DejaVuSans-Bold-6b" transform="translate(2364.050781 0)"/>
    <use xlink:href="#DejaVuSans-Bold-20" transform="translate(2430.554688 0)"/>
    <use xlink:href="#DejaVuSans-Bold-54" transform="translate(2465.369141 0)"/>
    <use xlink:href="#DejaVuSans-Bold-69" transform="translate(2533.582031 0)"/>
    <use xlink:href="#DejaVuSans-Bold-6d" transform="translate(2567.859375 0)"/>
    <use xlink:href="#DejaVuSans-Bold-65" transform="translate(2672.058594 0)"/>
   </g>
  </g>
 </g>
 <defs>
  <clipPath id="p62b4c63f99">
   <rect x="52.869375" y="58.56" width="436.748893" height="320.32"/>
  </clipPath>
  <clipPath id="p954ffaa173">
   <rect x="549.804375" y="58.56" width="436.748893" height="320.32"/>
  </clipPath>
 </defs>
</svg>
