<?xml version="1.0" encoding="utf-8" standalone="no"?>
<!DOCTYPE svg PUBLIC "-//W3C//DTD SVG 1.1//EN"
  "http://www.w3.org/Graphics/SVG/1.1/DTD/svg11.dtd">
<svg xmlns:xlink="http://www.w3.org/1999/xlink" width="848.58375pt" height="486.527198pt" viewBox="0 0 848.58375 486.527198" xmlns="http://www.w3.org/2000/svg" version="1.1">
 <metadata>
  <rdf:RDF xmlns:dc="http://purl.org/dc/elements/1.1/" xmlns:cc="http://creativecommons.org/ns#" xmlns:rdf="http://www.w3.org/1999/02/22-rdf-syntax-ns#">
   <cc:Work>
    <dc:type rdf:resource="http://purl.org/dc/dcmitype/StillImage"/>
    <dc:date>2026-04-03T15:09:07.192888</dc:date>
    <dc:format>image/svg+xml</dc:format>
    <dc:creator>
     <cc:Agent>
      <dc:title>Matplotlib v3.10.5, https://matplotlib.org/</dc:title>
     </cc:Agent>
    </dc:creator>
   </cc:Work>
  </rdf:RDF>
 </metadata>
 <defs>
  <style type="text/css">*{stroke-linejoin: round; stroke-linecap: butt}</style>
 </defs>
 <g id="figure_1">
  <g id="patch_1">
   <path d="M 0 486.527198 
L 848.58375 486.527198 
L 848.58375 0 
L 0 0 
z
" style="fill: #ffffff"/>
  </g>
  <g id="axes_1">
   <g id="patch_2">
    <path d="M 58.60625 404.527587 
L 793.95625 404.527587 
L 793.95625 26.877187 
L 58.60625 26.877187 
z
" style="fill: #ffffff"/>
   </g>
   <g id="patch_3">
    <path d="M 92.03125 404.527587 
L 294.607008 404.527587 
L 294.607008 26.877187 
L 92.03125 26.877187 
z
" clip-path="url(#p69c5e2cb64)" style="fill: #e0f7fa; opacity: 0.4; stroke: #e0f7fa; stroke-linejoin: miter"/>
   </g>
   <g id="patch_4">
    <path d="M 294.607008 404.527587 
L 497.182765 404.527587 
L 497.182765 26.877187 
L 294.607008 26.877187 
z
" clip-path="url(#p69c5e2cb64)" style="fill: #fff8e1; opacity: 0.4; stroke: #fff8e1; stroke-linejoin: miter"/>
   </g>
   <g id="patch_5">
    <path d="M 497.182765 404.527587 
L 760.53125 404.527587 
L 760.53125 26.877187 
L 497.182765 26.877187 
z
" clip-path="url(#p69c5e2cb64)" style="fill: #cccccc; opacity: 0.4; stroke: #cccccc; stroke-linejoin: miter"/>
   </g>
   <g id="matplotlib.axis_1">
    <g id="xtick_1">
     <g id="line2d_1">
      <path d="M 85.278725 404.527587 
L 85.278725 26.877187 
" clip-path="url(#p69c5e2cb64)" style="fill: none; stroke: #b0b0b0; stroke-opacity: 0.3; stroke-width: 0.8; stroke-linecap: square"/>
     </g>
     <g id="line2d_2">
      <defs>
       <path id="m95b36488c0" d="M 0 0 
L 0 3.5 
" style="stroke: #000000; stroke-width: 0.8"/>
      </defs>
      <g>
       <use xlink:href="#m95b36488c0" x="85.278725" y="404.527587" style="stroke: #000000; stroke-width: 0.8"/>
      </g>
     </g>
     <g id="text_1">
      <!-- 0 -->
      <g transform="translate(81.1431 421.405556) scale(0.13 -0.13)">
       <defs>
        <path id="DejaVuSans-30" d="M 2034 4250 
Q 1547 4250 1301 3770 
Q 1056 3291 1056 2328 
Q 1056 1369 1301 889 
Q 1547 409 2034 409 
Q 2525 409 2770 889 
Q 3016 1369 3016 2328 
Q 3016 3291 2770 3770 
Q 2525 4250 2034 4250 
z
M 2034 4750 
Q 2819 4750 3233 4129 
Q 3647 3509 3647 2328 
Q 3647 1150 3233 529 
Q 2819 -91 2034 -91 
Q 1250 -91 836 529 
Q 422 1150 422 2328 
Q 422 3509 836 4129 
Q 1250 4750 2034 4750 
z
" transform="scale(0.015625)"/>
       </defs>
       <use xlink:href="#DejaVuSans-30"/>
      </g>
     </g>
    </g>
    <g id="xtick_2">
     <g id="line2d_3">
      <path d="M 220.32923 404.527587 
L 220.32923 26.877187 
" clip-path="url(#p69c5e2cb64)" style="fill: none; stroke: #b0b0b0; stroke-opacity: 0.3; stroke-width: 0.8; stroke-linecap: square"/>
     </g>
     <g id="line2d_4">
      <g>
       <use xlink:href="#m95b36488c0" x="220.32923" y="404.527587" style="stroke: #000000; stroke-width: 0.8"/>
      </g>
     </g>
     <g id="text_2">
      <!-- 20000 -->
      <g transform="translate(199.651105 421.405556) scale(0.13 -0.13)">
       <defs>
        <path id="DejaVuSans-32" d="M 1228 531 
L 3431 531 
L 3431 0 
L 469 0 
L 469 531 
Q 828 903 1448 1529 
Q 2069 2156 2228 2338 
Q 2531 2678 2651 2914 
Q 2772 3150 2772 3378 
Q 2772 3750 2511 3984 
Q 2250 4219 1831 4219 
Q 1534 4219 1204 4116 
Q 875 4013 500 3803 
L 500 4441 
Q 881 4594 1212 4672 
Q 1544 4750 1819 4750 
Q 2544 4750 2975 4387 
Q 3406 4025 3406 3419 
Q 3406 3131 3298 2873 
Q 3191 2616 2906 2266 
Q 2828 2175 2409 1742 
Q 1991 1309 1228 531 
z
" transform="scale(0.015625)"/>
       </defs>
       <use xlink:href="#DejaVuSans-32"/>
       <use xlink:href="#DejaVuSans-30" transform="translate(63.623047 0)"/>
       <use xlink:href="#DejaVuSans-30" transform="translate(127.246094 0)"/>
       <use xlink:href="#DejaVuSans-30" transform="translate(190.869141 0)"/>
       <use xlink:href="#DejaVuSans-30" transform="translate(254.492188 0)"/>
      </g>
     </g>
    </g>
    <g id="xtick_3">
     <g id="line2d_5">
      <path d="M 355.379735 404.527587 
L 355.379735 26.877187 
" clip-path="url(#p69c5e2cb64)" style="fill: none; stroke: #b0b0b0; stroke-opacity: 0.3; stroke-width: 0.8; stroke-linecap: square"/>
     </g>
     <g id="line2d_6">
      <g>
       <use xlink:href="#m95b36488c0" x="355.379735" y="404.527587" style="stroke: #000000; stroke-width: 0.8"/>
      </g>
     </g>
     <g id="text_3">
      <!-- 40000 -->
      <g transform="translate(334.70161 421.405556) scale(0.13 -0.13)">
       <defs>
        <path id="DejaVuSans-34" d="M 2419 4116 
L 825 1625 
L 2419 1625 
L 2419 4116 
z
M 2253 4666 
L 3047 4666 
L 3047 1625 
L 3713 1625 
L 3713 1100 
L 3047 1100 
L 3047 0 
L 2419 0 
L 2419 1100 
L 313 1100 
L 313 1709 
L 2253 4666 
z
" transform="scale(0.015625)"/>
       </defs>
       <use xlink:href="#DejaVuSans-34"/>
       <use xlink:href="#DejaVuSans-30" transform="translate(63.623047 0)"/>
       <use xlink:href="#DejaVuSans-30" transform="translate(127.246094 0)"/>
       <use xlink:href="#DejaVuSans-30" transform="translate(190.869141 0)"/>
       <use xlink:href="#DejaVuSans-30" transform="translate(254.492188 0)"/>
      </g>
     </g>
    </g>
    <g id="xtick_4">
     <g id="line2d_7">
      <path d="M 490.43024 404.527587 
L 490.43024 26.877187 
" clip-path="url(#p69c5e2cb64)" style="fill: none; stroke: #b0b0b0; stroke-opacity: 0.3; stroke-width: 0.8; stroke-linecap: square"/>
     </g>
     <g id="line2d_8">
      <g>
       <use xlink:href="#m95b36488c0" x="490.43024" y="404.527587" style="stroke: #000000; stroke-width: 0.8"/>
      </g>
     </g>
     <g id="text_4">
      <!-- 60000 -->
      <g transform="translate(469.752115 421.405556) scale(0.13 -0.13)">
       <defs>
        <path id="DejaVuSans-36" d="M 2113 2584 
Q 1688 2584 1439 2293 
Q 1191 2003 1191 1497 
Q 1191 994 1439 701 
Q 1688 409 2113 409 
Q 2538 409 2786 701 
Q 3034 994 3034 1497 
Q 3034 2003 2786 2293 
Q 2538 2584 2113 2584 
z
M 3366 4563 
L 3366 3988 
Q 3128 4100 2886 4159 
Q 2644 4219 2406 4219 
Q 1781 4219 1451 3797 
Q 1122 3375 1075 2522 
Q 1259 2794 1537 2939 
Q 1816 3084 2150 3084 
Q 2853 3084 3261 2657 
Q 3669 2231 3669 1497 
Q 3669 778 3244 343 
Q 2819 -91 2113 -91 
Q 1303 -91 875 529 
Q 447 1150 447 2328 
Q 447 3434 972 4092 
Q 1497 4750 2381 4750 
Q 2619 4750 2861 4703 
Q 3103 4656 3366 4563 
z
" transform="scale(0.015625)"/>
       </defs>
       <use xlink:href="#DejaVuSans-36"/>
       <use xlink:href="#DejaVuSans-30" transform="translate(63.623047 0)"/>
       <use xlink:href="#DejaVuSans-30" transform="translate(127.246094 0)"/>
       <use xlink:href="#DejaVuSans-30" transform="translate(190.869141 0)"/>
       <use xlink:href="#DejaVuSans-30" transform="translate(254.492188 0)"/>
      </g>
     </g>
    </g>
    <g id="xtick_5">
     <g id="line2d_9">
      <path d="M 625.480745 404.527587 
L 625.480745 26.877187 
" clip-path="url(#p69c5e2cb64)" style="fill: none; stroke: #b0b0b0; stroke-opacity: 0.3; stroke-width: 0.8; stroke-linecap: square"/>
     </g>
     <g id="line2d_10">
      <g>
       <use xlink:href="#m95b36488c0" x="625.480745" y="404.527587" style="stroke: #000000; stroke-width: 0.8"/>
      </g>
     </g>
     <g id="text_5">
      <!-- 80000 -->
      <g transform="translate(604.80262 421.405556) scale(0.13 -0.13)">
       <defs>
        <path id="DejaVuSans-38" d="M 2034 2216 
Q 1584 2216 1326 1975 
Q 1069 1734 1069 1313 
Q 1069 891 1326 650 
Q 1584 409 2034 409 
Q 2484 409 2743 651 
Q 3003 894 3003 1313 
Q 3003 1734 2745 1975 
Q 2488 2216 2034 2216 
z
M 1403 2484 
Q 997 2584 770 2862 
Q 544 3141 544 3541 
Q 544 4100 942 4425 
Q 1341 4750 2034 4750 
Q 2731 4750 3128 4425 
Q 3525 4100 3525 3541 
Q 3525 3141 3298 2862 
Q 3072 2584 2669 2484 
Q 3125 2378 3379 2068 
Q 3634 1759 3634 1313 
Q 3634 634 3220 271 
Q 2806 -91 2034 -91 
Q 1263 -91 848 271 
Q 434 634 434 1313 
Q 434 1759 690 2068 
Q 947 2378 1403 2484 
z
M 1172 3481 
Q 1172 3119 1398 2916 
Q 1625 2713 2034 2713 
Q 2441 2713 2670 2916 
Q 2900 3119 2900 3481 
Q 2900 3844 2670 4047 
Q 2441 4250 2034 4250 
Q 1625 4250 1398 4047 
Q 1172 3844 1172 3481 
z
" transform="scale(0.015625)"/>
       </defs>
       <use xlink:href="#DejaVuSans-38"/>
       <use xlink:href="#DejaVuSans-30" transform="translate(63.623047 0)"/>
       <use xlink:href="#DejaVuSans-30" transform="translate(127.246094 0)"/>
       <use xlink:href="#DejaVuSans-30" transform="translate(190.869141 0)"/>
       <use xlink:href="#DejaVuSans-30" transform="translate(254.492188 0)"/>
      </g>
     </g>
    </g>
    <g id="xtick_6">
     <g id="line2d_11">
      <path d="M 760.53125 404.527587 
L 760.53125 26.877187 
" clip-path="url(#p69c5e2cb64)" style="fill: none; stroke: #b0b0b0; stroke-opacity: 0.3; stroke-width: 0.8; stroke-linecap: square"/>
     </g>
     <g id="line2d_12">
      <g>
       <use xlink:href="#m95b36488c0" x="760.53125" y="404.527587" style="stroke: #000000; stroke-width: 0.8"/>
      </g>
     </g>
     <g id="text_6">
      <!-- 100000 -->
      <g transform="translate(735.7175 421.405556) scale(0.13 -0.13)">
       <defs>
        <path id="DejaVuSans-31" d="M 794 531 
L 1825 531 
L 1825 4091 
L 703 3866 
L 703 4441 
L 1819 4666 
L 2450 4666 
L 2450 531 
L 3481 531 
L 3481 0 
L 794 0 
L 794 531 
z
" transform="scale(0.015625)"/>
       </defs>
       <use xlink:href="#DejaVuSans-31"/>
       <use xlink:href="#DejaVuSans-30" transform="translate(63.623047 0)"/>
       <use xlink:href="#DejaVuSans-30" transform="translate(127.246094 0)"/>
       <use xlink:href="#DejaVuSans-30" transform="translate(190.869141 0)"/>
       <use xlink:href="#DejaVuSans-30" transform="translate(254.492188 0)"/>
       <use xlink:href="#DejaVuSans-30" transform="translate(318.115234 0)"/>
      </g>
     </g>
    </g>
    <g id="text_7">
     <!-- Episode -->
     <g transform="translate(390.9375 440.26665) scale(0.16 -0.16)">
      <defs>
       <path id="DejaVuSans-Bold-45" d="M 588 4666 
L 3834 4666 
L 3834 3756 
L 1791 3756 
L 1791 2888 
L 3713 2888 
L 3713 1978 
L 1791 1978 
L 1791 909 
L 3903 909 
L 3903 0 
L 588 0 
L 588 4666 
z
" transform="scale(0.015625)"/>
       <path id="DejaVuSans-Bold-70" d="M 1656 506 
L 1656 -1331 
L 538 -1331 
L 538 3500 
L 1656 3500 
L 1656 2988 
Q 1888 3294 2169 3439 
Q 2450 3584 2816 3584 
Q 3463 3584 3878 3070 
Q 4294 2556 4294 1747 
Q 4294 938 3878 423 
Q 3463 -91 2816 -91 
Q 2450 -91 2169 54 
Q 1888 200 1656 506 
z
M 2400 2772 
Q 2041 2772 1848 2508 
Q 1656 2244 1656 1747 
Q 1656 1250 1848 986 
Q 2041 722 2400 722 
Q 2759 722 2948 984 
Q 3138 1247 3138 1747 
Q 3138 2247 2948 2509 
Q 2759 2772 2400 2772 
z
" transform="scale(0.015625)"/>
       <path id="DejaVuSans-Bold-69" d="M 538 3500 
L 1656 3500 
L 1656 0 
L 538 0 
L 538 3500 
z
M 538 4863 
L 1656 4863 
L 1656 3950 
L 538 3950 
L 538 4863 
z
" transform="scale(0.015625)"/>
       <path id="DejaVuSans-Bold-73" d="M 3272 3391 
L 3272 2541 
Q 2913 2691 2578 2766 
Q 2244 2841 1947 2841 
Q 1628 2841 1473 2761 
Q 1319 2681 1319 2516 
Q 1319 2381 1436 2309 
Q 1553 2238 1856 2203 
L 2053 2175 
Q 2913 2066 3209 1816 
Q 3506 1566 3506 1031 
Q 3506 472 3093 190 
Q 2681 -91 1863 -91 
Q 1516 -91 1145 -36 
Q 775 19 384 128 
L 384 978 
Q 719 816 1070 734 
Q 1422 653 1784 653 
Q 2113 653 2278 743 
Q 2444 834 2444 1013 
Q 2444 1163 2330 1236 
Q 2216 1309 1875 1350 
L 1678 1375 
Q 931 1469 631 1722 
Q 331 1975 331 2491 
Q 331 3047 712 3315 
Q 1094 3584 1881 3584 
Q 2191 3584 2531 3537 
Q 2872 3491 3272 3391 
z
" transform="scale(0.015625)"/>
       <path id="DejaVuSans-Bold-6f" d="M 2203 2784 
Q 1831 2784 1636 2517 
Q 1441 2250 1441 1747 
Q 1441 1244 1636 976 
Q 1831 709 2203 709 
Q 2569 709 2762 976 
Q 2956 1244 2956 1747 
Q 2956 2250 2762 2517 
Q 2569 2784 2203 2784 
z
M 2203 3584 
Q 3106 3584 3614 3096 
Q 4122 2609 4122 1747 
Q 4122 884 3614 396 
Q 3106 -91 2203 -91 
Q 1297 -91 786 396 
Q 275 884 275 1747 
Q 275 2609 786 3096 
Q 1297 3584 2203 3584 
z
" transform="scale(0.015625)"/>
       <path id="DejaVuSans-Bold-64" d="M 2919 2988 
L 2919 4863 
L 4044 4863 
L 4044 0 
L 2919 0 
L 2919 506 
Q 2688 197 2409 53 
Q 2131 -91 1766 -91 
Q 1119 -91 703 423 
Q 288 938 288 1747 
Q 288 2556 703 3070 
Q 1119 3584 1766 3584 
Q 2128 3584 2408 3439 
Q 2688 3294 2919 2988 
z
M 2181 722 
Q 2541 722 2730 984 
Q 2919 1247 2919 1747 
Q 2919 2247 2730 2509 
Q 2541 2772 2181 2772 
Q 1825 2772 1636 2509 
Q 1447 2247 1447 1747 
Q 1447 1247 1636 984 
Q 1825 722 2181 722 
z
" transform="scale(0.015625)"/>
       <path id="DejaVuSans-Bold-65" d="M 4031 1759 
L 4031 1441 
L 1416 1441 
Q 1456 1047 1700 850 
Q 1944 653 2381 653 
Q 2734 653 3104 758 
Q 3475 863 3866 1075 
L 3866 213 
Q 3469 63 3072 -14 
Q 2675 -91 2278 -91 
Q 1328 -91 801 392 
Q 275 875 275 1747 
Q 275 2603 792 3093 
Q 1309 3584 2216 3584 
Q 3041 3584 3536 3087 
Q 4031 2591 4031 1759 
z
M 2881 2131 
Q 2881 2450 2695 2645 
Q 2509 2841 2209 2841 
Q 1884 2841 1681 2658 
Q 1478 2475 1428 2131 
L 2881 2131 
z
" transform="scale(0.015625)"/>
      </defs>
      <use xlink:href="#DejaVuSans-Bold-45"/>
      <use xlink:href="#DejaVuSans-Bold-70" transform="translate(68.310547 0)"/>
      <use xlink:href="#DejaVuSans-Bold-69" transform="translate(139.892578 0)"/>
      <use xlink:href="#DejaVuSans-Bold-73" transform="translate(174.169922 0)"/>
      <use xlink:href="#DejaVuSans-Bold-6f" transform="translate(233.691406 0)"/>
      <use xlink:href="#DejaVuSans-Bold-64" transform="translate(302.392578 0)"/>
      <use xlink:href="#DejaVuSans-Bold-65" transform="translate(373.974609 0)"/>
     </g>
    </g>
   </g>
   <g id="matplotlib.axis_2">
    <g id="ytick_1">
     <g id="line2d_13">
      <path d="M 58.60625 388.792154 
L 793.95625 388.792154 
" clip-path="url(#p69c5e2cb64)" style="fill: none; stroke: #b0b0b0; stroke-opacity: 0.3; stroke-width: 0.8; stroke-linecap: square"/>
     </g>
     <g id="line2d_14">
      <defs>
       <path id="m822bf119f9" d="M 0 0 
L -3.5 0 
" style="stroke: #000000; stroke-width: 0.8"/>
      </defs>
      <g>
       <use xlink:href="#m822bf119f9" x="58.60625" y="388.792154" style="stroke: #000000; stroke-width: 0.8"/>
      </g>
     </g>
     <g id="text_8">
      <!-- 0 -->
      <g transform="translate(43.335 393.731139) scale(0.13 -0.13)">
       <use xlink:href="#DejaVuSans-30"/>
      </g>
     </g>
    </g>
    <g id="ytick_2">
     <g id="line2d_15">
      <path d="M 58.60625 325.850421 
L 793.95625 325.850421 
" clip-path="url(#p69c5e2cb64)" style="fill: none; stroke: #b0b0b0; stroke-opacity: 0.3; stroke-width: 0.8; stroke-linecap: square"/>
     </g>
     <g id="line2d_16">
      <g>
       <use xlink:href="#m822bf119f9" x="58.60625" y="325.850421" style="stroke: #000000; stroke-width: 0.8"/>
      </g>
     </g>
     <g id="text_9">
      <!-- 20 -->
      <g transform="translate(35.06375 330.789405) scale(0.13 -0.13)">
       <use xlink:href="#DejaVuSans-32"/>
       <use xlink:href="#DejaVuSans-30" transform="translate(63.623047 0)"/>
      </g>
     </g>
    </g>
    <g id="ytick_3">
     <g id="line2d_17">
      <path d="M 58.60625 262.908687 
L 793.95625 262.908687 
" clip-path="url(#p69c5e2cb64)" style="fill: none; stroke: #b0b0b0; stroke-opacity: 0.3; stroke-width: 0.8; stroke-linecap: square"/>
     </g>
     <g id="line2d_18">
      <g>
       <use xlink:href="#m822bf119f9" x="58.60625" y="262.908687" style="stroke: #000000; stroke-width: 0.8"/>
      </g>
     </g>
     <g id="text_10">
      <!-- 40 -->
      <g transform="translate(35.06375 267.847672) scale(0.13 -0.13)">
       <use xlink:href="#DejaVuSans-34"/>
       <use xlink:href="#DejaVuSans-30" transform="translate(63.623047 0)"/>
      </g>
     </g>
    </g>
    <g id="ytick_4">
     <g id="line2d_19">
      <path d="M 58.60625 199.966954 
L 793.95625 199.966954 
" clip-path="url(#p69c5e2cb64)" style="fill: none; stroke: #b0b0b0; stroke-opacity: 0.3; stroke-width: 0.8; stroke-linecap: square"/>
     </g>
     <g id="line2d_20">
      <g>
       <use xlink:href="#m822bf119f9" x="58.60625" y="199.966954" style="stroke: #000000; stroke-width: 0.8"/>
      </g>
     </g>
     <g id="text_11">
      <!-- 60 -->
      <g transform="translate(35.06375 204.905939) scale(0.13 -0.13)">
       <use xlink:href="#DejaVuSans-36"/>
       <use xlink:href="#DejaVuSans-30" transform="translate(63.623047 0)"/>
      </g>
     </g>
    </g>
    <g id="ytick_5">
     <g id="line2d_21">
      <path d="M 58.60625 137.025221 
L 793.95625 137.025221 
" clip-path="url(#p69c5e2cb64)" style="fill: none; stroke: #b0b0b0; stroke-opacity: 0.3; stroke-width: 0.8; stroke-linecap: square"/>
     </g>
     <g id="line2d_22">
      <g>
       <use xlink:href="#m822bf119f9" x="58.60625" y="137.025221" style="stroke: #000000; stroke-width: 0.8"/>
      </g>
     </g>
     <g id="text_12">
      <!-- 80 -->
      <g transform="translate(35.06375 141.964205) scale(0.13 -0.13)">
       <use xlink:href="#DejaVuSans-38"/>
       <use xlink:href="#DejaVuSans-30" transform="translate(63.623047 0)"/>
      </g>
     </g>
    </g>
    <g id="ytick_6">
     <g id="line2d_23">
      <path d="M 58.60625 74.083487 
L 793.95625 74.083487 
" clip-path="url(#p69c5e2cb64)" style="fill: none; stroke: #b0b0b0; stroke-opacity: 0.3; stroke-width: 0.8; stroke-linecap: square"/>
     </g>
     <g id="line2d_24">
      <g>
       <use xlink:href="#m822bf119f9" x="58.60625" y="74.083487" style="stroke: #000000; stroke-width: 0.8"/>
      </g>
     </g>
     <g id="text_13">
      <!-- 100 -->
      <g transform="translate(26.7925 79.022472) scale(0.13 -0.13)">
       <use xlink:href="#DejaVuSans-31"/>
       <use xlink:href="#DejaVuSans-30" transform="translate(63.623047 0)"/>
       <use xlink:href="#DejaVuSans-30" transform="translate(127.246094 0)"/>
      </g>
     </g>
    </g>
    <g id="text_14">
     <!-- Percentage (%) -->
     <g transform="translate(19.34 285.289887) rotate(-90) scale(0.16 -0.16)">
      <defs>
       <path id="DejaVuSans-Bold-50" d="M 588 4666 
L 2584 4666 
Q 3475 4666 3951 4270 
Q 4428 3875 4428 3144 
Q 4428 2409 3951 2014 
Q 3475 1619 2584 1619 
L 1791 1619 
L 1791 0 
L 588 0 
L 588 4666 
z
M 1791 3794 
L 1791 2491 
L 2456 2491 
Q 2806 2491 2997 2661 
Q 3188 2831 3188 3144 
Q 3188 3456 2997 3625 
Q 2806 3794 2456 3794 
L 1791 3794 
z
" transform="scale(0.015625)"/>
       <path id="DejaVuSans-Bold-72" d="M 3138 2547 
Q 2991 2616 2845 2648 
Q 2700 2681 2553 2681 
Q 2122 2681 1889 2404 
Q 1656 2128 1656 1613 
L 1656 0 
L 538 0 
L 538 3500 
L 1656 3500 
L 1656 2925 
Q 1872 3269 2151 3426 
Q 2431 3584 2822 3584 
Q 2878 3584 2943 3579 
Q 3009 3575 3134 3559 
L 3138 2547 
z
" transform="scale(0.015625)"/>
       <path id="DejaVuSans-Bold-63" d="M 3366 3391 
L 3366 2478 
Q 3138 2634 2908 2709 
Q 2678 2784 2431 2784 
Q 1963 2784 1702 2511 
Q 1441 2238 1441 1747 
Q 1441 1256 1702 982 
Q 1963 709 2431 709 
Q 2694 709 2930 787 
Q 3166 866 3366 1019 
L 3366 103 
Q 3103 6 2833 -42 
Q 2563 -91 2291 -91 
Q 1344 -91 809 395 
Q 275 881 275 1747 
Q 275 2613 809 3098 
Q 1344 3584 2291 3584 
Q 2566 3584 2833 3536 
Q 3100 3488 3366 3391 
z
" transform="scale(0.015625)"/>
       <path id="DejaVuSans-Bold-6e" d="M 4056 2131 
L 4056 0 
L 2931 0 
L 2931 347 
L 2931 1631 
Q 2931 2084 2911 2256 
Q 2891 2428 2841 2509 
Q 2775 2619 2662 2680 
Q 2550 2741 2406 2741 
Q 2056 2741 1856 2470 
Q 1656 2200 1656 1722 
L 1656 0 
L 538 0 
L 538 3500 
L 1656 3500 
L 1656 2988 
Q 1909 3294 2193 3439 
Q 2478 3584 2822 3584 
Q 3428 3584 3742 3212 
Q 4056 2841 4056 2131 
z
" transform="scale(0.015625)"/>
       <path id="DejaVuSans-Bold-74" d="M 1759 4494 
L 1759 3500 
L 2913 3500 
L 2913 2700 
L 1759 2700 
L 1759 1216 
Q 1759 972 1856 886 
Q 1953 800 2241 800 
L 2816 800 
L 2816 0 
L 1856 0 
Q 1194 0 917 276 
Q 641 553 641 1216 
L 641 2700 
L 84 2700 
L 84 3500 
L 641 3500 
L 641 4494 
L 1759 4494 
z
" transform="scale(0.015625)"/>
       <path id="DejaVuSans-Bold-61" d="M 2106 1575 
Q 1756 1575 1579 1456 
Q 1403 1338 1403 1106 
Q 1403 894 1545 773 
Q 1688 653 1941 653 
Q 2256 653 2472 879 
Q 2688 1106 2688 1447 
L 2688 1575 
L 2106 1575 
z
M 3816 1997 
L 3816 0 
L 2688 0 
L 2688 519 
Q 2463 200 2181 54 
Q 1900 -91 1497 -91 
Q 953 -91 614 226 
Q 275 544 275 1050 
Q 275 1666 698 1953 
Q 1122 2241 2028 2241 
L 2688 2241 
L 2688 2328 
Q 2688 2594 2478 2717 
Q 2269 2841 1825 2841 
Q 1466 2841 1156 2769 
Q 847 2697 581 2553 
L 581 3406 
Q 941 3494 1303 3539 
Q 1666 3584 2028 3584 
Q 2975 3584 3395 3211 
Q 3816 2838 3816 1997 
z
" transform="scale(0.015625)"/>
       <path id="DejaVuSans-Bold-67" d="M 2919 594 
Q 2688 288 2409 144 
Q 2131 0 1766 0 
Q 1125 0 706 504 
Q 288 1009 288 1791 
Q 288 2575 706 3076 
Q 1125 3578 1766 3578 
Q 2131 3578 2409 3434 
Q 2688 3291 2919 2981 
L 2919 3500 
L 4044 3500 
L 4044 353 
Q 4044 -491 3511 -936 
Q 2978 -1381 1966 -1381 
Q 1638 -1381 1331 -1331 
Q 1025 -1281 716 -1178 
L 716 -306 
Q 1009 -475 1290 -558 
Q 1572 -641 1856 -641 
Q 2406 -641 2662 -400 
Q 2919 -159 2919 353 
L 2919 594 
z
M 2181 2772 
Q 1834 2772 1640 2515 
Q 1447 2259 1447 1791 
Q 1447 1309 1634 1061 
Q 1822 813 2181 813 
Q 2531 813 2725 1069 
Q 2919 1325 2919 1791 
Q 2919 2259 2725 2515 
Q 2531 2772 2181 2772 
z
" transform="scale(0.015625)"/>
       <path id="DejaVuSans-Bold-20" transform="scale(0.015625)"/>
       <path id="DejaVuSans-Bold-28" d="M 2413 -844 
L 1484 -844 
Q 1006 -72 778 623 
Q 550 1319 550 2003 
Q 550 2688 779 3389 
Q 1009 4091 1484 4856 
L 2413 4856 
Q 2013 4116 1813 3408 
Q 1613 2700 1613 2009 
Q 1613 1319 1811 609 
Q 2009 -100 2413 -844 
z
" transform="scale(0.015625)"/>
       <path id="DejaVuSans-Bold-25" d="M 4959 1925 
Q 4738 1925 4616 1733 
Q 4494 1541 4494 1184 
Q 4494 825 4614 633 
Q 4734 441 4959 441 
Q 5184 441 5303 633 
Q 5422 825 5422 1184 
Q 5422 1541 5301 1733 
Q 5181 1925 4959 1925 
z
M 4959 2450 
Q 5541 2450 5875 2112 
Q 6209 1775 6209 1184 
Q 6209 594 5875 251 
Q 5541 -91 4959 -91 
Q 4378 -91 4042 251 
Q 3706 594 3706 1184 
Q 3706 1772 4042 2111 
Q 4378 2450 4959 2450 
z
M 2094 -91 
L 1403 -91 
L 4319 4750 
L 5013 4750 
L 2094 -91 
z
M 1453 4750 
Q 2034 4750 2367 4411 
Q 2700 4072 2700 3481 
Q 2700 2891 2367 2550 
Q 2034 2209 1453 2209 
Q 872 2209 539 2550 
Q 206 2891 206 3481 
Q 206 4072 539 4411 
Q 872 4750 1453 4750 
z
M 1453 4225 
Q 1228 4225 1106 4031 
Q 984 3838 984 3481 
Q 984 3122 1106 2926 
Q 1228 2731 1453 2731 
Q 1678 2731 1798 2926 
Q 1919 3122 1919 3481 
Q 1919 3838 1797 4031 
Q 1675 4225 1453 4225 
z
" transform="scale(0.015625)"/>
       <path id="DejaVuSans-Bold-29" d="M 513 -844 
Q 913 -100 1113 609 
Q 1313 1319 1313 2009 
Q 1313 2700 1113 3408 
Q 913 4116 513 4856 
L 1441 4856 
Q 1916 4091 2145 3389 
Q 2375 2688 2375 2003 
Q 2375 1319 2147 623 
Q 1919 -72 1441 -844 
L 513 -844 
z
" transform="scale(0.015625)"/>
      </defs>
      <use xlink:href="#DejaVuSans-Bold-50"/>
      <use xlink:href="#DejaVuSans-Bold-65" transform="translate(73.291016 0)"/>
      <use xlink:href="#DejaVuSans-Bold-72" transform="translate(141.113281 0)"/>
      <use xlink:href="#DejaVuSans-Bold-63" transform="translate(190.429688 0)"/>
      <use xlink:href="#DejaVuSans-Bold-65" transform="translate(249.707031 0)"/>
      <use xlink:href="#DejaVuSans-Bold-6e" transform="translate(317.529297 0)"/>
      <use xlink:href="#DejaVuSans-Bold-74" transform="translate(388.720703 0)"/>
      <use xlink:href="#DejaVuSans-Bold-61" transform="translate(436.523438 0)"/>
      <use xlink:href="#DejaVuSans-Bold-67" transform="translate(504.003906 0)"/>
      <use xlink:href="#DejaVuSans-Bold-65" transform="translate(575.585938 0)"/>
      <use xlink:href="#DejaVuSans-Bold-20" transform="translate(643.408203 0)"/>
      <use xlink:href="#DejaVuSans-Bold-28" transform="translate(678.222656 0)"/>
      <use xlink:href="#DejaVuSans-Bold-25" transform="translate(723.925781 0)"/>
      <use xlink:href="#DejaVuSans-Bold-29" transform="translate(824.121094 0)"/>
     </g>
    </g>
   </g>
   <g id="line2d_25">
    <path d="M 92.03125 121.289787 
L 98.783775 105.554354 
L 105.536301 105.554354 
L 112.288826 96.113094 
L 119.041351 92.966007 
L 125.793876 111.848527 
L 132.546402 108.701441 
L 139.298927 86.671834 
L 146.051452 108.701441 
L 152.803977 130.731047 
L 159.556503 86.671834 
L 166.309028 86.671834 
L 173.061553 108.701441 
L 179.814078 96.113094 
L 186.566604 111.848527 
L 193.319129 89.818921 
L 200.071654 96.113094 
L 206.824179 108.701441 
L 213.576705 105.554354 
L 220.32923 83.524747 
L 227.081755 114.995614 
L 233.83428 111.848527 
L 240.586806 114.995614 
L 247.339331 89.818921 
L 254.091856 105.554354 
L 260.844381 86.671834 
L 267.596907 102.407267 
L 274.349432 89.818921 
L 281.101957 92.966007 
L 287.854482 86.671834 
L 294.607008 288.085381 
L 301.359533 376.203807 
L 308.112058 294.379554 
L 314.864583 360.468374 
L 321.617109 294.379554 
L 328.369634 316.409161 
L 335.122159 278.644121 
L 341.874684 310.114987 
L 348.62721 325.850421 
L 355.379735 297.526641 
L 362.13226 376.203807 
L 368.884785 294.379554 
L 375.637311 332.144594 
L 382.389836 250.320341 
L 389.142361 319.556247 
L 395.894886 319.556247 
L 402.647412 284.938294 
L 409.399937 300.673727 
L 416.152462 253.467427 
L 422.904987 288.085381 
L 429.657513 244.026167 
L 436.410038 310.114987 
L 443.162563 297.526641 
L 449.915088 376.203807 
L 456.667614 297.526641 
L 463.420139 231.437821 
L 470.172664 297.526641 
L 476.925189 284.938294 
L 483.677715 322.703334 
L 490.43024 294.379554 
L 497.182765 231.437821 
L 503.93529 231.437821 
L 510.687816 231.437821 
L 517.440341 231.437821 
L 524.192866 231.437821 
L 530.945391 231.437821 
L 537.697917 231.437821 
L 544.450442 231.437821 
L 551.202967 231.437821 
L 557.955492 231.437821 
L 564.708018 231.437821 
L 571.460543 231.437821 
L 578.213068 231.437821 
L 584.965593 231.437821 
L 591.718119 231.437821 
L 598.470644 231.437821 
L 605.223169 231.437821 
L 611.975694 231.437821 
L 618.72822 231.437821 
L 625.480745 218.849474 
L 632.23327 231.437821 
L 638.985795 231.437821 
L 645.738321 231.437821 
L 652.490846 231.437821 
L 659.243371 231.437821 
L 665.995896 231.437821 
L 672.748422 231.437821 
L 679.500947 231.437821 
L 686.253472 231.437821 
L 693.005997 231.437821 
L 699.758523 231.437821 
L 706.511048 231.437821 
L 713.263573 231.437821 
L 720.016098 231.437821 
L 726.768624 231.437821 
L 733.521149 231.437821 
L 740.273674 231.437821 
L 747.026199 231.437821 
L 753.778725 231.437821 
L 760.53125 231.437821 
" clip-path="url(#p69c5e2cb64)" style="fill: none; stroke: #2ecc71; stroke-width: 1.5; stroke-linecap: square"/>
   </g>
   <g id="line2d_26">
    <path d="M 92.03125 369.909634 
L 98.783775 360.468374 
L 105.536301 373.056721 
L 112.288826 373.056721 
L 119.041351 379.350894 
L 125.793876 366.762547 
L 132.546402 360.468374 
L 139.298927 376.203807 
L 146.051452 360.468374 
L 152.803977 351.027114 
L 159.556503 379.350894 
L 166.309028 376.203807 
L 173.061553 354.174201 
L 179.814078 369.909634 
L 186.566604 363.615461 
L 193.319129 379.350894 
L 200.071654 369.909634 
L 206.824179 366.762547 
L 213.576705 376.203807 
L 220.32923 379.350894 
L 227.081755 354.174201 
L 233.83428 357.321287 
L 240.586806 382.497981 
L 247.339331 373.056721 
L 254.091856 366.762547 
L 260.844381 376.203807 
L 267.596907 376.203807 
L 274.349432 373.056721 
L 281.101957 376.203807 
L 287.854482 379.350894 
L 294.607008 259.761601 
L 301.359533 86.671834 
L 308.112058 168.496087 
L 314.864583 171.643174 
L 321.617109 177.937347 
L 328.369634 146.466481 
L 335.122159 256.614514 
L 341.874684 162.201914 
L 348.62721 152.760654 
L 355.379735 231.437821 
L 362.13226 159.054827 
L 368.884785 168.496087 
L 375.637311 203.114041 
L 382.389836 297.526641 
L 389.142361 237.731994 
L 395.894886 143.319394 
L 402.647412 177.937347 
L 409.399937 162.201914 
L 416.152462 297.526641 
L 422.904987 174.790261 
L 429.657513 221.996561 
L 436.410038 152.760654 
L 443.162563 165.349001 
L 449.915088 86.671834 
L 456.667614 165.349001 
L 463.420139 231.437821 
L 470.172664 165.349001 
L 476.925189 177.937347 
L 483.677715 140.172307 
L 490.43024 168.496087 
L 497.182765 231.437821 
L 503.93529 288.085381 
L 510.687816 231.437821 
L 517.440341 231.437821 
L 524.192866 231.437821 
L 530.945391 231.437821 
L 537.697917 231.437821 
L 544.450442 231.437821 
L 551.202967 231.437821 
L 557.955492 231.437821 
L 564.708018 231.437821 
L 571.460543 231.437821 
L 578.213068 231.437821 
L 584.965593 231.437821 
L 591.718119 231.437821 
L 598.470644 231.437821 
L 605.223169 231.437821 
L 611.975694 231.437821 
L 618.72822 231.437821 
L 625.480745 306.967901 
L 632.23327 231.437821 
L 638.985795 231.437821 
L 645.738321 231.437821 
L 652.490846 231.437821 
L 659.243371 231.437821 
L 665.995896 231.437821 
L 672.748422 231.437821 
L 679.500947 231.437821 
L 686.253472 231.437821 
L 693.005997 231.437821 
L 699.758523 231.437821 
L 706.511048 231.437821 
L 713.263573 231.437821 
L 720.016098 231.437821 
L 726.768624 231.437821 
L 733.521149 231.437821 
L 740.273674 231.437821 
L 747.026199 231.437821 
L 753.778725 231.437821 
L 760.53125 231.437821 
" clip-path="url(#p69c5e2cb64)" style="fill: none; stroke: #f39c12; stroke-width: 1.5; stroke-linecap: square"/>
   </g>
   <g id="line2d_27">
    <path d="M 92.03125 360.468374 
L 98.783775 385.645067 
L 105.536301 373.056721 
L 112.288826 382.497981 
L 119.041351 379.350894 
L 125.793876 373.056721 
L 132.546402 382.497981 
L 139.298927 388.792154 
L 146.051452 382.497981 
L 152.803977 369.909634 
L 159.556503 385.645067 
L 166.309028 388.792154 
L 173.061553 388.792154 
L 179.814078 385.645067 
L 186.566604 376.203807 
L 193.319129 382.497981 
L 200.071654 385.645067 
L 206.824179 376.203807 
L 213.576705 369.909634 
L 220.32923 388.792154 
L 227.081755 382.497981 
L 233.83428 382.497981 
L 240.586806 354.174201 
L 247.339331 388.792154 
L 254.091856 379.350894 
L 260.844381 388.792154 
L 267.596907 373.056721 
L 274.349432 388.792154 
L 281.101957 382.497981 
L 287.854482 385.645067 
L 294.607008 303.820814 
L 301.359533 388.792154 
L 308.112058 388.792154 
L 314.864583 319.556247 
L 321.617109 379.350894 
L 328.369634 388.792154 
L 335.122159 316.409161 
L 341.874684 379.350894 
L 348.62721 373.056721 
L 355.379735 322.703334 
L 362.13226 316.409161 
L 368.884785 388.792154 
L 375.637311 316.409161 
L 382.389836 303.820814 
L 389.142361 294.379554 
L 395.894886 388.792154 
L 402.647412 388.792154 
L 409.399937 388.792154 
L 416.152462 300.673727 
L 422.904987 388.792154 
L 429.657513 385.645067 
L 436.410038 388.792154 
L 443.162563 388.792154 
L 449.915088 388.792154 
L 456.667614 388.792154 
L 463.420139 388.792154 
L 470.172664 388.792154 
L 476.925189 388.792154 
L 483.677715 388.792154 
L 490.43024 388.792154 
L 497.182765 388.792154 
L 503.93529 332.144594 
L 510.687816 388.792154 
L 517.440341 388.792154 
L 524.192866 388.792154 
L 530.945391 388.792154 
L 537.697917 388.792154 
L 544.450442 388.792154 
L 551.202967 388.792154 
L 557.955492 388.792154 
L 564.708018 388.792154 
L 571.460543 388.792154 
L 578.213068 388.792154 
L 584.965593 388.792154 
L 591.718119 388.792154 
L 598.470644 388.792154 
L 605.223169 388.792154 
L 611.975694 388.792154 
L 618.72822 388.792154 
L 625.480745 325.850421 
L 632.23327 388.792154 
L 638.985795 388.792154 
L 645.738321 388.792154 
L 652.490846 388.792154 
L 659.243371 388.792154 
L 665.995896 388.792154 
L 672.748422 388.792154 
L 679.500947 388.792154 
L 686.253472 388.792154 
L 693.005997 388.792154 
L 699.758523 388.792154 
L 706.511048 388.792154 
L 713.263573 388.792154 
L 720.016098 388.792154 
L 726.768624 388.792154 
L 733.521149 388.792154 
L 740.273674 388.792154 
L 747.026199 388.792154 
L 753.778725 388.792154 
L 760.53125 388.792154 
" clip-path="url(#p69c5e2cb64)" style="fill: none; stroke: #e74c3c; stroke-width: 1.5; stroke-linecap: square"/>
   </g>
   <g id="patch_6">
    <path d="M 58.60625 404.527587 
L 58.60625 26.877187 
" style="fill: none; stroke: #000000; stroke-width: 1.5; stroke-linejoin: miter; stroke-linecap: square"/>
   </g>
   <g id="patch_7">
    <path d="M 793.95625 404.527587 
L 793.95625 26.877187 
" style="fill: none; stroke: #000000; stroke-width: 1.5; stroke-linejoin: miter; stroke-linecap: square"/>
   </g>
   <g id="patch_8">
    <path d="M 58.60625 404.527587 
L 793.95625 404.527587 
" style="fill: none; stroke: #000000; stroke-width: 1.5; stroke-linejoin: miter; stroke-linecap: square"/>
   </g>
   <g id="patch_9">
    <path d="M 58.60625 26.877187 
L 793.95625 26.877187 
" style="fill: none; stroke: #000000; stroke-width: 1.5; stroke-linejoin: miter; stroke-linecap: square"/>
   </g>
   <g id="text_15">
    <!-- VS RANDOM -->
    <g style="fill: #006064; opacity: 0.9" transform="translate(155.377723 65.501658) scale(0.11 -0.11)">
     <defs>
      <path id="DejaVuSans-Bold-56" d="M 31 4666 
L 1241 4666 
L 2478 1222 
L 3713 4666 
L 4922 4666 
L 3194 0 
L 1759 0 
L 31 4666 
z
" transform="scale(0.015625)"/>
      <path id="DejaVuSans-Bold-53" d="M 3834 4519 
L 3834 3531 
Q 3450 3703 3084 3790 
Q 2719 3878 2394 3878 
Q 1963 3878 1756 3759 
Q 1550 3641 1550 3391 
Q 1550 3203 1689 3098 
Q 1828 2994 2194 2919 
L 2706 2816 
Q 3484 2659 3812 2340 
Q 4141 2022 4141 1434 
Q 4141 663 3683 286 
Q 3225 -91 2284 -91 
Q 1841 -91 1394 -6 
Q 947 78 500 244 
L 500 1259 
Q 947 1022 1364 901 
Q 1781 781 2169 781 
Q 2563 781 2772 912 
Q 2981 1044 2981 1288 
Q 2981 1506 2839 1625 
Q 2697 1744 2272 1838 
L 1806 1941 
Q 1106 2091 782 2419 
Q 459 2747 459 3303 
Q 459 4000 909 4375 
Q 1359 4750 2203 4750 
Q 2588 4750 2994 4692 
Q 3400 4634 3834 4519 
z
" transform="scale(0.015625)"/>
      <path id="DejaVuSans-Bold-52" d="M 2297 2597 
Q 2675 2597 2839 2737 
Q 3003 2878 3003 3200 
Q 3003 3519 2839 3656 
Q 2675 3794 2297 3794 
L 1791 3794 
L 1791 2597 
L 2297 2597 
z
M 1791 1766 
L 1791 0 
L 588 0 
L 588 4666 
L 2425 4666 
Q 3347 4666 3776 4356 
Q 4206 4047 4206 3378 
Q 4206 2916 3982 2619 
Q 3759 2322 3309 2181 
Q 3556 2125 3751 1926 
Q 3947 1728 4147 1325 
L 4800 0 
L 3519 0 
L 2950 1159 
Q 2778 1509 2601 1637 
Q 2425 1766 2131 1766 
L 1791 1766 
z
" transform="scale(0.015625)"/>
      <path id="DejaVuSans-Bold-41" d="M 3419 850 
L 1538 850 
L 1241 0 
L 31 0 
L 1759 4666 
L 3194 4666 
L 4922 0 
L 3713 0 
L 3419 850 
z
M 1838 1716 
L 3116 1716 
L 2478 3572 
L 1838 1716 
z
" transform="scale(0.015625)"/>
      <path id="DejaVuSans-Bold-4e" d="M 588 4666 
L 1931 4666 
L 3628 1466 
L 3628 4666 
L 4769 4666 
L 4769 0 
L 3425 0 
L 1728 3200 
L 1728 0 
L 588 0 
L 588 4666 
z
" transform="scale(0.015625)"/>
      <path id="DejaVuSans-Bold-44" d="M 1791 3756 
L 1791 909 
L 2222 909 
Q 2959 909 3348 1275 
Q 3738 1641 3738 2338 
Q 3738 3031 3350 3393 
Q 2963 3756 2222 3756 
L 1791 3756 
z
M 588 4666 
L 1856 4666 
Q 2919 4666 3439 4514 
Q 3959 4363 4331 4000 
Q 4659 3684 4818 3271 
Q 4978 2859 4978 2338 
Q 4978 1809 4818 1395 
Q 4659 981 4331 666 
Q 3956 303 3431 151 
Q 2906 0 1856 0 
L 588 0 
L 588 4666 
z
" transform="scale(0.015625)"/>
      <path id="DejaVuSans-Bold-4f" d="M 2719 3878 
Q 2169 3878 1866 3472 
Q 1563 3066 1563 2328 
Q 1563 1594 1866 1187 
Q 2169 781 2719 781 
Q 3272 781 3575 1187 
Q 3878 1594 3878 2328 
Q 3878 3066 3575 3472 
Q 3272 3878 2719 3878 
z
M 2719 4750 
Q 3844 4750 4481 4106 
Q 5119 3463 5119 2328 
Q 5119 1197 4481 553 
Q 3844 -91 2719 -91 
Q 1597 -91 958 553 
Q 319 1197 319 2328 
Q 319 3463 958 4106 
Q 1597 4750 2719 4750 
z
" transform="scale(0.015625)"/>
      <path id="DejaVuSans-Bold-4d" d="M 588 4666 
L 2119 4666 
L 3181 2169 
L 4250 4666 
L 5778 4666 
L 5778 0 
L 4641 0 
L 4641 3413 
L 3566 897 
L 2803 897 
L 1728 3413 
L 1728 0 
L 588 0 
L 588 4666 
z
" transform="scale(0.015625)"/>
     </defs>
     <use xlink:href="#DejaVuSans-Bold-56"/>
     <use xlink:href="#DejaVuSans-Bold-53" transform="translate(77.392578 0)"/>
     <use xlink:href="#DejaVuSans-Bold-20" transform="translate(149.414062 0)"/>
     <use xlink:href="#DejaVuSans-Bold-52" transform="translate(184.228516 0)"/>
     <use xlink:href="#DejaVuSans-Bold-41" transform="translate(261.230469 0)"/>
     <use xlink:href="#DejaVuSans-Bold-4e" transform="translate(338.623047 0)"/>
     <use xlink:href="#DejaVuSans-Bold-44" transform="translate(422.314453 0)"/>
     <use xlink:href="#DejaVuSans-Bold-4f" transform="translate(505.322266 0)"/>
     <use xlink:href="#DejaVuSans-Bold-4d" transform="translate(590.332031 0)"/>
    </g>
   </g>
   <g id="text_16">
    <!-- VS DEFAULT -->
    <g style="fill: #ff8f00; opacity: 0.9" transform="translate(359.415277 65.501658) scale(0.11 -0.11)">
     <defs>
      <path id="DejaVuSans-Bold-46" d="M 588 4666 
L 3834 4666 
L 3834 3756 
L 1791 3756 
L 1791 2888 
L 3713 2888 
L 3713 1978 
L 1791 1978 
L 1791 0 
L 588 0 
L 588 4666 
z
" transform="scale(0.015625)"/>
      <path id="DejaVuSans-Bold-55" d="M 588 4666 
L 1791 4666 
L 1791 1869 
Q 1791 1291 1980 1042 
Q 2169 794 2597 794 
Q 3028 794 3217 1042 
Q 3406 1291 3406 1869 
L 3406 4666 
L 4609 4666 
L 4609 1869 
Q 4609 878 4112 393 
Q 3616 -91 2597 -91 
Q 1581 -91 1084 393 
Q 588 878 588 1869 
L 588 4666 
z
" transform="scale(0.015625)"/>
      <path id="DejaVuSans-Bold-4c" d="M 588 4666 
L 1791 4666 
L 1791 909 
L 3903 909 
L 3903 0 
L 588 0 
L 588 4666 
z
" transform="scale(0.015625)"/>
      <path id="DejaVuSans-Bold-54" d="M 31 4666 
L 4331 4666 
L 4331 3756 
L 2784 3756 
L 2784 0 
L 1581 0 
L 1581 3756 
L 31 3756 
L 31 4666 
z
" transform="scale(0.015625)"/>
     </defs>
     <use xlink:href="#DejaVuSans-Bold-56"/>
     <use xlink:href="#DejaVuSans-Bold-53" transform="translate(77.392578 0)"/>
     <use xlink:href="#DejaVuSans-Bold-20" transform="translate(149.414062 0)"/>
     <use xlink:href="#DejaVuSans-Bold-44" transform="translate(184.228516 0)"/>
     <use xlink:href="#DejaVuSans-Bold-45" transform="translate(267.236328 0)"/>
     <use xlink:href="#DejaVuSans-Bold-46" transform="translate(335.546875 0)"/>
     <use xlink:href="#DejaVuSans-Bold-41" transform="translate(392.357422 0)"/>
     <use xlink:href="#DejaVuSans-Bold-55" transform="translate(466.625 0)"/>
     <use xlink:href="#DejaVuSans-Bold-4c" transform="translate(547.826172 0)"/>
     <use xlink:href="#DejaVuSans-Bold-54" transform="translate(595.046875 0)"/>
    </g>
   </g>
   <g id="text_17">
    <!-- VS MINIMAX -->
    <g style="fill: #666666; opacity: 0.9" transform="translate(590.586461 65.501658) scale(0.11 -0.11)">
     <defs>
      <path id="DejaVuSans-Bold-49" d="M 588 4666 
L 1791 4666 
L 1791 0 
L 588 0 
L 588 4666 
z
" transform="scale(0.015625)"/>
      <path id="DejaVuSans-Bold-58" d="M 3188 2381 
L 4806 0 
L 3553 0 
L 2463 1594 
L 1381 0 
L 122 0 
L 1741 2381 
L 184 4666 
L 1441 4666 
L 2463 3163 
L 3481 4666 
L 4744 4666 
L 3188 2381 
z
" transform="scale(0.015625)"/>
     </defs>
     <use xlink:href="#DejaVuSans-Bold-56"/>
     <use xlink:href="#DejaVuSans-Bold-53" transform="translate(77.392578 0)"/>
     <use xlink:href="#DejaVuSans-Bold-20" transform="translate(149.414062 0)"/>
     <use xlink:href="#DejaVuSans-Bold-4d" transform="translate(184.228516 0)"/>
     <use xlink:href="#DejaVuSans-Bold-49" transform="translate(283.740234 0)"/>
     <use xlink:href="#DejaVuSans-Bold-4e" transform="translate(320.947266 0)"/>
     <use xlink:href="#DejaVuSans-Bold-49" transform="translate(404.638672 0)"/>
     <use xlink:href="#DejaVuSans-Bold-4d" transform="translate(441.845703 0)"/>
     <use xlink:href="#DejaVuSans-Bold-41" transform="translate(541.357422 0)"/>
     <use xlink:href="#DejaVuSans-Bold-58" transform="translate(618.75 0)"/>
    </g>
   </g>
   <g id="text_18">
    <!-- Tic-Tac-Toe Q Learning Training Convergence -->
    <g transform="translate(201.319219 20.877187) scale(0.18 -0.18)">
     <defs>
      <path id="DejaVuSans-Bold-2d" d="M 347 2297 
L 2309 2297 
L 2309 1388 
L 347 1388 
L 347 2297 
z
" transform="scale(0.015625)"/>
      <path id="DejaVuSans-Bold-51" d="M 2847 -84 
L 2753 -84 
Q 1600 -84 959 553 
Q 319 1191 319 2328 
Q 319 3463 958 4106 
Q 1597 4750 2719 4750 
Q 3853 4750 4486 4112 
Q 5119 3475 5119 2328 
Q 5119 1541 4783 972 
Q 4447 403 3816 116 
L 4756 -934 
L 3609 -934 
L 2847 -84 
z
M 2719 3878 
Q 2169 3878 1866 3472 
Q 1563 3066 1563 2328 
Q 1563 1578 1859 1179 
Q 2156 781 2719 781 
Q 3272 781 3575 1187 
Q 3878 1594 3878 2328 
Q 3878 3066 3575 3472 
Q 3272 3878 2719 3878 
z
" transform="scale(0.015625)"/>
      <path id="DejaVuSans-Bold-43" d="M 4288 256 
Q 3956 84 3597 -3 
Q 3238 -91 2847 -91 
Q 1681 -91 1000 561 
Q 319 1213 319 2328 
Q 319 3447 1000 4098 
Q 1681 4750 2847 4750 
Q 3238 4750 3597 4662 
Q 3956 4575 4288 4403 
L 4288 3438 
Q 3953 3666 3628 3772 
Q 3303 3878 2944 3878 
Q 2300 3878 1931 3465 
Q 1563 3053 1563 2328 
Q 1563 1606 1931 1193 
Q 2300 781 2944 781 
Q 3303 781 3628 887 
Q 3953 994 4288 1222 
L 4288 256 
z
" transform="scale(0.015625)"/>
      <path id="DejaVuSans-Bold-76" d="M 97 3500 
L 1216 3500 
L 2088 1081 
L 2956 3500 
L 4078 3500 
L 2700 0 
L 1472 0 
L 97 3500 
z
" transform="scale(0.015625)"/>
     </defs>
     <use xlink:href="#DejaVuSans-Bold-54"/>
     <use xlink:href="#DejaVuSans-Bold-69" transform="translate(68.212891 0)"/>
     <use xlink:href="#DejaVuSans-Bold-63" transform="translate(102.490234 0)"/>
     <use xlink:href="#DejaVuSans-Bold-2d" transform="translate(161.767578 0)"/>
     <use xlink:href="#DejaVuSans-Bold-54" transform="translate(188.521484 0)"/>
     <use xlink:href="#DejaVuSans-Bold-61" transform="translate(243.859375 0)"/>
     <use xlink:href="#DejaVuSans-Bold-63" transform="translate(311.339844 0)"/>
     <use xlink:href="#DejaVuSans-Bold-2d" transform="translate(370.617188 0)"/>
     <use xlink:href="#DejaVuSans-Bold-54" transform="translate(397.371094 0)"/>
     <use xlink:href="#DejaVuSans-Bold-6f" transform="translate(452.333984 0)"/>
     <use xlink:href="#DejaVuSans-Bold-65" transform="translate(521.035156 0)"/>
     <use xlink:href="#DejaVuSans-Bold-20" transform="translate(588.857422 0)"/>
     <use xlink:href="#DejaVuSans-Bold-51" transform="translate(623.671875 0)"/>
     <use xlink:href="#DejaVuSans-Bold-20" transform="translate(708.681641 0)"/>
     <use xlink:href="#DejaVuSans-Bold-4c" transform="translate(743.496094 0)"/>
     <use xlink:href="#DejaVuSans-Bold-65" transform="translate(807.216797 0)"/>
     <use xlink:href="#DejaVuSans-Bold-61" transform="translate(875.039062 0)"/>
     <use xlink:href="#DejaVuSans-Bold-72" transform="translate(942.519531 0)"/>
     <use xlink:href="#DejaVuSans-Bold-6e" transform="translate(991.835938 0)"/>
     <use xlink:href="#DejaVuSans-Bold-69" transform="translate(1063.027344 0)"/>
     <use xlink:href="#DejaVuSans-Bold-6e" transform="translate(1097.304688 0)"/>
     <use xlink:href="#DejaVuSans-Bold-67" transform="translate(1168.496094 0)"/>
     <use xlink:href="#DejaVuSans-Bold-20" transform="translate(1240.078125 0)"/>
     <use xlink:href="#DejaVuSans-Bold-54" transform="translate(1274.892578 0)"/>
     <use xlink:href="#DejaVuSans-Bold-72" transform="translate(1332.105469 0)"/>
     <use xlink:href="#DejaVuSans-Bold-61" transform="translate(1381.421875 0)"/>
     <use xlink:href="#DejaVuSans-Bold-69" transform="translate(1448.902344 0)"/>
     <use xlink:href="#DejaVuSans-Bold-6e" transform="translate(1483.179688 0)"/>
     <use xlink:href="#DejaVuSans-Bold-69" transform="translate(1554.371094 0)"/>
     <use xlink:href="#DejaVuSans-Bold-6e" transform="translate(1588.648438 0)"/>
     <use xlink:href="#DejaVuSans-Bold-67" transform="translate(1659.839844 0)"/>
     <use xlink:href="#DejaVuSans-Bold-20" transform="translate(1731.421875 0)"/>
     <use xlink:href="#DejaVuSans-Bold-43" transform="translate(1766.236328 0)"/>
     <use xlink:href="#DejaVuSans-Bold-6f" transform="translate(1839.625 0)"/>
     <use xlink:href="#DejaVuSans-Bold-6e" transform="translate(1908.326172 0)"/>
     <use xlink:href="#DejaVuSans-Bold-76" transform="translate(1979.517578 0)"/>
     <use xlink:href="#DejaVuSans-Bold-65" transform="translate(2044.703125 0)"/>
     <use xlink:href="#DejaVuSans-Bold-72" transform="translate(2112.525391 0)"/>
     <use xlink:href="#DejaVuSans-Bold-67" transform="translate(2161.841797 0)"/>
     <use xlink:href="#DejaVuSans-Bold-65" transform="translate(2233.423828 0)"/>
     <use xlink:href="#DejaVuSans-Bold-6e" transform="translate(2301.246094 0)"/>
     <use xlink:href="#DejaVuSans-Bold-63" transform="translate(2372.4375 0)"/>
     <use xlink:href="#DejaVuSans-Bold-65" transform="translate(2431.714844 0)"/>
    </g>
   </g>
   <g id="legend_1">
    <g id="line2d_28">
     <path d="M 100.318437 466.873604 
L 113.318437 466.873604 
L 126.318437 466.873604 
" style="fill: none; stroke-dasharray: 11.1,4.8; stroke-dashoffset: 0; stroke: #f1c40f; stroke-width: 3"/>
     <defs>
      <path id="mb87b26bea2" d="M 0 4 
C 1.060812 4 2.078319 3.578535 2.828427 2.828427 
C 3.578535 2.078319 4 1.060812 4 0 
C 4 -1.060812 3.578535 -2.078319 2.828427 -2.828427 
C 2.078319 -3.578535 1.060812 -4 0 -4 
C -1.060812 -4 -2.078319 -3.578535 -2.828427 -2.828427 
C -3.578535 -2.078319 -4 -1.060812 -4 0 
C -4 1.060812 -3.578535 2.078319 -2.828427 2.828427 
C -2.078319 3.578535 -1.060812 4 0 4 
z
" style="stroke: #f1c40f"/>
     </defs>
     <g>
      <use xlink:href="#mb87b26bea2" x="113.318437" y="466.873604" style="fill: #f1c40f; stroke: #f1c40f"/>
     </g>
    </g>
    <g id="text_19">
     <!-- MiniMax win rate -->
     <g transform="translate(136.718437 471.423604) scale(0.13 -0.13)">
      <defs>
       <path id="DejaVuSans-4d" d="M 628 4666 
L 1569 4666 
L 2759 1491 
L 3956 4666 
L 4897 4666 
L 4897 0 
L 4281 0 
L 4281 4097 
L 3078 897 
L 2444 897 
L 1241 4097 
L 1241 0 
L 628 0 
L 628 4666 
z
" transform="scale(0.015625)"/>
       <path id="DejaVuSans-69" d="M 603 3500 
L 1178 3500 
L 1178 0 
L 603 0 
L 603 3500 
z
M 603 4863 
L 1178 4863 
L 1178 4134 
L 603 4134 
L 603 4863 
z
" transform="scale(0.015625)"/>
       <path id="DejaVuSans-6e" d="M 3513 2113 
L 3513 0 
L 2938 0 
L 2938 2094 
Q 2938 2591 2744 2837 
Q 2550 3084 2163 3084 
Q 1697 3084 1428 2787 
Q 1159 2491 1159 1978 
L 1159 0 
L 581 0 
L 581 3500 
L 1159 3500 
L 1159 2956 
Q 1366 3272 1645 3428 
Q 1925 3584 2291 3584 
Q 2894 3584 3203 3211 
Q 3513 2838 3513 2113 
z
" transform="scale(0.015625)"/>
       <path id="DejaVuSans-61" d="M 2194 1759 
Q 1497 1759 1228 1600 
Q 959 1441 959 1056 
Q 959 750 1161 570 
Q 1363 391 1709 391 
Q 2188 391 2477 730 
Q 2766 1069 2766 1631 
L 2766 1759 
L 2194 1759 
z
M 3341 1997 
L 3341 0 
L 2766 0 
L 2766 531 
Q 2569 213 2275 61 
Q 1981 -91 1556 -91 
Q 1019 -91 701 211 
Q 384 513 384 1019 
Q 384 1609 779 1909 
Q 1175 2209 1959 2209 
L 2766 2209 
L 2766 2266 
Q 2766 2663 2505 2880 
Q 2244 3097 1772 3097 
Q 1472 3097 1187 3025 
Q 903 2953 641 2809 
L 641 3341 
Q 956 3463 1253 3523 
Q 1550 3584 1831 3584 
Q 2591 3584 2966 3190 
Q 3341 2797 3341 1997 
z
" transform="scale(0.015625)"/>
       <path id="DejaVuSans-78" d="M 3513 3500 
L 2247 1797 
L 3578 0 
L 2900 0 
L 1881 1375 
L 863 0 
L 184 0 
L 1544 1831 
L 300 3500 
L 978 3500 
L 1906 2253 
L 2834 3500 
L 3513 3500 
z
" transform="scale(0.015625)"/>
       <path id="DejaVuSans-20" transform="scale(0.015625)"/>
       <path id="DejaVuSans-77" d="M 269 3500 
L 844 3500 
L 1563 769 
L 2278 3500 
L 2956 3500 
L 3675 769 
L 4391 3500 
L 4966 3500 
L 4050 0 
L 3372 0 
L 2619 2869 
L 1863 0 
L 1184 0 
L 269 3500 
z
" transform="scale(0.015625)"/>
       <path id="DejaVuSans-72" d="M 2631 2963 
Q 2534 3019 2420 3045 
Q 2306 3072 2169 3072 
Q 1681 3072 1420 2755 
Q 1159 2438 1159 1844 
L 1159 0 
L 581 0 
L 581 3500 
L 1159 3500 
L 1159 2956 
Q 1341 3275 1631 3429 
Q 1922 3584 2338 3584 
Q 2397 3584 2469 3576 
Q 2541 3569 2628 3553 
L 2631 2963 
z
" transform="scale(0.015625)"/>
       <path id="DejaVuSans-74" d="M 1172 4494 
L 1172 3500 
L 2356 3500 
L 2356 3053 
L 1172 3053 
L 1172 1153 
Q 1172 725 1289 603 
Q 1406 481 1766 481 
L 2356 481 
L 2356 0 
L 1766 0 
Q 1100 0 847 248 
Q 594 497 594 1153 
L 594 3053 
L 172 3053 
L 172 3500 
L 594 3500 
L 594 4494 
L 1172 4494 
z
" transform="scale(0.015625)"/>
       <path id="DejaVuSans-65" d="M 3597 1894 
L 3597 1613 
L 953 1613 
Q 991 1019 1311 708 
Q 1631 397 2203 397 
Q 2534 397 2845 478 
Q 3156 559 3463 722 
L 3463 178 
Q 3153 47 2828 -22 
Q 2503 -91 2169 -91 
Q 1331 -91 842 396 
Q 353 884 353 1716 
Q 353 2575 817 3079 
Q 1281 3584 2069 3584 
Q 2775 3584 3186 3129 
Q 3597 2675 3597 1894 
z
M 3022 2063 
Q 3016 2534 2758 2815 
Q 2500 3097 2075 3097 
Q 1594 3097 1305 2825 
Q 1016 2553 972 2059 
L 3022 2063 
z
" transform="scale(0.015625)"/>
      </defs>
      <use xlink:href="#DejaVuSans-4d"/>
      <use xlink:href="#DejaVuSans-69" transform="translate(86.279297 0)"/>
      <use xlink:href="#DejaVuSans-6e" transform="translate(114.0625 0)"/>
      <use xlink:href="#DejaVuSans-69" transform="translate(177.441406 0)"/>
      <use xlink:href="#DejaVuSans-4d" transform="translate(205.224609 0)"/>
      <use xlink:href="#DejaVuSans-61" transform="translate(291.503906 0)"/>
      <use xlink:href="#DejaVuSans-78" transform="translate(352.783203 0)"/>
      <use xlink:href="#DejaVuSans-20" transform="translate(411.962891 0)"/>
      <use xlink:href="#DejaVuSans-77" transform="translate(443.75 0)"/>
      <use xlink:href="#DejaVuSans-69" transform="translate(525.537109 0)"/>
      <use xlink:href="#DejaVuSans-6e" transform="translate(553.320312 0)"/>
      <use xlink:href="#DejaVuSans-20" transform="translate(616.699219 0)"/>
      <use xlink:href="#DejaVuSans-72" transform="translate(648.486328 0)"/>
      <use xlink:href="#DejaVuSans-61" transform="translate(689.599609 0)"/>
      <use xlink:href="#DejaVuSans-74" transform="translate(750.878906 0)"/>
      <use xlink:href="#DejaVuSans-65" transform="translate(790.087891 0)"/>
     </g>
    </g>
    <g id="line2d_29">
     <path d="M 273.425625 466.873604 
L 286.425625 466.873604 
L 299.425625 466.873604 
" style="fill: none; stroke: #2ecc71; stroke-width: 1.5; stroke-linecap: square"/>
    </g>
    <g id="text_20">
     <!-- Wins % -->
     <g transform="translate(309.825625 471.423604) scale(0.13 -0.13)">
      <defs>
       <path id="DejaVuSans-57" d="M 213 4666 
L 850 4666 
L 1831 722 
L 2809 4666 
L 3519 4666 
L 4500 722 
L 5478 4666 
L 6119 4666 
L 4947 0 
L 4153 0 
L 3169 4050 
L 2175 0 
L 1381 0 
L 213 4666 
z
" transform="scale(0.015625)"/>
       <path id="DejaVuSans-73" d="M 2834 3397 
L 2834 2853 
Q 2591 2978 2328 3040 
Q 2066 3103 1784 3103 
Q 1356 3103 1142 2972 
Q 928 2841 928 2578 
Q 928 2378 1081 2264 
Q 1234 2150 1697 2047 
L 1894 2003 
Q 2506 1872 2764 1633 
Q 3022 1394 3022 966 
Q 3022 478 2636 193 
Q 2250 -91 1575 -91 
Q 1294 -91 989 -36 
Q 684 19 347 128 
L 347 722 
Q 666 556 975 473 
Q 1284 391 1588 391 
Q 1994 391 2212 530 
Q 2431 669 2431 922 
Q 2431 1156 2273 1281 
Q 2116 1406 1581 1522 
L 1381 1569 
Q 847 1681 609 1914 
Q 372 2147 372 2553 
Q 372 3047 722 3315 
Q 1072 3584 1716 3584 
Q 2034 3584 2315 3537 
Q 2597 3491 2834 3397 
z
" transform="scale(0.015625)"/>
       <path id="DejaVuSans-25" d="M 4653 2053 
Q 4381 2053 4226 1822 
Q 4072 1591 4072 1178 
Q 4072 772 4226 539 
Q 4381 306 4653 306 
Q 4919 306 5073 539 
Q 5228 772 5228 1178 
Q 5228 1588 5073 1820 
Q 4919 2053 4653 2053 
z
M 4653 2450 
Q 5147 2450 5437 2106 
Q 5728 1763 5728 1178 
Q 5728 594 5436 251 
Q 5144 -91 4653 -91 
Q 4153 -91 3862 251 
Q 3572 594 3572 1178 
Q 3572 1766 3864 2108 
Q 4156 2450 4653 2450 
z
M 1428 4353 
Q 1159 4353 1004 4120 
Q 850 3888 850 3481 
Q 850 3069 1003 2837 
Q 1156 2606 1428 2606 
Q 1700 2606 1854 2837 
Q 2009 3069 2009 3481 
Q 2009 3884 1853 4118 
Q 1697 4353 1428 4353 
z
M 4250 4750 
L 4750 4750 
L 1831 -91 
L 1331 -91 
L 4250 4750 
z
M 1428 4750 
Q 1922 4750 2215 4408 
Q 2509 4066 2509 3481 
Q 2509 2891 2217 2550 
Q 1925 2209 1428 2209 
Q 931 2209 642 2551 
Q 353 2894 353 3481 
Q 353 4063 643 4406 
Q 934 4750 1428 4750 
z
" transform="scale(0.015625)"/>
      </defs>
      <use xlink:href="#DejaVuSans-57"/>
      <use xlink:href="#DejaVuSans-69" transform="translate(96.626953 0)"/>
      <use xlink:href="#DejaVuSans-6e" transform="translate(124.410156 0)"/>
      <use xlink:href="#DejaVuSans-73" transform="translate(187.789062 0)"/>
      <use xlink:href="#DejaVuSans-20" transform="translate(239.888672 0)"/>
      <use xlink:href="#DejaVuSans-25" transform="translate(271.675781 0)"/>
     </g>
    </g>
    <g id="line2d_30">
     <path d="M 383.492969 466.873604 
L 396.492969 466.873604 
L 409.492969 466.873604 
" style="fill: none; stroke: #f39c12; stroke-width: 1.5; stroke-linecap: square"/>
    </g>
    <g id="text_21">
     <!-- Draws % -->
     <g transform="translate(419.892969 471.423604) scale(0.13 -0.13)">
      <defs>
       <path id="DejaVuSans-44" d="M 1259 4147 
L 1259 519 
L 2022 519 
Q 2988 519 3436 956 
Q 3884 1394 3884 2338 
Q 3884 3275 3436 3711 
Q 2988 4147 2022 4147 
L 1259 4147 
z
M 628 4666 
L 1925 4666 
Q 3281 4666 3915 4102 
Q 4550 3538 4550 2338 
Q 4550 1131 3912 565 
Q 3275 0 1925 0 
L 628 0 
L 628 4666 
z
" transform="scale(0.015625)"/>
      </defs>
      <use xlink:href="#DejaVuSans-44"/>
      <use xlink:href="#DejaVuSans-72" transform="translate(77.001953 0)"/>
      <use xlink:href="#DejaVuSans-61" transform="translate(118.115234 0)"/>
      <use xlink:href="#DejaVuSans-77" transform="translate(179.394531 0)"/>
      <use xlink:href="#DejaVuSans-73" transform="translate(261.181641 0)"/>
      <use xlink:href="#DejaVuSans-20" transform="translate(313.28125 0)"/>
      <use xlink:href="#DejaVuSans-25" transform="translate(345.068359 0)"/>
     </g>
    </g>
    <g id="line2d_31">
     <path d="M 503.101094 466.873604 
L 516.101094 466.873604 
L 529.101094 466.873604 
" style="fill: none; stroke: #e74c3c; stroke-width: 1.5; stroke-linecap: square"/>
    </g>
    <g id="text_22">
     <!-- Losses % -->
     <g transform="translate(539.501094 471.423604) scale(0.13 -0.13)">
      <defs>
       <path id="DejaVuSans-4c" d="M 628 4666 
L 1259 4666 
L 1259 531 
L 3531 531 
L 3531 0 
L 628 0 
L 628 4666 
z
" transform="scale(0.015625)"/>
       <path id="DejaVuSans-6f" d="M 1959 3097 
Q 1497 3097 1228 2736 
Q 959 2375 959 1747 
Q 959 1119 1226 758 
Q 1494 397 1959 397 
Q 2419 397 2687 759 
Q 2956 1122 2956 1747 
Q 2956 2369 2687 2733 
Q 2419 3097 1959 3097 
z
M 1959 3584 
Q 2709 3584 3137 3096 
Q 3566 2609 3566 1747 
Q 3566 888 3137 398 
Q 2709 -91 1959 -91 
Q 1206 -91 779 398 
Q 353 888 353 1747 
Q 353 2609 779 3096 
Q 1206 3584 1959 3584 
z
" transform="scale(0.015625)"/>
      </defs>
      <use xlink:href="#DejaVuSans-4c"/>
      <use xlink:href="#DejaVuSans-6f" transform="translate(53.962891 0)"/>
      <use xlink:href="#DejaVuSans-73" transform="translate(115.144531 0)"/>
      <use xlink:href="#DejaVuSans-73" transform="translate(167.244141 0)"/>
      <use xlink:href="#DejaVuSans-65" transform="translate(219.34375 0)"/>
      <use xlink:href="#DejaVuSans-73" transform="translate(280.867188 0)"/>
      <use xlink:href="#DejaVuSans-20" transform="translate(332.966797 0)"/>
      <use xlink:href="#DejaVuSans-25" transform="translate(364.753906 0)"/>
     </g>
    </g>
    <g id="line2d_32">
     <path d="M 625.270625 466.873604 
L 638.270625 466.873604 
L 651.270625 466.873604 
" style="fill: none; stroke-dasharray: 7.4,3.2; stroke-dashoffset: 0; stroke: #9b59b6; stroke-opacity: 0.7; stroke-width: 2"/>
    </g>
    <g id="text_23">
     <!-- V-Table States -->
     <g transform="translate(661.670625 471.423604) scale(0.13 -0.13)">
      <defs>
       <path id="DejaVuSans-56" d="M 1831 0 
L 50 4666 
L 709 4666 
L 2188 738 
L 3669 4666 
L 4325 4666 
L 2547 0 
L 1831 0 
z
" transform="scale(0.015625)"/>
       <path id="DejaVuSans-2d" d="M 313 2009 
L 1997 2009 
L 1997 1497 
L 313 1497 
L 313 2009 
z
" transform="scale(0.015625)"/>
       <path id="DejaVuSans-54" d="M -19 4666 
L 3928 4666 
L 3928 4134 
L 2272 4134 
L 2272 0 
L 1638 0 
L 1638 4134 
L -19 4134 
L -19 4666 
z
" transform="scale(0.015625)"/>
       <path id="DejaVuSans-62" d="M 3116 1747 
Q 3116 2381 2855 2742 
Q 2594 3103 2138 3103 
Q 1681 3103 1420 2742 
Q 1159 2381 1159 1747 
Q 1159 1113 1420 752 
Q 1681 391 2138 391 
Q 2594 391 2855 752 
Q 3116 1113 3116 1747 
z
M 1159 2969 
Q 1341 3281 1617 3432 
Q 1894 3584 2278 3584 
Q 2916 3584 3314 3078 
Q 3713 2572 3713 1747 
Q 3713 922 3314 415 
Q 2916 -91 2278 -91 
Q 1894 -91 1617 61 
Q 1341 213 1159 525 
L 1159 0 
L 581 0 
L 581 4863 
L 1159 4863 
L 1159 2969 
z
" transform="scale(0.015625)"/>
       <path id="DejaVuSans-6c" d="M 603 4863 
L 1178 4863 
L 1178 0 
L 603 0 
L 603 4863 
z
" transform="scale(0.015625)"/>
       <path id="DejaVuSans-53" d="M 3425 4513 
L 3425 3897 
Q 3066 4069 2747 4153 
Q 2428 4238 2131 4238 
Q 1616 4238 1336 4038 
Q 1056 3838 1056 3469 
Q 1056 3159 1242 3001 
Q 1428 2844 1947 2747 
L 2328 2669 
Q 3034 2534 3370 2195 
Q 3706 1856 3706 1288 
Q 3706 609 3251 259 
Q 2797 -91 1919 -91 
Q 1588 -91 1214 -16 
Q 841 59 441 206 
L 441 856 
Q 825 641 1194 531 
Q 1563 422 1919 422 
Q 2459 422 2753 634 
Q 3047 847 3047 1241 
Q 3047 1584 2836 1778 
Q 2625 1972 2144 2069 
L 1759 2144 
Q 1053 2284 737 2584 
Q 422 2884 422 3419 
Q 422 4038 858 4394 
Q 1294 4750 2059 4750 
Q 2388 4750 2728 4690 
Q 3069 4631 3425 4513 
z
" transform="scale(0.015625)"/>
      </defs>
      <use xlink:href="#DejaVuSans-56"/>
      <use xlink:href="#DejaVuSans-2d" transform="translate(62.533203 0)"/>
      <use xlink:href="#DejaVuSans-54" transform="translate(89.492188 0)"/>
      <use xlink:href="#DejaVuSans-61" transform="translate(134.076172 0)"/>
      <use xlink:href="#DejaVuSans-62" transform="translate(195.355469 0)"/>
      <use xlink:href="#DejaVuSans-6c" transform="translate(258.832031 0)"/>
      <use xlink:href="#DejaVuSans-65" transform="translate(286.615234 0)"/>
      <use xlink:href="#DejaVuSans-20" transform="translate(348.138672 0)"/>
      <use xlink:href="#DejaVuSans-53" transform="translate(379.925781 0)"/>
      <use xlink:href="#DejaVuSans-74" transform="translate(443.402344 0)"/>
      <use xlink:href="#DejaVuSans-61" transform="translate(482.611328 0)"/>
      <use xlink:href="#DejaVuSans-74" transform="translate(543.890625 0)"/>
      <use xlink:href="#DejaVuSans-65" transform="translate(583.099609 0)"/>
      <use xlink:href="#DejaVuSans-73" transform="translate(644.623047 0)"/>
     </g>
    </g>
   </g>
   <g id="line2d_33">
    <path d="M 119.041351 231.437821 
L 152.803977 231.437821 
L 186.566604 193.672781 
L 220.32923 231.437821 
L 254.091856 231.437821 
L 287.854482 388.792154 
L 321.617109 231.437821 
L 355.379735 206.261127 
L 389.142361 231.437821 
L 422.904987 231.437821 
L 456.667614 231.437821 
L 490.43024 231.437821 
L 524.192866 231.437821 
L 557.955492 231.437821 
L 591.718119 231.437821 
L 625.480745 218.849474 
L 659.243371 231.437821 
L 693.005997 231.437821 
L 726.768624 231.437821 
L 760.53125 231.437821 
" clip-path="url(#p69c5e2cb64)" style="fill: none; stroke-dasharray: 11.1,4.8; stroke-dashoffset: 0; stroke: #f1c40f; stroke-width: 3"/>
    <g clip-path="url(#p69c5e2cb64)">
     <use xlink:href="#mb87b26bea2" x="119.041351" y="231.437821" style="fill: #f1c40f; stroke: #f1c40f"/>
     <use xlink:href="#mb87b26bea2" x="152.803977" y="231.437821" style="fill: #f1c40f; stroke: #f1c40f"/>
     <use xlink:href="#mb87b26bea2" x="186.566604" y="193.672781" style="fill: #f1c40f; stroke: #f1c40f"/>
     <use xlink:href="#mb87b26bea2" x="220.32923" y="231.437821" style="fill: #f1c40f; stroke: #f1c40f"/>
     <use xlink:href="#mb87b26bea2" x="254.091856" y="231.437821" style="fill: #f1c40f; stroke: #f1c40f"/>
     <use xlink:href="#mb87b26bea2" x="287.854482" y="388.792154" style="fill: #f1c40f; stroke: #f1c40f"/>
     <use xlink:href="#mb87b26bea2" x="321.617109" y="231.437821" style="fill: #f1c40f; stroke: #f1c40f"/>
     <use xlink:href="#mb87b26bea2" x="355.379735" y="206.261127" style="fill: #f1c40f; stroke: #f1c40f"/>
     <use xlink:href="#mb87b26bea2" x="389.142361" y="231.437821" style="fill: #f1c40f; stroke: #f1c40f"/>
     <use xlink:href="#mb87b26bea2" x="422.904987" y="231.437821" style="fill: #f1c40f; stroke: #f1c40f"/>
     <use xlink:href="#mb87b26bea2" x="456.667614" y="231.437821" style="fill: #f1c40f; stroke: #f1c40f"/>
     <use xlink:href="#mb87b26bea2" x="490.43024" y="231.437821" style="fill: #f1c40f; stroke: #f1c40f"/>
     <use xlink:href="#mb87b26bea2" x="524.192866" y="231.437821" style="fill: #f1c40f; stroke: #f1c40f"/>
     <use xlink:href="#mb87b26bea2" x="557.955492" y="231.437821" style="fill: #f1c40f; stroke: #f1c40f"/>
     <use xlink:href="#mb87b26bea2" x="591.718119" y="231.437821" style="fill: #f1c40f; stroke: #f1c40f"/>
     <use xlink:href="#mb87b26bea2" x="625.480745" y="218.849474" style="fill: #f1c40f; stroke: #f1c40f"/>
     <use xlink:href="#mb87b26bea2" x="659.243371" y="231.437821" style="fill: #f1c40f; stroke: #f1c40f"/>
     <use xlink:href="#mb87b26bea2" x="693.005997" y="231.437821" style="fill: #f1c40f; stroke: #f1c40f"/>
     <use xlink:href="#mb87b26bea2" x="726.768624" y="231.437821" style="fill: #f1c40f; stroke: #f1c40f"/>
     <use xlink:href="#mb87b26bea2" x="760.53125" y="231.437821" style="fill: #f1c40f; stroke: #f1c40f"/>
    </g>
   </g>
  </g>
  <g id="axes_2">
   <g id="matplotlib.axis_3">
    <g id="ytick_7">
     <g id="line2d_34">
      <path d="M 58.60625 387.36166 
L 793.95625 387.36166 
" clip-path="url(#p69c5e2cb64)" style="fill: none; stroke: #b0b0b0; stroke-opacity: 0.3; stroke-width: 0.8; stroke-linecap: square"/>
     </g>
     <g id="line2d_35">
      <defs>
       <path id="m14f14f509a" d="M 0 0 
L 3.5 0 
" style="stroke: #000000; stroke-width: 0.8"/>
      </defs>
      <g>
       <use xlink:href="#m14f14f509a" x="793.95625" y="387.36166" style="stroke: #000000; stroke-width: 0.8"/>
      </g>
     </g>
     <g id="text_24">
      <!-- 710 -->
      <g style="fill: #8e44ad" transform="translate(800.95625 392.300645) scale(0.13 -0.13)">
       <defs>
        <path id="DejaVuSans-37" d="M 525 4666 
L 3525 4666 
L 3525 4397 
L 1831 0 
L 1172 0 
L 2766 4134 
L 525 4134 
L 525 4666 
z
" transform="scale(0.015625)"/>
       </defs>
       <use xlink:href="#DejaVuSans-37"/>
       <use xlink:href="#DejaVuSans-31" transform="translate(63.623047 0)"/>
       <use xlink:href="#DejaVuSans-30" transform="translate(127.246094 0)"/>
      </g>
     </g>
    </g>
    <g id="ytick_8">
     <g id="line2d_36">
      <path d="M 58.60625 323.784152 
L 793.95625 323.784152 
" clip-path="url(#p69c5e2cb64)" style="fill: none; stroke: #b0b0b0; stroke-opacity: 0.3; stroke-width: 0.8; stroke-linecap: square"/>
     </g>
     <g id="line2d_37">
      <g>
       <use xlink:href="#m14f14f509a" x="793.95625" y="323.784152" style="stroke: #000000; stroke-width: 0.8"/>
      </g>
     </g>
     <g id="text_25">
      <!-- 720 -->
      <g style="fill: #8e44ad" transform="translate(800.95625 328.723136) scale(0.13 -0.13)">
       <use xlink:href="#DejaVuSans-37"/>
       <use xlink:href="#DejaVuSans-32" transform="translate(63.623047 0)"/>
       <use xlink:href="#DejaVuSans-30" transform="translate(127.246094 0)"/>
      </g>
     </g>
    </g>
    <g id="ytick_9">
     <g id="line2d_38">
      <path d="M 58.60625 260.206643 
L 793.95625 260.206643 
" clip-path="url(#p69c5e2cb64)" style="fill: none; stroke: #b0b0b0; stroke-opacity: 0.3; stroke-width: 0.8; stroke-linecap: square"/>
     </g>
     <g id="line2d_39">
      <g>
       <use xlink:href="#m14f14f509a" x="793.95625" y="260.206643" style="stroke: #000000; stroke-width: 0.8"/>
      </g>
     </g>
     <g id="text_26">
      <!-- 730 -->
      <g style="fill: #8e44ad" transform="translate(800.95625 265.145628) scale(0.13 -0.13)">
       <defs>
        <path id="DejaVuSans-33" d="M 2597 2516 
Q 3050 2419 3304 2112 
Q 3559 1806 3559 1356 
Q 3559 666 3084 287 
Q 2609 -91 1734 -91 
Q 1441 -91 1130 -33 
Q 819 25 488 141 
L 488 750 
Q 750 597 1062 519 
Q 1375 441 1716 441 
Q 2309 441 2620 675 
Q 2931 909 2931 1356 
Q 2931 1769 2642 2001 
Q 2353 2234 1838 2234 
L 1294 2234 
L 1294 2753 
L 1863 2753 
Q 2328 2753 2575 2939 
Q 2822 3125 2822 3475 
Q 2822 3834 2567 4026 
Q 2313 4219 1838 4219 
Q 1578 4219 1281 4162 
Q 984 4106 628 3988 
L 628 4550 
Q 988 4650 1302 4700 
Q 1616 4750 1894 4750 
Q 2613 4750 3031 4423 
Q 3450 4097 3450 3541 
Q 3450 3153 3228 2886 
Q 3006 2619 2597 2516 
z
" transform="scale(0.015625)"/>
       </defs>
       <use xlink:href="#DejaVuSans-37"/>
       <use xlink:href="#DejaVuSans-33" transform="translate(63.623047 0)"/>
       <use xlink:href="#DejaVuSans-30" transform="translate(127.246094 0)"/>
      </g>
     </g>
    </g>
    <g id="ytick_10">
     <g id="line2d_40">
      <path d="M 58.60625 196.629135 
L 793.95625 196.629135 
" clip-path="url(#p69c5e2cb64)" style="fill: none; stroke: #b0b0b0; stroke-opacity: 0.3; stroke-width: 0.8; stroke-linecap: square"/>
     </g>
     <g id="line2d_41">
      <g>
       <use xlink:href="#m14f14f509a" x="793.95625" y="196.629135" style="stroke: #000000; stroke-width: 0.8"/>
      </g>
     </g>
     <g id="text_27">
      <!-- 740 -->
      <g style="fill: #8e44ad" transform="translate(800.95625 201.568119) scale(0.13 -0.13)">
       <use xlink:href="#DejaVuSans-37"/>
       <use xlink:href="#DejaVuSans-34" transform="translate(63.623047 0)"/>
       <use xlink:href="#DejaVuSans-30" transform="translate(127.246094 0)"/>
      </g>
     </g>
    </g>
    <g id="ytick_11">
     <g id="line2d_42">
      <path d="M 58.60625 133.051627 
L 793.95625 133.051627 
" clip-path="url(#p69c5e2cb64)" style="fill: none; stroke: #b0b0b0; stroke-opacity: 0.3; stroke-width: 0.8; stroke-linecap: square"/>
     </g>
     <g id="line2d_43">
      <g>
       <use xlink:href="#m14f14f509a" x="793.95625" y="133.051627" style="stroke: #000000; stroke-width: 0.8"/>
      </g>
     </g>
     <g id="text_28">
      <!-- 750 -->
      <g style="fill: #8e44ad" transform="translate(800.95625 137.990611) scale(0.13 -0.13)">
       <defs>
        <path id="DejaVuSans-35" d="M 691 4666 
L 3169 4666 
L 3169 4134 
L 1269 4134 
L 1269 2991 
Q 1406 3038 1543 3061 
Q 1681 3084 1819 3084 
Q 2600 3084 3056 2656 
Q 3513 2228 3513 1497 
Q 3513 744 3044 326 
Q 2575 -91 1722 -91 
Q 1428 -91 1123 -41 
Q 819 9 494 109 
L 494 744 
Q 775 591 1075 516 
Q 1375 441 1709 441 
Q 2250 441 2565 725 
Q 2881 1009 2881 1497 
Q 2881 1984 2565 2268 
Q 2250 2553 1709 2553 
Q 1456 2553 1204 2497 
Q 953 2441 691 2322 
L 691 4666 
z
" transform="scale(0.015625)"/>
       </defs>
       <use xlink:href="#DejaVuSans-37"/>
       <use xlink:href="#DejaVuSans-35" transform="translate(63.623047 0)"/>
       <use xlink:href="#DejaVuSans-30" transform="translate(127.246094 0)"/>
      </g>
     </g>
    </g>
    <g id="ytick_12">
     <g id="line2d_44">
      <path d="M 58.60625 69.474118 
L 793.95625 69.474118 
" clip-path="url(#p69c5e2cb64)" style="fill: none; stroke: #b0b0b0; stroke-opacity: 0.3; stroke-width: 0.8; stroke-linecap: square"/>
     </g>
     <g id="line2d_45">
      <g>
       <use xlink:href="#m14f14f509a" x="793.95625" y="69.474118" style="stroke: #000000; stroke-width: 0.8"/>
      </g>
     </g>
     <g id="text_29">
      <!-- 760 -->
      <g style="fill: #8e44ad" transform="translate(800.95625 74.413103) scale(0.13 -0.13)">
       <use xlink:href="#DejaVuSans-37"/>
       <use xlink:href="#DejaVuSans-36" transform="translate(63.623047 0)"/>
       <use xlink:href="#DejaVuSans-30" transform="translate(127.246094 0)"/>
      </g>
     </g>
    </g>
    <g id="text_30">
     <!-- Unique States Explored -->
     <g style="fill: #8e44ad" transform="translate(838.888125 295.2277) rotate(-90) scale(0.12 -0.12)">
      <defs>
       <path id="DejaVuSans-Bold-71" d="M 2181 2772 
Q 1825 2772 1636 2509 
Q 1447 2247 1447 1747 
Q 1447 1247 1636 984 
Q 1825 722 2181 722 
Q 2541 722 2730 984 
Q 2919 1247 2919 1747 
Q 2919 2247 2730 2509 
Q 2541 2772 2181 2772 
z
M 2919 506 
Q 2688 197 2409 53 
Q 2131 -91 1766 -91 
Q 1119 -91 703 423 
Q 288 938 288 1747 
Q 288 2556 703 3067 
Q 1119 3578 1766 3578 
Q 2131 3578 2409 3434 
Q 2688 3291 2919 2981 
L 2919 3500 
L 4044 3500 
L 4044 -1331 
L 2919 -1331 
L 2919 506 
z
" transform="scale(0.015625)"/>
       <path id="DejaVuSans-Bold-75" d="M 500 1363 
L 500 3500 
L 1625 3500 
L 1625 3150 
Q 1625 2866 1622 2436 
Q 1619 2006 1619 1863 
Q 1619 1441 1641 1255 
Q 1663 1069 1716 984 
Q 1784 875 1895 815 
Q 2006 756 2150 756 
Q 2500 756 2700 1025 
Q 2900 1294 2900 1772 
L 2900 3500 
L 4019 3500 
L 4019 0 
L 2900 0 
L 2900 506 
Q 2647 200 2364 54 
Q 2081 -91 1741 -91 
Q 1134 -91 817 281 
Q 500 653 500 1363 
z
" transform="scale(0.015625)"/>
       <path id="DejaVuSans-Bold-78" d="M 1422 1791 
L 159 3500 
L 1344 3500 
L 2059 2463 
L 2784 3500 
L 3969 3500 
L 2706 1797 
L 4031 0 
L 2847 0 
L 2059 1106 
L 1281 0 
L 97 0 
L 1422 1791 
z
" transform="scale(0.015625)"/>
       <path id="DejaVuSans-Bold-6c" d="M 538 4863 
L 1656 4863 
L 1656 0 
L 538 0 
L 538 4863 
z
" transform="scale(0.015625)"/>
      </defs>
      <use xlink:href="#DejaVuSans-Bold-55"/>
      <use xlink:href="#DejaVuSans-Bold-6e" transform="translate(81.201172 0)"/>
      <use xlink:href="#DejaVuSans-Bold-69" transform="translate(152.392578 0)"/>
      <use xlink:href="#DejaVuSans-Bold-71" transform="translate(186.669922 0)"/>
      <use xlink:href="#DejaVuSans-Bold-75" transform="translate(258.251953 0)"/>
      <use xlink:href="#DejaVuSans-Bold-65" transform="translate(329.443359 0)"/>
      <use xlink:href="#DejaVuSans-Bold-20" transform="translate(397.265625 0)"/>
      <use xlink:href="#DejaVuSans-Bold-53" transform="translate(432.080078 0)"/>
      <use xlink:href="#DejaVuSans-Bold-74" transform="translate(504.101562 0)"/>
      <use xlink:href="#DejaVuSans-Bold-61" transform="translate(551.904297 0)"/>
      <use xlink:href="#DejaVuSans-Bold-74" transform="translate(619.384766 0)"/>
      <use xlink:href="#DejaVuSans-Bold-65" transform="translate(667.1875 0)"/>
      <use xlink:href="#DejaVuSans-Bold-73" transform="translate(735.009766 0)"/>
      <use xlink:href="#DejaVuSans-Bold-20" transform="translate(794.53125 0)"/>
      <use xlink:href="#DejaVuSans-Bold-45" transform="translate(829.345703 0)"/>
      <use xlink:href="#DejaVuSans-Bold-78" transform="translate(897.65625 0)"/>
      <use xlink:href="#DejaVuSans-Bold-70" transform="translate(962.158203 0)"/>
      <use xlink:href="#DejaVuSans-Bold-6c" transform="translate(1033.740234 0)"/>
      <use xlink:href="#DejaVuSans-Bold-6f" transform="translate(1068.017578 0)"/>
      <use xlink:href="#DejaVuSans-Bold-72" transform="translate(1136.71875 0)"/>
      <use xlink:href="#DejaVuSans-Bold-65" transform="translate(1186.035156 0)"/>
      <use xlink:href="#DejaVuSans-Bold-64" transform="translate(1253.857422 0)"/>
     </g>
    </g>
   </g>
   <g id="line2d_46">
    <path d="M 92.03125 387.36166 
L 98.783775 133.051627 
L 105.536301 63.116367 
L 112.288826 56.758616 
L 119.041351 50.400866 
L 125.793876 44.043115 
L 132.546402 44.043115 
L 139.298927 44.043115 
L 146.051452 44.043115 
L 152.803977 44.043115 
L 159.556503 44.043115 
L 166.309028 44.043115 
L 173.061553 44.043115 
L 179.814078 44.043115 
L 186.566604 44.043115 
L 193.319129 44.043115 
L 200.071654 44.043115 
L 206.824179 44.043115 
L 213.576705 44.043115 
L 220.32923 44.043115 
L 227.081755 44.043115 
L 233.83428 44.043115 
L 240.586806 44.043115 
L 247.339331 44.043115 
L 254.091856 44.043115 
L 260.844381 44.043115 
L 267.596907 44.043115 
L 274.349432 44.043115 
L 281.101957 44.043115 
L 287.854482 44.043115 
L 294.607008 44.043115 
L 301.359533 44.043115 
L 308.112058 44.043115 
L 314.864583 44.043115 
L 321.617109 44.043115 
L 328.369634 44.043115 
L 335.122159 44.043115 
L 341.874684 44.043115 
L 348.62721 44.043115 
L 355.379735 44.043115 
L 362.13226 44.043115 
L 368.884785 44.043115 
L 375.637311 44.043115 
L 382.389836 44.043115 
L 389.142361 44.043115 
L 395.894886 44.043115 
L 402.647412 44.043115 
L 409.399937 44.043115 
L 416.152462 44.043115 
L 422.904987 44.043115 
L 429.657513 44.043115 
L 436.410038 44.043115 
L 443.162563 44.043115 
L 449.915088 44.043115 
L 456.667614 44.043115 
L 463.420139 44.043115 
L 470.172664 44.043115 
L 476.925189 44.043115 
L 483.677715 44.043115 
L 490.43024 44.043115 
L 497.182765 44.043115 
L 503.93529 44.043115 
L 510.687816 44.043115 
L 517.440341 44.043115 
L 524.192866 44.043115 
L 530.945391 44.043115 
L 537.697917 44.043115 
L 544.450442 44.043115 
L 551.202967 44.043115 
L 557.955492 44.043115 
L 564.708018 44.043115 
L 571.460543 44.043115 
L 578.213068 44.043115 
L 584.965593 44.043115 
L 591.718119 44.043115 
L 598.470644 44.043115 
L 605.223169 44.043115 
L 611.975694 44.043115 
L 618.72822 44.043115 
L 625.480745 44.043115 
L 632.23327 44.043115 
L 638.985795 44.043115 
L 645.738321 44.043115 
L 652.490846 44.043115 
L 659.243371 44.043115 
L 665.995896 44.043115 
L 672.748422 44.043115 
L 679.500947 44.043115 
L 686.253472 44.043115 
L 693.005997 44.043115 
L 699.758523 44.043115 
L 706.511048 44.043115 
L 713.263573 44.043115 
L 720.016098 44.043115 
L 726.768624 44.043115 
L 733.521149 44.043115 
L 740.273674 44.043115 
L 747.026199 44.043115 
L 753.778725 44.043115 
L 760.53125 44.043115 
" clip-path="url(#p69c5e2cb64)" style="fill: none; stroke-dasharray: 7.4,3.2; stroke-dashoffset: 0; stroke: #9b59b6; stroke-opacity: 0.7; stroke-width: 2"/>
   </g>
   <g id="patch_10">
    <path d="M 58.60625 404.527587 
L 58.60625 26.877188 
" style="fill: none; stroke: #000000; stroke-width: 1.5; stroke-linejoin: miter; stroke-linecap: square"/>
   </g>
   <g id="patch_11">
    <path d="M 793.95625 404.527587 
L 793.95625 26.877188 
" style="fill: none; stroke: #000000; stroke-width: 1.5; stroke-linejoin: miter; stroke-linecap: square"/>
   </g>
   <g id="patch_12">
    <path d="M 58.60625 404.527587 
L 793.95625 404.527587 
" style="fill: none; stroke: #000000; stroke-width: 1.5; stroke-linejoin: miter; stroke-linecap: square"/>
   </g>
   <g id="patch_13">
    <path d="M 58.60625 26.877187 
L 793.95625 26.877187 
" style="fill: none; stroke: #000000; stroke-width: 1.5; stroke-linejoin: miter; stroke-linecap: square"/>
   </g>
  </g>
 </g>
 <defs>
  <clipPath id="p69c5e2cb64">
   <rect x="58.60625" y="26.877187" width="735.35" height="377.6504"/>
  </clipPath>
 </defs>
</svg>
