<?xml version="1.0" encoding="utf-8" standalone="no"?>
<!DOCTYPE svg PUBLIC "-//W3C//DTD SVG 1.1//EN"
  "http://www.w3.org/Graphics/SVG/1.1/DTD/svg11.dtd">
<svg xmlns:xlink="http://www.w3.org/1999/xlink" width="848.584062pt" height="486.527198pt" viewBox="0 0 848.584062 486.527198" xmlns="http://www.w3.org/2000/svg" version="1.1">
 <metadata>
  <rdf:RDF xmlns:dc="http://purl.org/dc/elements/1.1/" xmlns:cc="http://creativecommons.org/ns#" xmlns:rdf="http://www.w3.org/1999/02/22-rdf-syntax-ns#">
   <cc:Work>
    <dc:type rdf:resource="http://purl.org/dc/dcmitype/StillImage"/>
    <dc:date>2026-04-03T16:36:38.923451</dc:date>
    <dc:format>image/svg+xml</dc:format>
    <dc:creator>
     <cc:Agent>
      <dc:title>Matplotlib v3.10.5, https://matplotlib.org/</dc:title>
     </cc:Agent>
    </dc:creator>
   </cc:Work>
  </rdf:RDF>
 </metadata>
 <defs>
  <style type="text/css">*{stroke-linejoin: round; stroke-linecap: butt}</style>
 </defs>
 <g id="figure_1">
  <g id="patch_1">
   <path d="M 0 486.527198 
L 848.584062 486.527198 
L 848.584062 0 
L 0 0 
z
" style="fill: #ffffff"/>
  </g>
  <g id="axes_1">
   <g id="patch_2">
    <path d="M 58.60625 404.527587 
L 798.09625 404.527587 
L 798.09625 26.877187 
L 58.60625 26.877187 
z
" style="fill: #ffffff"/>
   </g>
   <g id="patch_3">
    <path d="M 92.219432 404.527587 
L 764.483068 404.527587 
L 764.483068 26.877187 
L 92.219432 26.877187 
z
" clip-path="url(#p216361e062)" style="fill: #e0f7fa; opacity: 0.4; stroke: #e0f7fa; stroke-linejoin: miter"/>
   </g>
   <g id="matplotlib.axis_1">
    <g id="xtick_1">
     <g id="line2d_1">
      <path d="M 85.42889 404.527587 
L 85.42889 26.877187 
" clip-path="url(#p216361e062)" style="fill: none; stroke: #b0b0b0; stroke-opacity: 0.3; stroke-width: 0.8; stroke-linecap: square"/>
     </g>
     <g id="line2d_2">
      <defs>
       <path id="m8286b27917" d="M 0 0 
L 0 3.5 
" style="stroke: #000000; stroke-width: 0.8"/>
      </defs>
      <g>
       <use xlink:href="#m8286b27917" x="85.42889" y="404.527587" style="stroke: #000000; stroke-width: 0.8"/>
      </g>
     </g>
     <g id="text_1">
      <!-- 0 -->
      <g transform="translate(81.293265 421.405556) scale(0.13 -0.13)">
       <defs>
        <path id="DejaVuSans-30" d="M 2034 4250 
Q 1547 4250 1301 3770 
Q 1056 3291 1056 2328 
Q 1056 1369 1301 889 
Q 1547 409 2034 409 
Q 2525 409 2770 889 
Q 3016 1369 3016 2328 
Q 3016 3291 2770 3770 
Q 2525 4250 2034 4250 
z
M 2034 4750 
Q 2819 4750 3233 4129 
Q 3647 3509 3647 2328 
Q 3647 1150 3233 529 
Q 2819 -91 2034 -91 
Q 1250 -91 836 529 
Q 422 1150 422 2328 
Q 422 3509 836 4129 
Q 1250 4750 2034 4750 
z
" transform="scale(0.015625)"/>
       </defs>
       <use xlink:href="#DejaVuSans-30"/>
      </g>
     </g>
    </g>
    <g id="xtick_2">
     <g id="line2d_3">
      <path d="M 170.310662 404.527587 
L 170.310662 26.877187 
" clip-path="url(#p216361e062)" style="fill: none; stroke: #b0b0b0; stroke-opacity: 0.3; stroke-width: 0.8; stroke-linecap: square"/>
     </g>
     <g id="line2d_4">
      <g>
       <use xlink:href="#m8286b27917" x="170.310662" y="404.527587" style="stroke: #000000; stroke-width: 0.8"/>
      </g>
     </g>
     <g id="text_2">
      <!-- 25000 -->
      <g transform="translate(149.632537 421.405556) scale(0.13 -0.13)">
       <defs>
        <path id="DejaVuSans-32" d="M 1228 531 
L 3431 531 
L 3431 0 
L 469 0 
L 469 531 
Q 828 903 1448 1529 
Q 2069 2156 2228 2338 
Q 2531 2678 2651 2914 
Q 2772 3150 2772 3378 
Q 2772 3750 2511 3984 
Q 2250 4219 1831 4219 
Q 1534 4219 1204 4116 
Q 875 4013 500 3803 
L 500 4441 
Q 881 4594 1212 4672 
Q 1544 4750 1819 4750 
Q 2544 4750 2975 4387 
Q 3406 4025 3406 3419 
Q 3406 3131 3298 2873 
Q 3191 2616 2906 2266 
Q 2828 2175 2409 1742 
Q 1991 1309 1228 531 
z
" transform="scale(0.015625)"/>
        <path id="DejaVuSans-35" d="M 691 4666 
L 3169 4666 
L 3169 4134 
L 1269 4134 
L 1269 2991 
Q 1406 3038 1543 3061 
Q 1681 3084 1819 3084 
Q 2600 3084 3056 2656 
Q 3513 2228 3513 1497 
Q 3513 744 3044 326 
Q 2575 -91 1722 -91 
Q 1428 -91 1123 -41 
Q 819 9 494 109 
L 494 744 
Q 775 591 1075 516 
Q 1375 441 1709 441 
Q 2250 441 2565 725 
Q 2881 1009 2881 1497 
Q 2881 1984 2565 2268 
Q 2250 2553 1709 2553 
Q 1456 2553 1204 2497 
Q 953 2441 691 2322 
L 691 4666 
z
" transform="scale(0.015625)"/>
       </defs>
       <use xlink:href="#DejaVuSans-32"/>
       <use xlink:href="#DejaVuSans-35" transform="translate(63.623047 0)"/>
       <use xlink:href="#DejaVuSans-30" transform="translate(127.246094 0)"/>
       <use xlink:href="#DejaVuSans-30" transform="translate(190.869141 0)"/>
       <use xlink:href="#DejaVuSans-30" transform="translate(254.492188 0)"/>
      </g>
     </g>
    </g>
    <g id="xtick_3">
     <g id="line2d_5">
      <path d="M 255.192435 404.527587 
L 255.192435 26.877187 
" clip-path="url(#p216361e062)" style="fill: none; stroke: #b0b0b0; stroke-opacity: 0.3; stroke-width: 0.8; stroke-linecap: square"/>
     </g>
     <g id="line2d_6">
      <g>
       <use xlink:href="#m8286b27917" x="255.192435" y="404.527587" style="stroke: #000000; stroke-width: 0.8"/>
      </g>
     </g>
     <g id="text_3">
      <!-- 50000 -->
      <g transform="translate(234.51431 421.405556) scale(0.13 -0.13)">
       <use xlink:href="#DejaVuSans-35"/>
       <use xlink:href="#DejaVuSans-30" transform="translate(63.623047 0)"/>
       <use xlink:href="#DejaVuSans-30" transform="translate(127.246094 0)"/>
       <use xlink:href="#DejaVuSans-30" transform="translate(190.869141 0)"/>
       <use xlink:href="#DejaVuSans-30" transform="translate(254.492188 0)"/>
      </g>
     </g>
    </g>
    <g id="xtick_4">
     <g id="line2d_7">
      <path d="M 340.074207 404.527587 
L 340.074207 26.877187 
" clip-path="url(#p216361e062)" style="fill: none; stroke: #b0b0b0; stroke-opacity: 0.3; stroke-width: 0.8; stroke-linecap: square"/>
     </g>
     <g id="line2d_8">
      <g>
       <use xlink:href="#m8286b27917" x="340.074207" y="404.527587" style="stroke: #000000; stroke-width: 0.8"/>
      </g>
     </g>
     <g id="text_4">
      <!-- 75000 -->
      <g transform="translate(319.396082 421.405556) scale(0.13 -0.13)">
       <defs>
        <path id="DejaVuSans-37" d="M 525 4666 
L 3525 4666 
L 3525 4397 
L 1831 0 
L 1172 0 
L 2766 4134 
L 525 4134 
L 525 4666 
z
" transform="scale(0.015625)"/>
       </defs>
       <use xlink:href="#DejaVuSans-37"/>
       <use xlink:href="#DejaVuSans-35" transform="translate(63.623047 0)"/>
       <use xlink:href="#DejaVuSans-30" transform="translate(127.246094 0)"/>
       <use xlink:href="#DejaVuSans-30" transform="translate(190.869141 0)"/>
       <use xlink:href="#DejaVuSans-30" transform="translate(254.492188 0)"/>
      </g>
     </g>
    </g>
    <g id="xtick_5">
     <g id="line2d_9">
      <path d="M 424.955979 404.527587 
L 424.955979 26.877187 
" clip-path="url(#p216361e062)" style="fill: none; stroke: #b0b0b0; stroke-opacity: 0.3; stroke-width: 0.8; stroke-linecap: square"/>
     </g>
     <g id="line2d_10">
      <g>
       <use xlink:href="#m8286b27917" x="424.955979" y="404.527587" style="stroke: #000000; stroke-width: 0.8"/>
      </g>
     </g>
     <g id="text_5">
      <!-- 100000 -->
      <g transform="translate(400.142229 421.405556) scale(0.13 -0.13)">
       <defs>
        <path id="DejaVuSans-31" d="M 794 531 
L 1825 531 
L 1825 4091 
L 703 3866 
L 703 4441 
L 1819 4666 
L 2450 4666 
L 2450 531 
L 3481 531 
L 3481 0 
L 794 0 
L 794 531 
z
" transform="scale(0.015625)"/>
       </defs>
       <use xlink:href="#DejaVuSans-31"/>
       <use xlink:href="#DejaVuSans-30" transform="translate(63.623047 0)"/>
       <use xlink:href="#DejaVuSans-30" transform="translate(127.246094 0)"/>
       <use xlink:href="#DejaVuSans-30" transform="translate(190.869141 0)"/>
       <use xlink:href="#DejaVuSans-30" transform="translate(254.492188 0)"/>
       <use xlink:href="#DejaVuSans-30" transform="translate(318.115234 0)"/>
      </g>
     </g>
    </g>
    <g id="xtick_6">
     <g id="line2d_11">
      <path d="M 509.837751 404.527587 
L 509.837751 26.877187 
" clip-path="url(#p216361e062)" style="fill: none; stroke: #b0b0b0; stroke-opacity: 0.3; stroke-width: 0.8; stroke-linecap: square"/>
     </g>
     <g id="line2d_12">
      <g>
       <use xlink:href="#m8286b27917" x="509.837751" y="404.527587" style="stroke: #000000; stroke-width: 0.8"/>
      </g>
     </g>
     <g id="text_6">
      <!-- 125000 -->
      <g transform="translate(485.024001 421.405556) scale(0.13 -0.13)">
       <use xlink:href="#DejaVuSans-31"/>
       <use xlink:href="#DejaVuSans-32" transform="translate(63.623047 0)"/>
       <use xlink:href="#DejaVuSans-35" transform="translate(127.246094 0)"/>
       <use xlink:href="#DejaVuSans-30" transform="translate(190.869141 0)"/>
       <use xlink:href="#DejaVuSans-30" transform="translate(254.492188 0)"/>
       <use xlink:href="#DejaVuSans-30" transform="translate(318.115234 0)"/>
      </g>
     </g>
    </g>
    <g id="xtick_7">
     <g id="line2d_13">
      <path d="M 594.719524 404.527587 
L 594.719524 26.877187 
" clip-path="url(#p216361e062)" style="fill: none; stroke: #b0b0b0; stroke-opacity: 0.3; stroke-width: 0.8; stroke-linecap: square"/>
     </g>
     <g id="line2d_14">
      <g>
       <use xlink:href="#m8286b27917" x="594.719524" y="404.527587" style="stroke: #000000; stroke-width: 0.8"/>
      </g>
     </g>
     <g id="text_7">
      <!-- 150000 -->
      <g transform="translate(569.905774 421.405556) scale(0.13 -0.13)">
       <use xlink:href="#DejaVuSans-31"/>
       <use xlink:href="#DejaVuSans-35" transform="translate(63.623047 0)"/>
       <use xlink:href="#DejaVuSans-30" transform="translate(127.246094 0)"/>
       <use xlink:href="#DejaVuSans-30" transform="translate(190.869141 0)"/>
       <use xlink:href="#DejaVuSans-30" transform="translate(254.492188 0)"/>
       <use xlink:href="#DejaVuSans-30" transform="translate(318.115234 0)"/>
      </g>
     </g>
    </g>
    <g id="xtick_8">
     <g id="line2d_15">
      <path d="M 679.601296 404.527587 
L 679.601296 26.877187 
" clip-path="url(#p216361e062)" style="fill: none; stroke: #b0b0b0; stroke-opacity: 0.3; stroke-width: 0.8; stroke-linecap: square"/>
     </g>
     <g id="line2d_16">
      <g>
       <use xlink:href="#m8286b27917" x="679.601296" y="404.527587" style="stroke: #000000; stroke-width: 0.8"/>
      </g>
     </g>
     <g id="text_8">
      <!-- 175000 -->
      <g transform="translate(654.787546 421.405556) scale(0.13 -0.13)">
       <use xlink:href="#DejaVuSans-31"/>
       <use xlink:href="#DejaVuSans-37" transform="translate(63.623047 0)"/>
       <use xlink:href="#DejaVuSans-35" transform="translate(127.246094 0)"/>
       <use xlink:href="#DejaVuSans-30" transform="translate(190.869141 0)"/>
       <use xlink:href="#DejaVuSans-30" transform="translate(254.492188 0)"/>
       <use xlink:href="#DejaVuSans-30" transform="translate(318.115234 0)"/>
      </g>
     </g>
    </g>
    <g id="xtick_9">
     <g id="line2d_17">
      <path d="M 764.483068 404.527587 
L 764.483068 26.877187 
" clip-path="url(#p216361e062)" style="fill: none; stroke: #b0b0b0; stroke-opacity: 0.3; stroke-width: 0.8; stroke-linecap: square"/>
     </g>
     <g id="line2d_18">
      <g>
       <use xlink:href="#m8286b27917" x="764.483068" y="404.527587" style="stroke: #000000; stroke-width: 0.8"/>
      </g>
     </g>
     <g id="text_9">
      <!-- 200000 -->
      <g transform="translate(739.669318 421.405556) scale(0.13 -0.13)">
       <use xlink:href="#DejaVuSans-32"/>
       <use xlink:href="#DejaVuSans-30" transform="translate(63.623047 0)"/>
       <use xlink:href="#DejaVuSans-30" transform="translate(127.246094 0)"/>
       <use xlink:href="#DejaVuSans-30" transform="translate(190.869141 0)"/>
       <use xlink:href="#DejaVuSans-30" transform="translate(254.492188 0)"/>
       <use xlink:href="#DejaVuSans-30" transform="translate(318.115234 0)"/>
      </g>
     </g>
    </g>
    <g id="text_10">
     <!-- Episode -->
     <g transform="translate(393.0075 440.26665) scale(0.16 -0.16)">
      <defs>
       <path id="DejaVuSans-Bold-45" d="M 588 4666 
L 3834 4666 
L 3834 3756 
L 1791 3756 
L 1791 2888 
L 3713 2888 
L 3713 1978 
L 1791 1978 
L 1791 909 
L 3903 909 
L 3903 0 
L 588 0 
L 588 4666 
z
" transform="scale(0.015625)"/>
       <path id="DejaVuSans-Bold-70" d="M 1656 506 
L 1656 -1331 
L 538 -1331 
L 538 3500 
L 1656 3500 
L 1656 2988 
Q 1888 3294 2169 3439 
Q 2450 3584 2816 3584 
Q 3463 3584 3878 3070 
Q 4294 2556 4294 1747 
Q 4294 938 3878 423 
Q 3463 -91 2816 -91 
Q 2450 -91 2169 54 
Q 1888 200 1656 506 
z
M 2400 2772 
Q 2041 2772 1848 2508 
Q 1656 2244 1656 1747 
Q 1656 1250 1848 986 
Q 2041 722 2400 722 
Q 2759 722 2948 984 
Q 3138 1247 3138 1747 
Q 3138 2247 2948 2509 
Q 2759 2772 2400 2772 
z
" transform="scale(0.015625)"/>
       <path id="DejaVuSans-Bold-69" d="M 538 3500 
L 1656 3500 
L 1656 0 
L 538 0 
L 538 3500 
z
M 538 4863 
L 1656 4863 
L 1656 3950 
L 538 3950 
L 538 4863 
z
" transform="scale(0.015625)"/>
       <path id="DejaVuSans-Bold-73" d="M 3272 3391 
L 3272 2541 
Q 2913 2691 2578 2766 
Q 2244 2841 1947 2841 
Q 1628 2841 1473 2761 
Q 1319 2681 1319 2516 
Q 1319 2381 1436 2309 
Q 1553 2238 1856 2203 
L 2053 2175 
Q 2913 2066 3209 1816 
Q 3506 1566 3506 1031 
Q 3506 472 3093 190 
Q 2681 -91 1863 -91 
Q 1516 -91 1145 -36 
Q 775 19 384 128 
L 384 978 
Q 719 816 1070 734 
Q 1422 653 1784 653 
Q 2113 653 2278 743 
Q 2444 834 2444 1013 
Q 2444 1163 2330 1236 
Q 2216 1309 1875 1350 
L 1678 1375 
Q 931 1469 631 1722 
Q 331 1975 331 2491 
Q 331 3047 712 3315 
Q 1094 3584 1881 3584 
Q 2191 3584 2531 3537 
Q 2872 3491 3272 3391 
z
" transform="scale(0.015625)"/>
       <path id="DejaVuSans-Bold-6f" d="M 2203 2784 
Q 1831 2784 1636 2517 
Q 1441 2250 1441 1747 
Q 1441 1244 1636 976 
Q 1831 709 2203 709 
Q 2569 709 2762 976 
Q 2956 1244 2956 1747 
Q 2956 2250 2762 2517 
Q 2569 2784 2203 2784 
z
M 2203 3584 
Q 3106 3584 3614 3096 
Q 4122 2609 4122 1747 
Q 4122 884 3614 396 
Q 3106 -91 2203 -91 
Q 1297 -91 786 396 
Q 275 884 275 1747 
Q 275 2609 786 3096 
Q 1297 3584 2203 3584 
z
" transform="scale(0.015625)"/>
       <path id="DejaVuSans-Bold-64" d="M 2919 2988 
L 2919 4863 
L 4044 4863 
L 4044 0 
L 2919 0 
L 2919 506 
Q 2688 197 2409 53 
Q 2131 -91 1766 -91 
Q 1119 -91 703 423 
Q 288 938 288 1747 
Q 288 2556 703 3070 
Q 1119 3584 1766 3584 
Q 2128 3584 2408 3439 
Q 2688 3294 2919 2988 
z
M 2181 722 
Q 2541 722 2730 984 
Q 2919 1247 2919 1747 
Q 2919 2247 2730 2509 
Q 2541 2772 2181 2772 
Q 1825 2772 1636 2509 
Q 1447 2247 1447 1747 
Q 1447 1247 1636 984 
Q 1825 722 2181 722 
z
" transform="scale(0.015625)"/>
       <path id="DejaVuSans-Bold-65" d="M 4031 1759 
L 4031 1441 
L 1416 1441 
Q 1456 1047 1700 850 
Q 1944 653 2381 653 
Q 2734 653 3104 758 
Q 3475 863 3866 1075 
L 3866 213 
Q 3469 63 3072 -14 
Q 2675 -91 2278 -91 
Q 1328 -91 801 392 
Q 275 875 275 1747 
Q 275 2603 792 3093 
Q 1309 3584 2216 3584 
Q 3041 3584 3536 3087 
Q 4031 2591 4031 1759 
z
M 2881 2131 
Q 2881 2450 2695 2645 
Q 2509 2841 2209 2841 
Q 1884 2841 1681 2658 
Q 1478 2475 1428 2131 
L 2881 2131 
z
" transform="scale(0.015625)"/>
      </defs>
      <use xlink:href="#DejaVuSans-Bold-45"/>
      <use xlink:href="#DejaVuSans-Bold-70" transform="translate(68.310547 0)"/>
      <use xlink:href="#DejaVuSans-Bold-69" transform="translate(139.892578 0)"/>
      <use xlink:href="#DejaVuSans-Bold-73" transform="translate(174.169922 0)"/>
      <use xlink:href="#DejaVuSans-Bold-6f" transform="translate(233.691406 0)"/>
      <use xlink:href="#DejaVuSans-Bold-64" transform="translate(302.392578 0)"/>
      <use xlink:href="#DejaVuSans-Bold-65" transform="translate(373.974609 0)"/>
     </g>
    </g>
   </g>
   <g id="matplotlib.axis_2">
    <g id="ytick_1">
     <g id="line2d_19">
      <path d="M 58.60625 388.792154 
L 798.09625 388.792154 
" clip-path="url(#p216361e062)" style="fill: none; stroke: #b0b0b0; stroke-opacity: 0.3; stroke-width: 0.8; stroke-linecap: square"/>
     </g>
     <g id="line2d_20">
      <defs>
       <path id="m19e1e28fc7" d="M 0 0 
L -3.5 0 
" style="stroke: #000000; stroke-width: 0.8"/>
      </defs>
      <g>
       <use xlink:href="#m19e1e28fc7" x="58.60625" y="388.792154" style="stroke: #000000; stroke-width: 0.8"/>
      </g>
     </g>
     <g id="text_11">
      <!-- 0 -->
      <g transform="translate(43.335 393.731139) scale(0.13 -0.13)">
       <use xlink:href="#DejaVuSans-30"/>
      </g>
     </g>
    </g>
    <g id="ytick_2">
     <g id="line2d_21">
      <path d="M 58.60625 325.850421 
L 798.09625 325.850421 
" clip-path="url(#p216361e062)" style="fill: none; stroke: #b0b0b0; stroke-opacity: 0.3; stroke-width: 0.8; stroke-linecap: square"/>
     </g>
     <g id="line2d_22">
      <g>
       <use xlink:href="#m19e1e28fc7" x="58.60625" y="325.850421" style="stroke: #000000; stroke-width: 0.8"/>
      </g>
     </g>
     <g id="text_12">
      <!-- 20 -->
      <g transform="translate(35.06375 330.789405) scale(0.13 -0.13)">
       <use xlink:href="#DejaVuSans-32"/>
       <use xlink:href="#DejaVuSans-30" transform="translate(63.623047 0)"/>
      </g>
     </g>
    </g>
    <g id="ytick_3">
     <g id="line2d_23">
      <path d="M 58.60625 262.908687 
L 798.09625 262.908687 
" clip-path="url(#p216361e062)" style="fill: none; stroke: #b0b0b0; stroke-opacity: 0.3; stroke-width: 0.8; stroke-linecap: square"/>
     </g>
     <g id="line2d_24">
      <g>
       <use xlink:href="#m19e1e28fc7" x="58.60625" y="262.908687" style="stroke: #000000; stroke-width: 0.8"/>
      </g>
     </g>
     <g id="text_13">
      <!-- 40 -->
      <g transform="translate(35.06375 267.847672) scale(0.13 -0.13)">
       <defs>
        <path id="DejaVuSans-34" d="M 2419 4116 
L 825 1625 
L 2419 1625 
L 2419 4116 
z
M 2253 4666 
L 3047 4666 
L 3047 1625 
L 3713 1625 
L 3713 1100 
L 3047 1100 
L 3047 0 
L 2419 0 
L 2419 1100 
L 313 1100 
L 313 1709 
L 2253 4666 
z
" transform="scale(0.015625)"/>
       </defs>
       <use xlink:href="#DejaVuSans-34"/>
       <use xlink:href="#DejaVuSans-30" transform="translate(63.623047 0)"/>
      </g>
     </g>
    </g>
    <g id="ytick_4">
     <g id="line2d_25">
      <path d="M 58.60625 199.966954 
L 798.09625 199.966954 
" clip-path="url(#p216361e062)" style="fill: none; stroke: #b0b0b0; stroke-opacity: 0.3; stroke-width: 0.8; stroke-linecap: square"/>
     </g>
     <g id="line2d_26">
      <g>
       <use xlink:href="#m19e1e28fc7" x="58.60625" y="199.966954" style="stroke: #000000; stroke-width: 0.8"/>
      </g>
     </g>
     <g id="text_14">
      <!-- 60 -->
      <g transform="translate(35.06375 204.905939) scale(0.13 -0.13)">
       <defs>
        <path id="DejaVuSans-36" d="M 2113 2584 
Q 1688 2584 1439 2293 
Q 1191 2003 1191 1497 
Q 1191 994 1439 701 
Q 1688 409 2113 409 
Q 2538 409 2786 701 
Q 3034 994 3034 1497 
Q 3034 2003 2786 2293 
Q 2538 2584 2113 2584 
z
M 3366 4563 
L 3366 3988 
Q 3128 4100 2886 4159 
Q 2644 4219 2406 4219 
Q 1781 4219 1451 3797 
Q 1122 3375 1075 2522 
Q 1259 2794 1537 2939 
Q 1816 3084 2150 3084 
Q 2853 3084 3261 2657 
Q 3669 2231 3669 1497 
Q 3669 778 3244 343 
Q 2819 -91 2113 -91 
Q 1303 -91 875 529 
Q 447 1150 447 2328 
Q 447 3434 972 4092 
Q 1497 4750 2381 4750 
Q 2619 4750 2861 4703 
Q 3103 4656 3366 4563 
z
" transform="scale(0.015625)"/>
       </defs>
       <use xlink:href="#DejaVuSans-36"/>
       <use xlink:href="#DejaVuSans-30" transform="translate(63.623047 0)"/>
      </g>
     </g>
    </g>
    <g id="ytick_5">
     <g id="line2d_27">
      <path d="M 58.60625 137.025221 
L 798.09625 137.025221 
" clip-path="url(#p216361e062)" style="fill: none; stroke: #b0b0b0; stroke-opacity: 0.3; stroke-width: 0.8; stroke-linecap: square"/>
     </g>
     <g id="line2d_28">
      <g>
       <use xlink:href="#m19e1e28fc7" x="58.60625" y="137.025221" style="stroke: #000000; stroke-width: 0.8"/>
      </g>
     </g>
     <g id="text_15">
      <!-- 80 -->
      <g transform="translate(35.06375 141.964205) scale(0.13 -0.13)">
       <defs>
        <path id="DejaVuSans-38" d="M 2034 2216 
Q 1584 2216 1326 1975 
Q 1069 1734 1069 1313 
Q 1069 891 1326 650 
Q 1584 409 2034 409 
Q 2484 409 2743 651 
Q 3003 894 3003 1313 
Q 3003 1734 2745 1975 
Q 2488 2216 2034 2216 
z
M 1403 2484 
Q 997 2584 770 2862 
Q 544 3141 544 3541 
Q 544 4100 942 4425 
Q 1341 4750 2034 4750 
Q 2731 4750 3128 4425 
Q 3525 4100 3525 3541 
Q 3525 3141 3298 2862 
Q 3072 2584 2669 2484 
Q 3125 2378 3379 2068 
Q 3634 1759 3634 1313 
Q 3634 634 3220 271 
Q 2806 -91 2034 -91 
Q 1263 -91 848 271 
Q 434 634 434 1313 
Q 434 1759 690 2068 
Q 947 2378 1403 2484 
z
M 1172 3481 
Q 1172 3119 1398 2916 
Q 1625 2713 2034 2713 
Q 2441 2713 2670 2916 
Q 2900 3119 2900 3481 
Q 2900 3844 2670 4047 
Q 2441 4250 2034 4250 
Q 1625 4250 1398 4047 
Q 1172 3844 1172 3481 
z
" transform="scale(0.015625)"/>
       </defs>
       <use xlink:href="#DejaVuSans-38"/>
       <use xlink:href="#DejaVuSans-30" transform="translate(63.623047 0)"/>
      </g>
     </g>
    </g>
    <g id="ytick_6">
     <g id="line2d_29">
      <path d="M 58.60625 74.083487 
L 798.09625 74.083487 
" clip-path="url(#p216361e062)" style="fill: none; stroke: #b0b0b0; stroke-opacity: 0.3; stroke-width: 0.8; stroke-linecap: square"/>
     </g>
     <g id="line2d_30">
      <g>
       <use xlink:href="#m19e1e28fc7" x="58.60625" y="74.083487" style="stroke: #000000; stroke-width: 0.8"/>
      </g>
     </g>
     <g id="text_16">
      <!-- 100 -->
      <g transform="translate(26.7925 79.022472) scale(0.13 -0.13)">
       <use xlink:href="#DejaVuSans-31"/>
       <use xlink:href="#DejaVuSans-30" transform="translate(63.623047 0)"/>
       <use xlink:href="#DejaVuSans-30" transform="translate(127.246094 0)"/>
      </g>
     </g>
    </g>
    <g id="text_17">
     <!-- Percentage (%) -->
     <g transform="translate(19.34 285.289887) rotate(-90) scale(0.16 -0.16)">
      <defs>
       <path id="DejaVuSans-Bold-50" d="M 588 4666 
L 2584 4666 
Q 3475 4666 3951 4270 
Q 4428 3875 4428 3144 
Q 4428 2409 3951 2014 
Q 3475 1619 2584 1619 
L 1791 1619 
L 1791 0 
L 588 0 
L 588 4666 
z
M 1791 3794 
L 1791 2491 
L 2456 2491 
Q 2806 2491 2997 2661 
Q 3188 2831 3188 3144 
Q 3188 3456 2997 3625 
Q 2806 3794 2456 3794 
L 1791 3794 
z
" transform="scale(0.015625)"/>
       <path id="DejaVuSans-Bold-72" d="M 3138 2547 
Q 2991 2616 2845 2648 
Q 2700 2681 2553 2681 
Q 2122 2681 1889 2404 
Q 1656 2128 1656 1613 
L 1656 0 
L 538 0 
L 538 3500 
L 1656 3500 
L 1656 2925 
Q 1872 3269 2151 3426 
Q 2431 3584 2822 3584 
Q 2878 3584 2943 3579 
Q 3009 3575 3134 3559 
L 3138 2547 
z
" transform="scale(0.015625)"/>
       <path id="DejaVuSans-Bold-63" d="M 3366 3391 
L 3366 2478 
Q 3138 2634 2908 2709 
Q 2678 2784 2431 2784 
Q 1963 2784 1702 2511 
Q 1441 2238 1441 1747 
Q 1441 1256 1702 982 
Q 1963 709 2431 709 
Q 2694 709 2930 787 
Q 3166 866 3366 1019 
L 3366 103 
Q 3103 6 2833 -42 
Q 2563 -91 2291 -91 
Q 1344 -91 809 395 
Q 275 881 275 1747 
Q 275 2613 809 3098 
Q 1344 3584 2291 3584 
Q 2566 3584 2833 3536 
Q 3100 3488 3366 3391 
z
" transform="scale(0.015625)"/>
       <path id="DejaVuSans-Bold-6e" d="M 4056 2131 
L 4056 0 
L 2931 0 
L 2931 347 
L 2931 1631 
Q 2931 2084 2911 2256 
Q 2891 2428 2841 2509 
Q 2775 2619 2662 2680 
Q 2550 2741 2406 2741 
Q 2056 2741 1856 2470 
Q 1656 2200 1656 1722 
L 1656 0 
L 538 0 
L 538 3500 
L 1656 3500 
L 1656 2988 
Q 1909 3294 2193 3439 
Q 2478 3584 2822 3584 
Q 3428 3584 3742 3212 
Q 4056 2841 4056 2131 
z
" transform="scale(0.015625)"/>
       <path id="DejaVuSans-Bold-74" d="M 1759 4494 
L 1759 3500 
L 2913 3500 
L 2913 2700 
L 1759 2700 
L 1759 1216 
Q 1759 972 1856 886 
Q 1953 800 2241 800 
L 2816 800 
L 2816 0 
L 1856 0 
Q 1194 0 917 276 
Q 641 553 641 1216 
L 641 2700 
L 84 2700 
L 84 3500 
L 641 3500 
L 641 4494 
L 1759 4494 
z
" transform="scale(0.015625)"/>
       <path id="DejaVuSans-Bold-61" d="M 2106 1575 
Q 1756 1575 1579 1456 
Q 1403 1338 1403 1106 
Q 1403 894 1545 773 
Q 1688 653 1941 653 
Q 2256 653 2472 879 
Q 2688 1106 2688 1447 
L 2688 1575 
L 2106 1575 
z
M 3816 1997 
L 3816 0 
L 2688 0 
L 2688 519 
Q 2463 200 2181 54 
Q 1900 -91 1497 -91 
Q 953 -91 614 226 
Q 275 544 275 1050 
Q 275 1666 698 1953 
Q 1122 2241 2028 2241 
L 2688 2241 
L 2688 2328 
Q 2688 2594 2478 2717 
Q 2269 2841 1825 2841 
Q 1466 2841 1156 2769 
Q 847 2697 581 2553 
L 581 3406 
Q 941 3494 1303 3539 
Q 1666 3584 2028 3584 
Q 2975 3584 3395 3211 
Q 3816 2838 3816 1997 
z
" transform="scale(0.015625)"/>
       <path id="DejaVuSans-Bold-67" d="M 2919 594 
Q 2688 288 2409 144 
Q 2131 0 1766 0 
Q 1125 0 706 504 
Q 288 1009 288 1791 
Q 288 2575 706 3076 
Q 1125 3578 1766 3578 
Q 2131 3578 2409 3434 
Q 2688 3291 2919 2981 
L 2919 3500 
L 4044 3500 
L 4044 353 
Q 4044 -491 3511 -936 
Q 2978 -1381 1966 -1381 
Q 1638 -1381 1331 -1331 
Q 1025 -1281 716 -1178 
L 716 -306 
Q 1009 -475 1290 -558 
Q 1572 -641 1856 -641 
Q 2406 -641 2662 -400 
Q 2919 -159 2919 353 
L 2919 594 
z
M 2181 2772 
Q 1834 2772 1640 2515 
Q 1447 2259 1447 1791 
Q 1447 1309 1634 1061 
Q 1822 813 2181 813 
Q 2531 813 2725 1069 
Q 2919 1325 2919 1791 
Q 2919 2259 2725 2515 
Q 2531 2772 2181 2772 
z
" transform="scale(0.015625)"/>
       <path id="DejaVuSans-Bold-20" transform="scale(0.015625)"/>
       <path id="DejaVuSans-Bold-28" d="M 2413 -844 
L 1484 -844 
Q 1006 -72 778 623 
Q 550 1319 550 2003 
Q 550 2688 779 3389 
Q 1009 4091 1484 4856 
L 2413 4856 
Q 2013 4116 1813 3408 
Q 1613 2700 1613 2009 
Q 1613 1319 1811 609 
Q 2009 -100 2413 -844 
z
" transform="scale(0.015625)"/>
       <path id="DejaVuSans-Bold-25" d="M 4959 1925 
Q 4738 1925 4616 1733 
Q 4494 1541 4494 1184 
Q 4494 825 4614 633 
Q 4734 441 4959 441 
Q 5184 441 5303 633 
Q 5422 825 5422 1184 
Q 5422 1541 5301 1733 
Q 5181 1925 4959 1925 
z
M 4959 2450 
Q 5541 2450 5875 2112 
Q 6209 1775 6209 1184 
Q 6209 594 5875 251 
Q 5541 -91 4959 -91 
Q 4378 -91 4042 251 
Q 3706 594 3706 1184 
Q 3706 1772 4042 2111 
Q 4378 2450 4959 2450 
z
M 2094 -91 
L 1403 -91 
L 4319 4750 
L 5013 4750 
L 2094 -91 
z
M 1453 4750 
Q 2034 4750 2367 4411 
Q 2700 4072 2700 3481 
Q 2700 2891 2367 2550 
Q 2034 2209 1453 2209 
Q 872 2209 539 2550 
Q 206 2891 206 3481 
Q 206 4072 539 4411 
Q 872 4750 1453 4750 
z
M 1453 4225 
Q 1228 4225 1106 4031 
Q 984 3838 984 3481 
Q 984 3122 1106 2926 
Q 1228 2731 1453 2731 
Q 1678 2731 1798 2926 
Q 1919 3122 1919 3481 
Q 1919 3838 1797 4031 
Q 1675 4225 1453 4225 
z
" transform="scale(0.015625)"/>
       <path id="DejaVuSans-Bold-29" d="M 513 -844 
Q 913 -100 1113 609 
Q 1313 1319 1313 2009 
Q 1313 2700 1113 3408 
Q 913 4116 513 4856 
L 1441 4856 
Q 1916 4091 2145 3389 
Q 2375 2688 2375 2003 
Q 2375 1319 2147 623 
Q 1919 -72 1441 -844 
L 513 -844 
z
" transform="scale(0.015625)"/>
      </defs>
      <use xlink:href="#DejaVuSans-Bold-50"/>
      <use xlink:href="#DejaVuSans-Bold-65" transform="translate(73.291016 0)"/>
      <use xlink:href="#DejaVuSans-Bold-72" transform="translate(141.113281 0)"/>
      <use xlink:href="#DejaVuSans-Bold-63" transform="translate(190.429688 0)"/>
      <use xlink:href="#DejaVuSans-Bold-65" transform="translate(249.707031 0)"/>
      <use xlink:href="#DejaVuSans-Bold-6e" transform="translate(317.529297 0)"/>
      <use xlink:href="#DejaVuSans-Bold-74" transform="translate(388.720703 0)"/>
      <use xlink:href="#DejaVuSans-Bold-61" transform="translate(436.523438 0)"/>
      <use xlink:href="#DejaVuSans-Bold-67" transform="translate(504.003906 0)"/>
      <use xlink:href="#DejaVuSans-Bold-65" transform="translate(575.585938 0)"/>
      <use xlink:href="#DejaVuSans-Bold-20" transform="translate(643.408203 0)"/>
      <use xlink:href="#DejaVuSans-Bold-28" transform="translate(678.222656 0)"/>
      <use xlink:href="#DejaVuSans-Bold-25" transform="translate(723.925781 0)"/>
      <use xlink:href="#DejaVuSans-Bold-29" transform="translate(824.121094 0)"/>
     </g>
    </g>
   </g>
   <g id="line2d_31">
    <path d="M 92.219432 322.703334 
L 99.009974 261.335144 
L 105.800515 238.781023 
L 112.591057 229.077506 
L 119.381599 225.143647 
L 126.172141 221.472046 
L 132.962683 221.097393 
L 139.753224 217.275931 
L 146.543766 214.653359 
L 153.334308 209.408214 
L 160.12485 204.258436 
L 166.915391 200.491469 
L 173.705933 197.304035 
L 180.496475 193.897573 
L 187.287017 192.413946 
L 194.077559 191.705852 
L 200.8681 190.89594 
L 207.658642 191.050209 
L 214.449184 190.525694 
L 221.239726 189.424214 
L 228.030267 182.815332 
L 234.820809 182.972686 
L 241.611351 182.500623 
L 248.401893 179.825599 
L 255.192435 176.20645 
L 261.982976 176.521158 
L 268.773518 175.577032 
L 275.56406 174.632906 
L 282.354602 172.115237 
L 289.145143 171.800528 
L 295.935685 173.846135 
L 302.726227 175.104969 
L 309.516769 175.419678 
L 316.307311 176.993221 
L 323.097852 177.779993 
L 329.888394 177.150576 
L 336.678936 175.891741 
L 343.469478 174.318198 
L 350.26002 172.902009 
L 357.050561 173.846135 
L 363.841103 172.5873 
L 370.631645 171.171111 
L 377.422187 169.912276 
L 384.212728 172.429946 
L 391.00327 174.318198 
L 397.793812 171.48582 
L 404.584354 170.226985 
L 411.374896 170.069631 
L 418.165437 170.541694 
L 424.955979 170.226985 
L 431.746521 168.653442 
L 438.537063 167.551961 
L 445.327604 168.181379 
L 452.118146 167.237253 
L 458.908688 166.450481 
L 465.69923 165.978418 
L 472.489772 166.450481 
L 479.280313 168.024024 
L 486.070855 168.96815 
L 492.861397 165.821064 
L 499.651939 165.191646 
L 506.44248 164.876938 
L 513.233022 166.450481 
L 520.023564 164.404875 
L 526.814106 163.775457 
L 533.604648 165.191646 
L 540.395189 163.775457 
L 547.185731 164.876938 
L 553.976273 164.876938 
L 560.766815 165.191646 
L 567.557357 163.14604 
L 574.347898 163.303394 
L 581.13844 163.932812 
L 587.928982 165.191646 
L 594.719524 165.663709 
L 601.510065 164.090166 
L 608.300607 163.618103 
L 615.091149 161.257788 
L 621.881691 161.257788 
L 628.672233 163.14604 
L 635.462774 164.404875 
L 642.253316 164.24752 
L 649.043858 160.785725 
L 655.8344 161.729851 
L 662.624941 162.516623 
L 669.415483 160.313662 
L 676.206025 161.729851 
L 682.996567 158.42541 
L 689.787109 158.897473 
L 696.57765 159.684245 
L 703.368192 160.471016 
L 710.158734 159.054827 
L 716.949276 157.953347 
L 723.739817 156.537158 
L 730.530359 154.963615 
L 737.320901 156.851867 
L 744.111443 158.582764 
L 750.901985 158.740119 
L 757.692526 157.638638 
L 764.483068 157.32393 
" clip-path="url(#p216361e062)" style="fill: none; stroke: #2ecc71; stroke-width: 1.5; stroke-linecap: square"/>
   </g>
   <g id="line2d_32">
    <path d="M 92.219432 322.703334 
L 99.009974 199.966954 
L 105.800515 193.672781 
L 112.591057 199.966954 
L 119.381599 209.408214 
L 126.172141 203.114041 
L 132.962683 218.849474 
L 139.753224 190.525694 
L 146.543766 193.672781 
L 153.334308 162.201914 
L 160.12485 152.760654 
L 166.915391 159.054827 
L 173.705933 159.054827 
L 180.496475 149.613567 
L 187.287017 171.643174 
L 194.077559 181.084434 
L 200.8681 177.937347 
L 207.658642 193.672781 
L 214.449184 181.084434 
L 221.239726 168.496087 
L 228.030267 190.525694 
L 234.820809 203.114041 
L 241.611351 184.231521 
L 248.401893 146.466481 
L 255.192435 137.025221 
L 261.982976 209.408214 
L 268.773518 199.966954 
L 275.56406 171.643174 
L 282.354602 143.319394 
L 289.145143 155.907741 
L 295.935685 193.672781 
L 302.726227 184.231521 
L 309.516769 165.349001 
L 316.307311 181.084434 
L 323.097852 187.378607 
L 329.888394 168.496087 
L 336.678936 152.760654 
L 343.469478 162.201914 
L 350.26002 152.760654 
L 357.050561 187.378607 
L 363.841103 165.349001 
L 370.631645 174.790261 
L 377.422187 159.054827 
L 384.212728 196.819867 
L 391.00327 174.790261 
L 397.793812 152.760654 
L 404.584354 174.790261 
L 411.374896 168.496087 
L 418.165437 152.760654 
L 424.955979 149.613567 
L 431.746521 162.201914 
L 438.537063 162.201914 
L 445.327604 177.937347 
L 452.118146 162.201914 
L 458.908688 171.643174 
L 465.69923 159.054827 
L 472.489772 162.201914 
L 479.280313 193.672781 
L 486.070855 171.643174 
L 492.861397 124.436874 
L 499.651939 152.760654 
L 506.44248 168.496087 
L 513.233022 190.525694 
L 520.023564 155.907741 
L 526.814106 162.201914 
L 533.604648 181.084434 
L 540.395189 146.466481 
L 547.185731 190.525694 
L 553.976273 152.760654 
L 560.766815 155.907741 
L 567.557357 121.289787 
L 574.347898 165.349001 
L 581.13844 190.525694 
L 587.928982 187.378607 
L 594.719524 181.084434 
L 601.510065 127.583961 
L 608.300607 152.760654 
L 615.091149 146.466481 
L 621.881691 171.643174 
L 628.672233 162.201914 
L 635.462774 177.937347 
L 642.253316 165.349001 
L 649.043858 121.289787 
L 655.8344 174.790261 
L 662.624941 177.937347 
L 669.415483 137.025221 
L 676.206025 174.790261 
L 682.996567 124.436874 
L 689.787109 162.201914 
L 696.57765 171.643174 
L 703.368192 137.025221 
L 710.158734 137.025221 
L 716.949276 168.496087 
L 723.739817 159.054827 
L 730.530359 149.613567 
L 737.320901 165.349001 
L 744.111443 187.378607 
L 750.901985 149.613567 
L 757.692526 149.613567 
L 764.483068 155.907741 
" clip-path="url(#p216361e062)" style="fill: none; stroke: #2ecc71; stroke-opacity: 0.1; stroke-width: 2.5; stroke-linecap: square"/>
   </g>
   <g id="line2d_33">
    <path d="M 92.219432 325.850421 
L 99.009974 330.571051 
L 105.800515 339.487796 
L 112.591057 342.372626 
L 119.381599 346.621193 
L 126.172141 347.880027 
L 132.962683 346.081692 
L 139.753224 346.69987 
L 146.543766 348.229704 
L 153.334308 350.082988 
L 160.12485 351.885411 
L 166.915391 352.3384 
L 173.705933 354.174201 
L 180.496475 354.398993 
L 187.287017 354.803618 
L 194.077559 355.747744 
L 200.8681 355.655183 
L 207.658642 355.747744 
L 214.449184 355.996198 
L 221.239726 355.905098 
L 228.030267 358.265413 
L 234.820809 359.052185 
L 241.611351 359.052185 
L 248.401893 359.524248 
L 255.192435 360.153665 
L 261.982976 358.894831 
L 268.773518 359.838957 
L 275.56406 360.468374 
L 282.354602 360.940437 
L 289.145143 360.31102 
L 295.935685 359.209539 
L 302.726227 359.996311 
L 309.516769 358.737476 
L 316.307311 359.052185 
L 323.097852 358.894831 
L 329.888394 358.737476 
L 336.678936 358.422768 
L 343.469478 359.052185 
L 350.26002 358.265413 
L 357.050561 358.265413 
L 363.841103 357.478642 
L 370.631645 357.635996 
L 377.422187 357.950705 
L 384.212728 356.377161 
L 391.00327 355.275681 
L 397.793812 356.69187 
L 404.584354 357.478642 
L 411.374896 357.478642 
L 418.165437 357.006579 
L 424.955979 358.108059 
L 431.746521 358.737476 
L 438.537063 357.950705 
L 445.327604 357.163933 
L 452.118146 357.635996 
L 458.908688 357.79335 
L 465.69923 357.321287 
L 472.489772 358.108059 
L 479.280313 356.534516 
L 486.070855 356.377161 
L 492.861397 357.006579 
L 499.651939 357.79335 
L 506.44248 357.321287 
L 513.233022 356.69187 
L 520.023564 358.422768 
L 526.814106 358.737476 
L 533.604648 358.422768 
L 540.395189 357.950705 
L 547.185731 357.79335 
L 553.976273 357.163933 
L 560.766815 355.747744 
L 567.557357 356.534516 
L 574.347898 356.534516 
L 581.13844 357.163933 
L 587.928982 355.433035 
L 594.719524 355.433035 
L 601.510065 356.534516 
L 608.300607 356.69187 
L 615.091149 357.321287 
L 621.881691 356.849224 
L 628.672233 356.534516 
L 635.462774 355.433035 
L 642.253316 355.747744 
L 649.043858 357.635996 
L 655.8344 357.163933 
L 662.624941 357.006579 
L 669.415483 357.950705 
L 676.206025 357.478642 
L 682.996567 358.265413 
L 689.787109 359.052185 
L 696.57765 358.894831 
L 703.368192 358.580122 
L 710.158734 358.894831 
L 716.949276 359.209539 
L 723.739817 360.468374 
L 730.530359 360.940437 
L 737.320901 359.681602 
L 744.111443 358.265413 
L 750.901985 358.580122 
L 757.692526 360.468374 
L 764.483068 360.31102 
" clip-path="url(#p216361e062)" style="fill: none; stroke: #f39c12; stroke-width: 1.5; stroke-linecap: square"/>
   </g>
   <g id="line2d_34">
    <path d="M 92.219432 325.850421 
L 99.009974 335.291681 
L 105.800515 357.321287 
L 112.591057 351.027114 
L 119.381599 363.615461 
L 126.172141 354.174201 
L 132.962683 335.291681 
L 139.753224 351.027114 
L 146.543766 360.468374 
L 153.334308 366.762547 
L 160.12485 369.909634 
L 166.915391 357.321287 
L 173.705933 376.203807 
L 180.496475 357.321287 
L 187.287017 360.468374 
L 194.077559 369.909634 
L 200.8681 354.174201 
L 207.658642 357.321287 
L 214.449184 360.468374 
L 221.239726 354.174201 
L 228.030267 373.056721 
L 234.820809 351.027114 
L 241.611351 357.321287 
L 248.401893 360.468374 
L 255.192435 376.203807 
L 261.982976 328.997507 
L 268.773518 354.174201 
L 275.56406 363.615461 
L 282.354602 369.909634 
L 289.145143 354.174201 
L 295.935685 347.880027 
L 302.726227 373.056721 
L 309.516769 351.027114 
L 316.307311 363.615461 
L 323.097852 357.321287 
L 329.888394 366.762547 
L 336.678936 347.880027 
L 343.469478 369.909634 
L 350.26002 344.732941 
L 357.050561 354.174201 
L 363.841103 357.321287 
L 370.631645 354.174201 
L 377.422187 363.615461 
L 384.212728 328.997507 
L 391.00327 354.174201 
L 397.793812 357.321287 
L 404.584354 369.909634 
L 411.374896 363.615461 
L 418.165437 360.468374 
L 424.955979 376.203807 
L 431.746521 360.468374 
L 438.537063 357.321287 
L 445.327604 335.291681 
L 452.118146 373.056721 
L 458.908688 360.468374 
L 465.69923 357.321287 
L 472.489772 363.615461 
L 479.280313 338.438767 
L 486.070855 341.585854 
L 492.861397 366.762547 
L 499.651939 373.056721 
L 506.44248 344.732941 
L 513.233022 351.027114 
L 520.023564 363.615461 
L 526.814106 360.468374 
L 533.604648 351.027114 
L 540.395189 360.468374 
L 547.185731 360.468374 
L 553.976273 347.880027 
L 560.766815 347.880027 
L 567.557357 376.203807 
L 574.347898 357.321287 
L 581.13844 347.880027 
L 587.928982 338.438767 
L 594.719524 360.468374 
L 601.510065 379.350894 
L 608.300607 366.762547 
L 615.091149 351.027114 
L 621.881691 332.144594 
L 628.672233 360.468374 
L 635.462774 351.027114 
L 642.253316 351.027114 
L 649.043858 388.792154 
L 655.8344 354.174201 
L 662.624941 357.321287 
L 669.415483 369.909634 
L 676.206025 351.027114 
L 682.996567 376.203807 
L 689.787109 363.615461 
L 696.57765 344.732941 
L 703.368192 369.909634 
L 710.158734 363.615461 
L 716.949276 354.174201 
L 723.739817 363.615461 
L 730.530359 369.909634 
L 737.320901 354.174201 
L 744.111443 338.438767 
L 750.901985 357.321287 
L 757.692526 369.909634 
L 764.483068 357.321287 
" clip-path="url(#p216361e062)" style="fill: none; stroke: #f39c12; stroke-opacity: 0.1; stroke-width: 2.5; stroke-linecap: square"/>
   </g>
   <g id="line2d_35">
    <path d="M 92.219432 203.114041 
L 99.009974 259.761601 
L 105.800515 273.398976 
L 112.591057 280.217664 
L 119.381599 279.902955 
L 126.172141 282.315722 
L 132.962683 284.48871 
L 139.753224 287.691995 
L 146.543766 288.784733 
L 153.334308 292.176593 
L 160.12485 295.523949 
L 166.915391 298.837927 
L 173.705933 300.18956 
L 180.496475 303.37123 
L 187.287017 304.450231 
L 194.077559 304.2142 
L 200.8681 305.116673 
L 207.658642 304.869843 
L 214.449184 305.145903 
L 221.239726 306.338483 
L 228.030267 310.58705 
L 234.820809 309.642924 
L 241.611351 310.114987 
L 248.401893 312.317948 
L 255.192435 315.30768 
L 261.982976 316.251806 
L 268.773518 316.251806 
L 275.56406 316.566515 
L 282.354602 318.612121 
L 289.145143 319.556247 
L 295.935685 318.612121 
L 302.726227 316.566515 
L 309.516769 317.510641 
L 316.307311 315.622389 
L 323.097852 314.992972 
L 329.888394 315.779743 
L 336.678936 317.353287 
L 343.469478 318.297413 
L 350.26002 320.500373 
L 357.050561 319.556247 
L 363.841103 321.601854 
L 370.631645 322.860688 
L 377.422187 323.804814 
L 384.212728 322.860688 
L 391.00327 322.073917 
L 397.793812 323.490106 
L 404.584354 323.962169 
L 411.374896 324.119523 
L 418.165437 324.119523 
L 424.955979 323.332751 
L 431.746521 324.276877 
L 438.537063 326.165129 
L 445.327604 326.322484 
L 452.118146 326.794547 
L 458.908688 327.423964 
L 465.69923 328.36809 
L 472.489772 327.109255 
L 479.280313 327.109255 
L 486.070855 326.322484 
L 492.861397 328.840153 
L 499.651939 328.682799 
L 506.44248 329.46957 
L 513.233022 328.525444 
L 520.023564 328.840153 
L 526.814106 329.154862 
L 533.604648 328.053381 
L 540.395189 329.941633 
L 547.185731 328.997507 
L 553.976273 329.626925 
L 560.766815 330.728405 
L 567.557357 331.98724 
L 574.347898 331.829885 
L 581.13844 330.571051 
L 587.928982 331.043114 
L 594.719524 330.571051 
L 601.510065 331.043114 
L 608.300607 331.357822 
L 615.091149 333.08872 
L 621.881691 333.560783 
L 628.672233 331.98724 
L 635.462774 331.829885 
L 642.253316 331.672531 
L 649.043858 333.246074 
L 655.8344 332.774011 
L 662.624941 332.144594 
L 669.415483 333.403429 
L 676.206025 332.459303 
L 682.996567 334.976972 
L 689.787109 333.718137 
L 696.57765 333.08872 
L 703.368192 332.616657 
L 710.158734 333.718137 
L 716.949276 334.504909 
L 723.739817 334.662263 
L 730.530359 335.763744 
L 737.320901 335.134326 
L 744.111443 334.819618 
L 750.901985 334.347555 
L 757.692526 333.560783 
L 764.483068 334.032846 
" clip-path="url(#p216361e062)" style="fill: none; stroke: #e74c3c; stroke-width: 1.5; stroke-linecap: square"/>
   </g>
   <g id="line2d_36">
    <path d="M 92.219432 203.114041 
L 99.009974 316.409161 
L 105.800515 300.673727 
L 112.591057 300.673727 
L 119.381599 278.644121 
L 126.172141 294.379554 
L 132.962683 297.526641 
L 139.753224 310.114987 
L 146.543766 297.526641 
L 153.334308 322.703334 
L 160.12485 328.997507 
L 166.915391 335.291681 
L 173.705933 316.409161 
L 180.496475 344.732941 
L 187.287017 319.556247 
L 194.077559 300.673727 
L 200.8681 319.556247 
L 207.658642 300.673727 
L 214.449184 310.114987 
L 221.239726 328.997507 
L 228.030267 288.085381 
L 234.820809 297.526641 
L 241.611351 310.114987 
L 248.401893 344.732941 
L 255.192435 338.438767 
L 261.982976 313.262074 
L 268.773518 297.526641 
L 275.56406 316.409161 
L 282.354602 338.438767 
L 289.145143 341.585854 
L 295.935685 310.114987 
L 302.726227 294.379554 
L 309.516769 335.291681 
L 316.307311 306.967901 
L 323.097852 306.967901 
L 329.888394 316.409161 
L 336.678936 351.027114 
L 343.469478 319.556247 
L 350.26002 354.174201 
L 357.050561 310.114987 
L 363.841103 328.997507 
L 370.631645 322.703334 
L 377.422187 328.997507 
L 384.212728 325.850421 
L 391.00327 322.703334 
L 397.793812 341.585854 
L 404.584354 306.967901 
L 411.374896 319.556247 
L 418.165437 338.438767 
L 424.955979 325.850421 
L 431.746521 328.997507 
L 438.537063 332.144594 
L 445.327604 338.438767 
L 452.118146 316.409161 
L 458.908688 319.556247 
L 465.69923 335.291681 
L 472.489772 325.850421 
L 479.280313 319.556247 
L 486.070855 338.438767 
L 492.861397 360.468374 
L 499.651939 325.850421 
L 506.44248 338.438767 
L 513.233022 310.114987 
L 520.023564 332.144594 
L 526.814106 328.997507 
L 533.604648 319.556247 
L 540.395189 344.732941 
L 547.185731 300.673727 
L 553.976273 351.027114 
L 560.766815 347.880027 
L 567.557357 354.174201 
L 574.347898 328.997507 
L 581.13844 313.262074 
L 587.928982 325.850421 
L 594.719524 310.114987 
L 601.510065 344.732941 
L 608.300607 332.144594 
L 615.091149 354.174201 
L 621.881691 347.880027 
L 628.672233 328.997507 
L 635.462774 322.703334 
L 642.253316 335.291681 
L 649.043858 341.585854 
L 655.8344 322.703334 
L 662.624941 316.409161 
L 669.415483 344.732941 
L 676.206025 325.850421 
L 682.996567 351.027114 
L 689.787109 325.850421 
L 696.57765 335.291681 
L 703.368192 344.732941 
L 710.158734 351.027114 
L 716.949276 328.997507 
L 723.739817 328.997507 
L 730.530359 332.144594 
L 737.320901 332.144594 
L 744.111443 325.850421 
L 750.901985 344.732941 
L 757.692526 332.144594 
L 764.483068 338.438767 
" clip-path="url(#p216361e062)" style="fill: none; stroke: #e74c3c; stroke-opacity: 0.1; stroke-width: 2.5; stroke-linecap: square"/>
   </g>
   <g id="patch_4">
    <path d="M 58.60625 404.527587 
L 58.60625 26.877187 
" style="fill: none; stroke: #000000; stroke-width: 1.5; stroke-linejoin: miter; stroke-linecap: square"/>
   </g>
   <g id="patch_5">
    <path d="M 798.09625 404.527587 
L 798.09625 26.877187 
" style="fill: none; stroke: #000000; stroke-width: 1.5; stroke-linejoin: miter; stroke-linecap: square"/>
   </g>
   <g id="patch_6">
    <path d="M 58.60625 404.527587 
L 798.09625 404.527587 
" style="fill: none; stroke: #000000; stroke-width: 1.5; stroke-linejoin: miter; stroke-linecap: square"/>
   </g>
   <g id="patch_7">
    <path d="M 58.60625 26.877187 
L 798.09625 26.877187 
" style="fill: none; stroke: #000000; stroke-width: 1.5; stroke-linejoin: miter; stroke-linecap: square"/>
   </g>
   <g id="text_18">
    <!-- VS RANDOM -->
    <g style="fill: #006064; opacity: 0.9" transform="translate(390.409844 65.501658) scale(0.11 -0.11)">
     <defs>
      <path id="DejaVuSans-Bold-56" d="M 31 4666 
L 1241 4666 
L 2478 1222 
L 3713 4666 
L 4922 4666 
L 3194 0 
L 1759 0 
L 31 4666 
z
" transform="scale(0.015625)"/>
      <path id="DejaVuSans-Bold-53" d="M 3834 4519 
L 3834 3531 
Q 3450 3703 3084 3790 
Q 2719 3878 2394 3878 
Q 1963 3878 1756 3759 
Q 1550 3641 1550 3391 
Q 1550 3203 1689 3098 
Q 1828 2994 2194 2919 
L 2706 2816 
Q 3484 2659 3812 2340 
Q 4141 2022 4141 1434 
Q 4141 663 3683 286 
Q 3225 -91 2284 -91 
Q 1841 -91 1394 -6 
Q 947 78 500 244 
L 500 1259 
Q 947 1022 1364 901 
Q 1781 781 2169 781 
Q 2563 781 2772 912 
Q 2981 1044 2981 1288 
Q 2981 1506 2839 1625 
Q 2697 1744 2272 1838 
L 1806 1941 
Q 1106 2091 782 2419 
Q 459 2747 459 3303 
Q 459 4000 909 4375 
Q 1359 4750 2203 4750 
Q 2588 4750 2994 4692 
Q 3400 4634 3834 4519 
z
" transform="scale(0.015625)"/>
      <path id="DejaVuSans-Bold-52" d="M 2297 2597 
Q 2675 2597 2839 2737 
Q 3003 2878 3003 3200 
Q 3003 3519 2839 3656 
Q 2675 3794 2297 3794 
L 1791 3794 
L 1791 2597 
L 2297 2597 
z
M 1791 1766 
L 1791 0 
L 588 0 
L 588 4666 
L 2425 4666 
Q 3347 4666 3776 4356 
Q 4206 4047 4206 3378 
Q 4206 2916 3982 2619 
Q 3759 2322 3309 2181 
Q 3556 2125 3751 1926 
Q 3947 1728 4147 1325 
L 4800 0 
L 3519 0 
L 2950 1159 
Q 2778 1509 2601 1637 
Q 2425 1766 2131 1766 
L 1791 1766 
z
" transform="scale(0.015625)"/>
      <path id="DejaVuSans-Bold-41" d="M 3419 850 
L 1538 850 
L 1241 0 
L 31 0 
L 1759 4666 
L 3194 4666 
L 4922 0 
L 3713 0 
L 3419 850 
z
M 1838 1716 
L 3116 1716 
L 2478 3572 
L 1838 1716 
z
" transform="scale(0.015625)"/>
      <path id="DejaVuSans-Bold-4e" d="M 588 4666 
L 1931 4666 
L 3628 1466 
L 3628 4666 
L 4769 4666 
L 4769 0 
L 3425 0 
L 1728 3200 
L 1728 0 
L 588 0 
L 588 4666 
z
" transform="scale(0.015625)"/>
      <path id="DejaVuSans-Bold-44" d="M 1791 3756 
L 1791 909 
L 2222 909 
Q 2959 909 3348 1275 
Q 3738 1641 3738 2338 
Q 3738 3031 3350 3393 
Q 2963 3756 2222 3756 
L 1791 3756 
z
M 588 4666 
L 1856 4666 
Q 2919 4666 3439 4514 
Q 3959 4363 4331 4000 
Q 4659 3684 4818 3271 
Q 4978 2859 4978 2338 
Q 4978 1809 4818 1395 
Q 4659 981 4331 666 
Q 3956 303 3431 151 
Q 2906 0 1856 0 
L 588 0 
L 588 4666 
z
" transform="scale(0.015625)"/>
      <path id="DejaVuSans-Bold-4f" d="M 2719 3878 
Q 2169 3878 1866 3472 
Q 1563 3066 1563 2328 
Q 1563 1594 1866 1187 
Q 2169 781 2719 781 
Q 3272 781 3575 1187 
Q 3878 1594 3878 2328 
Q 3878 3066 3575 3472 
Q 3272 3878 2719 3878 
z
M 2719 4750 
Q 3844 4750 4481 4106 
Q 5119 3463 5119 2328 
Q 5119 1197 4481 553 
Q 3844 -91 2719 -91 
Q 1597 -91 958 553 
Q 319 1197 319 2328 
Q 319 3463 958 4106 
Q 1597 4750 2719 4750 
z
" transform="scale(0.015625)"/>
      <path id="DejaVuSans-Bold-4d" d="M 588 4666 
L 2119 4666 
L 3181 2169 
L 4250 4666 
L 5778 4666 
L 5778 0 
L 4641 0 
L 4641 3413 
L 3566 897 
L 2803 897 
L 1728 3413 
L 1728 0 
L 588 0 
L 588 4666 
z
" transform="scale(0.015625)"/>
     </defs>
     <use xlink:href="#DejaVuSans-Bold-56"/>
     <use xlink:href="#DejaVuSans-Bold-53" transform="translate(77.392578 0)"/>
     <use xlink:href="#DejaVuSans-Bold-20" transform="translate(149.414062 0)"/>
     <use xlink:href="#DejaVuSans-Bold-52" transform="translate(184.228516 0)"/>
     <use xlink:href="#DejaVuSans-Bold-41" transform="translate(261.230469 0)"/>
     <use xlink:href="#DejaVuSans-Bold-4e" transform="translate(338.623047 0)"/>
     <use xlink:href="#DejaVuSans-Bold-44" transform="translate(422.314453 0)"/>
     <use xlink:href="#DejaVuSans-Bold-4f" transform="translate(505.322266 0)"/>
     <use xlink:href="#DejaVuSans-Bold-4d" transform="translate(590.332031 0)"/>
    </g>
   </g>
   <g id="text_19">
    <!-- Tic-Tac-Toe Dqn Training Convergence -->
    <g transform="translate(238.545469 20.877187) scale(0.18 -0.18)">
     <defs>
      <path id="DejaVuSans-Bold-54" d="M 31 4666 
L 4331 4666 
L 4331 3756 
L 2784 3756 
L 2784 0 
L 1581 0 
L 1581 3756 
L 31 3756 
L 31 4666 
z
" transform="scale(0.015625)"/>
      <path id="DejaVuSans-Bold-2d" d="M 347 2297 
L 2309 2297 
L 2309 1388 
L 347 1388 
L 347 2297 
z
" transform="scale(0.015625)"/>
      <path id="DejaVuSans-Bold-71" d="M 2181 2772 
Q 1825 2772 1636 2509 
Q 1447 2247 1447 1747 
Q 1447 1247 1636 984 
Q 1825 722 2181 722 
Q 2541 722 2730 984 
Q 2919 1247 2919 1747 
Q 2919 2247 2730 2509 
Q 2541 2772 2181 2772 
z
M 2919 506 
Q 2688 197 2409 53 
Q 2131 -91 1766 -91 
Q 1119 -91 703 423 
Q 288 938 288 1747 
Q 288 2556 703 3067 
Q 1119 3578 1766 3578 
Q 2131 3578 2409 3434 
Q 2688 3291 2919 2981 
L 2919 3500 
L 4044 3500 
L 4044 -1331 
L 2919 -1331 
L 2919 506 
z
" transform="scale(0.015625)"/>
      <path id="DejaVuSans-Bold-43" d="M 4288 256 
Q 3956 84 3597 -3 
Q 3238 -91 2847 -91 
Q 1681 -91 1000 561 
Q 319 1213 319 2328 
Q 319 3447 1000 4098 
Q 1681 4750 2847 4750 
Q 3238 4750 3597 4662 
Q 3956 4575 4288 4403 
L 4288 3438 
Q 3953 3666 3628 3772 
Q 3303 3878 2944 3878 
Q 2300 3878 1931 3465 
Q 1563 3053 1563 2328 
Q 1563 1606 1931 1193 
Q 2300 781 2944 781 
Q 3303 781 3628 887 
Q 3953 994 4288 1222 
L 4288 256 
z
" transform="scale(0.015625)"/>
      <path id="DejaVuSans-Bold-76" d="M 97 3500 
L 1216 3500 
L 2088 1081 
L 2956 3500 
L 4078 3500 
L 2700 0 
L 1472 0 
L 97 3500 
z
" transform="scale(0.015625)"/>
     </defs>
     <use xlink:href="#DejaVuSans-Bold-54"/>
     <use xlink:href="#DejaVuSans-Bold-69" transform="translate(68.212891 0)"/>
     <use xlink:href="#DejaVuSans-Bold-63" transform="translate(102.490234 0)"/>
     <use xlink:href="#DejaVuSans-Bold-2d" transform="translate(161.767578 0)"/>
     <use xlink:href="#DejaVuSans-Bold-54" transform="translate(188.521484 0)"/>
     <use xlink:href="#DejaVuSans-Bold-61" transform="translate(243.859375 0)"/>
     <use xlink:href="#DejaVuSans-Bold-63" transform="translate(311.339844 0)"/>
     <use xlink:href="#DejaVuSans-Bold-2d" transform="translate(370.617188 0)"/>
     <use xlink:href="#DejaVuSans-Bold-54" transform="translate(397.371094 0)"/>
     <use xlink:href="#DejaVuSans-Bold-6f" transform="translate(452.333984 0)"/>
     <use xlink:href="#DejaVuSans-Bold-65" transform="translate(521.035156 0)"/>
     <use xlink:href="#DejaVuSans-Bold-20" transform="translate(588.857422 0)"/>
     <use xlink:href="#DejaVuSans-Bold-44" transform="translate(623.671875 0)"/>
     <use xlink:href="#DejaVuSans-Bold-71" transform="translate(706.679688 0)"/>
     <use xlink:href="#DejaVuSans-Bold-6e" transform="translate(778.261719 0)"/>
     <use xlink:href="#DejaVuSans-Bold-20" transform="translate(849.453125 0)"/>
     <use xlink:href="#DejaVuSans-Bold-54" transform="translate(884.267578 0)"/>
     <use xlink:href="#DejaVuSans-Bold-72" transform="translate(941.480469 0)"/>
     <use xlink:href="#DejaVuSans-Bold-61" transform="translate(990.796875 0)"/>
     <use xlink:href="#DejaVuSans-Bold-69" transform="translate(1058.277344 0)"/>
     <use xlink:href="#DejaVuSans-Bold-6e" transform="translate(1092.554688 0)"/>
     <use xlink:href="#DejaVuSans-Bold-69" transform="translate(1163.746094 0)"/>
     <use xlink:href="#DejaVuSans-Bold-6e" transform="translate(1198.023438 0)"/>
     <use xlink:href="#DejaVuSans-Bold-67" transform="translate(1269.214844 0)"/>
     <use xlink:href="#DejaVuSans-Bold-20" transform="translate(1340.796875 0)"/>
     <use xlink:href="#DejaVuSans-Bold-43" transform="translate(1375.611328 0)"/>
     <use xlink:href="#DejaVuSans-Bold-6f" transform="translate(1449 0)"/>
     <use xlink:href="#DejaVuSans-Bold-6e" transform="translate(1517.701172 0)"/>
     <use xlink:href="#DejaVuSans-Bold-76" transform="translate(1588.892578 0)"/>
     <use xlink:href="#DejaVuSans-Bold-65" transform="translate(1654.078125 0)"/>
     <use xlink:href="#DejaVuSans-Bold-72" transform="translate(1721.900391 0)"/>
     <use xlink:href="#DejaVuSans-Bold-67" transform="translate(1771.216797 0)"/>
     <use xlink:href="#DejaVuSans-Bold-65" transform="translate(1842.798828 0)"/>
     <use xlink:href="#DejaVuSans-Bold-6e" transform="translate(1910.621094 0)"/>
     <use xlink:href="#DejaVuSans-Bold-63" transform="translate(1981.8125 0)"/>
     <use xlink:href="#DejaVuSans-Bold-65" transform="translate(2041.089844 0)"/>
    </g>
   </g>
   <g id="legend_1">
    <g id="line2d_37">
     <path d="M 124.347266 466.873604 
L 137.347266 466.873604 
L 150.347266 466.873604 
" style="fill: none; stroke-dasharray: 11.1,4.8; stroke-dashoffset: 0; stroke: #f1c40f; stroke-width: 3"/>
     <defs>
      <path id="mbf03c90472" d="M 0 4 
C 1.060812 4 2.078319 3.578535 2.828427 2.828427 
C 3.578535 2.078319 4 1.060812 4 0 
C 4 -1.060812 3.578535 -2.078319 2.828427 -2.828427 
C 2.078319 -3.578535 1.060812 -4 0 -4 
C -1.060812 -4 -2.078319 -3.578535 -2.828427 -2.828427 
C -3.578535 -2.078319 -4 -1.060812 -4 0 
C -4 1.060812 -3.578535 2.078319 -2.828427 2.828427 
C -2.078319 3.578535 -1.060812 4 0 4 
z
" style="stroke: #f1c40f"/>
     </defs>
     <g>
      <use xlink:href="#mbf03c90472" x="137.347266" y="466.873604" style="fill: #f1c40f; stroke: #f1c40f"/>
     </g>
    </g>
    <g id="text_20">
     <!-- MiniMax win rate -->
     <g transform="translate(160.747266 471.423604) scale(0.13 -0.13)">
      <defs>
       <path id="DejaVuSans-4d" d="M 628 4666 
L 1569 4666 
L 2759 1491 
L 3956 4666 
L 4897 4666 
L 4897 0 
L 4281 0 
L 4281 4097 
L 3078 897 
L 2444 897 
L 1241 4097 
L 1241 0 
L 628 0 
L 628 4666 
z
" transform="scale(0.015625)"/>
       <path id="DejaVuSans-69" d="M 603 3500 
L 1178 3500 
L 1178 0 
L 603 0 
L 603 3500 
z
M 603 4863 
L 1178 4863 
L 1178 4134 
L 603 4134 
L 603 4863 
z
" transform="scale(0.015625)"/>
       <path id="DejaVuSans-6e" d="M 3513 2113 
L 3513 0 
L 2938 0 
L 2938 2094 
Q 2938 2591 2744 2837 
Q 2550 3084 2163 3084 
Q 1697 3084 1428 2787 
Q 1159 2491 1159 1978 
L 1159 0 
L 581 0 
L 581 3500 
L 1159 3500 
L 1159 2956 
Q 1366 3272 1645 3428 
Q 1925 3584 2291 3584 
Q 2894 3584 3203 3211 
Q 3513 2838 3513 2113 
z
" transform="scale(0.015625)"/>
       <path id="DejaVuSans-61" d="M 2194 1759 
Q 1497 1759 1228 1600 
Q 959 1441 959 1056 
Q 959 750 1161 570 
Q 1363 391 1709 391 
Q 2188 391 2477 730 
Q 2766 1069 2766 1631 
L 2766 1759 
L 2194 1759 
z
M 3341 1997 
L 3341 0 
L 2766 0 
L 2766 531 
Q 2569 213 2275 61 
Q 1981 -91 1556 -91 
Q 1019 -91 701 211 
Q 384 513 384 1019 
Q 384 1609 779 1909 
Q 1175 2209 1959 2209 
L 2766 2209 
L 2766 2266 
Q 2766 2663 2505 2880 
Q 2244 3097 1772 3097 
Q 1472 3097 1187 3025 
Q 903 2953 641 2809 
L 641 3341 
Q 956 3463 1253 3523 
Q 1550 3584 1831 3584 
Q 2591 3584 2966 3190 
Q 3341 2797 3341 1997 
z
" transform="scale(0.015625)"/>
       <path id="DejaVuSans-78" d="M 3513 3500 
L 2247 1797 
L 3578 0 
L 2900 0 
L 1881 1375 
L 863 0 
L 184 0 
L 1544 1831 
L 300 3500 
L 978 3500 
L 1906 2253 
L 2834 3500 
L 3513 3500 
z
" transform="scale(0.015625)"/>
       <path id="DejaVuSans-20" transform="scale(0.015625)"/>
       <path id="DejaVuSans-77" d="M 269 3500 
L 844 3500 
L 1563 769 
L 2278 3500 
L 2956 3500 
L 3675 769 
L 4391 3500 
L 4966 3500 
L 4050 0 
L 3372 0 
L 2619 2869 
L 1863 0 
L 1184 0 
L 269 3500 
z
" transform="scale(0.015625)"/>
       <path id="DejaVuSans-72" d="M 2631 2963 
Q 2534 3019 2420 3045 
Q 2306 3072 2169 3072 
Q 1681 3072 1420 2755 
Q 1159 2438 1159 1844 
L 1159 0 
L 581 0 
L 581 3500 
L 1159 3500 
L 1159 2956 
Q 1341 3275 1631 3429 
Q 1922 3584 2338 3584 
Q 2397 3584 2469 3576 
Q 2541 3569 2628 3553 
L 2631 2963 
z
" transform="scale(0.015625)"/>
       <path id="DejaVuSans-74" d="M 1172 4494 
L 1172 3500 
L 2356 3500 
L 2356 3053 
L 1172 3053 
L 1172 1153 
Q 1172 725 1289 603 
Q 1406 481 1766 481 
L 2356 481 
L 2356 0 
L 1766 0 
Q 1100 0 847 248 
Q 594 497 594 1153 
L 594 3053 
L 172 3053 
L 172 3500 
L 594 3500 
L 594 4494 
L 1172 4494 
z
" transform="scale(0.015625)"/>
       <path id="DejaVuSans-65" d="M 3597 1894 
L 3597 1613 
L 953 1613 
Q 991 1019 1311 708 
Q 1631 397 2203 397 
Q 2534 397 2845 478 
Q 3156 559 3463 722 
L 3463 178 
Q 3153 47 2828 -22 
Q 2503 -91 2169 -91 
Q 1331 -91 842 396 
Q 353 884 353 1716 
Q 353 2575 817 3079 
Q 1281 3584 2069 3584 
Q 2775 3584 3186 3129 
Q 3597 2675 3597 1894 
z
M 3022 2063 
Q 3016 2534 2758 2815 
Q 2500 3097 2075 3097 
Q 1594 3097 1305 2825 
Q 1016 2553 972 2059 
L 3022 2063 
z
" transform="scale(0.015625)"/>
      </defs>
      <use xlink:href="#DejaVuSans-4d"/>
      <use xlink:href="#DejaVuSans-69" transform="translate(86.279297 0)"/>
      <use xlink:href="#DejaVuSans-6e" transform="translate(114.0625 0)"/>
      <use xlink:href="#DejaVuSans-69" transform="translate(177.441406 0)"/>
      <use xlink:href="#DejaVuSans-4d" transform="translate(205.224609 0)"/>
      <use xlink:href="#DejaVuSans-61" transform="translate(291.503906 0)"/>
      <use xlink:href="#DejaVuSans-78" transform="translate(352.783203 0)"/>
      <use xlink:href="#DejaVuSans-20" transform="translate(411.962891 0)"/>
      <use xlink:href="#DejaVuSans-77" transform="translate(443.75 0)"/>
      <use xlink:href="#DejaVuSans-69" transform="translate(525.537109 0)"/>
      <use xlink:href="#DejaVuSans-6e" transform="translate(553.320312 0)"/>
      <use xlink:href="#DejaVuSans-20" transform="translate(616.699219 0)"/>
      <use xlink:href="#DejaVuSans-72" transform="translate(648.486328 0)"/>
      <use xlink:href="#DejaVuSans-61" transform="translate(689.599609 0)"/>
      <use xlink:href="#DejaVuSans-74" transform="translate(750.878906 0)"/>
      <use xlink:href="#DejaVuSans-65" transform="translate(790.087891 0)"/>
     </g>
    </g>
    <g id="line2d_38">
     <path d="M 297.454453 466.873604 
L 310.454453 466.873604 
L 323.454453 466.873604 
" style="fill: none; stroke: #2ecc71; stroke-width: 1.5; stroke-linecap: square"/>
    </g>
    <g id="text_21">
     <!-- Wins % -->
     <g transform="translate(333.854453 471.423604) scale(0.13 -0.13)">
      <defs>
       <path id="DejaVuSans-57" d="M 213 4666 
L 850 4666 
L 1831 722 
L 2809 4666 
L 3519 4666 
L 4500 722 
L 5478 4666 
L 6119 4666 
L 4947 0 
L 4153 0 
L 3169 4050 
L 2175 0 
L 1381 0 
L 213 4666 
z
" transform="scale(0.015625)"/>
       <path id="DejaVuSans-73" d="M 2834 3397 
L 2834 2853 
Q 2591 2978 2328 3040 
Q 2066 3103 1784 3103 
Q 1356 3103 1142 2972 
Q 928 2841 928 2578 
Q 928 2378 1081 2264 
Q 1234 2150 1697 2047 
L 1894 2003 
Q 2506 1872 2764 1633 
Q 3022 1394 3022 966 
Q 3022 478 2636 193 
Q 2250 -91 1575 -91 
Q 1294 -91 989 -36 
Q 684 19 347 128 
L 347 722 
Q 666 556 975 473 
Q 1284 391 1588 391 
Q 1994 391 2212 530 
Q 2431 669 2431 922 
Q 2431 1156 2273 1281 
Q 2116 1406 1581 1522 
L 1381 1569 
Q 847 1681 609 1914 
Q 372 2147 372 2553 
Q 372 3047 722 3315 
Q 1072 3584 1716 3584 
Q 2034 3584 2315 3537 
Q 2597 3491 2834 3397 
z
" transform="scale(0.015625)"/>
       <path id="DejaVuSans-25" d="M 4653 2053 
Q 4381 2053 4226 1822 
Q 4072 1591 4072 1178 
Q 4072 772 4226 539 
Q 4381 306 4653 306 
Q 4919 306 5073 539 
Q 5228 772 5228 1178 
Q 5228 1588 5073 1820 
Q 4919 2053 4653 2053 
z
M 4653 2450 
Q 5147 2450 5437 2106 
Q 5728 1763 5728 1178 
Q 5728 594 5436 251 
Q 5144 -91 4653 -91 
Q 4153 -91 3862 251 
Q 3572 594 3572 1178 
Q 3572 1766 3864 2108 
Q 4156 2450 4653 2450 
z
M 1428 4353 
Q 1159 4353 1004 4120 
Q 850 3888 850 3481 
Q 850 3069 1003 2837 
Q 1156 2606 1428 2606 
Q 1700 2606 1854 2837 
Q 2009 3069 2009 3481 
Q 2009 3884 1853 4118 
Q 1697 4353 1428 4353 
z
M 4250 4750 
L 4750 4750 
L 1831 -91 
L 1331 -91 
L 4250 4750 
z
M 1428 4750 
Q 1922 4750 2215 4408 
Q 2509 4066 2509 3481 
Q 2509 2891 2217 2550 
Q 1925 2209 1428 2209 
Q 931 2209 642 2551 
Q 353 2894 353 3481 
Q 353 4063 643 4406 
Q 934 4750 1428 4750 
z
" transform="scale(0.015625)"/>
      </defs>
      <use xlink:href="#DejaVuSans-57"/>
      <use xlink:href="#DejaVuSans-69" transform="translate(96.626953 0)"/>
      <use xlink:href="#DejaVuSans-6e" transform="translate(124.410156 0)"/>
      <use xlink:href="#DejaVuSans-73" transform="translate(187.789062 0)"/>
      <use xlink:href="#DejaVuSans-20" transform="translate(239.888672 0)"/>
      <use xlink:href="#DejaVuSans-25" transform="translate(271.675781 0)"/>
     </g>
    </g>
    <g id="line2d_39">
     <path d="M 407.521797 466.873604 
L 420.521797 466.873604 
L 433.521797 466.873604 
" style="fill: none; stroke: #f39c12; stroke-width: 1.5; stroke-linecap: square"/>
    </g>
    <g id="text_22">
     <!-- Draws % -->
     <g transform="translate(443.921797 471.423604) scale(0.13 -0.13)">
      <defs>
       <path id="DejaVuSans-44" d="M 1259 4147 
L 1259 519 
L 2022 519 
Q 2988 519 3436 956 
Q 3884 1394 3884 2338 
Q 3884 3275 3436 3711 
Q 2988 4147 2022 4147 
L 1259 4147 
z
M 628 4666 
L 1925 4666 
Q 3281 4666 3915 4102 
Q 4550 3538 4550 2338 
Q 4550 1131 3912 565 
Q 3275 0 1925 0 
L 628 0 
L 628 4666 
z
" transform="scale(0.015625)"/>
      </defs>
      <use xlink:href="#DejaVuSans-44"/>
      <use xlink:href="#DejaVuSans-72" transform="translate(77.001953 0)"/>
      <use xlink:href="#DejaVuSans-61" transform="translate(118.115234 0)"/>
      <use xlink:href="#DejaVuSans-77" transform="translate(179.394531 0)"/>
      <use xlink:href="#DejaVuSans-73" transform="translate(261.181641 0)"/>
      <use xlink:href="#DejaVuSans-20" transform="translate(313.28125 0)"/>
      <use xlink:href="#DejaVuSans-25" transform="translate(345.068359 0)"/>
     </g>
    </g>
    <g id="line2d_40">
     <path d="M 527.129922 466.873604 
L 540.129922 466.873604 
L 553.129922 466.873604 
" style="fill: none; stroke: #e74c3c; stroke-width: 1.5; stroke-linecap: square"/>
    </g>
    <g id="text_23">
     <!-- Losses % -->
     <g transform="translate(563.529922 471.423604) scale(0.13 -0.13)">
      <defs>
       <path id="DejaVuSans-4c" d="M 628 4666 
L 1259 4666 
L 1259 531 
L 3531 531 
L 3531 0 
L 628 0 
L 628 4666 
z
" transform="scale(0.015625)"/>
       <path id="DejaVuSans-6f" d="M 1959 3097 
Q 1497 3097 1228 2736 
Q 959 2375 959 1747 
Q 959 1119 1226 758 
Q 1494 397 1959 397 
Q 2419 397 2687 759 
Q 2956 1122 2956 1747 
Q 2956 2369 2687 2733 
Q 2419 3097 1959 3097 
z
M 1959 3584 
Q 2709 3584 3137 3096 
Q 3566 2609 3566 1747 
Q 3566 888 3137 398 
Q 2709 -91 1959 -91 
Q 1206 -91 779 398 
Q 353 888 353 1747 
Q 353 2609 779 3096 
Q 1206 3584 1959 3584 
z
" transform="scale(0.015625)"/>
      </defs>
      <use xlink:href="#DejaVuSans-4c"/>
      <use xlink:href="#DejaVuSans-6f" transform="translate(53.962891 0)"/>
      <use xlink:href="#DejaVuSans-73" transform="translate(115.144531 0)"/>
      <use xlink:href="#DejaVuSans-73" transform="translate(167.244141 0)"/>
      <use xlink:href="#DejaVuSans-65" transform="translate(219.34375 0)"/>
      <use xlink:href="#DejaVuSans-73" transform="translate(280.867188 0)"/>
      <use xlink:href="#DejaVuSans-20" transform="translate(332.966797 0)"/>
      <use xlink:href="#DejaVuSans-25" transform="translate(364.753906 0)"/>
     </g>
    </g>
    <g id="line2d_41">
     <path d="M 649.299453 466.873604 
L 662.299453 466.873604 
L 675.299453 466.873604 
" style="fill: none; stroke: #666666; stroke-opacity: 0.6; stroke-width: 1.5; stroke-linecap: square"/>
    </g>
    <g id="text_24">
     <!-- Epsilon -->
     <g transform="translate(685.699453 471.423604) scale(0.13 -0.13)">
      <defs>
       <path id="DejaVuSans-45" d="M 628 4666 
L 3578 4666 
L 3578 4134 
L 1259 4134 
L 1259 2753 
L 3481 2753 
L 3481 2222 
L 1259 2222 
L 1259 531 
L 3634 531 
L 3634 0 
L 628 0 
L 628 4666 
z
" transform="scale(0.015625)"/>
       <path id="DejaVuSans-70" d="M 1159 525 
L 1159 -1331 
L 581 -1331 
L 581 3500 
L 1159 3500 
L 1159 2969 
Q 1341 3281 1617 3432 
Q 1894 3584 2278 3584 
Q 2916 3584 3314 3078 
Q 3713 2572 3713 1747 
Q 3713 922 3314 415 
Q 2916 -91 2278 -91 
Q 1894 -91 1617 61 
Q 1341 213 1159 525 
z
M 3116 1747 
Q 3116 2381 2855 2742 
Q 2594 3103 2138 3103 
Q 1681 3103 1420 2742 
Q 1159 2381 1159 1747 
Q 1159 1113 1420 752 
Q 1681 391 2138 391 
Q 2594 391 2855 752 
Q 3116 1113 3116 1747 
z
" transform="scale(0.015625)"/>
       <path id="DejaVuSans-6c" d="M 603 4863 
L 1178 4863 
L 1178 0 
L 603 0 
L 603 4863 
z
" transform="scale(0.015625)"/>
      </defs>
      <use xlink:href="#DejaVuSans-45"/>
      <use xlink:href="#DejaVuSans-70" transform="translate(63.183594 0)"/>
      <use xlink:href="#DejaVuSans-73" transform="translate(126.660156 0)"/>
      <use xlink:href="#DejaVuSans-69" transform="translate(178.759766 0)"/>
      <use xlink:href="#DejaVuSans-6c" transform="translate(206.542969 0)"/>
      <use xlink:href="#DejaVuSans-6f" transform="translate(234.326172 0)"/>
      <use xlink:href="#DejaVuSans-6e" transform="translate(295.507812 0)"/>
     </g>
    </g>
   </g>
   <g id="line2d_42">
    <path d="M 119.381599 388.792154 
L 153.334308 388.792154 
L 187.287017 388.792154 
L 221.239726 388.792154 
L 255.192435 388.792154 
L 289.145143 388.792154 
L 323.097852 388.792154 
L 357.050561 388.792154 
L 391.00327 388.792154 
L 424.955979 388.792154 
L 458.908688 388.792154 
L 492.861397 388.792154 
L 526.814106 388.792154 
L 560.766815 388.792154 
L 594.719524 388.792154 
L 628.672233 231.437821 
L 662.624941 388.792154 
L 696.57765 231.437821 
L 730.530359 388.792154 
L 764.483068 388.792154 
" clip-path="url(#p216361e062)" style="fill: none; stroke-dasharray: 11.1,4.8; stroke-dashoffset: 0; stroke: #f1c40f; stroke-width: 3"/>
    <g clip-path="url(#p216361e062)">
     <use xlink:href="#mbf03c90472" x="119.381599" y="388.792154" style="fill: #f1c40f; stroke: #f1c40f"/>
     <use xlink:href="#mbf03c90472" x="153.334308" y="388.792154" style="fill: #f1c40f; stroke: #f1c40f"/>
     <use xlink:href="#mbf03c90472" x="187.287017" y="388.792154" style="fill: #f1c40f; stroke: #f1c40f"/>
     <use xlink:href="#mbf03c90472" x="221.239726" y="388.792154" style="fill: #f1c40f; stroke: #f1c40f"/>
     <use xlink:href="#mbf03c90472" x="255.192435" y="388.792154" style="fill: #f1c40f; stroke: #f1c40f"/>
     <use xlink:href="#mbf03c90472" x="289.145143" y="388.792154" style="fill: #f1c40f; stroke: #f1c40f"/>
     <use xlink:href="#mbf03c90472" x="323.097852" y="388.792154" style="fill: #f1c40f; stroke: #f1c40f"/>
     <use xlink:href="#mbf03c90472" x="357.050561" y="388.792154" style="fill: #f1c40f; stroke: #f1c40f"/>
     <use xlink:href="#mbf03c90472" x="391.00327" y="388.792154" style="fill: #f1c40f; stroke: #f1c40f"/>
     <use xlink:href="#mbf03c90472" x="424.955979" y="388.792154" style="fill: #f1c40f; stroke: #f1c40f"/>
     <use xlink:href="#mbf03c90472" x="458.908688" y="388.792154" style="fill: #f1c40f; stroke: #f1c40f"/>
     <use xlink:href="#mbf03c90472" x="492.861397" y="388.792154" style="fill: #f1c40f; stroke: #f1c40f"/>
     <use xlink:href="#mbf03c90472" x="526.814106" y="388.792154" style="fill: #f1c40f; stroke: #f1c40f"/>
     <use xlink:href="#mbf03c90472" x="560.766815" y="388.792154" style="fill: #f1c40f; stroke: #f1c40f"/>
     <use xlink:href="#mbf03c90472" x="594.719524" y="388.792154" style="fill: #f1c40f; stroke: #f1c40f"/>
     <use xlink:href="#mbf03c90472" x="628.672233" y="231.437821" style="fill: #f1c40f; stroke: #f1c40f"/>
     <use xlink:href="#mbf03c90472" x="662.624941" y="388.792154" style="fill: #f1c40f; stroke: #f1c40f"/>
     <use xlink:href="#mbf03c90472" x="696.57765" y="231.437821" style="fill: #f1c40f; stroke: #f1c40f"/>
     <use xlink:href="#mbf03c90472" x="730.530359" y="388.792154" style="fill: #f1c40f; stroke: #f1c40f"/>
     <use xlink:href="#mbf03c90472" x="764.483068" y="388.792154" style="fill: #f1c40f; stroke: #f1c40f"/>
    </g>
   </g>
  </g>
  <g id="axes_2">
   <g id="matplotlib.axis_3">
    <g id="ytick_7">
     <g id="line2d_43">
      <path d="M 58.60625 404.527587 
L 798.09625 404.527587 
" clip-path="url(#p216361e062)" style="fill: none; stroke: #b0b0b0; stroke-opacity: 0.3; stroke-width: 0.8; stroke-linecap: square"/>
     </g>
     <g id="line2d_44">
      <defs>
       <path id="m25d0185de6" d="M 0 0 
L 3.5 0 
" style="stroke: #000000; stroke-width: 0.8"/>
      </defs>
      <g>
       <use xlink:href="#m25d0185de6" x="798.09625" y="404.527587" style="stroke: #000000; stroke-width: 0.8"/>
      </g>
     </g>
     <g id="text_25">
      <!-- 0.0 -->
      <g transform="translate(805.09625 409.466572) scale(0.13 -0.13)">
       <defs>
        <path id="DejaVuSans-2e" d="M 684 794 
L 1344 794 
L 1344 0 
L 684 0 
L 684 794 
z
" transform="scale(0.015625)"/>
       </defs>
       <use xlink:href="#DejaVuSans-30"/>
       <use xlink:href="#DejaVuSans-2e" transform="translate(63.623047 0)"/>
       <use xlink:href="#DejaVuSans-30" transform="translate(95.410156 0)"/>
      </g>
     </g>
    </g>
    <g id="ytick_8">
     <g id="line2d_45">
      <path d="M 58.60625 335.863878 
L 798.09625 335.863878 
" clip-path="url(#p216361e062)" style="fill: none; stroke: #b0b0b0; stroke-opacity: 0.3; stroke-width: 0.8; stroke-linecap: square"/>
     </g>
     <g id="line2d_46">
      <g>
       <use xlink:href="#m25d0185de6" x="798.09625" y="335.863878" style="stroke: #000000; stroke-width: 0.8"/>
      </g>
     </g>
     <g id="text_26">
      <!-- 0.2 -->
      <g transform="translate(805.09625 340.802863) scale(0.13 -0.13)">
       <use xlink:href="#DejaVuSans-30"/>
       <use xlink:href="#DejaVuSans-2e" transform="translate(63.623047 0)"/>
       <use xlink:href="#DejaVuSans-32" transform="translate(95.410156 0)"/>
      </g>
     </g>
    </g>
    <g id="ytick_9">
     <g id="line2d_47">
      <path d="M 58.60625 267.200169 
L 798.09625 267.200169 
" clip-path="url(#p216361e062)" style="fill: none; stroke: #b0b0b0; stroke-opacity: 0.3; stroke-width: 0.8; stroke-linecap: square"/>
     </g>
     <g id="line2d_48">
      <g>
       <use xlink:href="#m25d0185de6" x="798.09625" y="267.200169" style="stroke: #000000; stroke-width: 0.8"/>
      </g>
     </g>
     <g id="text_27">
      <!-- 0.4 -->
      <g transform="translate(805.09625 272.139154) scale(0.13 -0.13)">
       <use xlink:href="#DejaVuSans-30"/>
       <use xlink:href="#DejaVuSans-2e" transform="translate(63.623047 0)"/>
       <use xlink:href="#DejaVuSans-34" transform="translate(95.410156 0)"/>
      </g>
     </g>
    </g>
    <g id="ytick_10">
     <g id="line2d_49">
      <path d="M 58.60625 198.53646 
L 798.09625 198.53646 
" clip-path="url(#p216361e062)" style="fill: none; stroke: #b0b0b0; stroke-opacity: 0.3; stroke-width: 0.8; stroke-linecap: square"/>
     </g>
     <g id="line2d_50">
      <g>
       <use xlink:href="#m25d0185de6" x="798.09625" y="198.53646" style="stroke: #000000; stroke-width: 0.8"/>
      </g>
     </g>
     <g id="text_28">
      <!-- 0.6 -->
      <g transform="translate(805.09625 203.475445) scale(0.13 -0.13)">
       <use xlink:href="#DejaVuSans-30"/>
       <use xlink:href="#DejaVuSans-2e" transform="translate(63.623047 0)"/>
       <use xlink:href="#DejaVuSans-36" transform="translate(95.410156 0)"/>
      </g>
     </g>
    </g>
    <g id="ytick_11">
     <g id="line2d_51">
      <path d="M 58.60625 129.872751 
L 798.09625 129.872751 
" clip-path="url(#p216361e062)" style="fill: none; stroke: #b0b0b0; stroke-opacity: 0.3; stroke-width: 0.8; stroke-linecap: square"/>
     </g>
     <g id="line2d_52">
      <g>
       <use xlink:href="#m25d0185de6" x="798.09625" y="129.872751" style="stroke: #000000; stroke-width: 0.8"/>
      </g>
     </g>
     <g id="text_29">
      <!-- 0.8 -->
      <g transform="translate(805.09625 134.811736) scale(0.13 -0.13)">
       <use xlink:href="#DejaVuSans-30"/>
       <use xlink:href="#DejaVuSans-2e" transform="translate(63.623047 0)"/>
       <use xlink:href="#DejaVuSans-38" transform="translate(95.410156 0)"/>
      </g>
     </g>
    </g>
    <g id="ytick_12">
     <g id="line2d_53">
      <path d="M 58.60625 61.209042 
L 798.09625 61.209042 
" clip-path="url(#p216361e062)" style="fill: none; stroke: #b0b0b0; stroke-opacity: 0.3; stroke-width: 0.8; stroke-linecap: square"/>
     </g>
     <g id="line2d_54">
      <g>
       <use xlink:href="#m25d0185de6" x="798.09625" y="61.209042" style="stroke: #000000; stroke-width: 0.8"/>
      </g>
     </g>
     <g id="text_30">
      <!-- 1.0 -->
      <g transform="translate(805.09625 66.148026) scale(0.13 -0.13)">
       <use xlink:href="#DejaVuSans-31"/>
       <use xlink:href="#DejaVuSans-2e" transform="translate(63.623047 0)"/>
       <use xlink:href="#DejaVuSans-30" transform="translate(95.410156 0)"/>
      </g>
     </g>
    </g>
    <g id="text_31">
     <!-- Exploration Rate (Epsilon) -->
     <g transform="translate(838.888437 304.210825) rotate(-90) scale(0.12 -0.12)">
      <defs>
       <path id="DejaVuSans-Bold-78" d="M 1422 1791 
L 159 3500 
L 1344 3500 
L 2059 2463 
L 2784 3500 
L 3969 3500 
L 2706 1797 
L 4031 0 
L 2847 0 
L 2059 1106 
L 1281 0 
L 97 0 
L 1422 1791 
z
" transform="scale(0.015625)"/>
       <path id="DejaVuSans-Bold-6c" d="M 538 4863 
L 1656 4863 
L 1656 0 
L 538 0 
L 538 4863 
z
" transform="scale(0.015625)"/>
      </defs>
      <use xlink:href="#DejaVuSans-Bold-45"/>
      <use xlink:href="#DejaVuSans-Bold-78" transform="translate(68.310547 0)"/>
      <use xlink:href="#DejaVuSans-Bold-70" transform="translate(132.8125 0)"/>
      <use xlink:href="#DejaVuSans-Bold-6c" transform="translate(204.394531 0)"/>
      <use xlink:href="#DejaVuSans-Bold-6f" transform="translate(238.671875 0)"/>
      <use xlink:href="#DejaVuSans-Bold-72" transform="translate(307.373047 0)"/>
      <use xlink:href="#DejaVuSans-Bold-61" transform="translate(356.689453 0)"/>
      <use xlink:href="#DejaVuSans-Bold-74" transform="translate(424.169922 0)"/>
      <use xlink:href="#DejaVuSans-Bold-69" transform="translate(471.972656 0)"/>
      <use xlink:href="#DejaVuSans-Bold-6f" transform="translate(506.25 0)"/>
      <use xlink:href="#DejaVuSans-Bold-6e" transform="translate(574.951172 0)"/>
      <use xlink:href="#DejaVuSans-Bold-20" transform="translate(646.142578 0)"/>
      <use xlink:href="#DejaVuSans-Bold-52" transform="translate(680.957031 0)"/>
      <use xlink:href="#DejaVuSans-Bold-61" transform="translate(757.958984 0)"/>
      <use xlink:href="#DejaVuSans-Bold-74" transform="translate(825.439453 0)"/>
      <use xlink:href="#DejaVuSans-Bold-65" transform="translate(873.242188 0)"/>
      <use xlink:href="#DejaVuSans-Bold-20" transform="translate(941.064453 0)"/>
      <use xlink:href="#DejaVuSans-Bold-28" transform="translate(975.878906 0)"/>
      <use xlink:href="#DejaVuSans-Bold-45" transform="translate(1021.582031 0)"/>
      <use xlink:href="#DejaVuSans-Bold-70" transform="translate(1089.892578 0)"/>
      <use xlink:href="#DejaVuSans-Bold-73" transform="translate(1161.474609 0)"/>
      <use xlink:href="#DejaVuSans-Bold-69" transform="translate(1220.996094 0)"/>
      <use xlink:href="#DejaVuSans-Bold-6c" transform="translate(1255.273438 0)"/>
      <use xlink:href="#DejaVuSans-Bold-6f" transform="translate(1289.550781 0)"/>
      <use xlink:href="#DejaVuSans-Bold-6e" transform="translate(1358.251953 0)"/>
      <use xlink:href="#DejaVuSans-Bold-29" transform="translate(1429.443359 0)"/>
     </g>
    </g>
   </g>
   <g id="line2d_55">
    <path d="M 92.219432 61.209042 
L 99.009974 74.670887 
L 105.800515 87.60488 
L 112.591057 100.031719 
L 119.381599 111.971289 
L 126.172141 123.442698 
L 132.962683 134.464303 
L 139.753224 145.053739 
L 146.543766 155.227954 
L 153.334308 165.003228 
L 160.12485 174.395205 
L 166.915391 183.418913 
L 173.705933 192.088793 
L 180.496475 200.418719 
L 187.287017 208.422021 
L 194.077559 216.111505 
L 200.8681 223.499478 
L 207.658642 230.597761 
L 214.449184 237.417714 
L 221.239726 243.97025 
L 228.030267 250.265855 
L 234.820809 256.314604 
L 241.611351 262.126175 
L 248.401893 267.709869 
L 255.192435 273.074621 
L 261.982976 278.229016 
L 268.773518 283.181302 
L 275.56406 287.939405 
L 282.354602 292.510938 
L 289.145143 296.903216 
L 295.935685 301.12327 
L 302.726227 305.177851 
L 309.516769 309.073448 
L 316.307311 312.816295 
L 323.097852 316.412381 
L 329.888394 319.867462 
L 336.678936 323.187065 
L 343.469478 326.376504 
L 350.26002 329.440882 
L 357.050561 332.385103 
L 363.841103 335.213878 
L 370.631645 337.931734 
L 377.422187 340.54302 
L 384.212728 343.051915 
L 391.00327 345.462435 
L 397.793812 347.778435 
L 404.584354 350.003623 
L 411.374896 352.141559 
L 418.165437 354.195665 
L 424.955979 356.169227 
L 431.746521 358.065404 
L 438.537063 359.88723 
L 445.327604 361.637621 
L 452.118146 363.319377 
L 458.908688 364.93519 
L 465.69923 366.487645 
L 472.489772 367.979227 
L 479.280313 369.412323 
L 486.070855 370.789226 
L 492.861397 372.112139 
L 499.651939 373.383179 
L 506.44248 374.604381 
L 513.233022 375.777698 
L 520.023564 376.905008 
L 526.814106 377.988116 
L 533.604648 379.028754 
L 540.395189 380.028587 
L 547.185731 380.989216 
L 553.976273 381.912178 
L 560.766815 382.798949 
L 567.557357 383.65095 
L 574.347898 384.469543 
L 581.13844 385.256037 
L 587.928982 386.011693 
L 594.719524 386.737719 
L 601.510065 387.36166 
L 608.300607 387.36166 
L 615.091149 387.36166 
L 621.881691 387.36166 
L 628.672233 387.36166 
L 635.462774 387.36166 
L 642.253316 387.36166 
L 649.043858 387.36166 
L 655.8344 387.36166 
L 662.624941 387.36166 
L 669.415483 387.36166 
L 676.206025 387.36166 
L 682.996567 387.36166 
L 689.787109 387.36166 
L 696.57765 387.36166 
L 703.368192 387.36166 
L 710.158734 387.36166 
L 716.949276 387.36166 
L 723.739817 387.36166 
L 730.530359 387.36166 
L 737.320901 387.36166 
L 744.111443 387.36166 
L 750.901985 387.36166 
L 757.692526 387.36166 
L 764.483068 387.36166 
" clip-path="url(#p216361e062)" style="fill: none; stroke: #666666; stroke-opacity: 0.6; stroke-width: 1.5; stroke-linecap: square"/>
   </g>
   <g id="patch_8">
    <path d="M 58.60625 404.527587 
L 58.60625 26.877187 
" style="fill: none; stroke: #000000; stroke-width: 1.5; stroke-linejoin: miter; stroke-linecap: square"/>
   </g>
   <g id="patch_9">
    <path d="M 798.09625 404.527587 
L 798.09625 26.877187 
" style="fill: none; stroke: #000000; stroke-width: 1.5; stroke-linejoin: miter; stroke-linecap: square"/>
   </g>
   <g id="patch_10">
    <path d="M 58.60625 404.527587 
L 798.09625 404.527587 
" style="fill: none; stroke: #000000; stroke-width: 1.5; stroke-linejoin: miter; stroke-linecap: square"/>
   </g>
   <g id="patch_11">
    <path d="M 58.60625 26.877187 
L 798.09625 26.877187 
" style="fill: none; stroke: #000000; stroke-width: 1.5; stroke-linejoin: miter; stroke-linecap: square"/>
   </g>
  </g>
 </g>
 <defs>
  <clipPath id="p216361e062">
   <rect x="58.60625" y="26.877187" width="739.49" height="377.6504"/>
  </clipPath>
 </defs>
</svg>
